<?xml version="1.0" encoding="UTF-8"?>
<svg id="Layer_2" data-name="Layer 2" xmlns="http://www.w3.org/2000/svg" viewBox="0 0 60.9 26.39">
  <defs>
    <style>
      .cls-1 {
        fill: #a2d5e2;
      }

      .cls-1, .cls-2, .cls-3 {
        stroke: #133c46;
        stroke-miterlimit: 10;
      }

      .cls-1, .cls-3 {
        stroke-width: .25px;
      }

      .cls-2 {
        fill: #35abc7;
      }

      .cls-4 {
        fill: #fff;
        stroke-width: 0px;
      }

      .cls-3 {
        fill: #71888e;
      }
    </style>
  </defs>
  <g id="Layer_1-2" data-name="Layer 1">
    <g>
      <rect class="cls-2" x=".5" y=".5" width="59.9" height="25.39" rx="5.67" ry="5.67"/>
      <g>
        <rect class="cls-1" x="8.12" y="15.57" width="5.5" height="10.05" rx="2.75" ry="2.75" transform="translate(31.47 9.72) rotate(90)"/>
        <circle class="cls-3" cx="8.4" cy="20.6" r="2.77"/>
        <rect class="cls-3" x="6.32" y="3.02" width="8.89" height="13.6" rx="4.45" ry="4.45"/>
        <path class="cls-4" d="m10.39,14.29v-4.18c-.48.47-.95.93-1.41,1.38-.16-.16-.32-.31-.49-.47.6-.58,1.18-1.16,1.78-1.74-.59-.6-1.18-1.19-1.77-1.78.16-.16.31-.32.47-.48.47.47.95.93,1.42,1.4v-3.95s0,0,.01,0c.88,1.01,1.75,2.03,2.64,3.05-.6.59-1.2,1.18-1.81,1.77.6.6,1.2,1.21,1.8,1.81-.88,1.06-1.75,2.12-2.64,3.19Zm.67-1.88s0,0,.01.01c0,0,0-.02,0-.02.34-.41.67-.82,1.01-1.22.03-.03.01-.05,0-.07-.33-.33-.66-.66-.99-1,0,0-.02-.02-.03-.03v2.32Zm0-6.14v2.24c.35-.35.7-.69,1.05-1.03-.35-.4-.69-.8-1.05-1.21Z"/>
      </g>
      <g>
        <path class="cls-4" d="m24.44,15.57v.64c0,1.14-.54,1.71-1.61,1.71h-.87c-1.07,0-1.61-.57-1.61-1.71v-6.64c0-1.14.54-1.71,1.61-1.71h.87c1.07,0,1.61.57,1.61,1.71v1.13h-1.34v-1.04c0-.39-.2-.59-.6-.59h-.27c-.35,0-.53.2-.53.59v6.44c0,.39.18.59.53.59h.34c.35,0,.53-.2.53-.59v-.55h1.34Z"/>
        <path class="cls-4" d="m27.04,17.93c-1.08,0-1.62-.57-1.62-1.71v-6.62c0-1.15.54-1.72,1.61-1.72h1.29c1.07,0,1.61.57,1.61,1.72v6.62c0,1.14-.54,1.71-1.62,1.71h-1.26Zm.32-1.22h.69c.35,0,.53-.2.53-.59v-6.44c0-.39-.2-.59-.6-.59h-.63c-.39,0-.59.2-.59.59v6.44c0,.39.2.59.6.59Z"/>
        <path class="cls-4" d="m33.9,12.73v-4.86h1.34v10.05h-1.34v-2l-1.44-4.58v6.58h-1.34V7.87h1.34l1.44,4.86Z"/>
        <path class="cls-4" d="m39.29,12.73v-4.86h1.34v10.05h-1.34v-2l-1.44-4.58v6.58h-1.34V7.87h1.34l1.44,4.86Z"/>
        <path class="cls-4" d="m41.9,17.93V7.87h3.33v1.22h-1.99v3.05h1.76v1.22h-1.76v3.35h1.99v1.22h-3.33Z"/>
        <path class="cls-4" d="m50.21,15.57v.64c0,1.14-.54,1.71-1.61,1.71h-.87c-1.07,0-1.61-.57-1.61-1.71v-6.64c0-1.14.54-1.71,1.61-1.71h.87c1.07,0,1.61.57,1.61,1.71v1.13h-1.34v-1.04c0-.39-.2-.59-.6-.59h-.27c-.35,0-.53.2-.53.59v6.44c0,.39.18.59.53.59h.34c.35,0,.53-.2.53-.59v-.55h1.34Z"/>
        <path class="cls-4" d="m53.41,9.09v8.83h-1.34v-8.83h-1.29v-1.22h3.92v1.22h-1.29Z"/>
      </g>
    </g>
  </g>
</svg>