<svg xmlns="http://www.w3.org/2000/svg" xmlns:xlink="http://www.w3.org/1999/xlink" version="1.1" width="24" height="24" viewBox="0 0 256 256" xml:space="preserve">

<defs>
</defs>
<g   style="stroke: none; stroke-width: 0; stroke-dasharray: none; stroke-linecap: butt; stroke-linejoin: miter; stroke-miterlimit: 10; fill: none; fill-rule: nonzero; opacity: 1;" transform="translate(1.4065934065934016 1.4065934065934016) scale(2.81 2.81)" >
	<path d="M 24.458 80.877 C 15.446 77.504 8.435 70.769 4.717 61.912 S 1.101 43.334 5.004 34.538 C 5.228 34.034 5 33.443 4.496 33.219 c -0.503 -0.223 -1.095 0.003 -1.319 0.508 c -4.128 9.305 -4.236 19.589 -0.303 28.958 c 3.933 9.37 11.35 16.495 20.883 20.064 c 0.116 0.043 0.234 0.063 0.35 0.063 c 0.405 0 0.786 -0.248 0.936 -0.649 C 25.237 81.646 24.974 81.07 24.458 80.877 z" style="stroke: #fff; stroke-width: 3; stroke-dasharray: none; stroke-linecap: butt; stroke-linejoin: miter; stroke-miterlimit: 10; fill: rgb(255,255, 255); fill-rule: nonzero; opacity: 1;" transform=" matrix(1 0 0 1 0 0) " stroke-linecap="round" />
	<path d="M 27.975 71.477 c -6.407 -2.399 -11.385 -7.174 -14.019 -13.444 c -0.972 -2.315 -1.579 -4.744 -1.806 -7.219 c -0.05 -0.55 -0.528 -0.954 -1.086 -0.905 c -0.55 0.051 -0.955 0.537 -0.904 1.086 c 0.245 2.679 0.902 5.307 1.953 7.811 c 2.848 6.784 8.232 11.949 15.161 14.543 c 0.115 0.043 0.234 0.063 0.35 0.063 c 0.405 0 0.786 -0.248 0.936 -0.649 C 28.754 72.246 28.492 71.67 27.975 71.477 z" style="stroke: #fff; stroke-width: 3; stroke-dasharray: none; stroke-linecap: butt; stroke-linejoin: miter; stroke-miterlimit: 10; fill: rgb(255,255, 255); fill-rule: nonzero; opacity: 1;" transform=" matrix(1 0 0 1 0 0) " stroke-linecap="round" />
	<path d="M 31.324 62.526 c -2.061 -0.771 -3.956 -2.003 -5.478 -3.562 c -0.385 -0.395 -1.019 -0.402 -1.413 -0.018 c -0.395 0.387 -0.402 1.019 -0.017 1.413 c 1.727 1.769 3.873 3.165 6.208 4.038 c 0.116 0.043 0.234 0.063 0.35 0.063 c 0.405 0 0.786 -0.248 0.936 -0.649 C 32.104 63.295 31.841 62.719 31.324 62.526 z" style="stroke: #fff; stroke-width: 3; stroke-dasharray: none; stroke-linecap: butt; stroke-linejoin: miter; stroke-miterlimit: 10; fill: rgb(255,255, 255); fill-rule: nonzero; opacity: 1;" transform=" matrix(1 0 0 1 0 0) " stroke-linecap="round" />
	<path d="M 87.126 27.314 C 83.194 17.945 75.777 10.82 66.243 7.251 c -0.516 -0.195 -1.092 0.069 -1.287 0.586 c -0.193 0.517 0.068 1.093 0.586 1.287 c 9.012 3.374 16.023 10.11 19.741 18.965 c 3.717 8.856 3.616 18.577 -0.287 27.374 c -0.224 0.505 0.004 1.095 0.509 1.319 c 0.132 0.059 0.269 0.086 0.404 0.086 c 0.384 0 0.75 -0.222 0.915 -0.594 C 90.952 46.968 91.059 36.683 87.126 27.314 z" style="stroke: #fff; stroke-width: 3; stroke-dasharray: none; stroke-linecap: butt; stroke-linejoin: miter; stroke-miterlimit: 10; fill: rgb(255,255, 255); fill-rule: nonzero; opacity: 1;" transform=" matrix(1 0 0 1 0 0) " stroke-linecap="round" />
	<path d="M 62.725 16.651 c -0.516 -0.195 -1.093 0.069 -1.287 0.586 c -0.193 0.517 0.068 1.093 0.586 1.287 c 6.407 2.399 11.386 7.173 14.019 13.445 c 2.633 6.271 2.554 13.168 -0.221 19.422 c -0.224 0.505 0.004 1.095 0.509 1.319 c 0.132 0.059 0.269 0.086 0.404 0.086 c 0.384 0 0.75 -0.222 0.915 -0.594 c 3.001 -6.762 3.085 -14.223 0.236 -21.007 C 75.038 24.409 69.654 19.245 62.725 16.651 z" style="stroke: #fff; stroke-width: 3; stroke-dasharray: none; stroke-linecap: butt; stroke-linejoin: miter; stroke-miterlimit: 10; fill: rgb(255,255, 255); fill-rule: nonzero; opacity: 1;" transform=" matrix(1 0 0 1 0 0) " stroke-linecap="round" />
	<path d="M 60.856 26.236 c -0.497 -0.242 -1.094 -0.034 -1.335 0.462 c -0.241 0.497 -0.034 1.095 0.463 1.336 c 3.267 1.587 5.838 4.298 7.24 7.636 c 1.41 3.357 1.538 7.111 0.361 10.572 c -0.178 0.523 0.102 1.091 0.625 1.269 c 0.107 0.036 0.216 0.053 0.322 0.053 c 0.417 0 0.805 -0.262 0.947 -0.677 c 1.333 -3.924 1.187 -8.183 -0.412 -11.991 C 67.476 31.11 64.56 28.035 60.856 26.236 z" style="stroke: #fff; stroke-width: 3; stroke-dasharray: none; stroke-linecap: butt; stroke-linejoin: miter; stroke-miterlimit: 10; fill: rgb(255,255, 255); fill-rule: nonzero; opacity: 1;" transform=" matrix(1 0 0 1 0 0) " stroke-linecap="round" />
	<path d="M 64.286 49.872 c -0.068 -0.365 -0.333 -0.662 -0.687 -0.771 c -0.354 -0.109 -0.74 -0.015 -1.002 0.248 l -2.989 2.989 l -6.7 -6.7 c 0.012 -0.176 0.027 -0.351 0.027 -0.53 c 0 -2.215 -0.964 -4.203 -2.488 -5.585 V 25.462 h 4.226 c 0.371 0 0.712 -0.205 0.884 -0.533 c 0.173 -0.328 0.15 -0.725 -0.06 -1.031 l -9.289 -13.566 c -0.371 -0.545 -1.276 -0.545 -1.649 0 l -9.288 13.566 c -0.209 0.306 -0.232 0.703 -0.06 1.031 c 0.173 0.328 0.513 0.533 0.884 0.533 h 4.226 v 14.059 c -0.238 0.216 -0.465 0.444 -0.674 0.689 H 27.269 v -4.227 c 0 -0.371 -0.205 -0.711 -0.533 -0.884 c -0.328 -0.173 -0.726 -0.15 -1.031 0.06 l -13.566 9.289 c -0.272 0.186 -0.435 0.495 -0.435 0.825 c 0 0.33 0.163 0.638 0.435 0.825 l 13.566 9.289 c 0.169 0.116 0.367 0.175 0.565 0.175 c 0.16 0 0.32 -0.038 0.466 -0.115 c 0.328 -0.173 0.533 -0.513 0.533 -0.884 v -4.227 h 12.68 c 1.375 1.429 3.301 2.323 5.436 2.323 c 0.073 0 0.144 -0.009 0.216 -0.011 l 6.85 6.849 l -2.989 2.989 c -0.263 0.263 -0.358 0.648 -0.248 1.002 c 0.109 0.354 0.406 0.619 0.771 0.687 l 16.161 3.025 c 0.061 0.011 0.122 0.017 0.184 0.017 c 0.263 0 0.517 -0.103 0.707 -0.293 c 0.233 -0.233 0.337 -0.566 0.276 -0.89 L 64.286 49.872 z M 42.321 38.205 V 24.462 c 0 -0.552 -0.448 -1 -1 -1 h -3.33 l 7.393 -10.797 l 7.393 10.797 h -3.33 c -0.552 0 -1 0.448 -1 1 v 13.742 c -0.025 -0.011 -0.052 -0.019 -0.077 -0.03 c -0.104 -0.045 -0.212 -0.082 -0.319 -0.123 c -0.132 -0.05 -0.263 -0.103 -0.397 -0.146 c -0.097 -0.031 -0.197 -0.052 -0.295 -0.079 c -0.147 -0.04 -0.292 -0.083 -0.441 -0.114 c -0.114 -0.024 -0.232 -0.036 -0.348 -0.055 c -0.135 -0.021 -0.27 -0.048 -0.407 -0.062 c -0.256 -0.026 -0.516 -0.04 -0.779 -0.04 c -0.263 0 -0.523 0.014 -0.779 0.04 c -0.141 0.014 -0.279 0.042 -0.419 0.064 c -0.112 0.018 -0.226 0.03 -0.336 0.053 c -0.151 0.031 -0.299 0.075 -0.447 0.115 c -0.096 0.026 -0.194 0.048 -0.289 0.077 c -0.135 0.043 -0.265 0.096 -0.397 0.146 c -0.107 0.041 -0.215 0.078 -0.32 0.123 C 42.372 38.186 42.346 38.194 42.321 38.205 z M 38.562 48.335 H 26.269 c -0.552 0 -1 0.447 -1 1 v 3.331 l -10.797 -7.393 l 10.797 -7.393 v 3.331 c 0 0.552 0.448 1 1 1 h 12.145 c -0.093 0.223 -0.176 0.451 -0.248 0.684 c -0.029 0.093 -0.048 0.188 -0.073 0.282 c -0.038 0.143 -0.08 0.285 -0.109 0.431 c -0.03 0.15 -0.048 0.303 -0.07 0.455 c -0.013 0.095 -0.033 0.189 -0.043 0.285 c -0.025 0.251 -0.038 0.505 -0.038 0.761 c 0 0.275 0.017 0.546 0.046 0.813 c 0.006 0.058 0.019 0.114 0.026 0.172 c 0.028 0.212 0.061 0.423 0.106 0.63 c 0.014 0.064 0.033 0.126 0.049 0.19 c 0.049 0.198 0.103 0.394 0.167 0.585 c 0.023 0.069 0.05 0.137 0.075 0.205 c 0.066 0.181 0.138 0.358 0.217 0.532 C 38.535 48.267 38.546 48.302 38.562 48.335 z M 41.139 48.677 c -0.195 -0.232 -0.367 -0.48 -0.521 -0.738 c -0.016 -0.028 -0.034 -0.054 -0.05 -0.082 c -0.146 -0.255 -0.27 -0.521 -0.373 -0.795 c -0.013 -0.034 -0.025 -0.067 -0.037 -0.101 c -0.098 -0.275 -0.175 -0.558 -0.229 -0.846 c -0.007 -0.035 -0.01 -0.071 -0.016 -0.106 c -0.049 -0.297 -0.08 -0.598 -0.08 -0.902 c 0 -0.268 0.026 -0.532 0.063 -0.793 c 0.008 -0.054 0.015 -0.108 0.025 -0.162 c 0.045 -0.259 0.105 -0.515 0.187 -0.764 c 0.006 -0.018 0.013 -0.034 0.019 -0.052 c 0.09 -0.264 0.198 -0.523 0.328 -0.773 c 0 -0.001 0.001 -0.002 0.001 -0.003 c 0.135 -0.258 0.292 -0.508 0.469 -0.747 c 0.298 -0.403 0.648 -0.764 1.042 -1.073 c 1.975 -1.548 4.857 -1.548 6.834 0 c 1.297 1.017 2.134 2.594 2.134 4.366 c 0 0.259 -0.024 0.511 -0.058 0.761 c 0 0.001 -0.001 0.003 -0.001 0.004 c -0.085 0.616 -0.273 1.195 -0.537 1.726 c -0.016 0.033 -0.031 0.067 -0.048 0.099 c -0.117 0.223 -0.253 0.433 -0.397 0.636 c -0.051 0.071 -0.102 0.14 -0.156 0.208 c -0.14 0.178 -0.289 0.348 -0.449 0.507 c -0.07 0.069 -0.144 0.133 -0.218 0.198 c -0.133 0.118 -0.27 0.23 -0.414 0.335 c -0.084 0.062 -0.169 0.123 -0.257 0.18 c -0.182 0.118 -0.372 0.225 -0.568 0.321 c -0.065 0.032 -0.13 0.065 -0.196 0.095 c -0.239 0.105 -0.486 0.196 -0.742 0.268 c -0.041 0.012 -0.082 0.021 -0.123 0.032 c -0.282 0.072 -0.571 0.128 -0.869 0.155 c -0.002 0 -0.004 0.001 -0.006 0.001 c -0.169 0.016 -0.339 0.026 -0.512 0.026 C 43.682 50.659 42.158 49.887 41.139 48.677 z M 52.214 62.557 l 2.355 -2.355 c 0.187 -0.187 0.293 -0.441 0.293 -0.707 s -0.105 -0.519 -0.293 -0.707 L 47.98 52.2 c 0.07 -0.025 0.135 -0.059 0.204 -0.086 c 0.091 -0.037 0.181 -0.075 0.271 -0.115 c 0.158 -0.07 0.314 -0.144 0.466 -0.225 c 0.048 -0.026 0.094 -0.052 0.142 -0.079 c 0.182 -0.102 0.361 -0.209 0.533 -0.324 c 0.007 -0.005 0.014 -0.01 0.022 -0.015 c 1.092 -0.738 1.974 -1.755 2.553 -2.96 c 0.068 -0.14 0.137 -0.279 0.196 -0.424 c 0.005 -0.012 0.011 -0.022 0.016 -0.034 l 6.519 6.519 c 0.375 0.375 1.039 0.375 1.413 0 l 2.355 -2.355 l 2.407 12.862 L 52.214 62.557 z" style="stroke: #fff; stroke-width: 3; stroke-dasharray: none; stroke-linecap: butt; stroke-linejoin: miter; stroke-miterlimit: 10; fill: rgb(255,255, 255); fill-rule: nonzero; opacity: 1;" transform=" matrix(1 0 0 1 0 0) " stroke-linecap="round" />
</g>
</svg>