<svg class="svg-icon" style="width: 1em; height: 1em;vertical-align: middle;fill: purple;overflow: hidden;" viewBox="0 0 1024 1024" version="1.1" xmlns="http://www.w3.org/2000/svg"><path d="M896 128H128C73.6 128 32 169.6 32 224v576c0 54.4 41.6 96 96 96h768c54.4 0 96-41.6 96-96V224c0-54.4-41.6-96-96-96z m22.4 124.8s-329.6 188.8-393.6 220.8c-6.4 3.2-16 3.2-22.4 0-64-32-393.6-220.8-393.6-220.8-12.8-9.6-16-32-6.4-44.8 9.6-12.8 32-16 44.8-6.4l358.4 195.2c6.4 3.2 12.8 3.2 19.2 0l358.4-195.2c12.8-9.6 32-6.4 41.6 6.4 12.8 12.8 9.6 35.2-6.4 44.8z"  /></svg>