<?xml version="1.0" encoding="UTF-8" standalone="no"?>
<svg
   id="Layer_1"
   viewBox="-5 0 75 50"
   height="44"
   width="40"
   version="1.1"
   xmlns="http://www.w3.org/2000/svg"
   xmlns:svg="http://www.w3.org/2000/svg">
  <defs
     id="defs16" />
  <path
     d="m 71.332881,24.319152 c 0.05,-0.93 -0.26,-1.82 -0.89,-2.51 -0.44,-0.48 -0.99,-0.82 -1.58,-1 l 0.08,-1.1 v -0.16 c 0,-3.62 -2.8,-6.63 -6.38,-6.9 l 2.98,-5.1699996 -5.16,-0.89 -18.12,-3.2 -1.09,6.27 8.1,1.4299996 c -1.04,0.08 -2.07,0.27 -3.08,0.56 -1.43,-0.07 -2.68,-0.13 -3.61,-0.16 -1.19,-0.03 -3.01,-0.05 -4.98,-0.05 -1.97,0 -3.79,0.02 -4.99,0.05 -0.93,0.03 -2.21,0.09 -3.69,0.16 -1.01,-0.29 -2.04,-0.48 -3.08,-0.56 l 8.09,-1.4299996 -1.09,-6.27 -18.11,3.2 -5.16,0.89 2.96,5.1699996 c -3.59,0.29 -6.38,3.29 -6.38,6.9 v 0.06 l 0.06,1.12 c -1.64,0.35 -2.85,1.84 -2.75,3.58 l 0.73,12.66 c 0.04,0.55 0.22,1.06 0.48,1.51 -0.12,0.39 -0.18,0.79 -0.16,1.21 l 0.6,10.33 c 0.1,1.84 1.62,3.29 3.47,3.29 h 0.22 c 0.22,-0.02 0.43,-0.06 0.63,-0.11 1.22,1.42 3.02,2.32 5.02,2.32 h 45.79 c 2,0 3.82,-0.91 5.04,-2.35 0.24,0.07 0.49,0.12 0.75,0.14 h 0.19 c 1.84,0 3.37,-1.44 3.47,-3.27 l 0.6,-10.34 c 0.02,-0.41 -0.04,-0.82 -0.16,-1.21 0.27,-0.46 0.44,-0.97 0.48,-1.54 l 0.74,-12.64 z"
     style="fill:#2c8b9b"
     id="path1" />
  <path
     d="m 60.232881,53.339152 h -45.79 c -2.34,0 -4.27,-1.82 -4.4,-4.16 l -1.7,-29.61 c 0,-2.51 1.95,-4.58 4.46,-4.72 0,0 14.89,-1 19.87,-1.14 2.46,-0.07 7.39,-0.07 9.85,0 4.95,0.14 19.79,1.14 19.79,1.14 2.5,0.14 4.45,2.21 4.45,4.71 l -2.12,29.69 c -0.16,2.31 -2.09,4.1 -4.4,4.1 z"
     style="fill:#5ecbf5"
     id="path2" />
  <path
     d="m 60.232881,53.839152 h -45.79 c -2.6,0 -4.75,-2.03 -4.9,-4.63 l -1.7,-29.61 c 0,-2.8 2.16,-5.09 4.93,-5.25 0.14,0 14.96,-1 19.88,-1.14 2.49,-0.07 7.39,-0.07 9.88,0 4.91,0.14 19.66,1.13 19.81,1.14 2.75,0.16 4.92,2.45 4.92,5.21 l -2.12,29.72 c -0.18,2.56 -2.33,4.56 -4.9,4.56 z m -22.67,-39.69 c -1.84,0 -3.67,0.02 -4.88,0.05 -4.91,0.14 -19.7,1.13 -19.85,1.14 -2.24,0.13 -3.99,1.98 -3.99,4.22 l 1.7,29.58 c 0.12,2.07 1.83,3.69 3.91,3.69 h 45.79 c 2.04,0 3.76,-1.6 3.9,-3.63 l 2.12,-29.69 c 0,-2.2 -1.75,-4.05 -3.99,-4.18 -0.15,-0.01 -14.88,-1 -19.77,-1.14 -1.22,-0.04 -3.08,-0.05 -4.94,-0.05 z"
     style="fill:#35342c"
     id="path3" />
  <path
     id="path1176-5"
     d="m 37.222881,39.079152 3.71,2.14 v 4.06 l -3.66,2.11 -3.6,-2.08 v -4.23 z"
     style="fill:#ffffff" />
  <path
     d="m 37.272881,47.969152 -4.1,-2.37 v -4.82 l 4.06,-2.28 4.2,2.42 v 4.63 l -4.16,2.4 z m -3.1,-2.95 3.1,1.79 3.16,-1.82 v -3.48 l -3.21,-1.85 -3.05,1.71 z"
     style="fill:#35342c"
     id="path4" />
  <path
     d="m 24.692881,13.259152 c -2.21,0 -4.29,0.56 -6.11,1.54 l -3.49,-6.0399996 -2.08,0.37 3.9,6.7599996 c -3.08,2.35 -5.08,6.05 -5.08,10.22 0,7.1 5.75,12.85 12.85,12.85 7.1,0 12.85,-5.75 12.85,-12.85 0,-7.1 -5.75,-12.85 -12.85,-12.85 z"
     style="fill:#ffffff"
     id="path5" />
  <path
     d="m 24.692881,39.459152 c -7.36,0 -13.35,-5.99 -13.35,-13.35 0,-4.05 1.79,-7.79 4.93,-10.34 l -4.04,-7.0099996 3.12,-0.55 3.42,5.9299996 c 1.83,-0.9 3.87,-1.38 5.92,-1.38 7.36,0 13.35,5.99 13.35,13.35 0,7.36 -5.99,13.35 -13.35,13.35 z m -10.89,-29.9599996 3.77,6.5299996 -0.35,0.27 c -3.1,2.36 -4.88,5.94 -4.88,9.82 0,6.81 5.54,12.35 12.35,12.35 6.81,0 12.35,-5.54 12.35,-12.35 0,-6.81 -5.54,-12.35 -12.35,-12.35 -2.05,0 -4.08,0.51 -5.87,1.48 l -0.43,0.23 -3.56,-6.1599996 z"
     style="fill:#35342c"
     id="path6" />
  <polygon
     points="19.2,24 18.14,22.18 36.17,19 36.51,20.95 "
     id="polygon6"
     transform="translate(-5.1271186,-13.050848)" />
  <path
     d="m 13.812881,11.509152 -1.59,-2.7499996 19.22,-3.39 0.52,2.94 z m -0.01,-2.0099996 0.52,0.8999996 16.48,-2.9099996 -0.17,-0.97 -16.83,2.97 z"
     id="path7" />
  <path
     d="m 50.392881,13.259152 c 2.21,0 4.29,0.56 6.11,1.54 l 3.49,-6.0399996 2.08,0.37 -3.9,6.7599996 c 3.08,2.35 5.08,6.05 5.08,10.22 0,7.1 -5.75,12.85 -12.85,12.85 -7.1,0 -12.85,-5.75 -12.85,-12.85 0,-7.1 5.75,-12.85 12.85,-12.85 z"
     style="fill:#ffffff"
     id="path8" />
  <path
     d="m 50.392881,39.459152 c -7.36,0 -13.35,-5.99 -13.35,-13.35 0,-7.36 5.99,-13.35 13.35,-13.35 2.05,0 4.09,0.48 5.92,1.38 l 3.42,-5.9299996 3.12,0.55 -4.04,7.0099996 c 3.14,2.55 4.93,6.3 4.93,10.34 0,7.36 -5.99,13.35 -13.35,13.35 z m 0,-25.7 c -6.81,0 -12.35,5.54 -12.35,12.35 0,6.81 5.54,12.35 12.35,12.35 6.81,0 12.35,-5.54 12.35,-12.35 0,-3.88 -1.78,-7.46 -4.88,-9.82 l -0.35,-0.27 3.77,-6.5299996 -1.03,-0.18 -3.56,6.1599996 -0.43,-0.23 c -1.79,-0.97 -3.82,-1.48 -5.87,-1.48 z"
     style="fill:#35342c"
     id="path9" />
  <polygon
     points="66.14,24 67.19,22.18 49.17,19 48.83,20.95 "
     id="polygon9"
     transform="translate(-5.1271186,-13.050848)" />
  <path
     d="m 61.272881,11.509152 -18.15,-3.1999996 0.52,-2.94 19.22,3.39 z m -16.99,-4.0199996 16.48,2.9099996 0.52,-0.8999996 -16.83,-2.97 -0.17,0.97 z"
     id="path10" />
  <g
     id="g1174"
     transform="translate(-5.1271186,-13.050848)">
    <path
       id="path1046-7-6-6"
       d="m 32.72,39.48 c 0,1.6 -1.3,2.9 -2.9,2.9 -1.6,0 -2.9,-1.3 -2.9,-2.9 v 0 c 0,-1.6 1.3,-2.9 2.9,-2.9 v 0 c 1.6,0 2.9,1.3 2.9,2.9 z"
       style="fill:#010101" />
    <path
       d="m 29.82,42.4 c -1.61,0 -2.92,-1.31 -2.92,-2.92 0,-1.61 1.31,-2.92 2.92,-2.92 1.61,0 2.92,1.31 2.92,2.92 0,1.61 -1.31,2.92 -2.92,2.92 z m 0,-5.8 c -1.59,0 -2.88,1.29 -2.88,2.88 0,1.59 1.29,2.88 2.88,2.88 1.59,0 2.88,-1.29 2.88,-2.88 0,-1.59 -1.29,-2.88 -2.88,-2.88 z"
       style="fill:#35342c"
       id="path11" />
  </g>
  <path
     id="path1046-7-5"
     d="m 53.342881,26.919152 c -0.27,1.58 -1.77,2.64 -3.35,2.37 -1.58,-0.27 -2.64,-1.77 -2.37,-3.35 0.27,-1.58 1.77,-2.64 3.35,-2.37 v 0 c 1.58,0.27 2.64,1.77 2.37,3.35 z"
     style="fill:#010101" />
  <path
     d="m 50.492881,29.349152 c -0.17,0 -0.33,-0.01 -0.5,-0.04 -1.59,-0.27 -2.66,-1.78 -2.39,-3.37 0.13,-0.77 0.55,-1.44 1.19,-1.89 0.64,-0.45 1.41,-0.63 2.18,-0.5 0.77,0.13 1.44,0.55 1.89,1.19 0.45,0.64 0.63,1.41 0.5,2.18 -0.13,0.77 -0.55,1.44 -1.19,1.89 -0.5,0.35 -1.08,0.54 -1.68,0.54 z m -0.01,-5.8 c -0.59,0 -1.17,0.18 -1.66,0.53 -0.63,0.44 -1.05,1.11 -1.17,1.87 -0.13,0.76 0.04,1.52 0.49,2.15 0.45,0.63 1.11,1.05 1.87,1.17 0.76,0.13 1.52,-0.04 2.15,-0.49 0.63,-0.44 1.05,-1.11 1.17,-1.87 0.13,-0.76 -0.04,-1.52 -0.49,-2.15 -0.45,-0.63 -1.11,-1.04 -1.87,-1.17 -0.16,-0.03 -0.33,-0.04 -0.49,-0.04 z"
     style="fill:#35342c"
     id="path12" />
  <rect
     x="4.2496405"
     y="23.202806"
     width="2.55"
     height="15.21"
     rx="1.28"
     ry="1.28"
     transform="rotate(-3.29)"
     style="fill:#ffd52a"
     id="rect12" />
  <path
     d="m 7.652881,38.539152 c -0.93,0 -1.72,-0.73 -1.77,-1.68 l -0.73,-12.63 c -0.03,-0.47 0.13,-0.93 0.45,-1.28 0.32,-0.35 0.75,-0.56 1.22,-0.59 0.47,-0.03 0.93,0.13 1.28,0.45 0.35,0.32 0.56,0.75 0.59,1.22 l 0.73,12.63 c 0.06,0.98 -0.69,1.82 -1.67,1.88 v 0 c 0,0 -0.07,0 -0.1,0 z m -0.73,-15.19 c 0,0 -0.03,0 -0.05,0 -0.21,0.01 -0.4,0.1 -0.54,0.26 -0.14,0.16 -0.21,0.35 -0.2,0.56 l 0.73,12.63 c 0.02,0.43 0.39,0.77 0.82,0.73 0.43,-0.03 0.76,-0.39 0.73,-0.82 l -0.73,-12.63 c -0.01,-0.21 -0.1,-0.4 -0.26,-0.54 -0.14,-0.13 -0.33,-0.2 -0.52,-0.2 z"
     style="fill:#35342c"
     id="path13" />
  <rect
     x="4.4158096"
     y="38.636173"
     width="2.55"
     height="12.91"
     rx="1.28"
     ry="1.28"
     transform="rotate(-3.29)"
     style="fill:#ffd52a"
     id="rect13" />
  <path
     d="m 8.572881,51.629152 c -0.93,0 -1.72,-0.73 -1.77,-1.68 l -0.59,-10.34 c -0.06,-0.98 0.69,-1.82 1.67,-1.88 0.97,-0.05 1.82,0.69 1.88,1.67 l 0.59,10.34 c 0.06,0.98 -0.69,1.82 -1.67,1.88 v 0 c 0,0 -0.07,0 -0.1,0 z m -0.6,-12.89 c 0,0 -0.03,0 -0.04,0 -0.43,0.03 -0.75,0.39 -0.73,0.82 l 0.59,10.34 c 0.02,0.43 0.41,0.75 0.82,0.73 0.43,-0.03 0.76,-0.39 0.73,-0.82 l -0.59,-10.34 c -0.02,-0.41 -0.37,-0.73 -0.78,-0.73 z"
     style="fill:#35342c"
     id="path14" />
  <rect
     x="-70.404907"
     y="-34.129272"
     width="2.55"
     height="15.21"
     rx="1.28"
     ry="1.28"
     transform="rotate(-176.71)"
     style="fill:#ffd52a"
     id="rect14" />
  <path
     d="m 67.132881,38.539152 c 0,0 -0.07,0 -0.1,0 v 0 c -0.98,-0.06 -1.73,-0.9 -1.67,-1.88 l 0.73,-12.63 c 0.06,-0.98 0.91,-1.73 1.88,-1.67 0.47,0.03 0.91,0.24 1.22,0.59 0.32,0.35 0.47,0.81 0.45,1.28 l -0.73,12.63 c -0.05,0.94 -0.84,1.68 -1.77,1.68 z m -0.04,-1 c 0.44,0.03 0.8,-0.3 0.82,-0.73 l 0.73,-12.63 c 0.01,-0.21 -0.06,-0.41 -0.2,-0.56 -0.14,-0.15 -0.33,-0.25 -0.54,-0.26 -0.43,-0.01 -0.8,0.3 -0.82,0.73 l -0.73,12.63 c -0.02,0.43 0.3,0.8 0.73,0.82 z"
     style="fill:#35342c"
     id="path15" />
  <rect
     x="-70.239372"
     y="-47.252583"
     width="2.55"
     height="12.91"
     rx="1.28"
     ry="1.28"
     transform="rotate(-176.71)"
     style="fill:#ffd52a"
     id="rect15" />
  <path
     d="m 66.212881,51.629152 c 0,0 -0.07,0 -0.1,0 v 0 c -0.98,-0.06 -1.73,-0.9 -1.67,-1.88 l 0.59,-10.34 c 0.06,-0.98 0.91,-1.73 1.88,-1.67 0.98,0.06 1.73,0.9 1.67,1.88 l -0.59,10.34 c -0.05,0.94 -0.84,1.68 -1.77,1.68 z m -0.04,-1 c 0.4,0.02 0.8,-0.3 0.82,-0.73 l 0.59,-10.34 c 0.02,-0.43 -0.3,-0.8 -0.73,-0.82 -0.41,-0.03 -0.8,0.3 -0.82,0.73 l -0.59,10.34 c -0.02,0.43 0.3,0.8 0.73,0.82 z"
     style="fill:#35342c"
     id="path16" />
</svg>
