<?xml version="1.0" encoding="UTF-8"?>
<svg id="Layer_2" data-name="Layer 2" xmlns="http://www.w3.org/2000/svg" viewBox="0 0 75.04 18.18">
  <defs>
    <style>
      .cls-1 {
        fill: #fff;
        stroke-width: 0px;
      }
    </style>
  </defs>
  <g id="Layer_1-2" data-name="Layer 1">
    <g>
      <g>
        <path class="cls-1" d="M9.78,9.85v-.07c0-.1-.02-.2-.03-.3v-.06c-.06-.34-.11-.59-.19-.84-.05-.17-.12-.35-.23-.52-.07-.11-.14-.21-.24-.31-.06-.05-.13-.12-.22-.17-.2-.12-.42-.18-.65-.19-.19,0-.39,0-.58,0h-.2s0-.64,0-.64c0-.06,0-.11,0-.17-.02-.23-.08-.42-.19-.6-.06-.1-.14-.21-.24-.3-.07-.06-.14-.13-.22-.18-.18-.12-.37-.2-.58-.26-.15-.04-.29-.05-.45-.07-.18-.02-.36-.04-.54-.04h-.6s-.1,0-.1,0c-.15,0-.3.02-.44.04-.26.03-.46.07-.65.12-.18.05-.32.1-.45.17-.13.07-.25.17-.34.28-.15.17-.2.36-.24.53-.03.13-.03.26-.03.37v.58s0,.17,0,.17h-.43c-.09,0-.17,0-.26.01-.25.03-.49.11-.71.24-.16.1-.31.23-.43.38-.09.12-.17.25-.24.41-.07.16-.11.32-.14.46-.01.05-.02.11-.04.16-.02.06-.02.12-.04.21C.02,9.49,0,9.68,0,9.86c0,.08,0,.17,0,.25,0,.09.01.19.03.28.02.16.05.31.08.46l.02.1c.04.17.08.36.17.55.06.13.13.26.23.38.1.13.21.23.34.31.23.15.48.23.77.23.11,0,.21,0,.32,0,.07,0,.15,0,.22,0h.16s0,.68,0,.68c0,.17.02.32.07.45.04.11.11.27.25.42.07.07.14.14.21.2.15.12.33.22.54.3.19.08.41.14.67.19.27.05.54.08.8.08.01,0,.02,0,.03,0,.05,0,.11,0,.16,0,.08,0,.15,0,.23-.02.16-.02.33-.05.48-.08.27-.06.48-.12.67-.2.14-.06.27-.13.4-.22.05-.04.1-.07.15-.12.14-.12.25-.28.33-.45.07-.15.1-.32.1-.51v-.53s0-.18,0-.18h.2c.21,0,.43,0,.64,0,.14,0,.28-.03.41-.09.18-.07.34-.19.49-.36.09-.11.16-.23.21-.33.07-.13.11-.25.16-.37l.04-.1c.05-.14.09-.28.12-.39.03-.11.04-.23.06-.34v-.06c.02-.07.02-.13.03-.2v-.06c0-.09,0-.18,0-.27ZM2.07,11.01c0,.1,0,.19,0,.29v.12s0,.28,0,.28c-.14,0-.28,0-.42,0-.14,0-.27-.04-.37-.11-.06-.04-.12-.09-.17-.16-.05-.06-.1-.15-.14-.24-.06-.11-.09-.25-.12-.39l-.03-.11c-.03-.12-.05-.25-.07-.38,0-.08-.02-.16-.02-.23,0-.07,0-.14,0-.21,0-.14.01-.3.04-.47v-.04s.02-.07.03-.11c.02-.06.03-.12.04-.18.03-.12.05-.23.09-.33.04-.1.09-.18.14-.25.07-.09.16-.16.25-.22.13-.08.27-.12.42-.14.06,0,.11,0,.17,0h2.94s.18,0,.18,0l.11-.11c.11-.11.11-.24.11-.3v-.19c0-.23-.16-.4-.4-.4h-1.79v-.48c0-.08,0-.16.02-.22.02-.11.05-.18.08-.22.04-.04.08-.08.14-.11.08-.04.17-.08.29-.11.15-.04.32-.07.55-.1.13-.02.26-.03.42-.03.03,0,.07,0,.12,0h.44c.17,0,.35.02.56.05.12.01.24.03.35.05.13.03.24.08.35.15.05.03.09.07.14.11.04.04.08.09.12.16.05.07.07.16.08.27,0,.04,0,.08,0,.14v1.91c0,.12-.02.23-.07.32-.04.07-.07.12-.11.16-.11.11-.23.18-.36.22-.06.02-.13.02-.2.02h-2.16c-.23,0-.45.04-.66.13-.16.07-.31.16-.44.27-.07.06-.13.13-.21.21-.1.11-.17.23-.23.34-.1.19-.16.41-.18.65ZM9.05,10.15s0,.08,0,.12v.06c-.02.09-.04.19-.06.28-.02.1-.05.2-.09.3l-.04.11c-.04.1-.07.2-.12.28-.04.08-.08.15-.13.21-.07.08-.13.13-.2.16-.06.02-.12.04-.17.04-.2,0-.41,0-.61,0h-.32c-.18,0-.37,0-.55,0h-1.83c-.24,0-.4.16-.4.4v.19c0,.23.16.4.4.4h1.78s0,.44,0,.44c0,.09-.01.16-.04.22-.03.08-.08.14-.15.21-.03.02-.05.05-.08.07-.08.06-.17.11-.27.15-.15.06-.31.11-.54.16-.13.03-.27.05-.4.07-.06,0-.13.01-.19.01-.04,0-.08,0-.12,0-.22,0-.46-.02-.69-.07-.22-.05-.4-.1-.55-.16-.14-.06-.26-.12-.36-.2-.05-.04-.09-.08-.13-.12-.04-.04-.07-.09-.1-.18-.02-.05-.03-.11-.03-.19v-1.96c0-.05,0-.11.01-.15.03-.13.07-.21.11-.27.03-.05.07-.1.12-.13.12-.1.25-.16.39-.18.04,0,.08,0,.13,0h2.12c.29,0,.56-.06.8-.19.16-.08.31-.19.44-.32.14-.14.26-.3.35-.47.04-.07.06-.15.1-.25.07-.2.08-.39.08-.54v-.53c.17,0,.33,0,.5,0,.11,0,.2.03.28.08.04.03.08.06.11.09.04.04.08.09.12.16.06.1.11.23.15.36.06.2.11.42.15.72v.06c.02.07.03.14.03.21v.08c0,.06,0,.13,0,.19v.08Z"/>
        <path class="cls-1" d="M20.13,9.09c-.09,0-.19-.04-.26-.11-.14-.14-.14-.37,0-.51l1.24-1.24-1.24-1.24c-.14-.14-.14-.37,0-.51s.37-.14.51,0l1.42,1.42c.09.09.14.2.14.33s-.05.24-.14.33l-1.42,1.42c-.07.07-.16.11-.26.11ZM21.3,7.41h0,0Z"/>
        <path class="cls-1" d="M16.75,9.09c-.09,0-.19-.04-.26-.11l-1.42-1.42c-.18-.18-.18-.48,0-.66l1.42-1.42c.14-.14.37-.14.51,0s.14.37,0,.51l-1.24,1.24,1.24,1.24c.14.14.14.37,0,.51-.07.07-.16.11-.26.11Z"/>
        <path class="cls-1" d="M17.94,8.46c-.06,0-.12-.02-.18-.05-.17-.1-.23-.32-.13-.49l1-1.73c.1-.17.32-.23.49-.13.17.1.23.32.13.49l-1,1.73c-.07.12-.19.18-.31.18Z"/>
        <path class="cls-1" d="M21.94,0H6.95c-1.34,0-2.42,1.09-2.42,2.42v1.96c0,.2.16.36.36.36s.36-.16.36-.36v-.67h18.39v12.04c0,.94-.76,1.7-1.7,1.7H6.95c-.91,0-1.65-.71-1.7-1.61,0-.2-.18-.36-.38-.34-.2,0-.35.18-.34.38.06,1.29,1.13,2.3,2.42,2.3h14.99c1.34,0,2.42-1.09,2.42-2.42V2.42c0-1.34-1.09-2.42-2.42-2.42ZM5.25,2.99v-.57c0-.94.76-1.7,1.7-1.7h14.99c.94,0,1.7.76,1.7,1.7v.57H5.25Z"/>
        <path class="cls-1" d="M21.95,11.05h-8.43c-.2,0-.36-.16-.36-.36s.16-.36.36-.36h8.43c.2,0,.36.16.36.36s-.16.36-.36.36Z"/>
        <path class="cls-1" d="M16.58,12.7h-1.28c-.2,0-.36-.16-.36-.36s.16-.36.36-.36h1.28c.2,0,.36.16.36.36s-.16.36-.36.36Z"/>
        <path class="cls-1" d="M21.95,12.71h-3.98c-.2,0-.36-.16-.36-.36s.16-.36.36-.36h3.98c.2,0,.36.16.36.36s-.16.36-.36.36Z"/>
        <path class="cls-1" d="M18.27,14.41h-2.97c-.2,0-.36-.16-.36-.36s.16-.36.36-.36h2.97c.2,0,.36.16.36.36s-.16.36-.36.36Z"/>
        <path class="cls-1" d="M17.97,16.04h-2.67c-.2,0-.36-.16-.36-.36s.16-.36.36-.36h2.67c.2,0,.36.16.36.36s-.16.36-.36.36Z"/>
        <path class="cls-1" d="M21.95,14.38h-2.42c-.2,0-.36-.16-.36-.36s.16-.36.36-.36h2.42c.2,0,.36.16.36.36s-.16.36-.36.36Z"/>
        <path class="cls-1" d="M21.95,16.04h-2.76c-.2,0-.36-.16-.36-.36s.16-.36.36-.36h2.76c.2,0,.36.16.36.36s-.16.36-.36.36Z"/>
        <circle class="cls-1" cx="22.3" cy="2.11" r=".29"/>
        <circle class="cls-1" cx="20.31" cy="2.11" r=".29"/>
        <circle class="cls-1" cx="21.3" cy="2.11" r=".29"/>
      </g>
      <g>
        <path class="cls-1" d="M32,6.47v-.88c0-.4-.2-.6-.59-.6h-.21c-.38,0-.57.2-.57.6v1.67c0,.19.04.31.11.38.08.07.2.15.36.25l1.27.69c.28.16.48.28.59.37.12.09.21.2.27.32.06.13.1.37.1.72v2.14c0,1.13-.54,1.69-1.62,1.69h-.83c-1.07,0-1.61-.62-1.61-1.85v-.5h1.34v.55c0,.39.2.59.6.59h.24c.35,0,.53-.2.53-.59v-1.71c0-.19-.04-.31-.11-.38-.08-.06-.2-.15-.36-.25l-1.27-.71c-.28-.15-.48-.28-.61-.38s-.22-.24-.27-.4c-.06-.16-.08-.38-.08-.64v-2.06c0-1.15.54-1.72,1.61-1.72h.84c1.07,0,1.61.57,1.61,1.72v.98h-1.34Z"/>
        <path class="cls-1" d="M37.46,13.82v-4.56h-1.65v4.56h-1.34V3.77h1.34v4.27h1.65V3.77h1.34v10.05h-1.34Z"/>
        <path class="cls-1" d="M41.62,13.82c-1.08,0-1.62-.57-1.62-1.71v-6.62c0-1.15.54-1.72,1.61-1.72h1.29c1.07,0,1.61.57,1.61,1.72v6.62c0,1.14-.54,1.71-1.62,1.71h-1.26ZM41.94,12.6h.69c.35,0,.53-.2.53-.59v-6.44c0-.39-.2-.59-.6-.59h-.63c-.39,0-.59.2-.59.59v6.44c0,.39.2.59.6.59Z"/>
        <path class="cls-1" d="M52.58,3.77l-1.48,10.05h-1.46l-.83-5.82-.81,5.82h-1.46l-1.48-10.05h1.33l.95,7.53.95-7.53h1.05l.95,7.53.95-7.53h1.33Z"/>
        <path class="cls-1" d="M59.61,11.47v.64c0,1.14-.54,1.71-1.61,1.71h-.87c-1.07,0-1.61-.57-1.61-1.71v-6.64c0-1.14.54-1.71,1.61-1.71h.87c1.07,0,1.61.57,1.61,1.71v1.13h-1.34v-1.04c0-.39-.2-.59-.6-.59h-.27c-.36,0-.53.2-.53.59v6.44c0,.39.18.59.53.59h.34c.35,0,.53-.2.53-.59v-.55h1.34Z"/>
        <path class="cls-1" d="M62.21,13.82c-1.08,0-1.62-.57-1.62-1.71v-6.62c0-1.15.54-1.72,1.61-1.72h1.29c1.07,0,1.61.57,1.61,1.72v6.62c0,1.14-.54,1.71-1.62,1.71h-1.26ZM62.54,12.6h.69c.35,0,.53-.2.53-.59v-6.44c0-.39-.2-.59-.6-.59h-.63c-.39,0-.59.2-.59.59v6.44c0,.39.2.59.6.59Z"/>
        <path class="cls-1" d="M66.29,13.82V3.77h2.34c1.26,0,1.89.64,1.89,1.93v6.66c0,.97-.54,1.46-1.61,1.46h-2.62ZM67.63,12.6h1.01c.35,0,.53-.15.53-.45v-6.44c0-.49-.2-.73-.6-.73h-.94v7.62Z"/>
        <path class="cls-1" d="M71.71,13.82V3.77h3.33v1.22h-1.99v3.05h1.76v1.22h-1.76v3.35h1.99v1.22h-3.33Z"/>
      </g>
    </g>
  </g>
</svg>