<?xml version="1.0" encoding="UTF-8"?>
<svg id="Layer_2" data-name="Layer 2" xmlns="http://www.w3.org/2000/svg" viewBox="0 0 32 32">
  <defs>
    <style>
      .cls-1 {
        fill: #fff;
      }

      .cls-1, .cls-2 {
        stroke-width: 0px;
      }

      .cls-2 {
        fill: #35abc7;
      }
    </style>
  </defs>
  <g id="Layer_1-2" data-name="Layer 1">
    <g>
      <rect class="cls-1" width="32" height="32" rx="4.43" ry="4.43"/>
      <g>
        <path class="cls-2" d="M22.12,22.72c-.33,0-.67-.13-.93-.38-.51-.51-.51-1.34,0-1.85l4.49-4.49-4.49-4.49c-.51-.51-.51-1.34,0-1.85s1.34-.51,1.85,0l5.15,5.15c.32.32.49.74.49,1.19s-.17.87-.49,1.19l-5.15,5.15c-.26.26-.59.38-.93.38ZM26.34,16.66h.01-.01Z"/>
        <path class="cls-2" d="M9.88,22.72c-.33,0-.67-.13-.93-.38l-5.15-5.15c-.65-.66-.65-1.72,0-2.37l5.15-5.15c.51-.51,1.34-.51,1.85,0s.51,1.34,0,1.85l-4.49,4.49,4.49,4.49c.51.51.51,1.34,0,1.85-.26.26-.59.38-.93.38Z"/>
        <path class="cls-2" d="M14.19,20.44c-.22,0-.45-.06-.65-.18-.63-.36-.84-1.16-.48-1.79l3.62-6.26c.36-.63,1.16-.84,1.79-.48.63.36.84,1.16.48,1.79l-3.62,6.26c-.24.42-.68.65-1.13.65Z"/>
      </g>
    </g>
  </g>
</svg>