<?xml version="1.0" encoding="UTF-8"?>
<svg id="Layer_2" data-name="Layer 2" xmlns="http://www.w3.org/2000/svg" viewBox="0 0 24.36 18.18">
  <defs>
    <style>
      .cls-1 {
        fill: #fff;
        stroke-width: 0px;
      }
    </style>
  </defs>
  <g id="Layer_1-2" data-name="Layer 1">
    <g>
      <path class="cls-1" d="M21.94,0H6.95c-1.34,0-2.42,1.09-2.42,2.43v2.7h-.04c-.15.01-.29.02-.44.04-.26.03-.47.07-.65.12-.18.04-.32.1-.45.17s-.25.17-.34.28c-.15.17-.21.36-.24.53-.03.13-.04.26-.04.37v.75h-.43c-.08,0-.17.01-.25.02-.26.03-.5.11-.71.24-.16.1-.31.22-.43.38-.1.11-.18.25-.25.41s-.1.32-.14.47c-.01.05-.02.1-.03.16-.02.05-.03.12-.04.21-.04.21-.05.4-.05.58v.25c0,.1.02.19.03.28.02.17.04.32.08.46l.02.1c.04.17.09.36.18.55.06.13.13.26.23.38.1.13.21.23.33.32.23.15.49.22.77.23h.69v.68c0,.17.03.32.08.45.04.11.11.27.24.41.07.08.14.14.22.2.15.12.32.22.53.3.19.08.41.14.68.2.15.03.3.05.45.06v1.15c.01.14.03.28.06.41.24,1.09,1.21,1.89,2.36,1.89h14.99c1.33,0,2.42-1.08,2.42-2.42V2.43c0-1.34-1.09-2.43-2.42-2.43ZM2.69,9.82c-.08.06-.14.12-.21.2-.11.12-.17.24-.24.35-.1.19-.16.41-.17.65,0,.09,0,.19,0,.29v.12s0,.28,0,.28h-.41c-.15-.01-.27-.04-.38-.12-.06-.04-.11-.09-.17-.16-.05-.06-.1-.15-.14-.24-.06-.12-.09-.25-.12-.4l-.03-.11c-.03-.12-.05-.25-.06-.38-.01-.07-.02-.15-.03-.23v-.21c0-.14.02-.29.04-.47v-.04s.02-.07.03-.1c.01-.07.03-.13.04-.19.03-.12.05-.23.09-.33.05-.1.1-.18.15-.25.07-.09.15-.16.24-.21.13-.08.27-.13.42-.15h3.3s.1-.11.1-.11c.11-.11.11-.25.11-.3v-.19c0-.23-.16-.39-.39-.39h-1.79v-.48c0-.08,0-.16,0-.23.03-.11.05-.17.09-.21.03-.05.08-.08.13-.11.08-.05.18-.08.3-.11.15-.05.32-.07.54-.1.12-.02.26-.03.4-.03h.02s.08-.01.12-.01h.44s.09.01.14.01c.13.01.27.02.42.03.12.02.23.03.34.06.13.03.25.08.35.15.05.04.1.08.14.12s.08.09.12.15c.05.08.07.16.08.27v2.05c0,.12-.02.23-.07.32-.04.07-.07.12-.11.16-.11.12-.22.19-.36.22-.06.02-.13.03-.21.03h-2.16c-.23,0-.45.04-.66.13-.16.07-.31.16-.44.27ZM9.05,9.88c0,.06.01.13,0,.19v.08s0,.08-.01.12v.06c-.02.09-.04.19-.06.28-.02.1-.05.2-.09.3l-.04.11c-.03.1-.07.2-.11.28-.05.08-.09.15-.13.21-.07.08-.13.13-.2.15-.06.03-.12.04-.18.04-.2.01-.4.01-.6.01h-2.71c-.22,0-.37.14-.39.35v.29c.02.21.17.35.39.35h1.78v.44c0,.09-.01.16-.04.22-.03.07-.08.14-.15.2-.03.02-.05.05-.08.07-.08.05-.17.1-.27.14-.14.07-.31.12-.54.17-.12.03-.24.05-.37.06-.01.01-.02.01-.03.01-.06,0-.13.01-.19.01h-.12c-.13.01-.25,0-.38-.02-.1-.01-.21-.02-.31-.04-.22-.05-.4-.1-.55-.16-.14-.05-.26-.12-.36-.2-.05-.03-.09-.08-.13-.12-.03-.04-.06-.09-.1-.18-.02-.05-.02-.11-.02-.19v-1.96c0-.06,0-.11,0-.15.03-.13.07-.21.11-.27.04-.05.08-.1.12-.13.12-.11.25-.17.39-.19h2.24c.29,0,.56-.07.81-.19.16-.08.31-.19.44-.32.14-.14.26-.3.34-.47.04-.07.06-.14.1-.25.07-.19.08-.39.08-.53v-.53h.5c.11,0,.2.03.28.08.04.02.08.06.11.09.04.04.08.09.13.16.06.1.1.23.14.36.07.2.11.42.16.72v.06c.02.07.03.14.03.21v.08ZM17.97,16.05h-2.67c-.2,0-.37-.16-.37-.36s.17-.37.37-.37h2.67c.2,0,.36.17.36.37s-.16.36-.36.36ZM18.27,14.42h-2.97c-.2,0-.37-.17-.37-.36,0-.2.17-.37.37-.37h2.97c.2,0,.36.17.36.37s-.16.36-.36.36ZM14.93,12.34c0-.2.17-.36.37-.36h1.27c.2,0,.37.16.37.36s-.17.36-.37.36h-1.27c-.2,0-.37-.16-.37-.36ZM21.94,16.05h-2.76c-.2,0-.36-.16-.36-.36s.16-.37.36-.37h2.76c.2,0,.37.17.37.37s-.17.36-.37.36ZM21.94,14.38h-2.42c-.2,0-.36-.16-.36-.36s.16-.36.36-.36h2.42c.2,0,.37.16.37.36s-.17.36-.37.36ZM21.94,12.72h-3.97c-.2,0-.36-.16-.36-.36s.16-.36.36-.36h3.97c.2,0,.37.16.37.36s-.17.36-.37.36ZM21.94,11.05h-8.43c-.2,0-.36-.16-.36-.36s.16-.36.36-.36h8.43c.2,0,.37.16.37.36s-.17.36-.37.36ZM17,8.47c.15.15.15.37,0,.52-.07.07-.16.1-.25.1s-.19-.03-.26-.1l-1.42-1.43c-.18-.18-.18-.47,0-.65l1.42-1.43c.14-.14.37-.14.51,0,.15.14.15.37,0,.51l-1.24,1.24,1.24,1.24ZM17.63,7.92l1-1.73c.1-.18.32-.24.49-.13.17.1.23.32.13.49l-1,1.73c-.06.12-.19.18-.31.18-.06,0-.12-.01-.18-.05-.17-.1-.23-.32-.13-.49ZM19.87,5.99c-.14-.14-.14-.37,0-.51.15-.14.37-.14.52,0l1.42,1.43c.09.08.14.2.14.32,0,.13-.05.25-.14.33l-1.42,1.43c-.07.07-.17.1-.26.1s-.18-.03-.26-.1c-.14-.15-.14-.37,0-.52l1.24-1.24-1.24-1.24ZM23.64,3H5.25v-.57c0-.94.76-1.7,1.7-1.7h14.99c.94,0,1.7.76,1.7,1.7v.57Z"/>
      <path class="cls-1" d="M4.52,12.11v.19s0,.04.01.05v-.29s-.01.03-.01.05ZM4.52,12.11v.19s0,.04.01.05v-.29s-.01.03-.01.05ZM4.52,12.11v.19s0,.04.01.05v-.29s-.01.03-.01.05Z"/>
      <path class="cls-1" d="M20.6,2.12c0,.16-.13.29-.29.29-.17,0-.3-.13-.3-.29s.13-.3.3-.3c.16,0,.29.14.29.3Z"/>
      <path class="cls-1" d="M21.59,2.12c0,.16-.13.29-.29.29s-.29-.13-.29-.29.13-.3.29-.3.29.14.29.3Z"/>
      <path class="cls-1" d="M22.59,2.12c0,.16-.13.29-.3.29-.16,0-.29-.13-.29-.29s.13-.3.29-.3c.17,0,.3.14.3.3Z"/>
    </g>
  </g>
</svg>