<?xml version="1.0" encoding="UTF-8"?>
<svg id="Layer_2" data-name="Layer 2" xmlns="http://www.w3.org/2000/svg" viewBox="0 0 115.83 92.98">
  <defs>
    <style>
      .cls-1 {
        fill: #32adc6;
      }

      .cls-1, .cls-2, .cls-3 {
        stroke-width: 0px;
      }

      .cls-3 {
        fill: #fff;
      }

      .cls-4 {
        fill: none;
        stroke: #231f20;
        stroke-linecap: round;
        stroke-miterlimit: 10;
        stroke-width: 2px;
      }
    </style>
  </defs>
  <g id="Layer_1-2" data-name="Layer 1">
    <g>
      <path class="cls-1" d="m110.16,92.41H6.23c-2.81,0-5.1-2.28-5.1-5.1V21.25c0-2.81,2.28-5.1,5.1-5.1h103.93c2.81,0,5.1,2.28,5.1,5.1v66.06c0,2.81-2.29,5.1-5.1,5.1Z"/>
      <path class="cls-2" d="m110.16,92.98H6.23c-3.13,0-5.67-2.54-5.67-5.67V21.25c0-3.13,2.54-5.67,5.67-5.67h103.93c3.13,0,5.67,2.54,5.67,5.67v66.06c-.01,3.13-2.55,5.67-5.67,5.67ZM6.23,16.72c-2.5,0-4.53,2.03-4.53,4.53v66.06c0,2.5,2.03,4.53,4.53,4.53h103.93c2.49,0,4.52-2.03,4.53-4.53V21.25c0-2.5-2.03-4.53-4.53-4.53H6.23Z"/>
      <g>
        <g id="polyline3958">
          <polygon class="cls-3" points="24.63 25.44 8.04 14.06 .64 16.88 20.46 29.28 24.63 25.44"/>
          <path class="cls-2" d="m20.57,29.65c-.1.03-.21.02-.31-.04L.44,17.2c-.12-.08-.19-.22-.18-.36.01-.14.11-.27.24-.32l7.4-2.81c.12-.04.25-.03.35.04l16.59,11.38c.17.12.22.36.1.53-.12.17-.36.22-.53.1L7.99,14.49l-6.49,2.47,19.17,11.99c.18.11.23.35.12.53-.05.08-.13.14-.22.16Z"/>
        </g>
        <g id="path3736">
          <path class="cls-2" d="m41.31,4L4.81,19.36c-.2.09-.42,0-.51-.21l-3.18-2.09c-.09-.2-.75-.54-.55-.63L39.72.22c.2-.09.42,0,.51.21l1.29,3.07c.08.19,0,.42-.21.5Z"/>
          <path class="cls-2" d="m4.82,19.56c-.12.04-.25.03-.37-.02-.13-.05-.33-.04-.33-.04l-1.17-.73c-.37-.32-.87-.55-1.57-.98l-.92-.58c-.23-.14-.5-.29-.43-.55.06-.22.39-.36.48-.4L39.65.04c.14-.06.3-.06.44,0,.14.06.25.17.31.31l1.29,3.07c.06.14.06.3,0,.44-.06.14-.17.25-.32.31L4.88,19.53s-.04.02-.07.02Zm-3.56-2.64l3.14,2.07s.06.05.07.08c.02.05.06.09.11.11.05.02.1.02.15,0L41.24,3.83s0,0,0,0c.05-.02.08-.05.1-.1.02-.05.02-.1,0-.15l-1.29-3.07s-.06-.09-.11-.11c-.05-.02-.11-.02-.15,0L.82,16.53s.07.05.1.08c.14.11.27.21.34.32Z"/>
        </g>
      </g>
      <g id="polygon3960">
        <polygon class="cls-3" points="34.36 21.08 35.66 20.37 36.78 21.33 38.15 20.77 39.17 21.84 40.59 21.42 41.49 22.59 42.94 22.33 43.72 23.58 45.19 23.47 45.83 24.8 47.31 24.85 47.8 26.24 49.27 26.44 49.61 27.87 51.05 28.22 51.25 29.69 52.64 30.18 52.68 31.66 54.02 32.29 53.91 33.77 55.16 34.55 54.89 36 56.06 36.9 55.65 38.32 56.72 39.34 56.16 40.7 57.11 41.83 56.41 43.13 57.24 44.35 56.41 45.57 57.11 46.87 56.16 47.99 56.72 49.36 55.65 50.39 56.06 51.8 54.89 52.7 55.16 54.15 53.9 54.93 54.02 56.4 52.68 57.04 52.64 58.52 51.25 59.02 51.05 60.48 49.61 60.82 49.27 62.26 47.8 62.46 47.31 63.85 45.83 63.89 45.19 65.23 43.72 65.12 42.94 66.37 41.49 66.1 40.59 67.27 39.17 66.86 38.15 67.93 36.78 67.37 35.66 68.32 34.36 67.62 33.14 68.45 31.92 67.62 30.62 68.32 29.49 67.37 28.12 67.93 27.1 66.86 25.68 67.27 24.78 66.1 23.33 66.37 22.55 65.12 21.08 65.23 20.45 63.89 18.97 63.85 18.47 62.46 17.01 62.26 16.65 60.82 15.22 60.48 15.03 59.01 13.64 58.52 13.59 57.04 12.26 56.4 12.37 54.93 11.12 54.15 11.38 52.7 10.21 51.8 10.63 50.38 9.56 49.36 10.12 47.99 9.16 46.87 9.87 45.57 9.03 44.35 9.87 43.13 9.16 41.83 10.12 40.7 9.56 39.34 10.63 38.31 10.21 36.89 11.38 36 11.12 34.55 12.37 33.76 12.26 32.29 13.59 31.66 13.64 30.18 15.03 29.68 15.23 28.22 16.66 27.87 17.01 26.43 18.48 26.24 18.97 24.85 20.45 24.8 21.08 23.47 22.56 23.58 23.34 22.33 24.79 22.59 25.69 21.42 27.11 21.84 28.12 20.77 29.49 21.33 30.62 20.37 31.92 21.08 33.14 20.24 34.36 21.08"/>
        <path class="cls-2" d="m33.14,68.83c-.08,0-.15-.02-.22-.07l-1.03-.7-1.09.59c-.14.07-.31.06-.43-.04l-.95-.81-1.15.47c-.14.06-.31.02-.42-.09l-.86-.9-1.2.35c-.15.05-.31,0-.41-.13l-.76-.99-1.22.23c-.16.03-.31-.04-.39-.17l-.65-1.06-1.24.09c-.17.02-.31-.07-.37-.22l-.54-1.12-1.25-.04c-.16,0-.29-.11-.35-.25l-.42-1.17-1.23-.17c-.15-.02-.28-.13-.32-.29l-.3-1.21-1.21-.29c-.15-.04-.27-.16-.29-.32l-.16-1.24-1.17-.41c-.15-.05-.25-.19-.25-.35l-.04-1.25-1.12-.54c-.14-.07-.23-.22-.22-.37l.09-1.25-1.06-.65c-.13-.08-.2-.24-.17-.39l.23-1.23-.99-.76c-.12-.1-.18-.26-.13-.41l.35-1.2-.9-.85c-.11-.11-.15-.27-.09-.42l.47-1.15-.8-.95c-.1-.12-.12-.29-.04-.43l.59-1.09-.71-1.03c-.09-.13-.09-.3,0-.43l.71-1.03-.59-1.09c-.08-.14-.06-.31.04-.43l.8-.95-.47-1.15c-.06-.14-.02-.31.09-.42l.9-.86-.35-1.2c-.04-.15,0-.31.13-.41l.98-.75-.22-1.22c-.03-.15.04-.31.17-.39l1.06-.66-.09-1.24c-.01-.16.07-.3.22-.37l1.12-.54.04-1.25c0-.16.1-.29.25-.35l1.18-.42.17-1.23c.02-.16.14-.28.29-.32l1.21-.29.29-1.22c.04-.15.17-.27.32-.29l1.24-.16.41-1.17c.05-.15.19-.25.35-.25l1.25-.04.54-1.12c.07-.14.21-.23.37-.22l1.25.09.65-1.06c.08-.13.24-.21.39-.17l1.22.22.76-.99c.1-.12.26-.18.41-.13l1.2.35.86-.9c.11-.11.27-.15.42-.09l1.15.47.95-.81c.12-.1.29-.12.43-.04l1.09.59,1.03-.71c.13-.09.3-.09.43,0l1.03.71,1.09-.59c.14-.08.31-.06.43.04l.95.81,1.15-.47c.14-.06.31-.02.42.09l.86.9,1.2-.35c.15-.05.31,0,.41.13l.76.99,1.22-.22c.15-.03.31.04.39.17l.65,1.06,1.25-.09c.16-.02.31.07.37.22l.54,1.12,1.25.04c.16,0,.3.11.35.25l.41,1.17,1.24.17c.16.02.28.14.32.29l.29,1.21,1.21.29c.15.04.27.16.29.32l.17,1.24,1.17.41c.15.05.25.19.25.35l.04,1.25,1.12.54c.14.07.23.22.22.37l-.09,1.25,1.06.65c.13.08.2.24.17.39l-.23,1.23.99.76c.12.1.18.26.13.41l-.35,1.2.9.85c.11.11.15.27.09.42l-.47,1.15.8.95c.1.12.12.29.04.43l-.59,1.09.7,1.03c.09.13.09.3,0,.43l-.7,1.03.59,1.09c.08.14.06.31-.04.43l-.8.95.47,1.15c.06.14.02.31-.09.42l-.9.86.35,1.19c.04.15,0,.31-.13.41l-.99.76.23,1.23c.03.15-.04.31-.18.39l-1.06.65.1,1.25c.01.16-.07.31-.22.37l-1.12.54-.04,1.25c0,.16-.11.29-.25.35l-1.17.42-.17,1.23c-.02.16-.14.28-.29.32l-1.21.29-.29,1.21c-.04.15-.16.27-.32.29l-1.24.17-.41,1.17c-.05.15-.19.25-.35.25l-1.25.04-.54,1.12c-.07.14-.21.23-.37.21l-1.24-.09-.65,1.06c-.08.13-.24.2-.39.17l-1.22-.23-.76.99c-.1.12-.26.18-.41.13l-1.2-.35-.86.9c-.11.11-.28.15-.42.09l-1.15-.47-.95.81c-.12.1-.29.12-.43.04l-1.09-.59-1.03.7c-.06.04-.14.07-.22.07Zm-1.22-1.6c.08,0,.15.02.22.07l1.01.69,1.01-.69c.12-.08.27-.09.4-.02l1.07.58.93-.79c.11-.09.26-.12.39-.06l1.13.46.84-.88c.1-.1.25-.14.38-.1l1.17.34.74-.96c.09-.11.23-.17.37-.14l1.2.22.64-1.03c.07-.12.21-.2.35-.18l1.21.09.53-1.1c.06-.13.19-.21.33-.22l1.22-.04.4-1.15c.05-.14.17-.23.31-.25l1.21-.16.28-1.18c.03-.14.14-.25.28-.28l1.18-.28.16-1.2c.02-.14.12-.26.25-.31l1.15-.41.04-1.22c0-.14.09-.27.22-.33l1.1-.52-.1-1.22c-.01-.14.06-.28.18-.36l1.04-.64-.22-1.2c-.03-.14.03-.28.14-.37l.96-.74-.34-1.16c-.04-.14,0-.28.1-.38l.88-.84-.46-1.13c-.05-.13-.03-.28.06-.39l.79-.93-.58-1.07c-.07-.13-.06-.28.02-.4l.69-1.01-.69-1.01c-.08-.12-.09-.27-.02-.4l.58-1.07-.79-.93c-.09-.11-.12-.26-.06-.39l.46-1.13-.88-.84c-.1-.1-.14-.25-.1-.38l.34-1.17-.96-.74c-.11-.09-.17-.23-.14-.37l.22-1.2-1.03-.64c-.12-.07-.19-.21-.18-.35l.09-1.22-1.1-.52c-.13-.06-.21-.19-.22-.33l-.04-1.22-1.15-.4c-.14-.05-.23-.17-.25-.31l-.16-1.21-1.18-.28c-.14-.03-.25-.14-.28-.28l-.28-1.18-1.21-.16c-.14-.02-.26-.12-.31-.25l-.4-1.15-1.22-.04c-.14,0-.27-.09-.33-.22l-.52-1.1-1.22.09c-.15.02-.28-.06-.35-.18l-.64-1.03-1.2.22c-.14.03-.28-.03-.37-.14l-.74-.96-1.17.34c-.14.04-.28,0-.38-.1l-.84-.88-1.13.46c-.13.05-.28.03-.39-.06l-.93-.79-1.07.58c-.13.07-.28.06-.4-.02l-1-.69-1,.69c-.12.08-.27.09-.4.02l-1.07-.58-.93.79c-.11.09-.26.12-.39.06l-1.13-.46-.84.88c-.1.1-.25.14-.38.1l-1.17-.34-.74.96c-.09.11-.23.17-.37.14l-1.2-.22-.64,1.03c-.07.12-.2.2-.35.18l-1.22-.09-.52,1.1c-.06.13-.19.21-.33.22l-1.22.04-.4,1.15c-.05.14-.17.23-.31.25l-1.21.16-.28,1.19c-.03.14-.14.25-.28.28l-1.18.28-.16,1.2c-.02.14-.12.26-.25.31l-1.15.41-.04,1.22c0,.14-.09.27-.22.33l-1.1.52.09,1.21c.01.14-.06.28-.18.35l-1.04.65.22,1.2c.03.14-.03.28-.14.37l-.96.74.34,1.17c.04.14,0,.28-.1.38l-.88.84.46,1.13c.05.13.03.28-.06.39l-.79.93.58,1.07c.07.13.06.28-.02.4l-.69,1,.69,1c.08.12.09.27.02.4l-.58,1.07.79.93c.09.11.12.26.06.39l-.46,1.13.88.84c.1.1.14.25.1.38l-.34,1.17.96.74c.11.09.17.23.14.37l-.22,1.2,1.03.64c.12.07.19.21.18.35l-.09,1.22,1.1.52c.13.06.21.19.22.33l.04,1.22,1.15.4c.14.05.23.17.25.31l.16,1.21,1.18.28c.14.03.25.14.28.28l.29,1.18,1.21.16c.14.02.26.12.31.25l.41,1.15,1.22.04c.14,0,.27.09.33.22l.52,1.1,1.21-.09c.15-.02.28.06.35.18l.64,1.03,1.2-.22c.14-.02.28.03.37.14l.74.96,1.17-.34c.14-.04.28,0,.38.1l.84.88,1.13-.46c.13-.05.28-.03.39.06l.93.79,1.07-.58c.06-.03.12-.05.18-.05Z"/>
      </g>
      <g>
        <g id="path3942">
          <path class="cls-2" d="m72.59,4.92l37,14.12c.2.08.42-.02.5-.23l1.19-3.11c.08-.2-.02-.42-.23-.5L74.05,1.08c-.2-.08-.42.02-.5.23l-1.19,3.11c-.07.2.03.43.23.5Z"/>
          <path class="cls-2" d="m109.58,19.24s-.04-.01-.06-.02l-37-14.12c-.29-.1-.45-.44-.34-.74l1.19-3.12c.12-.3.46-.45.75-.33l37,14.12c.15.06.26.17.33.31.06.14.06.3,0,.44l-1.19,3.11c-.11.28-.41.43-.69.36ZM73.96,1.25s-.09,0-.13.01c-.05.02-.09.06-.11.11l-1.19,3.11c-.04.1.02.22.11.25h0s37,14.13,37,14.13c.1.05.22-.01.26-.12l1.19-3.11s.02-.1,0-.15c-.02-.05-.06-.09-.11-.11L73.99,1.26s-.02,0-.02,0Z"/>
        </g>
        <g>
          <g id="polyline3944">
            <polygon class="cls-3" points="91.69 24.71 103.7 16.8 109.59 19.05 94.74 29.38 91.69 24.71"/>
            <path class="cls-2" d="m94.64,29.75c-.09-.02-.16-.07-.22-.15-.12-.17-.08-.41.09-.53l14.26-9.92-5.03-1.93-11.84,7.81c-.18.11-.41.07-.53-.11-.12-.18-.07-.41.11-.53l12.01-7.91c.1-.07.23-.08.35-.04l5.88,2.25c.13.05.23.17.24.31.02.14-.04.28-.16.36l-14.85,10.33c-.1.07-.21.08-.31.06Z"/>
          </g>
          <g id="path3736-2" data-name="path3736">
            <path class="cls-2" d="m72.37,4.35l1.19-3.11c.08-.2.3-.3.5-.23l39.68,14.89c.2.08-.45.44-.53.65l-3.4,2.81c-.65-.43,0-.31-.21-.39l-37-14.13c-.2-.07-.3-.3-.23-.49Z"/>
          </g>
        </g>
      </g>
      <g id="circle3946">
        <circle class="cls-2" cx="33.34" cy="44.87" r="7.99"/>
        <path class="cls-2" d="m33.34,53.05c-4.51,0-8.18-3.67-8.18-8.18s3.67-8.18,8.18-8.18,8.18,3.67,8.18,8.18-3.67,8.18-8.18,8.18Zm0-15.98c-4.3,0-7.8,3.5-7.8,7.8s3.5,7.8,7.8,7.8,7.8-3.5,7.8-7.8-3.5-7.8-7.8-7.8Z"/>
      </g>
      <g id="polygon3948">
        <polygon class="cls-3" points="81.35 21.05 82.62 20.27 83.79 21.17 85.13 20.54 86.2 21.55 87.6 21.06 88.55 22.19 90 21.84 90.83 23.06 92.3 22.87 93.01 24.17 94.48 24.13 95.05 25.49 96.52 25.61 96.94 27.03 98.4 27.31 98.67 28.76 100.09 29.18 100.21 30.65 101.57 31.22 101.54 32.7 102.83 33.4 102.65 34.87 103.86 35.71 103.51 37.15 104.64 38.11 104.15 39.51 105.16 40.57 104.53 41.92 105.43 43.08 104.66 44.35 105.43 45.61 104.53 46.78 105.16 48.12 104.15 49.19 104.64 50.59 103.51 51.55 103.86 52.99 102.65 53.83 102.83 55.3 101.54 56 101.57 57.48 100.21 58.05 100.09 59.52 98.67 59.94 98.4 61.39 96.94 61.67 96.52 63.09 95.05 63.2 94.48 64.57 93.01 64.53 92.3 65.83 90.83 65.64 90 66.85 88.55 66.51 87.6 67.64 86.2 67.15 85.13 68.16 83.79 67.52 82.62 68.43 81.35 67.65 80.09 68.43 78.92 67.52 77.58 68.16 76.51 67.15 75.11 67.64 74.16 66.51 72.71 66.85 71.88 65.64 70.41 65.83 69.7 64.53 68.22 64.57 67.66 63.2 66.18 63.09 65.76 61.67 64.31 61.39 64.04 59.94 62.62 59.52 62.5 58.05 61.14 57.48 61.17 56 59.87 55.3 60.06 53.83 58.85 52.99 59.19 51.55 58.07 50.59 58.56 49.19 57.54 48.12 58.18 46.78 57.28 45.61 58.05 44.35 57.28 43.08 58.18 41.92 57.54 40.57 58.56 39.51 58.07 38.11 59.19 37.15 58.85 35.71 60.06 34.87 59.87 33.4 61.17 32.7 61.14 31.22 62.5 30.65 62.62 29.18 64.04 28.76 64.31 27.31 65.76 27.03 66.18 25.61 67.66 25.49 68.22 24.13 69.7 24.17 70.41 22.87 71.88 23.06 72.71 21.84 74.16 22.19 75.11 21.06 76.51 21.55 77.58 20.54 78.92 21.17 80.09 20.27 81.35 21.05"/>
        <path class="cls-2" d="m82.62,68.81c-.07,0-.14-.02-.2-.06l-1.07-.65-1.06.65c-.14.08-.31.07-.43-.02l-.98-.76-1.13.54c-.14.07-.31.04-.43-.07l-.9-.85-1.18.41c-.15.05-.31,0-.42-.11l-.8-.95-1.22.29c-.15.03-.31-.03-.4-.15l-.7-1.02-1.24.16c-.16.02-.31-.06-.38-.2l-.59-1.09-1.25.03c-.15,0-.3-.09-.36-.24l-.48-1.15-1.24-.09c-.16-.01-.29-.12-.34-.27l-.36-1.2-1.23-.23c-.15-.03-.27-.15-.3-.3l-.23-1.23-1.2-.36c-.15-.04-.26-.18-.27-.34l-.09-1.24-1.15-.48c-.15-.06-.24-.2-.24-.36l.03-1.25-1.09-.59c-.14-.08-.22-.23-.2-.38l.16-1.24-1.02-.7c-.13-.09-.19-.25-.15-.4l.29-1.22-.95-.8c-.12-.1-.17-.27-.11-.42l.41-1.18-.85-.9c-.11-.11-.14-.28-.07-.43l.54-1.13-.76-.98c-.1-.13-.11-.3-.02-.43l.65-1.07-.65-1.07c-.08-.13-.07-.31.02-.43l.76-.98-.54-1.13c-.07-.14-.04-.31.07-.43l.85-.9-.41-1.18c-.05-.15,0-.31.11-.42l.95-.8-.29-1.22c-.04-.15.03-.31.15-.4l1.02-.7-.16-1.24c-.02-.16.06-.31.2-.38l1.09-.59-.03-1.25c0-.16.09-.3.24-.36l1.15-.48.09-1.24c.01-.16.12-.29.27-.34l1.2-.36.23-1.23c.03-.15.15-.27.3-.3l1.23-.23.36-1.2c.04-.15.18-.26.33-.27l1.24-.1.48-1.14c.06-.14.21-.25.36-.23l1.25.03.59-1.09c.08-.14.22-.21.38-.2l1.24.16.7-1.02c.09-.13.25-.19.4-.15l1.22.29.8-.95c.1-.12.27-.16.42-.11l1.18.41.9-.85c.11-.11.28-.14.43-.07l1.13.54.98-.76c.12-.1.3-.11.43-.02l1.06.65,1.07-.65c.14-.08.31-.07.43.02l.98.76,1.13-.54c.14-.07.31-.04.43.07l.9.85,1.18-.41c.15-.05.31,0,.42.11l.8.95,1.22-.29c.15-.03.31.03.4.16l.7,1.02,1.24-.16c.16-.02.31.06.38.2l.59,1.09,1.25-.03c.16-.01.3.09.36.23l.48,1.14,1.24.1c.16.01.29.12.33.27l.36,1.2,1.23.23c.15.03.27.15.3.3l.23,1.22,1.2.36c.15.04.26.18.27.33l.1,1.24,1.14.48c.14.06.24.2.23.36l-.03,1.25,1.09.59c.14.08.22.23.2.38l-.16,1.24,1.02.7c.13.09.19.25.15.4l-.29,1.22.95.8c.12.1.17.27.11.42l-.41,1.18.85.9c.11.11.14.28.07.43l-.54,1.13.76.98c.1.12.11.3.02.43l-.65,1.07.65,1.07c.08.14.07.31-.02.43l-.76.98.54,1.13c.07.14.04.31-.07.43l-.85.9.41,1.18c.05.15,0,.31-.11.42l-.95.8.29,1.22c.04.15-.03.31-.15.4l-1.02.7.16,1.24c.02.16-.06.31-.2.38l-1.09.59.03,1.25c0,.16-.09.3-.23.36l-1.14.48-.1,1.24c-.01.16-.12.29-.27.33l-1.2.36-.23,1.22c-.03.15-.15.27-.3.3l-1.23.23-.36,1.2c-.04.15-.18.26-.34.27l-1.24.09-.48,1.15c-.06.14-.21.23-.36.24l-1.25-.03-.59,1.09c-.08.14-.22.21-.38.2l-1.24-.16-.7,1.02c-.09.13-.25.19-.4.16l-1.22-.29-.8.95c-.1.12-.27.16-.42.11l-1.18-.41-.9.85c-.11.11-.28.14-.43.07l-1.13-.54-.98.76c-.07.05-.15.08-.23.08Zm-3.7-1.66c.08,0,.16.03.23.08l.96.74,1.04-.64c.12-.07.28-.07.4,0l1.04.64.96-.74c.11-.09.27-.1.4-.04l1.11.52.88-.83c.1-.1.25-.13.39-.08l1.15.4.79-.93c.09-.11.24-.16.38-.12l1.19.28.69-1c.08-.12.22-.18.36-.16l1.21.16.58-1.07c.07-.13.19-.2.34-.2l1.22.03.47-1.13c.05-.13.18-.22.32-.23l1.21-.09.35-1.17c.04-.14.15-.24.29-.27l1.2-.23.23-1.2c.03-.14.13-.25.27-.29l1.17-.35.1-1.21c.01-.14.1-.27.23-.32l1.12-.47-.03-1.22c0-.14.07-.28.2-.34l1.07-.58-.16-1.21c-.02-.14.04-.28.16-.36l1-.69-.28-1.19c-.03-.14.02-.29.12-.38l.93-.79-.4-1.15c-.05-.13-.01-.28.08-.39l.83-.88-.52-1.11c-.06-.13-.04-.28.04-.4l.74-.96-.64-1.04c-.08-.12-.08-.28,0-.4l.64-1.04-.74-.96c-.09-.11-.1-.27-.04-.4l.52-1.11-.83-.88c-.1-.1-.13-.25-.08-.39l.4-1.15-.93-.79c-.11-.09-.16-.24-.12-.38l.28-1.19-1-.69c-.12-.08-.18-.22-.16-.36l.16-1.21-1.07-.58c-.13-.07-.2-.2-.2-.34l.03-1.22-1.12-.47c-.13-.05-.22-.18-.23-.32l-.1-1.21-1.17-.35c-.14-.04-.24-.15-.27-.29l-.23-1.2-1.2-.23c-.14-.03-.25-.13-.29-.27l-.35-1.17-1.21-.1c-.14-.01-.27-.1-.32-.23l-.47-1.12-1.22.03c-.15,0-.28-.07-.34-.2l-.58-1.07-1.21.16c-.15.02-.28-.04-.36-.16l-.69-1-1.19.28c-.14.03-.29-.01-.38-.12l-.79-.93-1.15.4c-.14.05-.29.01-.39-.08l-.88-.83-1.11.52c-.13.06-.28.04-.4-.04l-.96-.74-1.04.64c-.12.07-.28.07-.4,0l-1.04-.64-.96.74c-.11.09-.27.1-.4.04l-1.11-.52-.88.83c-.1.1-.25.13-.39.08l-1.15-.4-.79.93c-.09.11-.24.16-.38.12l-1.19-.28-.69,1c-.08.12-.22.18-.36.16l-1.21-.16-.58,1.07c-.07.13-.21.2-.34.2l-1.22-.03-.47,1.12c-.05.13-.18.22-.32.23l-1.21.1-.35,1.17c-.04.14-.15.24-.29.27l-1.2.23-.23,1.2c-.03.14-.13.25-.27.29l-1.17.35-.09,1.21c-.01.14-.1.27-.23.32l-1.13.47.03,1.22c0,.14-.07.28-.2.34l-1.07.58.16,1.21c.02.14-.04.28-.16.36l-1,.69.28,1.19c.03.14-.02.29-.12.38l-.93.79.4,1.15c.05.13.01.28-.08.39l-.83.88.52,1.11c.06.13.04.28-.04.4l-.74.96.64,1.04c.08.12.08.28,0,.4l-.64,1.04.74.96c.09.11.1.27.04.4l-.52,1.11.83.88c.1.1.13.25.08.39l-.4,1.15.93.79c.11.09.16.24.12.38l-.28,1.19,1,.69c.12.08.18.22.16.36l-.16,1.21,1.07.58c.13.07.2.2.2.34l-.03,1.22,1.13.47c.13.05.22.18.23.32l.09,1.21,1.17.35c.14.04.24.15.27.29l.23,1.2,1.2.23c.14.03.25.13.29.27l.35,1.17,1.21.09c.14.01.27.1.32.23l.47,1.13,1.22-.03c.14,0,.28.07.34.2l.58,1.07,1.21-.16c.15-.01.28.04.36.16l.69,1,1.19-.28c.14-.03.29.01.38.12l.79.93,1.15-.4c.14-.05.29-.01.39.08l.88.83,1.11-.52c.05-.02.11-.04.16-.04Z"/>
      </g>
      <g id="circle3950">
        <circle class="cls-2" cx="81.56" cy="44.87" r="7.99"/>
        <path class="cls-2" d="m81.56,53.05c-4.51,0-8.18-3.67-8.18-8.18s3.67-8.18,8.18-8.18,8.18,3.67,8.18,8.18-3.67,8.18-8.18,8.18Zm0-15.98c-4.3,0-7.8,3.5-7.8,7.8s3.5,7.8,7.8,7.8,7.8-3.5,7.8-7.8-3.5-7.8-7.8-7.8Z"/>
      </g>
      <g id="circle3952">
        <circle class="cls-3" cx="31.87" cy="41.61" r="2.01"/>
        <path class="cls-2" d="m31.87,43.81c-1.21,0-2.2-.99-2.2-2.2s.99-2.2,2.2-2.2,2.2.99,2.2,2.2-.99,2.2-2.2,2.2Zm0-4.02c-1,0-1.82.82-1.82,1.82s.82,1.82,1.82,1.82,1.82-.82,1.82-1.82-.82-1.82-1.82-1.82Z"/>
      </g>
      <g id="circle3954">
        <circle class="cls-3" cx="79" cy="41.61" r="2.01"/>
        <path class="cls-2" d="m79,43.81c-1.21,0-2.2-.99-2.2-2.2s.99-2.2,2.2-2.2,2.2.99,2.2,2.2-.99,2.2-2.2,2.2Zm0-4.02c-1,0-1.82.82-1.82,1.82s.82,1.82,1.82,1.82,1.82-.82,1.82-1.82-.82-1.82-1.82-1.82Z"/>
      </g>
      <line class="cls-4" x1="38.13" y1="80.76" x2="78.26" y2="80.76"/>
    </g>
  </g>
</svg>