<?xml version="1.0" encoding="UTF-8"?>
<svg id="Layer_2" data-name="Layer 2" xmlns="http://www.w3.org/2000/svg" viewBox="0 0 115.27 91.67">
  <defs>
    <style>
      .cls-1 {
        fill: #a41d24;
        stroke: #000;
        stroke-miterlimit: 10;
        stroke-width: 1.2px;
      }

      .cls-2 {
        fill: #32adc6;
      }

      .cls-2, .cls-3, .cls-4 {
        stroke-width: 0px;
      }

      .cls-4 {
        fill: #fff;
      }
    </style>
  </defs>
  <g id="Layer_1-2" data-name="Layer 1">
    <g>
      <path class="cls-2" d="m109.6,91.1H5.67c-2.81,0-5.1-2.28-5.1-5.1V19.94c0-2.81,2.28-5.1,5.1-5.1h103.93c2.81,0,5.1,2.28,5.1,5.1v66.06c0,2.81-2.29,5.1-5.1,5.1Z"/>
      <path class="cls-3" d="m109.6,91.67H5.67c-3.13,0-5.67-2.54-5.67-5.67V19.94c0-3.13,2.54-5.67,5.67-5.67h103.93c3.13,0,5.67,2.54,5.67,5.67v66.06c-.01,3.13-2.55,5.67-5.67,5.67ZM5.67,15.41c-2.5,0-4.53,2.03-4.53,4.53v66.06c0,2.5,2.03,4.53,4.53,4.53h103.93c2.49,0,4.52-2.03,4.53-4.53V19.94c0-2.5-2.03-4.53-4.53-4.53H5.67Z"/>
      <g>
        <g id="polyline3958">
          <polygon class="cls-4" points="23.74 25.19 20.05 5.41 12.82 2.17 18.08 24.96 23.74 25.19"/>
          <path class="cls-3" d="m17.9,25.29c-.09-.05-.16-.14-.19-.25L12.45,2.26c-.03-.14.02-.29.13-.38.11-.09.27-.11.4-.05l7.22,3.24c.12.05.2.16.22.28l3.7,19.78c.04.21-.1.41-.3.44-.21.04-.41-.1-.44-.3l-3.66-19.58-6.34-2.84,5.08,22.04c.05.21-.08.41-.29.46-.09.02-.19,0-.27-.04Z"/>
        </g>
        <g id="path3736">
          <path class="cls-3" d="m50.7,21.81L14.02,6.87c-.2-.08-.29-.31-.21-.51l-.77-3.73c.08-.2-.15-.92.05-.84l39.16,16.22c.2.08.29.31.21.51l-1.26,3.08c-.08.19-.31.29-.5.21Z"/>
          <path class="cls-3" d="m13.88,7.02c-.11-.06-.2-.16-.25-.28-.05-.12-.21-.26-.21-.26l-.31-1.35c-.04-.48-.23-1-.42-1.81l-.25-1.06c-.06-.27-.15-.55.08-.69.2-.12.54.02.62.05l39.16,16.22c.14.06.26.17.31.31.06.14.06.3,0,.44l-1.26,3.09c-.06.14-.17.26-.31.31-.14.06-.3.06-.44,0L13.95,7.05s-.04-.02-.06-.03Zm-.65-4.38l.76,3.68s0,.07,0,.11c-.02.05-.02.11,0,.16.02.05.06.08.11.1l36.68,14.94s0,0,0,0c.05.02.1.02.15,0,.05-.02.08-.06.1-.1l1.26-3.09c.02-.05.02-.11,0-.15-.02-.05-.06-.09-.11-.1L13.2,2.05s0,.09.01.12c.02.17.04.34.02.46Z"/>
        </g>
      </g>
      <g id="polygon3960">
        <polygon class="cls-4" points="33.8 19.77 35.1 19.06 36.22 20.01 37.59 19.46 38.61 20.52 40.02 20.11 40.93 21.28 42.38 21.01 43.16 22.27 44.63 22.16 45.27 23.49 46.75 23.53 47.24 24.92 48.71 25.12 49.05 26.56 50.49 26.9 50.69 28.37 52.08 28.86 52.12 30.34 53.46 30.98 53.35 32.46 54.6 33.23 54.33 34.68 55.5 35.59 55.09 37.01 56.16 38.02 55.6 39.39 56.55 40.51 55.85 41.81 56.68 43.03 55.85 44.26 56.55 45.55 55.6 46.68 56.16 48.05 55.09 49.07 55.5 50.48 54.33 51.38 54.6 52.84 53.34 53.61 53.46 55.09 52.12 55.73 52.08 57.21 50.69 57.7 50.49 59.17 49.05 59.51 48.71 60.95 47.24 61.14 46.75 62.54 45.27 62.58 44.63 63.91 43.16 63.8 42.38 65.06 40.93 64.79 40.02 65.96 38.61 65.55 37.59 66.61 36.22 66.05 35.1 67.01 33.8 66.3 32.58 67.14 31.36 66.3 30.06 67.01 28.93 66.05 27.56 66.61 26.54 65.55 25.12 65.96 24.22 64.79 22.77 65.06 21.99 63.8 20.52 63.91 19.89 62.58 18.41 62.54 17.91 61.14 16.45 60.95 16.09 59.51 14.66 59.17 14.47 57.7 13.08 57.21 13.03 55.73 11.7 55.09 11.81 53.61 10.56 52.84 10.82 51.38 9.65 50.48 10.07 49.06 9 48.05 9.56 46.68 8.6 45.55 9.31 44.26 8.47 43.03 9.31 41.81 8.6 40.51 9.56 39.39 9 38.02 10.07 37 9.65 35.58 10.82 34.68 10.56 33.23 11.81 32.45 11.7 30.98 13.03 30.34 13.08 28.86 14.47 28.36 14.67 26.9 16.1 26.56 16.45 25.11 17.92 24.92 18.41 23.53 19.89 23.49 20.52 22.16 22 22.27 22.78 21.01 24.23 21.28 25.13 20.11 26.55 20.52 27.56 19.46 28.93 20.01 30.06 19.06 31.36 19.77 32.58 18.92 33.8 19.77"/>
        <path class="cls-3" d="m32.58,67.52c-.08,0-.15-.02-.22-.07l-1.03-.7-1.09.59c-.14.07-.31.06-.43-.04l-.95-.81-1.15.47c-.14.06-.31.02-.42-.09l-.86-.9-1.2.35c-.15.05-.31,0-.41-.13l-.76-.99-1.22.23c-.16.03-.31-.04-.39-.17l-.65-1.06-1.24.09c-.17.02-.31-.07-.37-.22l-.54-1.12-1.25-.04c-.16,0-.29-.11-.35-.25l-.42-1.17-1.23-.17c-.15-.02-.28-.13-.32-.29l-.3-1.21-1.21-.29c-.15-.04-.27-.16-.29-.32l-.16-1.24-1.17-.41c-.15-.05-.25-.19-.25-.35l-.04-1.25-1.12-.54c-.14-.07-.23-.22-.22-.37l.09-1.25-1.06-.65c-.13-.08-.2-.24-.17-.39l.23-1.23-.99-.76c-.12-.1-.18-.26-.13-.41l.35-1.2-.9-.85c-.11-.11-.15-.27-.09-.42l.47-1.15-.8-.95c-.1-.12-.12-.29-.04-.43l.59-1.09-.71-1.03c-.09-.13-.09-.3,0-.43l.71-1.03-.59-1.09c-.08-.14-.06-.31.04-.43l.8-.95-.47-1.15c-.06-.14-.02-.31.09-.42l.9-.86-.35-1.2c-.04-.15,0-.31.13-.41l.98-.75-.22-1.22c-.03-.15.04-.31.17-.39l1.06-.66-.09-1.24c-.01-.16.07-.3.22-.37l1.12-.54.04-1.25c0-.16.1-.29.25-.35l1.18-.42.17-1.23c.02-.16.14-.28.29-.32l1.21-.29.29-1.22c.04-.15.17-.27.32-.29l1.24-.16.41-1.17c.05-.15.19-.25.35-.25l1.25-.04.54-1.12c.07-.14.21-.23.37-.22l1.25.09.65-1.06c.08-.13.24-.21.39-.17l1.22.22.76-.99c.1-.12.26-.18.41-.13l1.2.35.86-.9c.11-.11.27-.15.42-.09l1.15.47.95-.81c.12-.1.29-.12.43-.04l1.09.59,1.03-.71c.13-.09.3-.09.43,0l1.03.71,1.09-.59c.14-.08.31-.06.43.04l.95.81,1.15-.47c.14-.06.31-.02.42.09l.86.9,1.2-.35c.15-.05.31,0,.41.13l.76.99,1.22-.22c.15-.03.31.04.39.17l.65,1.06,1.25-.09c.16-.02.31.07.37.22l.54,1.12,1.25.04c.16,0,.3.11.35.25l.41,1.17,1.24.17c.16.02.28.14.32.29l.29,1.21,1.21.29c.15.04.27.16.29.32l.17,1.24,1.17.41c.15.05.25.19.25.35l.04,1.25,1.12.54c.14.07.23.22.22.37l-.09,1.25,1.06.65c.13.08.2.24.17.39l-.23,1.23.99.76c.12.1.18.26.13.41l-.35,1.2.9.85c.11.11.15.27.09.42l-.47,1.15.8.95c.1.12.12.29.04.43l-.59,1.09.7,1.03c.09.13.09.3,0,.43l-.7,1.03.59,1.09c.08.14.06.31-.04.43l-.8.95.47,1.15c.06.14.02.31-.09.42l-.9.86.35,1.19c.04.15,0,.31-.13.41l-.99.76.23,1.23c.03.15-.04.31-.18.39l-1.06.65.1,1.25c.01.16-.07.31-.22.37l-1.12.54-.04,1.25c0,.16-.11.29-.25.35l-1.17.42-.17,1.23c-.02.16-.14.28-.29.32l-1.21.29-.29,1.21c-.04.15-.16.27-.32.29l-1.24.17-.41,1.17c-.05.15-.19.25-.35.25l-1.25.04-.54,1.12c-.07.14-.21.23-.37.21l-1.24-.09-.65,1.06c-.08.13-.24.2-.39.17l-1.22-.23-.76.99c-.1.12-.26.18-.41.13l-1.2-.35-.86.9c-.11.11-.28.15-.42.09l-1.15-.47-.95.81c-.12.1-.29.12-.43.04l-1.09-.59-1.03.7c-.06.04-.14.07-.22.07Zm-1.22-1.6c.08,0,.15.02.22.07l1.01.69,1.01-.69c.12-.08.27-.09.4-.02l1.07.58.93-.79c.11-.09.26-.12.39-.06l1.13.46.84-.88c.1-.1.25-.14.38-.1l1.17.34.74-.96c.09-.11.23-.17.37-.14l1.2.22.64-1.03c.07-.12.21-.2.35-.18l1.21.09.53-1.1c.06-.13.19-.21.33-.22l1.22-.04.4-1.15c.05-.14.17-.23.31-.25l1.21-.16.28-1.18c.03-.14.14-.25.28-.28l1.18-.28.16-1.2c.02-.14.12-.26.25-.31l1.15-.41.04-1.22c0-.14.09-.27.22-.33l1.1-.52-.1-1.22c-.01-.14.06-.28.18-.36l1.04-.64-.22-1.2c-.03-.14.03-.28.14-.37l.96-.74-.34-1.16c-.04-.14,0-.28.1-.38l.88-.84-.46-1.13c-.05-.13-.03-.28.06-.39l.79-.93-.58-1.07c-.07-.13-.06-.28.02-.4l.69-1.01-.69-1.01c-.08-.12-.09-.27-.02-.4l.58-1.07-.79-.93c-.09-.11-.12-.26-.06-.39l.46-1.13-.88-.84c-.1-.1-.14-.25-.1-.38l.34-1.17-.96-.74c-.11-.09-.17-.23-.14-.37l.22-1.2-1.03-.64c-.12-.07-.19-.21-.18-.35l.09-1.22-1.1-.52c-.13-.06-.21-.19-.22-.33l-.04-1.22-1.15-.4c-.14-.05-.23-.17-.25-.31l-.16-1.21-1.18-.28c-.14-.03-.25-.14-.28-.28l-.28-1.18-1.21-.16c-.14-.02-.26-.12-.31-.25l-.4-1.15-1.22-.04c-.14,0-.27-.09-.33-.22l-.52-1.1-1.22.09c-.15.02-.28-.06-.35-.18l-.64-1.03-1.2.22c-.14.03-.28-.03-.37-.14l-.74-.96-1.17.34c-.14.04-.28,0-.38-.1l-.84-.88-1.13.46c-.13.05-.28.03-.39-.06l-.93-.79-1.07.58c-.13.07-.28.06-.4-.02l-1-.69-1,.69c-.12.08-.27.09-.4.02l-1.07-.58-.93.79c-.11.09-.26.12-.39.06l-1.13-.46-.84.88c-.1.1-.25.14-.38.1l-1.17-.34-.74.96c-.09.11-.23.17-.37.14l-1.2-.22-.64,1.03c-.07.12-.2.2-.35.18l-1.22-.09-.52,1.1c-.06.13-.19.21-.33.22l-1.22.04-.4,1.15c-.05.14-.17.23-.31.25l-1.21.16-.28,1.19c-.03.14-.14.25-.28.28l-1.18.28-.16,1.2c-.02.14-.12.26-.25.31l-1.15.41-.04,1.22c0,.14-.09.27-.22.33l-1.1.52.09,1.21c.01.14-.06.28-.18.35l-1.04.65.22,1.2c.03.14-.03.28-.14.37l-.96.74.34,1.17c.04.14,0,.28-.1.38l-.88.84.46,1.13c.05.13.03.28-.06.39l-.79.93.58,1.07c.07.13.06.28-.02.4l-.69,1,.69,1c.08.12.09.27.02.4l-.58,1.07.79.93c.09.11.12.26.06.39l-.46,1.13.88.84c.1.1.14.25.1.38l-.34,1.17.96.74c.11.09.17.23.14.37l-.22,1.2,1.03.64c.12.07.19.21.18.35l-.09,1.22,1.1.52c.13.06.21.19.22.33l.04,1.22,1.15.4c.14.05.23.17.25.31l.16,1.21,1.18.28c.14.03.25.14.28.28l.29,1.18,1.21.16c.14.02.26.12.31.25l.41,1.15,1.22.04c.14,0,.27.09.33.22l.52,1.1,1.21-.09c.15-.02.28.06.35.18l.64,1.03,1.2-.22c.14-.02.28.03.37.14l.74.96,1.17-.34c.14-.04.28,0,.38.1l.84.88,1.13-.46c.13-.05.28-.03.39.06l.93.79,1.07-.58c.06-.03.12-.05.18-.05Z"/>
      </g>
      <g>
        <g id="polyline3944">
          <polygon class="cls-4" points="88.43 21.82 91.33 7.73 97.09 5.17 93.89 22.97 88.43 21.82"/>
          <path class="cls-3" d="m94.08,23.3c-.08.04-.17.06-.26.05-.21-.04-.35-.24-.31-.44l3.07-17.09-4.92,2.19-2.86,13.89c-.04.21-.24.34-.45.3-.21-.04-.34-.24-.3-.45l2.9-14.08c.02-.12.11-.22.22-.27l5.75-2.57c.13-.06.28-.04.39.05.11.09.17.23.14.37l-3.2,17.8c-.02.11-.09.21-.18.26Z"/>
        </g>
        <g id="path3736-2" data-name="path3736">
          <path class="cls-3" d="m60.37,21.07l-1.36-3.04c-.09-.2,0-.43.2-.51L97.81,0c.2-.09,0,.64.08.83l-.42,4.4c-.77.16-.22-.21-.42-.13l-36.16,16.15c-.19.09-.43,0-.51-.19Z"/>
        </g>
      </g>
      <g id="circle3946">
        <circle class="cls-3" cx="32.78" cy="43.56" r="7.99"/>
        <path class="cls-3" d="m32.78,51.74c-4.51,0-8.18-3.67-8.18-8.18s3.67-8.18,8.18-8.18,8.18,3.67,8.18,8.18-3.67,8.18-8.18,8.18Zm0-15.98c-4.3,0-7.8,3.5-7.8,7.8s3.5,7.8,7.8,7.8,7.8-3.5,7.8-7.8-3.5-7.8-7.8-7.8Z"/>
      </g>
      <g id="polygon3948">
        <polygon class="cls-4" points="80.79 19.73 82.06 18.96 83.23 19.86 84.57 19.22 85.63 20.24 87.04 19.75 87.99 20.87 89.44 20.53 90.27 21.74 91.74 21.55 92.45 22.85 93.92 22.82 94.49 24.18 95.96 24.3 96.38 25.72 97.84 25.99 98.11 27.44 99.53 27.87 99.65 29.34 101.01 29.9 100.98 31.38 102.27 32.09 102.09 33.56 103.3 34.39 102.95 35.84 104.08 36.79 103.59 38.19 104.6 39.26 103.97 40.6 104.87 41.77 104.1 43.03 104.87 44.3 103.97 45.47 104.6 46.81 103.59 47.88 104.08 49.28 102.95 50.23 103.3 51.68 102.09 52.51 102.27 53.98 100.98 54.69 101.01 56.17 99.65 56.73 99.53 58.2 98.11 58.62 97.84 60.08 96.38 60.35 95.96 61.77 94.49 61.88 93.92 63.25 92.45 63.22 91.74 64.52 90.27 64.33 89.44 65.54 87.99 65.19 87.04 66.32 85.63 65.83 84.57 66.85 83.23 66.21 82.06 67.11 80.79 66.34 79.53 67.11 78.36 66.21 77.02 66.85 75.95 65.83 74.55 66.32 73.6 65.19 72.15 65.54 71.32 64.33 69.85 64.52 69.14 63.22 67.66 63.25 67.1 61.88 65.62 61.77 65.2 60.35 63.75 60.08 63.47 58.62 62.06 58.2 61.94 56.73 60.58 56.17 60.61 54.69 59.31 53.98 59.5 52.51 58.29 51.68 58.63 50.23 57.51 49.28 58 47.88 56.98 46.81 57.62 45.47 56.72 44.3 57.49 43.03 56.72 41.77 57.62 40.6 56.98 39.26 58 38.19 57.51 36.79 58.63 35.84 58.29 34.39 59.5 33.56 59.31 32.09 60.61 31.38 60.58 29.9 61.94 29.34 62.06 27.87 63.47 27.44 63.75 25.99 65.2 25.72 65.62 24.3 67.1 24.18 67.66 22.82 69.14 22.85 69.85 21.55 71.32 21.74 72.15 20.53 73.6 20.87 74.55 19.75 75.95 20.24 77.02 19.22 78.36 19.86 79.53 18.96 80.79 19.73"/>
        <path class="cls-3" d="m82.06,67.49c-.07,0-.14-.02-.2-.06l-1.07-.65-1.06.65c-.14.08-.31.07-.43-.02l-.98-.76-1.13.54c-.14.07-.31.04-.43-.07l-.9-.85-1.18.41c-.15.05-.31,0-.42-.11l-.8-.95-1.22.29c-.15.03-.31-.03-.4-.15l-.7-1.02-1.24.16c-.16.02-.31-.06-.38-.2l-.59-1.09-1.25.03c-.15,0-.3-.09-.36-.24l-.48-1.15-1.24-.09c-.16-.01-.29-.12-.34-.27l-.36-1.2-1.23-.23c-.15-.03-.27-.15-.3-.3l-.23-1.23-1.2-.36c-.15-.04-.26-.18-.27-.34l-.09-1.24-1.15-.48c-.15-.06-.24-.2-.24-.36l.03-1.25-1.09-.59c-.14-.08-.22-.23-.2-.38l.16-1.24-1.02-.7c-.13-.09-.19-.25-.15-.4l.29-1.22-.95-.8c-.12-.1-.17-.27-.11-.42l.41-1.18-.85-.9c-.11-.11-.14-.28-.07-.43l.54-1.13-.76-.98c-.1-.13-.11-.3-.02-.43l.65-1.07-.65-1.07c-.08-.13-.07-.31.02-.43l.76-.98-.54-1.13c-.07-.14-.04-.31.07-.43l.85-.9-.41-1.18c-.05-.15,0-.31.11-.42l.95-.8-.29-1.22c-.04-.15.03-.31.15-.4l1.02-.7-.16-1.24c-.02-.16.06-.31.2-.38l1.09-.59-.03-1.25c0-.16.09-.3.24-.36l1.15-.48.09-1.24c.01-.16.12-.29.27-.34l1.2-.36.23-1.23c.03-.15.15-.27.3-.3l1.23-.23.36-1.2c.04-.15.18-.26.33-.27l1.24-.1.48-1.14c.06-.14.21-.25.36-.23l1.25.03.59-1.09c.08-.14.22-.21.38-.2l1.24.16.7-1.02c.09-.13.25-.19.4-.15l1.22.29.8-.95c.1-.12.27-.16.42-.11l1.18.41.9-.85c.11-.11.28-.14.43-.07l1.13.54.98-.76c.12-.1.3-.11.43-.02l1.06.65,1.07-.65c.14-.08.31-.07.43.02l.98.76,1.13-.54c.14-.07.31-.04.43.07l.9.85,1.18-.41c.15-.05.31,0,.42.11l.8.95,1.22-.29c.15-.03.31.03.4.16l.7,1.02,1.24-.16c.16-.02.31.06.38.2l.59,1.09,1.25-.03c.16-.01.3.09.36.23l.48,1.14,1.24.1c.16.01.29.12.33.27l.36,1.2,1.23.23c.15.03.27.15.3.3l.23,1.22,1.2.36c.15.04.26.18.27.33l.1,1.24,1.14.48c.14.06.24.2.23.36l-.03,1.25,1.09.59c.14.08.22.23.2.38l-.16,1.24,1.02.7c.13.09.19.25.15.4l-.29,1.22.95.8c.12.1.17.27.11.42l-.41,1.18.85.9c.11.11.14.28.07.43l-.54,1.13.76.98c.1.12.11.3.02.43l-.65,1.07.65,1.07c.08.14.07.31-.02.43l-.76.98.54,1.13c.07.14.04.31-.07.43l-.85.9.41,1.18c.05.15,0,.31-.11.42l-.95.8.29,1.22c.04.15-.03.31-.15.4l-1.02.7.16,1.24c.02.16-.06.31-.2.38l-1.09.59.03,1.25c0,.16-.09.3-.23.36l-1.14.48-.1,1.24c-.01.16-.12.29-.27.33l-1.2.36-.23,1.22c-.03.15-.15.27-.3.3l-1.23.23-.36,1.2c-.04.15-.18.26-.34.27l-1.24.09-.48,1.15c-.06.14-.21.23-.36.24l-1.25-.03-.59,1.09c-.08.14-.22.21-.38.2l-1.24-.16-.7,1.02c-.09.13-.25.19-.4.16l-1.22-.29-.8.95c-.1.12-.27.16-.42.11l-1.18-.41-.9.85c-.11.11-.28.14-.43.07l-1.13-.54-.98.76c-.07.05-.15.08-.23.08Zm-3.7-1.66c.08,0,.16.03.23.08l.96.74,1.04-.64c.12-.07.28-.07.4,0l1.04.64.96-.74c.11-.09.27-.1.4-.04l1.11.52.88-.83c.1-.1.25-.13.39-.08l1.15.4.79-.93c.09-.11.24-.16.38-.12l1.19.28.69-1c.08-.12.22-.18.36-.16l1.21.16.58-1.07c.07-.13.19-.2.34-.2l1.22.03.47-1.13c.05-.13.18-.22.32-.23l1.21-.09.35-1.17c.04-.14.15-.24.29-.27l1.2-.23.23-1.2c.03-.14.13-.25.27-.29l1.17-.35.1-1.21c.01-.14.1-.27.23-.32l1.12-.47-.03-1.22c0-.14.07-.28.2-.34l1.07-.58-.16-1.21c-.02-.14.04-.28.16-.36l1-.69-.28-1.19c-.03-.14.02-.29.12-.38l.93-.79-.4-1.15c-.05-.13-.01-.28.08-.39l.83-.88-.52-1.11c-.06-.13-.04-.28.04-.4l.74-.96-.64-1.04c-.08-.12-.08-.28,0-.4l.64-1.04-.74-.96c-.09-.11-.1-.27-.04-.4l.52-1.11-.83-.88c-.1-.1-.13-.25-.08-.39l.4-1.15-.93-.79c-.11-.09-.16-.24-.12-.38l.28-1.19-1-.69c-.12-.08-.18-.22-.16-.36l.16-1.21-1.07-.58c-.13-.07-.2-.2-.2-.34l.03-1.22-1.12-.47c-.13-.05-.22-.18-.23-.32l-.1-1.21-1.17-.35c-.14-.04-.24-.15-.27-.29l-.23-1.2-1.2-.23c-.14-.03-.25-.13-.29-.27l-.35-1.17-1.21-.1c-.14-.01-.27-.1-.32-.23l-.47-1.12-1.22.03c-.15,0-.28-.07-.34-.2l-.58-1.07-1.21.16c-.15.02-.28-.04-.36-.16l-.69-1-1.19.28c-.14.03-.29-.01-.38-.12l-.79-.93-1.15.4c-.14.05-.29.01-.39-.08l-.88-.83-1.11.52c-.13.06-.28.04-.4-.04l-.96-.74-1.04.64c-.12.07-.28.07-.4,0l-1.04-.64-.96.74c-.11.09-.27.1-.4.04l-1.11-.52-.88.83c-.1.1-.25.13-.39.08l-1.15-.4-.79.93c-.09.11-.24.16-.38.12l-1.19-.28-.69,1c-.08.12-.22.18-.36.16l-1.21-.16-.58,1.07c-.07.13-.21.2-.34.2l-1.22-.03-.47,1.12c-.05.13-.18.22-.32.23l-1.21.1-.35,1.17c-.04.14-.15.24-.29.27l-1.2.23-.23,1.2c-.03.14-.13.25-.27.29l-1.17.35-.09,1.21c-.01.14-.1.27-.23.32l-1.13.47.03,1.22c0,.14-.07.28-.2.34l-1.07.58.16,1.21c.02.14-.04.28-.16.36l-1,.69.28,1.19c.03.14-.02.29-.12.38l-.93.79.4,1.15c.05.13.01.28-.08.39l-.83.88.52,1.11c.06.13.04.28-.04.4l-.74.96.64,1.04c.08.12.08.28,0,.4l-.64,1.04.74.96c.09.11.1.27.04.4l-.52,1.11.83.88c.1.1.13.25.08.39l-.4,1.15.93.79c.11.09.16.24.12.38l-.28,1.19,1,.69c.12.08.18.22.16.36l-.16,1.21,1.07.58c.13.07.2.2.2.34l-.03,1.22,1.13.47c.13.05.22.18.23.32l.09,1.21,1.17.35c.14.04.24.15.27.29l.23,1.2,1.2.23c.14.03.25.13.29.27l.35,1.17,1.21.09c.14.01.27.1.32.23l.47,1.13,1.22-.03c.14,0,.28.07.34.2l.58,1.07,1.21-.16c.15-.01.28.04.36.16l.69,1,1.19-.28c.14-.03.29.01.38.12l.79.93,1.15-.4c.14-.05.29-.01.39.08l.88.83,1.11-.52c.05-.02.11-.04.16-.04Z"/>
      </g>
      <g id="circle3950">
        <circle class="cls-3" cx="81" cy="43.56" r="7.99"/>
        <path class="cls-3" d="m81,51.74c-4.51,0-8.18-3.67-8.18-8.18s3.67-8.18,8.18-8.18,8.18,3.67,8.18,8.18-3.67,8.18-8.18,8.18Zm0-15.98c-4.3,0-7.8,3.5-7.8,7.8s3.5,7.8,7.8,7.8,7.8-3.5,7.8-7.8-3.5-7.8-7.8-7.8Z"/>
      </g>
      <g id="circle3952">
        <circle class="cls-4" cx="31.31" cy="40.29" r="2.01"/>
        <path class="cls-3" d="m31.31,42.49c-1.21,0-2.2-.99-2.2-2.2s.99-2.2,2.2-2.2,2.2.99,2.2,2.2-.99,2.2-2.2,2.2Zm0-4.02c-1,0-1.82.82-1.82,1.82s.82,1.82,1.82,1.82,1.82-.82,1.82-1.82-.82-1.82-1.82-1.82Z"/>
      </g>
      <g id="circle3954">
        <circle class="cls-4" cx="78.44" cy="40.29" r="2.01"/>
        <path class="cls-3" d="m78.44,42.49c-1.21,0-2.2-.99-2.2-2.2s.99-2.2,2.2-2.2,2.2.99,2.2,2.2-.99,2.2-2.2,2.2Zm0-4.02c-1,0-1.82.82-1.82,1.82s.82,1.82,1.82,1.82,1.82-.82,1.82-1.82-.82-1.82-1.82-1.82Z"/>
      </g>
      <circle class="cls-1" cx="57.64" cy="75.51" r="8.68"/>
    </g>
  </g>
</svg>