<?xml version="1.0" encoding="UTF-8"?>
<svg id="Layer_2" data-name="Layer 2" xmlns="http://www.w3.org/2000/svg" viewBox="0 0 115.27 85.97">
  <defs>
    <style>
      .cls-1 {
        fill: #32adc6;
      }

      .cls-1, .cls-2, .cls-3 {
        stroke-width: 0px;
      }

      .cls-3 {
        fill: #fff;
      }

      .cls-4 {
        fill: none;
        stroke: #231f20;
        stroke-linecap: round;
        stroke-miterlimit: 10;
        stroke-width: 2px;
      }
    </style>
  </defs>
  <g id="Layer_1-2" data-name="Layer 1">
    <g>
      <path class="cls-1" d="m109.6,85.4H5.67c-2.81,0-5.1-2.28-5.1-5.1V14.24c0-2.81,2.28-5.1,5.1-5.1h103.93c2.81,0,5.1,2.28,5.1,5.1v66.06c0,2.81-2.29,5.1-5.1,5.1Z"/>
      <path class="cls-2" d="m109.6,85.97H5.67c-3.13,0-5.67-2.54-5.67-5.67V14.24c0-3.13,2.54-5.67,5.67-5.67h103.93c3.13,0,5.67,2.54,5.67,5.67v66.06c-.01,3.13-2.55,5.67-5.67,5.67ZM5.67,9.71c-2.5,0-4.53,2.03-4.53,4.53v66.06c0,2.5,2.03,4.53,4.53,4.53h103.93c2.49,0,4.52-2.03,4.53-4.53V14.24c0-2.5-2.03-4.53-4.53-4.53H5.67Z"/>
      <g>
        <g id="polyline3958">
          <polygon class="cls-3" points="20.88 18.49 9.55 1.87 1.63 1.81 15.6 20.55 20.88 18.49"/>
          <path class="cls-2" d="m15.57,20.93c-.1,0-.21-.06-.27-.15L1.33,2.03c-.09-.12-.1-.27-.03-.4.07-.13.2-.21.34-.21l7.91.06c.13,0,.24.06.31.17l11.33,16.62c.12.17.07.41-.1.53-.17.12-.41.07-.53-.1L9.35,2.25l-6.95-.05,13.51,18.13c.13.17.09.41-.08.53-.08.06-.17.08-.26.07Z"/>
        </g>
        <g id="path3736">
          <path class="cls-2" d="m44.21,4.56L4.62,5.63c-.22,0-.39-.16-.4-.38l-2.2-3.11c0-.22-.51-.78-.29-.79L44.1.46c.22,0,.39.16.4.38l.09,3.33c0,.21-.16.39-.38.39Z"/>
          <path class="cls-2" d="m4.55,5.82c-.13-.01-.25-.06-.34-.15-.1-.09-.29-.16-.29-.16l-.83-1.11c-.23-.43-.61-.82-1.11-1.49l-.65-.87c-.16-.22-.36-.45-.2-.67.13-.19.5-.2.59-.2L44.09.27c.15,0,.3.05.41.16.11.11.18.25.18.4l.09,3.33c0,.15-.05.3-.16.41-.11.11-.25.17-.41.17L4.62,5.82s-.05,0-.07,0Zm-2.36-3.75l2.18,3.07s.03.07.04.1c0,.06.02.11.06.14.04.03.09.05.14.05l39.59-1.06s0,0,0,0c.05,0,.1-.02.13-.06.04-.04.05-.09.05-.14l-.09-3.33c0-.05-.02-.1-.06-.14-.04-.04-.09-.05-.14-.05L1.93,1.54s.04.08.06.11c.09.15.17.29.2.42Z"/>
        </g>
      </g>
      <g id="polygon3960">
        <polygon class="cls-3" points="33.8 14.07 35.1 13.36 36.22 14.32 37.59 13.76 38.61 14.82 40.02 14.41 40.93 15.58 42.38 15.32 43.15 16.57 44.63 16.46 45.27 17.79 46.75 17.83 47.24 19.23 48.71 19.43 49.05 20.86 50.49 21.21 50.69 22.68 52.08 23.17 52.12 24.65 53.46 25.28 53.34 26.76 54.6 27.53 54.33 28.99 55.5 29.89 55.09 31.31 56.16 32.32 55.6 33.69 56.55 34.82 55.85 36.12 56.68 37.34 55.85 38.56 56.55 39.86 55.6 40.98 56.16 42.35 55.09 43.37 55.5 44.78 54.33 45.69 54.6 47.14 53.34 47.91 53.46 49.39 52.12 50.03 52.08 51.51 50.69 52.01 50.49 53.47 49.05 53.81 48.71 55.25 47.24 55.45 46.75 56.84 45.27 56.88 44.63 58.22 43.15 58.1 42.38 59.36 40.93 59.09 40.02 60.26 38.61 59.85 37.59 60.92 36.22 60.36 35.1 61.31 33.8 60.61 32.58 61.44 31.36 60.61 30.06 61.31 28.93 60.36 27.56 60.92 26.54 59.85 25.12 60.26 24.22 59.09 22.77 59.36 21.99 58.1 20.52 58.22 19.89 56.88 18.41 56.84 17.91 55.45 16.45 55.25 16.09 53.81 14.66 53.47 14.47 52 13.08 51.51 13.03 50.03 11.7 49.39 11.81 47.91 10.56 47.14 10.82 45.69 9.65 44.78 10.07 43.37 9 42.35 9.56 40.98 8.6 39.86 9.31 38.56 8.47 37.34 9.31 36.12 8.6 34.82 9.56 33.69 9 32.32 10.07 31.3 9.65 29.88 10.82 28.99 10.56 27.53 11.81 26.75 11.7 25.28 13.03 24.65 13.08 23.17 14.47 22.67 14.67 21.21 16.1 20.86 16.45 19.42 17.92 19.23 18.41 17.83 19.89 17.79 20.52 16.46 22 16.57 22.77 15.32 24.23 15.58 25.13 14.41 26.55 14.82 27.56 13.76 28.93 14.32 30.06 13.36 31.36 14.07 32.58 13.23 33.8 14.07"/>
        <path class="cls-2" d="m32.58,61.82c-.08,0-.15-.02-.22-.07l-1.03-.7-1.09.59c-.14.07-.31.06-.43-.04l-.95-.81-1.15.47c-.14.06-.31.02-.42-.09l-.86-.9-1.2.35c-.15.05-.31,0-.41-.13l-.76-.99-1.22.23c-.16.03-.31-.04-.39-.17l-.65-1.06-1.24.09c-.17.02-.31-.07-.37-.22l-.54-1.12-1.25-.04c-.16,0-.29-.11-.35-.25l-.42-1.17-1.23-.17c-.15-.02-.28-.13-.32-.29l-.3-1.21-1.21-.29c-.15-.04-.27-.16-.29-.32l-.16-1.24-1.17-.41c-.15-.05-.25-.19-.25-.35l-.04-1.25-1.12-.54c-.14-.07-.23-.22-.22-.37l.09-1.25-1.06-.65c-.13-.08-.2-.24-.17-.39l.23-1.23-.99-.76c-.12-.1-.18-.26-.13-.41l.35-1.2-.9-.85c-.11-.11-.15-.27-.09-.42l.47-1.15-.8-.95c-.1-.12-.12-.29-.04-.43l.59-1.09-.71-1.03c-.09-.13-.09-.3,0-.43l.71-1.03-.59-1.09c-.08-.14-.06-.31.04-.43l.8-.95-.47-1.15c-.06-.14-.02-.31.09-.42l.9-.86-.35-1.2c-.04-.15,0-.31.13-.41l.98-.75-.22-1.22c-.03-.15.04-.31.17-.39l1.06-.66-.09-1.24c-.01-.16.07-.3.22-.37l1.12-.54.04-1.25c0-.16.1-.29.25-.35l1.18-.42.17-1.23c.02-.16.14-.28.29-.32l1.21-.29.29-1.22c.04-.15.17-.27.32-.29l1.24-.16.41-1.17c.05-.15.19-.25.35-.25l1.25-.04.54-1.12c.07-.14.21-.23.37-.22l1.25.09.65-1.06c.08-.13.24-.21.39-.17l1.22.22.76-.99c.1-.12.26-.18.41-.13l1.2.35.86-.9c.11-.11.27-.15.42-.09l1.15.47.95-.81c.12-.1.29-.12.43-.04l1.09.59,1.03-.71c.13-.09.3-.09.43,0l1.03.71,1.09-.59c.14-.08.31-.06.43.04l.95.81,1.15-.47c.14-.06.31-.02.42.09l.86.9,1.2-.35c.15-.05.31,0,.41.13l.76.99,1.22-.22c.15-.03.31.04.39.17l.65,1.06,1.25-.09c.16-.02.31.07.37.22l.54,1.12,1.25.04c.16,0,.3.11.35.25l.41,1.17,1.24.17c.16.02.28.14.32.29l.29,1.21,1.21.29c.15.04.27.16.29.32l.17,1.24,1.17.41c.15.05.25.19.25.35l.04,1.25,1.12.54c.14.07.23.22.22.37l-.09,1.25,1.06.65c.13.08.2.24.17.39l-.23,1.23.99.76c.12.1.18.26.13.41l-.35,1.2.9.85c.11.11.15.27.09.42l-.47,1.15.8.95c.1.12.12.29.04.43l-.59,1.09.7,1.03c.09.13.09.3,0,.43l-.7,1.03.59,1.09c.08.14.06.31-.04.43l-.8.95.47,1.15c.06.14.02.31-.09.42l-.9.86.35,1.19c.04.15,0,.31-.13.41l-.99.76.23,1.23c.03.15-.04.31-.18.39l-1.06.65.1,1.25c.01.16-.07.31-.22.37l-1.12.54-.04,1.25c0,.16-.11.29-.25.35l-1.17.42-.17,1.23c-.02.16-.14.28-.29.32l-1.21.29-.29,1.21c-.04.15-.16.27-.32.29l-1.24.17-.41,1.17c-.05.15-.19.25-.35.25l-1.25.04-.54,1.12c-.07.14-.21.23-.37.21l-1.24-.09-.65,1.06c-.08.13-.24.2-.39.17l-1.22-.23-.76.99c-.1.12-.26.18-.41.13l-1.2-.35-.86.9c-.11.11-.28.15-.42.09l-1.15-.47-.95.81c-.12.1-.29.12-.43.04l-1.09-.59-1.03.7c-.06.04-.14.07-.22.07Zm-1.22-1.6c.08,0,.15.02.22.07l1.01.69,1.01-.69c.12-.08.27-.09.4-.02l1.07.58.93-.79c.11-.09.26-.12.39-.06l1.13.46.84-.88c.1-.1.25-.14.38-.1l1.17.34.74-.96c.09-.11.23-.17.37-.14l1.2.22.64-1.03c.07-.12.21-.2.35-.18l1.21.09.53-1.1c.06-.13.19-.21.33-.22l1.22-.04.4-1.15c.05-.14.17-.23.31-.25l1.21-.16.28-1.18c.03-.14.14-.25.28-.28l1.18-.28.16-1.2c.02-.14.12-.26.25-.31l1.15-.41.04-1.22c0-.14.09-.27.22-.33l1.1-.52-.1-1.22c-.01-.14.06-.28.18-.36l1.04-.64-.22-1.2c-.03-.14.03-.28.14-.37l.96-.74-.34-1.16c-.04-.14,0-.28.1-.38l.88-.84-.46-1.13c-.05-.13-.03-.28.06-.39l.79-.93-.58-1.07c-.07-.13-.06-.28.02-.4l.69-1.01-.69-1.01c-.08-.12-.09-.27-.02-.4l.58-1.07-.79-.93c-.09-.11-.12-.26-.06-.39l.46-1.13-.88-.84c-.1-.1-.14-.25-.1-.38l.34-1.17-.96-.74c-.11-.09-.17-.23-.14-.37l.22-1.2-1.03-.64c-.12-.07-.19-.21-.18-.35l.09-1.22-1.1-.52c-.13-.06-.21-.19-.22-.33l-.04-1.22-1.15-.4c-.14-.05-.23-.17-.25-.31l-.16-1.21-1.18-.28c-.14-.03-.25-.14-.28-.28l-.28-1.18-1.21-.16c-.14-.02-.26-.12-.31-.25l-.4-1.15-1.22-.04c-.14,0-.27-.09-.33-.22l-.52-1.1-1.22.09c-.15.02-.28-.06-.35-.18l-.64-1.03-1.2.22c-.14.03-.28-.03-.37-.14l-.74-.96-1.17.34c-.14.04-.28,0-.38-.1l-.84-.88-1.13.46c-.13.05-.28.03-.39-.06l-.93-.79-1.07.58c-.13.07-.28.06-.4-.02l-1-.69-1,.69c-.12.08-.27.09-.4.02l-1.07-.58-.93.79c-.11.09-.26.12-.39.06l-1.13-.46-.84.88c-.1.1-.25.14-.38.1l-1.17-.34-.74.96c-.09.11-.23.17-.37.14l-1.2-.22-.64,1.03c-.07.12-.2.2-.35.18l-1.22-.09-.52,1.1c-.06.13-.19.21-.33.22l-1.22.04-.4,1.15c-.05.14-.17.23-.31.25l-1.21.16-.28,1.19c-.03.14-.14.25-.28.28l-1.18.28-.16,1.2c-.02.14-.12.26-.25.31l-1.15.41-.04,1.22c0,.14-.09.27-.22.33l-1.1.52.09,1.21c.01.14-.06.28-.18.35l-1.04.65.22,1.2c.03.14-.03.28-.14.37l-.96.74.34,1.17c.04.14,0,.28-.1.38l-.88.84.46,1.13c.05.13.03.28-.06.39l-.79.93.58,1.07c.07.13.06.28-.02.4l-.69,1,.69,1c.08.12.09.27.02.4l-.58,1.07.79.93c.09.11.12.26.06.39l-.46,1.13.88.84c.1.1.14.25.1.38l-.34,1.17.96.74c.11.09.17.23.14.37l-.22,1.2,1.03.64c.12.07.19.21.18.35l-.09,1.22,1.1.52c.13.06.21.19.22.33l.04,1.22,1.15.4c.14.05.23.17.25.31l.16,1.21,1.18.28c.14.03.25.14.28.28l.29,1.18,1.21.16c.14.02.26.12.31.25l.41,1.15,1.22.04c.14,0,.27.09.33.22l.52,1.1,1.21-.09c.15-.02.28.06.35.18l.64,1.03,1.2-.22c.14-.02.28.03.37.14l.74.96,1.17-.34c.14-.04.28,0,.38.1l.84.88,1.13-.46c.13-.05.28-.03.39.06l.93.79,1.07-.58c.06-.03.12-.05.18-.05Z"/>
      </g>
      <g>
        <g id="path3942">
          <path class="cls-2" d="m68.98,4.3l39.57,1.56c.22.01.39-.16.4-.37l.13-3.33c.01-.22-.16-.39-.37-.4L69.14.19c-.22-.01-.39.16-.4.37l-.13,3.33c0,.22.17.4.37.4Z"/>
          <path class="cls-2" d="m108.61,6.04s-.04,0-.07,0l-39.57-1.56c-.31,0-.56-.27-.56-.6l.13-3.33c.02-.32.29-.58.6-.56l39.57,1.56c.16,0,.3.08.41.19.1.11.16.26.15.41l-.13,3.33c-.01.3-.25.54-.54.56ZM69.11.38s-.08.02-.12.05c-.04.04-.06.09-.06.14l-.13,3.33c0,.11.09.21.19.21h0s39.57,1.56,39.57,1.56c.11.01.2-.08.21-.19l.13-3.33c0-.05-.01-.1-.05-.14-.04-.04-.09-.06-.14-.07L69.13.38s-.02,0-.02,0Z"/>
        </g>
        <g>
          <g id="polyline3944">
            <polygon class="cls-3" points="93.41 16.95 102.26 5.61 108.55 5.86 97.79 20.4 93.41 16.95"/>
            <path class="cls-2" d="m97.81,20.78c-.09,0-.18-.02-.25-.07-.17-.13-.21-.36-.08-.53l10.34-13.96-5.38-.22-8.73,11.18c-.13.17-.37.19-.53.07-.17-.13-.2-.37-.07-.53l8.85-11.34c.08-.1.2-.15.32-.15l6.29.25c.14,0,.27.09.33.22.06.13.05.28-.04.39l-10.77,14.53c-.07.09-.17.15-.28.15Z"/>
          </g>
          <g id="path3736-2" data-name="path3736">
            <path class="cls-2" d="m68.59,3.83l.13-3.33c.01-.22.19-.38.4-.37l42.36,1.43c.22.01-.29.57-.3.78l-2.33,3.75c-.76-.2-.1-.29-.32-.3l-39.57-1.57c-.22,0-.38-.19-.37-.4Z"/>
          </g>
        </g>
      </g>
      <g id="circle3946">
        <circle class="cls-2" cx="32.78" cy="37.86" r="7.99"/>
        <path class="cls-2" d="m32.78,46.04c-4.51,0-8.18-3.67-8.18-8.18s3.67-8.18,8.18-8.18,8.18,3.67,8.18,8.18-3.67,8.18-8.18,8.18Zm0-15.98c-4.3,0-7.8,3.5-7.8,7.8s3.5,7.8,7.8,7.8,7.8-3.5,7.8-7.8-3.5-7.8-7.8-7.8Z"/>
      </g>
      <g id="polygon3948">
        <polygon class="cls-3" points="80.79 14.03 82.06 13.26 83.23 14.16 84.57 13.53 85.63 14.54 87.04 14.05 87.99 15.18 89.44 14.83 90.27 16.05 91.74 15.86 92.45 17.16 93.92 17.12 94.49 18.48 95.96 18.6 96.38 20.02 97.84 20.29 98.11 21.75 99.53 22.17 99.65 23.64 101.01 24.21 100.98 25.69 102.27 26.39 102.09 27.86 103.3 28.7 102.95 30.14 104.08 31.09 103.59 32.5 104.6 33.56 103.97 34.9 104.87 36.07 104.1 37.34 104.87 38.6 103.97 39.77 104.6 41.11 103.59 42.18 104.08 43.58 102.95 44.53 103.3 45.98 102.09 46.81 102.27 48.28 100.98 48.99 101.01 50.47 99.65 51.04 99.53 52.51 98.11 52.93 97.84 54.38 96.38 54.66 95.96 56.08 94.49 56.19 93.92 57.55 92.45 57.52 91.74 58.82 90.27 58.63 89.44 59.84 87.99 59.5 87.04 60.62 85.63 60.13 84.57 61.15 83.23 60.51 82.06 61.42 80.79 60.64 79.53 61.42 78.36 60.51 77.02 61.15 75.95 60.13 74.55 60.62 73.6 59.5 72.15 59.84 71.32 58.63 69.85 58.82 69.14 57.52 67.66 57.55 67.09 56.19 65.62 56.08 65.2 54.66 63.75 54.38 63.47 52.93 62.06 52.51 61.94 51.04 60.58 50.47 60.61 48.99 59.31 48.28 59.5 46.81 58.29 45.98 58.63 44.53 57.51 43.58 58 42.18 56.98 41.11 57.62 39.77 56.72 38.6 57.49 37.34 56.72 36.07 57.62 34.9 56.98 33.56 58 32.5 57.51 31.09 58.63 30.14 58.29 28.7 59.5 27.86 59.31 26.39 60.61 25.69 60.58 24.21 61.94 23.64 62.06 22.17 63.47 21.75 63.75 20.29 65.2 20.02 65.62 18.6 67.09 18.48 67.66 17.12 69.14 17.16 69.85 15.86 71.32 16.05 72.15 14.83 73.6 15.18 74.55 14.05 75.95 14.54 77.02 13.53 78.36 14.16 79.53 13.26 80.79 14.03"/>
        <path class="cls-2" d="m82.06,61.8c-.07,0-.14-.02-.2-.06l-1.07-.65-1.06.65c-.14.08-.31.07-.43-.02l-.98-.76-1.13.54c-.14.07-.31.04-.43-.07l-.9-.85-1.18.41c-.15.05-.31,0-.42-.11l-.8-.95-1.22.29c-.15.03-.31-.03-.4-.15l-.7-1.02-1.24.16c-.16.02-.31-.06-.38-.2l-.59-1.09-1.25.03c-.15,0-.3-.09-.36-.24l-.48-1.15-1.24-.09c-.16-.01-.29-.12-.34-.27l-.36-1.2-1.23-.23c-.15-.03-.27-.15-.3-.3l-.23-1.23-1.2-.36c-.15-.04-.26-.18-.27-.34l-.09-1.24-1.15-.48c-.15-.06-.24-.2-.24-.36l.03-1.25-1.09-.59c-.14-.08-.22-.23-.2-.38l.16-1.24-1.02-.7c-.13-.09-.19-.25-.15-.4l.29-1.22-.95-.8c-.12-.1-.17-.27-.11-.42l.41-1.18-.85-.9c-.11-.11-.14-.28-.07-.43l.54-1.13-.76-.98c-.1-.13-.11-.3-.02-.43l.65-1.07-.65-1.07c-.08-.13-.07-.31.02-.43l.76-.98-.54-1.13c-.07-.14-.04-.31.07-.43l.85-.9-.41-1.18c-.05-.15,0-.31.11-.42l.95-.8-.29-1.22c-.04-.15.03-.31.15-.4l1.02-.7-.16-1.24c-.02-.16.06-.31.2-.38l1.09-.59-.03-1.25c0-.16.09-.3.24-.36l1.15-.48.09-1.24c.01-.16.12-.29.27-.34l1.2-.36.23-1.23c.03-.15.15-.27.3-.3l1.23-.23.36-1.2c.04-.15.18-.26.33-.27l1.24-.1.48-1.14c.06-.14.21-.25.36-.23l1.25.03.59-1.09c.08-.14.22-.21.38-.2l1.24.16.7-1.02c.09-.13.25-.19.4-.15l1.22.29.8-.95c.1-.12.27-.16.42-.11l1.18.41.9-.85c.11-.11.28-.14.43-.07l1.13.54.98-.76c.12-.1.3-.11.43-.02l1.06.65,1.07-.65c.14-.08.31-.07.43.02l.98.76,1.13-.54c.14-.07.31-.04.43.07l.9.85,1.18-.41c.15-.05.31,0,.42.11l.8.95,1.22-.29c.15-.03.31.03.4.16l.7,1.02,1.24-.16c.16-.02.31.06.38.2l.59,1.09,1.25-.03c.16-.01.3.09.36.23l.48,1.14,1.24.1c.16.01.29.12.33.27l.36,1.2,1.23.23c.15.03.27.15.3.3l.23,1.22,1.2.36c.15.04.26.18.27.33l.1,1.24,1.14.48c.14.06.24.2.23.36l-.03,1.25,1.09.59c.14.08.22.23.2.38l-.16,1.24,1.02.7c.13.09.19.25.15.4l-.29,1.22.95.8c.12.1.17.27.11.42l-.41,1.18.85.9c.11.11.14.28.07.43l-.54,1.13.76.98c.1.12.11.3.02.43l-.65,1.07.65,1.07c.08.14.07.31-.02.43l-.76.98.54,1.13c.07.14.04.31-.07.43l-.85.9.41,1.18c.05.15,0,.31-.11.42l-.95.8.29,1.22c.04.15-.03.31-.15.4l-1.02.7.16,1.24c.02.16-.06.31-.2.38l-1.09.59.03,1.25c0,.16-.09.3-.23.36l-1.14.48-.1,1.24c-.01.16-.12.29-.27.33l-1.2.36-.23,1.22c-.03.15-.15.27-.3.3l-1.23.23-.36,1.2c-.04.15-.18.26-.34.27l-1.24.09-.48,1.15c-.06.14-.21.23-.36.24l-1.25-.03-.59,1.09c-.08.14-.22.21-.38.2l-1.24-.16-.7,1.02c-.09.13-.25.19-.4.16l-1.22-.29-.8.95c-.1.12-.27.16-.42.11l-1.18-.41-.9.85c-.11.11-.28.14-.43.07l-1.13-.54-.98.76c-.07.05-.15.08-.23.08Zm-3.7-1.66c.08,0,.16.03.23.08l.96.74,1.04-.64c.12-.07.28-.07.4,0l1.04.64.96-.74c.11-.09.27-.1.4-.04l1.11.52.88-.83c.1-.1.25-.13.39-.08l1.15.4.79-.93c.09-.11.24-.16.38-.12l1.19.28.69-1c.08-.12.22-.18.36-.16l1.21.16.58-1.07c.07-.13.19-.2.34-.2l1.22.03.47-1.13c.05-.13.18-.22.32-.23l1.21-.09.35-1.17c.04-.14.15-.24.29-.27l1.2-.23.23-1.2c.03-.14.13-.25.27-.29l1.17-.35.1-1.21c.01-.14.1-.27.23-.32l1.12-.47-.03-1.22c0-.14.07-.28.2-.34l1.07-.58-.16-1.21c-.02-.14.04-.28.16-.36l1-.69-.28-1.19c-.03-.14.02-.29.12-.38l.93-.79-.4-1.15c-.05-.13-.01-.28.08-.39l.83-.88-.52-1.11c-.06-.13-.04-.28.04-.4l.74-.96-.64-1.04c-.08-.12-.08-.28,0-.4l.64-1.04-.74-.96c-.09-.11-.1-.27-.04-.4l.52-1.11-.83-.88c-.1-.1-.13-.25-.08-.39l.4-1.15-.93-.79c-.11-.09-.16-.24-.12-.38l.28-1.19-1-.69c-.12-.08-.18-.22-.16-.36l.16-1.21-1.07-.58c-.13-.07-.2-.2-.2-.34l.03-1.22-1.12-.47c-.13-.05-.22-.18-.23-.32l-.1-1.21-1.17-.35c-.14-.04-.24-.15-.27-.29l-.23-1.2-1.2-.23c-.14-.03-.25-.13-.29-.27l-.35-1.17-1.21-.1c-.14-.01-.27-.1-.32-.23l-.47-1.12-1.22.03c-.15,0-.28-.07-.34-.2l-.58-1.07-1.21.16c-.15.02-.28-.04-.36-.16l-.69-1-1.19.28c-.14.03-.29-.01-.38-.12l-.79-.93-1.15.4c-.14.05-.29.01-.39-.08l-.88-.83-1.11.52c-.13.06-.28.04-.4-.04l-.96-.74-1.04.64c-.12.07-.28.07-.4,0l-1.04-.64-.96.74c-.11.09-.27.1-.4.04l-1.11-.52-.88.83c-.1.1-.25.13-.39.08l-1.15-.4-.79.93c-.09.11-.24.16-.38.12l-1.19-.28-.69,1c-.08.12-.22.18-.36.16l-1.21-.16-.58,1.07c-.07.13-.21.2-.34.2l-1.22-.03-.47,1.12c-.05.13-.18.22-.32.23l-1.21.1-.35,1.17c-.04.14-.15.24-.29.27l-1.2.23-.23,1.2c-.03.14-.13.25-.27.29l-1.17.35-.09,1.21c-.01.14-.1.27-.23.32l-1.13.47.03,1.22c0,.14-.07.28-.2.34l-1.07.58.16,1.21c.02.14-.04.28-.16.36l-1,.69.28,1.19c.03.14-.02.29-.12.38l-.93.79.4,1.15c.05.13.01.28-.08.39l-.83.88.52,1.11c.06.13.04.28-.04.4l-.74.96.64,1.04c.08.12.08.28,0,.4l-.64,1.04.74.96c.09.11.1.27.04.4l-.52,1.11.83.88c.1.1.13.25.08.39l-.4,1.15.93.79c.11.09.16.24.12.38l-.28,1.19,1,.69c.12.08.18.22.16.36l-.16,1.21,1.07.58c.13.07.2.2.2.34l-.03,1.22,1.13.47c.13.05.22.18.23.32l.09,1.21,1.17.35c.14.04.24.15.27.29l.23,1.2,1.2.23c.14.03.25.13.29.27l.35,1.17,1.21.09c.14.01.27.1.32.23l.47,1.13,1.22-.03c.14,0,.28.07.34.2l.58,1.07,1.21-.16c.15-.01.28.04.36.16l.69,1,1.19-.28c.14-.03.29.01.38.12l.79.93,1.15-.4c.14-.05.29-.01.39.08l.88.83,1.11-.52c.05-.02.11-.04.16-.04Z"/>
      </g>
      <g id="circle3950">
        <circle class="cls-2" cx="81" cy="37.86" r="7.99"/>
        <path class="cls-2" d="m81,46.04c-4.51,0-8.18-3.67-8.18-8.18s3.67-8.18,8.18-8.18,8.18,3.67,8.18,8.18-3.67,8.18-8.18,8.18Zm0-15.98c-4.3,0-7.8,3.5-7.8,7.8s3.5,7.8,7.8,7.8,7.8-3.5,7.8-7.8-3.5-7.8-7.8-7.8Z"/>
      </g>
      <g id="circle3952">
        <circle class="cls-3" cx="31.31" cy="34.59" r="2.01"/>
        <path class="cls-2" d="m31.31,36.8c-1.21,0-2.2-.99-2.2-2.2s.99-2.2,2.2-2.2,2.2.99,2.2,2.2-.99,2.2-2.2,2.2Zm0-4.02c-1,0-1.82.82-1.82,1.82s.82,1.82,1.82,1.82,1.82-.82,1.82-1.82-.82-1.82-1.82-1.82Z"/>
      </g>
      <g id="circle3954">
        <circle class="cls-3" cx="78.44" cy="34.59" r="2.01"/>
        <path class="cls-2" d="m78.44,36.8c-1.21,0-2.2-.99-2.2-2.2s.99-2.2,2.2-2.2,2.2.99,2.2,2.2-.99,2.2-2.2,2.2Zm0-4.02c-1,0-1.82.82-1.82,1.82s.82,1.82,1.82,1.82,1.82-.82,1.82-1.82-.82-1.82-1.82-1.82Z"/>
      </g>
      <line class="cls-4" x1="37.57" y1="73.75" x2="77.7" y2="73.75"/>
    </g>
  </g>
</svg>