<?xml version="1.0" encoding="UTF-8"?>
<svg id="Layer_2" data-name="Layer 2" xmlns="http://www.w3.org/2000/svg" viewBox="0 0 115.27 84.19">
  <defs>
    <style>
      .cls-1 {
        fill: #32adc6;
      }

      .cls-1, .cls-2, .cls-3, .cls-4 {
        stroke-width: 0px;
      }

      .cls-3 {
        fill: #fff;
      }

      .cls-4 {
        fill: #2e3192;
      }

      .cls-5 {
        fill: none;
        stroke: #231f20;
        stroke-linecap: round;
        stroke-miterlimit: 10;
        stroke-width: 2px;
      }
    </style>
  </defs>
  <g id="Layer_1-2" data-name="Layer 1">
    <g>
      <path class="cls-1" d="m109.6,83.62H5.67c-2.81,0-5.1-2.28-5.1-5.1V12.46c0-2.81,2.28-5.1,5.1-5.1h103.93c2.81,0,5.1,2.28,5.1,5.1v66.06c0,2.81-2.29,5.1-5.1,5.1Z"/>
      <path class="cls-2" d="m109.6,84.19H5.67c-3.13,0-5.67-2.54-5.67-5.67V12.46c0-3.13,2.54-5.67,5.67-5.67h103.93c3.13,0,5.67,2.54,5.67,5.67v66.06c-.01,3.13-2.55,5.67-5.67,5.67ZM5.67,7.93c-2.5,0-4.53,2.03-4.53,4.53v66.06c0,2.5,2.03,4.53,4.53,4.53h103.93c2.49,0,4.52-2.03,4.53-4.53V12.46c0-2.5-2.03-4.53-4.53-4.53H5.67Z"/>
      <g>
        <g id="polyline3958">
          <polygon class="cls-3" points="21.7 18.59 11.53 1.23 3.63 .63 16.3 20.29 21.7 18.59"/>
          <path class="cls-2" d="m16.24,20.67c-.1-.02-.2-.07-.26-.17L3.31.84c-.08-.12-.08-.28,0-.4.07-.12.21-.2.36-.18l7.89.6c.13.01.24.08.3.19l10.18,17.35c.11.18.05.42-.14.52-.18.11-.42.05-.52-.14L11.3,1.6l-6.93-.53,12.25,19.01c.11.18.06.41-.11.53-.08.05-.18.07-.26.06Z"/>
        </g>
        <g id="path3736">
          <path class="cls-2" d="m45.92,6.28L6.35,4.65c-.22,0-.38-.19-.37-.41L3.99,1c0-.22-.45-.81-.23-.8l42.33,1.99c.22,0,.38.19.37.41l-.14,3.33c0,.21-.19.38-.4.36Z"/>
          <path class="cls-2" d="m6.27,4.83c-.13-.02-.24-.08-.33-.18-.09-.1-.28-.18-.28-.18l-.75-1.16c-.2-.44-.55-.86-1-1.56l-.59-.92c-.15-.23-.33-.47-.16-.68C3.3-.02,3.67,0,3.76,0l42.34,1.99c.15,0,.3.07.4.19.1.11.16.26.15.42l-.14,3.33c0,.15-.07.3-.19.4-.12.1-.26.16-.42.15L6.34,4.84s-.05,0-.07,0ZM4.18.94l1.96,3.21s.03.07.03.11c0,.06.02.11.05.15.03.04.08.06.13.06l39.57,1.63s0,0,0,0c.05,0,.1-.01.14-.05.04-.03.06-.08.06-.13l.14-3.33c0-.05-.02-.11-.05-.14-.04-.04-.09-.06-.14-.06L3.95.39s.04.08.06.11c.08.16.15.3.17.43Z"/>
        </g>
      </g>
      <g id="polygon3960">
        <polygon class="cls-3" points="33.8 12.29 35.1 11.58 36.22 12.54 37.59 11.98 38.61 13.04 40.02 12.63 40.93 13.8 42.38 13.53 43.16 14.79 44.63 14.68 45.27 16.01 46.75 16.05 47.24 17.45 48.71 17.64 49.05 19.08 50.49 19.42 50.69 20.89 52.08 21.38 52.12 22.86 53.46 23.5 53.35 24.98 54.6 25.75 54.33 27.21 55.5 28.11 55.09 29.53 56.16 30.54 55.6 31.91 56.55 33.04 55.85 34.34 56.68 35.56 55.85 36.78 56.55 38.08 55.6 39.2 56.16 40.57 55.09 41.59 55.5 43 54.33 43.91 54.6 45.36 53.34 46.13 53.46 47.61 52.12 48.25 52.08 49.73 50.69 50.23 50.49 51.69 49.05 52.03 48.71 53.47 47.24 53.67 46.75 55.06 45.27 55.1 44.63 56.44 43.16 56.32 42.38 57.58 40.93 57.31 40.02 58.48 38.61 58.07 37.59 59.14 36.22 58.58 35.1 59.53 33.8 58.83 32.58 59.66 31.36 58.83 30.06 59.53 28.93 58.58 27.56 59.14 26.54 58.07 25.12 58.48 24.22 57.31 22.77 57.58 21.99 56.32 20.52 56.44 19.89 55.1 18.41 55.06 17.91 53.67 16.45 53.47 16.09 52.03 14.66 51.69 14.47 50.22 13.08 49.73 13.03 48.25 11.7 47.61 11.81 46.13 10.56 45.36 10.82 43.91 9.65 43 10.07 41.58 9 40.57 9.56 39.2 8.6 38.08 9.31 36.78 8.47 35.56 9.31 34.34 8.6 33.04 9.56 31.91 9 30.54 10.07 29.52 9.65 28.1 10.82 27.21 10.56 25.75 11.81 24.97 11.7 23.5 13.03 22.86 13.08 21.38 14.47 20.89 14.67 19.42 16.1 19.08 16.45 17.64 17.92 17.45 18.41 16.05 19.89 16.01 20.52 14.68 22 14.79 22.78 13.53 24.23 13.8 25.13 12.63 26.55 13.04 27.56 11.98 28.93 12.54 30.06 11.58 31.36 12.29 32.58 11.44 33.8 12.29"/>
        <path class="cls-2" d="m32.58,60.04c-.08,0-.15-.02-.22-.07l-1.03-.7-1.09.59c-.14.07-.31.06-.43-.04l-.95-.81-1.15.47c-.14.06-.31.02-.42-.09l-.86-.9-1.2.35c-.15.05-.31,0-.41-.13l-.76-.99-1.22.23c-.16.03-.31-.04-.39-.17l-.65-1.06-1.24.09c-.17.02-.31-.07-.37-.22l-.54-1.12-1.25-.04c-.16,0-.29-.11-.35-.25l-.42-1.17-1.23-.17c-.15-.02-.28-.13-.32-.29l-.3-1.21-1.21-.29c-.15-.04-.27-.16-.29-.32l-.16-1.24-1.17-.41c-.15-.05-.25-.19-.25-.35l-.04-1.25-1.12-.54c-.14-.07-.23-.22-.22-.37l.09-1.25-1.06-.65c-.13-.08-.2-.24-.17-.39l.23-1.23-.99-.76c-.12-.1-.18-.26-.13-.41l.35-1.2-.9-.85c-.11-.11-.15-.27-.09-.42l.47-1.15-.8-.95c-.1-.12-.12-.29-.04-.43l.59-1.09-.71-1.03c-.09-.13-.09-.3,0-.43l.71-1.03-.59-1.09c-.08-.14-.06-.31.04-.43l.8-.95-.47-1.15c-.06-.14-.02-.31.09-.42l.9-.86-.35-1.2c-.04-.15,0-.31.13-.41l.98-.75-.22-1.22c-.03-.15.04-.31.17-.39l1.06-.66-.09-1.24c-.01-.16.07-.3.22-.37l1.12-.54.04-1.25c0-.16.1-.29.25-.35l1.18-.42.17-1.23c.02-.16.14-.28.29-.32l1.21-.29.29-1.22c.04-.15.17-.27.32-.29l1.24-.16.41-1.17c.05-.15.19-.25.35-.25l1.25-.04.54-1.12c.07-.14.21-.23.37-.22l1.25.09.65-1.06c.08-.13.24-.21.39-.17l1.22.22.76-.99c.1-.12.26-.18.41-.13l1.2.35.86-.9c.11-.11.27-.15.42-.09l1.15.47.95-.81c.12-.1.29-.12.43-.04l1.09.59,1.03-.71c.13-.09.3-.09.43,0l1.03.71,1.09-.59c.14-.08.31-.06.43.04l.95.81,1.15-.47c.14-.06.31-.02.42.09l.86.9,1.2-.35c.15-.05.31,0,.41.13l.76.99,1.22-.22c.15-.03.31.04.39.17l.65,1.06,1.25-.09c.16-.02.31.07.37.22l.54,1.12,1.25.04c.16,0,.3.11.35.25l.41,1.17,1.24.17c.16.02.28.14.32.29l.29,1.21,1.21.29c.15.04.27.16.29.32l.17,1.24,1.17.41c.15.05.25.19.25.35l.04,1.25,1.12.54c.14.07.23.22.22.37l-.09,1.25,1.06.65c.13.08.2.24.17.39l-.23,1.23.99.76c.12.1.18.26.13.41l-.35,1.2.9.85c.11.11.15.27.09.42l-.47,1.15.8.95c.1.12.12.29.04.43l-.59,1.09.7,1.03c.09.13.09.3,0,.43l-.7,1.03.59,1.09c.08.14.06.31-.04.43l-.8.95.47,1.15c.06.14.02.31-.09.42l-.9.86.35,1.19c.04.15,0,.31-.13.41l-.99.76.23,1.23c.03.15-.04.31-.18.39l-1.06.65.1,1.25c.01.16-.07.31-.22.37l-1.12.54-.04,1.25c0,.16-.11.29-.25.35l-1.17.42-.17,1.23c-.02.16-.14.28-.29.32l-1.21.29-.29,1.21c-.04.15-.16.27-.32.29l-1.24.17-.41,1.17c-.05.15-.19.25-.35.25l-1.25.04-.54,1.12c-.07.14-.21.23-.37.21l-1.24-.09-.65,1.06c-.08.13-.24.2-.39.17l-1.22-.23-.76.99c-.1.12-.26.18-.41.13l-1.2-.35-.86.9c-.11.11-.28.15-.42.09l-1.15-.47-.95.81c-.12.1-.29.12-.43.04l-1.09-.59-1.03.7c-.06.04-.14.07-.22.07Zm-1.22-1.6c.08,0,.15.02.22.07l1.01.69,1.01-.69c.12-.08.27-.09.4-.02l1.07.58.93-.79c.11-.09.26-.12.39-.06l1.13.46.84-.88c.1-.1.25-.14.38-.1l1.17.34.74-.96c.09-.11.23-.17.37-.14l1.2.22.64-1.03c.07-.12.21-.2.35-.18l1.21.09.53-1.1c.06-.13.19-.21.33-.22l1.22-.04.4-1.15c.05-.14.17-.23.31-.25l1.21-.16.28-1.18c.03-.14.14-.25.28-.28l1.18-.28.16-1.2c.02-.14.12-.26.25-.31l1.15-.41.04-1.22c0-.14.09-.27.22-.33l1.1-.52-.1-1.22c-.01-.14.06-.28.18-.36l1.04-.64-.22-1.2c-.03-.14.03-.28.14-.37l.96-.74-.34-1.16c-.04-.14,0-.28.1-.38l.88-.84-.46-1.13c-.05-.13-.03-.28.06-.39l.79-.93-.58-1.07c-.07-.13-.06-.28.02-.4l.69-1.01-.69-1.01c-.08-.12-.09-.27-.02-.4l.58-1.07-.79-.93c-.09-.11-.12-.26-.06-.39l.46-1.13-.88-.84c-.1-.1-.14-.25-.1-.38l.34-1.17-.96-.74c-.11-.09-.17-.23-.14-.37l.22-1.2-1.03-.64c-.12-.07-.19-.21-.18-.35l.09-1.22-1.1-.52c-.13-.06-.21-.19-.22-.33l-.04-1.22-1.15-.4c-.14-.05-.23-.17-.25-.31l-.16-1.21-1.18-.28c-.14-.03-.25-.14-.28-.28l-.28-1.18-1.21-.16c-.14-.02-.26-.12-.31-.25l-.4-1.15-1.22-.04c-.14,0-.27-.09-.33-.22l-.52-1.1-1.22.09c-.15.02-.28-.06-.35-.18l-.64-1.03-1.2.22c-.14.03-.28-.03-.37-.14l-.74-.96-1.17.34c-.14.04-.28,0-.38-.1l-.84-.88-1.13.46c-.13.05-.28.03-.39-.06l-.93-.79-1.07.58c-.13.07-.28.06-.4-.02l-1-.69-1,.69c-.12.08-.27.09-.4.02l-1.07-.58-.93.79c-.11.09-.26.12-.39.06l-1.13-.46-.84.88c-.1.1-.25.14-.38.1l-1.17-.34-.74.96c-.09.11-.23.17-.37.14l-1.2-.22-.64,1.03c-.07.12-.2.2-.35.18l-1.22-.09-.52,1.1c-.06.13-.19.21-.33.22l-1.22.04-.4,1.15c-.05.14-.17.23-.31.25l-1.21.16-.28,1.19c-.03.14-.14.25-.28.28l-1.18.28-.16,1.2c-.02.14-.12.26-.25.31l-1.15.41-.04,1.22c0,.14-.09.27-.22.33l-1.1.52.09,1.21c.01.14-.06.28-.18.35l-1.04.65.22,1.2c.03.14-.03.28-.14.37l-.96.74.34,1.17c.04.14,0,.28-.1.38l-.88.84.46,1.13c.05.13.03.28-.06.39l-.79.93.58,1.07c.07.13.06.28-.02.4l-.69,1,.69,1c.08.12.09.27.02.4l-.58,1.07.79.93c.09.11.12.26.06.39l-.46,1.13.88.84c.1.1.14.25.1.38l-.34,1.17.96.74c.11.09.17.23.14.37l-.22,1.2,1.03.64c.12.07.19.21.18.35l-.09,1.22,1.1.52c.13.06.21.19.22.33l.04,1.22,1.15.4c.14.05.23.17.25.31l.16,1.21,1.18.28c.14.03.25.14.28.28l.29,1.18,1.21.16c.14.02.26.12.31.25l.41,1.15,1.22.04c.14,0,.27.09.33.22l.52,1.1,1.21-.09c.15-.02.28.06.35.18l.64,1.03,1.2-.22c.14-.02.28.03.37.14l.74.96,1.17-.34c.14-.04.28,0,.38.1l.84.88,1.13-.46c.13-.05.28-.03.39.06l.93.79,1.07-.58c.06-.03.12-.05.18-.05Z"/>
      </g>
      <g>
        <g id="polyline3944">
          <polygon class="cls-3" points="93.9 17.27 101.99 5.38 108.29 5.22 98.49 20.43 93.9 17.27"/>
          <path class="cls-2" d="m98.55,20.81c-.09.01-.18,0-.26-.06-.18-.11-.23-.35-.11-.53l9.4-14.6-5.38.14-7.98,11.73c-.12.17-.36.22-.53.1-.17-.12-.22-.36-.1-.53l8.09-11.89c.07-.1.18-.17.31-.17l6.3-.16c.14,0,.27.07.34.19.07.12.06.27-.01.39l-9.79,15.21c-.06.1-.16.16-.27.17Z"/>
        </g>
        <g id="path3736-2" data-name="path3736">
          <path class="cls-2" d="m68.28,5.8l-.09-3.33c0-.22.16-.4.38-.4l42.36-1.34c.22,0-.25.58-.25.8l-2.08,3.9c-.77-.15-.12-.28-.34-.28l-39.59,1.02c-.22.01-.4-.16-.4-.37Z"/>
        </g>
      </g>
      <g id="circle3946">
        <circle class="cls-2" cx="32.78" cy="36.08" r="7.99"/>
        <path class="cls-2" d="m32.78,44.26c-4.51,0-8.18-3.67-8.18-8.18s3.67-8.18,8.18-8.18,8.18,3.67,8.18,8.18-3.67,8.18-8.18,8.18Zm0-15.98c-4.3,0-7.8,3.5-7.8,7.8s3.5,7.8,7.8,7.8,7.8-3.5,7.8-7.8-3.5-7.8-7.8-7.8Z"/>
      </g>
      <g id="polygon3948">
        <polygon class="cls-3" points="80.79 12.25 82.06 11.48 83.23 12.38 84.57 11.75 85.63 12.76 87.04 12.27 87.99 13.4 89.44 13.05 90.27 14.26 91.74 14.08 92.45 15.37 93.92 15.34 94.49 16.7 95.96 16.82 96.38 18.24 97.84 18.51 98.11 19.97 99.53 20.39 99.65 21.86 101.01 22.43 100.98 23.9 102.27 24.61 102.09 26.08 103.3 26.91 102.95 28.36 104.08 29.31 103.59 30.71 104.6 31.78 103.97 33.12 104.87 34.29 104.1 35.56 104.87 36.82 103.97 37.99 104.6 39.33 103.59 40.4 104.08 41.8 102.95 42.75 103.3 44.2 102.09 45.03 102.27 46.5 100.98 47.21 101.01 48.69 99.65 49.25 99.53 50.73 98.11 51.15 97.84 52.6 96.38 52.87 95.96 54.29 94.49 54.41 93.92 55.77 92.45 55.74 91.74 57.04 90.27 56.85 89.44 58.06 87.99 57.72 87.04 58.84 85.63 58.35 84.57 59.37 83.23 58.73 82.06 59.63 80.79 58.86 79.53 59.63 78.36 58.73 77.02 59.37 75.95 58.35 74.55 58.84 73.6 57.72 72.15 58.06 71.32 56.85 69.85 57.04 69.14 55.74 67.66 55.77 67.1 54.41 65.62 54.29 65.2 52.87 63.75 52.6 63.47 51.15 62.06 50.73 61.94 49.25 60.58 48.69 60.61 47.21 59.31 46.5 59.5 45.03 58.29 44.2 58.63 42.75 57.51 41.8 58 40.4 56.98 39.33 57.62 37.99 56.72 36.82 57.49 35.56 56.72 34.29 57.62 33.12 56.98 31.78 58 30.71 57.51 29.31 58.63 28.36 58.29 26.91 59.5 26.08 59.31 24.61 60.61 23.9 60.58 22.43 61.94 21.86 62.06 20.39 63.47 19.97 63.75 18.51 65.2 18.24 65.62 16.82 67.1 16.7 67.66 15.34 69.14 15.37 69.85 14.08 71.32 14.26 72.15 13.05 73.6 13.4 74.55 12.27 75.95 12.76 77.02 11.75 78.36 12.38 79.53 11.48 80.79 12.25"/>
        <path class="cls-2" d="m82.06,60.01c-.07,0-.14-.02-.2-.06l-1.07-.65-1.06.65c-.14.08-.31.07-.43-.02l-.98-.76-1.13.54c-.14.07-.31.04-.43-.07l-.9-.85-1.18.41c-.15.05-.31,0-.42-.11l-.8-.95-1.22.29c-.15.03-.31-.03-.4-.15l-.7-1.02-1.24.16c-.16.02-.31-.06-.38-.2l-.59-1.09-1.25.03c-.15,0-.3-.09-.36-.24l-.48-1.15-1.24-.09c-.16-.01-.29-.12-.34-.27l-.36-1.2-1.23-.23c-.15-.03-.27-.15-.3-.3l-.23-1.23-1.2-.36c-.15-.04-.26-.18-.27-.34l-.09-1.24-1.15-.48c-.15-.06-.24-.2-.24-.36l.03-1.25-1.09-.59c-.14-.08-.22-.23-.2-.38l.16-1.24-1.02-.7c-.13-.09-.19-.25-.15-.4l.29-1.22-.95-.8c-.12-.1-.17-.27-.11-.42l.41-1.18-.85-.9c-.11-.11-.14-.28-.07-.43l.54-1.13-.76-.98c-.1-.13-.11-.3-.02-.43l.65-1.07-.65-1.07c-.08-.13-.07-.31.02-.43l.76-.98-.54-1.13c-.07-.14-.04-.31.07-.43l.85-.9-.41-1.18c-.05-.15,0-.31.11-.42l.95-.8-.29-1.22c-.04-.15.03-.31.15-.4l1.02-.7-.16-1.24c-.02-.16.06-.31.2-.38l1.09-.59-.03-1.25c0-.16.09-.3.24-.36l1.15-.48.09-1.24c.01-.16.12-.29.27-.34l1.2-.36.23-1.23c.03-.15.15-.27.3-.3l1.23-.23.36-1.2c.04-.15.18-.26.33-.27l1.24-.1.48-1.14c.06-.14.21-.25.36-.23l1.25.03.59-1.09c.08-.14.22-.21.38-.2l1.24.16.7-1.02c.09-.13.25-.19.4-.15l1.22.29.8-.95c.1-.12.27-.16.42-.11l1.18.41.9-.85c.11-.11.28-.14.43-.07l1.13.54.98-.76c.12-.1.3-.11.43-.02l1.06.65,1.07-.65c.14-.08.31-.07.43.02l.98.76,1.13-.54c.14-.07.31-.04.43.07l.9.85,1.18-.41c.15-.05.31,0,.42.11l.8.95,1.22-.29c.15-.03.31.03.4.16l.7,1.02,1.24-.16c.16-.02.31.06.38.2l.59,1.09,1.25-.03c.16-.01.3.09.36.23l.48,1.14,1.24.1c.16.01.29.12.33.27l.36,1.2,1.23.23c.15.03.27.15.3.3l.23,1.22,1.2.36c.15.04.26.18.27.33l.1,1.24,1.14.48c.14.06.24.2.23.36l-.03,1.25,1.09.59c.14.08.22.23.2.38l-.16,1.24,1.02.7c.13.09.19.25.15.4l-.29,1.22.95.8c.12.1.17.27.11.42l-.41,1.18.85.9c.11.11.14.28.07.43l-.54,1.13.76.98c.1.12.11.3.02.43l-.65,1.07.65,1.07c.08.14.07.31-.02.43l-.76.98.54,1.13c.07.14.04.31-.07.43l-.85.9.41,1.18c.05.15,0,.31-.11.42l-.95.8.29,1.22c.04.15-.03.31-.15.4l-1.02.7.16,1.24c.02.16-.06.31-.2.38l-1.09.59.03,1.25c0,.16-.09.3-.23.36l-1.14.48-.1,1.24c-.01.16-.12.29-.27.33l-1.2.36-.23,1.22c-.03.15-.15.27-.3.3l-1.23.23-.36,1.2c-.04.15-.18.26-.34.27l-1.24.09-.48,1.15c-.06.14-.21.23-.36.24l-1.25-.03-.59,1.09c-.08.14-.22.21-.38.2l-1.24-.16-.7,1.02c-.09.13-.25.19-.4.16l-1.22-.29-.8.95c-.1.12-.27.16-.42.11l-1.18-.41-.9.85c-.11.11-.28.14-.43.07l-1.13-.54-.98.76c-.07.05-.15.08-.23.08Zm-3.7-1.66c.08,0,.16.03.23.08l.96.74,1.04-.64c.12-.07.28-.07.4,0l1.04.64.96-.74c.11-.09.27-.1.4-.04l1.11.52.88-.83c.1-.1.25-.13.39-.08l1.15.4.79-.93c.09-.11.24-.16.38-.12l1.19.28.69-1c.08-.12.22-.18.36-.16l1.21.16.58-1.07c.07-.13.19-.2.34-.2l1.22.03.47-1.13c.05-.13.18-.22.32-.23l1.21-.09.35-1.17c.04-.14.15-.24.29-.27l1.2-.23.23-1.2c.03-.14.13-.25.27-.29l1.17-.35.1-1.21c.01-.14.1-.27.23-.32l1.12-.47-.03-1.22c0-.14.07-.28.2-.34l1.07-.58-.16-1.21c-.02-.14.04-.28.16-.36l1-.69-.28-1.19c-.03-.14.02-.29.12-.38l.93-.79-.4-1.15c-.05-.13-.01-.28.08-.39l.83-.88-.52-1.11c-.06-.13-.04-.28.04-.4l.74-.96-.64-1.04c-.08-.12-.08-.28,0-.4l.64-1.04-.74-.96c-.09-.11-.1-.27-.04-.4l.52-1.11-.83-.88c-.1-.1-.13-.25-.08-.39l.4-1.15-.93-.79c-.11-.09-.16-.24-.12-.38l.28-1.19-1-.69c-.12-.08-.18-.22-.16-.36l.16-1.21-1.07-.58c-.13-.07-.2-.2-.2-.34l.03-1.22-1.12-.47c-.13-.05-.22-.18-.23-.32l-.1-1.21-1.17-.35c-.14-.04-.24-.15-.27-.29l-.23-1.2-1.2-.23c-.14-.03-.25-.13-.29-.27l-.35-1.17-1.21-.1c-.14-.01-.27-.1-.32-.23l-.47-1.12-1.22.03c-.15,0-.28-.07-.34-.2l-.58-1.07-1.21.16c-.15.02-.28-.04-.36-.16l-.69-1-1.19.28c-.14.03-.29-.01-.38-.12l-.79-.93-1.15.4c-.14.05-.29.01-.39-.08l-.88-.83-1.11.52c-.13.06-.28.04-.4-.04l-.96-.74-1.04.64c-.12.07-.28.07-.4,0l-1.04-.64-.96.74c-.11.09-.27.1-.4.04l-1.11-.52-.88.83c-.1.1-.25.13-.39.08l-1.15-.4-.79.93c-.09.11-.24.16-.38.12l-1.19-.28-.69,1c-.08.12-.22.18-.36.16l-1.21-.16-.58,1.07c-.07.13-.21.2-.34.2l-1.22-.03-.47,1.12c-.05.13-.18.22-.32.23l-1.21.1-.35,1.17c-.04.14-.15.24-.29.27l-1.2.23-.23,1.2c-.03.14-.13.25-.27.29l-1.17.35-.09,1.21c-.01.14-.1.27-.23.32l-1.13.47.03,1.22c0,.14-.07.28-.2.34l-1.07.58.16,1.21c.02.14-.04.28-.16.36l-1,.69.28,1.19c.03.14-.02.29-.12.38l-.93.79.4,1.15c.05.13.01.28-.08.39l-.83.88.52,1.11c.06.13.04.28-.04.4l-.74.96.64,1.04c.08.12.08.28,0,.4l-.64,1.04.74.96c.09.11.1.27.04.4l-.52,1.11.83.88c.1.1.13.25.08.39l-.4,1.15.93.79c.11.09.16.24.12.38l-.28,1.19,1,.69c.12.08.18.22.16.36l-.16,1.21,1.07.58c.13.07.2.2.2.34l-.03,1.22,1.13.47c.13.05.22.18.23.32l.09,1.21,1.17.35c.14.04.24.15.27.29l.23,1.2,1.2.23c.14.03.25.13.29.27l.35,1.17,1.21.09c.14.01.27.1.32.23l.47,1.13,1.22-.03c.14,0,.28.07.34.2l.58,1.07,1.21-.16c.15-.01.28.04.36.16l.69,1,1.19-.28c.14-.03.29.01.38.12l.79.93,1.15-.4c.14-.05.29-.01.39.08l.88.83,1.11-.52c.05-.02.11-.04.16-.04Z"/>
      </g>
      <g id="circle3950">
        <circle class="cls-2" cx="81" cy="36.08" r="7.99"/>
        <path class="cls-2" d="m81,44.26c-4.51,0-8.18-3.67-8.18-8.18s3.67-8.18,8.18-8.18,8.18,3.67,8.18,8.18-3.67,8.18-8.18,8.18Zm0-15.98c-4.3,0-7.8,3.5-7.8,7.8s3.5,7.8,7.8,7.8,7.8-3.5,7.8-7.8-3.5-7.8-7.8-7.8Z"/>
      </g>
      <g id="circle3952">
        <circle class="cls-3" cx="31.31" cy="32.81" r="2.01"/>
        <path class="cls-2" d="m31.31,35.02c-1.21,0-2.2-.99-2.2-2.2s.99-2.2,2.2-2.2,2.2.99,2.2,2.2-.99,2.2-2.2,2.2Zm0-4.02c-1,0-1.82.82-1.82,1.82s.82,1.82,1.82,1.82,1.82-.82,1.82-1.82-.82-1.82-1.82-1.82Z"/>
      </g>
      <g id="circle3954">
        <circle class="cls-3" cx="78.44" cy="32.81" r="2.01"/>
        <path class="cls-2" d="m78.44,35.02c-1.21,0-2.2-.99-2.2-2.2s.99-2.2,2.2-2.2,2.2.99,2.2,2.2-.99,2.2-2.2,2.2Zm0-4.02c-1,0-1.82.82-1.82,1.82s.82,1.82,1.82,1.82,1.82-.82,1.82-1.82-.82-1.82-1.82-1.82Z"/>
      </g>
      <path class="cls-5" d="m36.52,74.71c14.08,2.9,28.16-10.42,42.24-7.52"/>
      <path class="cls-4" d="m27.79,44.3s5.87,9.57,0,9.73h-.11c-5.87-.15,0-9.73,0-9.73"/>
    </g>
  </g>
</svg>