<?xml version="1.0" encoding="UTF-8"?>
<svg id="Layer_2" data-name="Layer 2" xmlns="http://www.w3.org/2000/svg" viewBox="0 0 67.38 82.07">
  <defs>
    <style>
      .cls-1 {
        fill: #ffda61;
      }

      .cls-1, .cls-2, .cls-3, .cls-4, .cls-5, .cls-6 {
        stroke-width: 0px;
      }

      .cls-3 {
        fill: #fff;
      }

      .cls-4 {
        fill: #ec008c;
      }

      .cls-5 {
        fill: #d1d3d4;
      }

      .cls-6 {
        fill: #9e1f63;
      }
    </style>
  </defs>
  <g id="Layer_1-2" data-name="Layer 1">
    <circle class="cls-1" cx="33.69" cy="33.69" r="33.69"/>
    <g>
      <g id="polygon3960">
        <polygon class="cls-3" points="21.91 10.07 22.58 9.7 23.16 10.2 23.87 9.91 24.39 10.46 25.12 10.24 25.58 10.85 26.33 10.71 26.73 11.36 27.49 11.3 27.82 11.98 28.58 12.01 28.83 12.72 29.59 12.83 29.77 13.57 30.51 13.74 30.61 14.5 31.33 14.75 31.35 15.51 32.04 15.84 31.98 16.6 32.62 17 32.49 17.75 33.09 18.21 32.88 18.94 33.43 19.47 33.14 20.17 33.63 20.75 33.27 21.42 33.7 22.05 33.27 22.68 33.63 23.35 33.14 23.93 33.43 24.63 32.88 25.16 33.09 25.88 32.49 26.35 32.62 27.1 31.97 27.49 32.04 28.26 31.35 28.58 31.33 29.35 30.61 29.6 30.51 30.36 29.77 30.53 29.59 31.27 28.83 31.37 28.58 32.09 27.82 32.11 27.49 32.8 26.73 32.74 26.33 33.39 25.58 33.25 25.12 33.85 24.39 33.64 23.87 34.19 23.16 33.9 22.58 34.39 21.91 34.03 21.28 34.46 20.66 34.03 19.99 34.39 19.41 33.9 18.7 34.19 18.18 33.64 17.45 33.85 16.98 33.25 16.23 33.39 15.83 32.74 15.08 32.8 14.75 32.11 13.99 32.09 13.73 31.37 12.98 31.27 12.8 30.53 12.06 30.36 11.96 29.6 11.24 29.35 11.22 28.58 10.53 28.26 10.59 27.49 9.95 27.1 10.08 26.35 9.48 25.88 9.69 25.15 9.14 24.63 9.43 23.93 8.94 23.35 9.3 22.68 8.87 22.05 9.3 21.42 8.94 20.75 9.43 20.17 9.14 19.47 9.69 18.94 9.48 18.21 10.08 17.75 9.95 17 10.59 16.6 10.53 15.84 11.22 15.51 11.24 14.75 11.96 14.49 12.06 13.74 12.8 13.57 12.98 12.82 13.74 12.72 13.99 12.01 14.75 11.98 15.08 11.3 15.84 11.36 16.24 10.71 16.99 10.85 17.45 10.24 18.18 10.46 18.7 9.91 19.41 10.2 19.99 9.7 20.66 10.07 21.28 9.63 21.91 10.07"/>
        <path class="cls-2" d="m21.28,34.66s-.08-.01-.11-.03l-.53-.36-.56.31c-.07.04-.16.03-.22-.02l-.49-.41-.59.24c-.07.03-.16.01-.22-.05l-.44-.46-.62.18c-.08.02-.16,0-.21-.07l-.39-.51-.63.12c-.08.01-.16-.02-.2-.09l-.34-.54-.64.05c-.09.01-.16-.04-.19-.11l-.28-.58-.64-.02c-.08,0-.15-.05-.18-.13l-.22-.6-.63-.09c-.08-.01-.14-.07-.16-.15l-.15-.62-.62-.15c-.08-.02-.14-.08-.15-.17l-.08-.64-.6-.21c-.08-.03-.13-.1-.13-.18l-.02-.64-.58-.28c-.07-.03-.12-.11-.11-.19l.05-.64-.54-.34c-.07-.04-.1-.12-.09-.2l.12-.63-.51-.39c-.06-.05-.09-.13-.07-.21l.18-.62-.46-.44c-.06-.06-.08-.14-.05-.22l.24-.59-.41-.49c-.05-.06-.06-.15-.02-.22l.31-.56-.37-.53c-.05-.07-.05-.16,0-.22l.37-.53-.31-.56c-.04-.07-.03-.16.02-.22l.41-.49-.24-.59c-.03-.07-.01-.16.05-.22l.46-.44-.18-.62c-.02-.08,0-.16.07-.21l.51-.39-.12-.63c-.01-.08.02-.16.09-.2l.55-.34-.05-.64c0-.08.04-.16.11-.19l.58-.28.02-.64c0-.08.05-.15.13-.18l.61-.22.09-.63c.01-.08.07-.15.15-.16l.62-.15.15-.63c.02-.08.09-.14.17-.15l.64-.08.21-.6c.03-.08.1-.13.18-.13l.64-.02.28-.58c.03-.07.11-.12.19-.11l.64.05.34-.54c.04-.07.12-.11.2-.09l.63.12.39-.51c.05-.06.13-.09.21-.07l.62.18.44-.46c.06-.06.14-.08.22-.05l.59.24.49-.41c.06-.05.15-.06.22-.02l.56.31.53-.37c.07-.05.16-.05.22,0l.53.37.56-.31c.07-.04.16-.03.22.02l.49.41.59-.24c.07-.03.16-.01.22.05l.44.46.62-.18c.08-.02.16,0,.21.07l.39.51.63-.12c.08-.02.16.02.2.09l.34.54.64-.05c.08-.01.16.04.19.11l.28.58.64.02c.08,0,.15.05.18.13l.21.6.64.09c.08.01.15.07.16.15l.15.62.62.15c.08.02.14.08.15.16l.09.64.6.21c.08.03.13.1.13.18l.02.64.58.28c.07.03.12.11.11.19l-.05.64.54.34c.07.04.1.12.09.2l-.12.63.51.39c.06.05.09.13.07.21l-.18.62.46.44c.06.06.08.14.05.22l-.24.59.41.49c.05.06.06.15.02.22l-.31.56.36.53c.05.07.05.15,0,.22l-.36.53.31.56c.04.07.03.16-.02.22l-.41.49.24.59c.03.07.01.16-.05.22l-.46.44.18.61c.02.08,0,.16-.07.21l-.51.39.12.63c.01.08-.02.16-.09.2l-.55.34.05.64c0,.08-.04.16-.11.19l-.58.28-.02.64c0,.08-.05.15-.13.18l-.6.22-.09.63c-.01.08-.07.15-.15.16l-.62.15-.15.62c-.02.08-.08.14-.16.15l-.64.09-.21.6c-.03.08-.1.13-.18.13l-.64.02-.28.58c-.04.07-.11.12-.19.11l-.64-.05-.34.54c-.04.07-.12.1-.2.09l-.63-.12-.39.51c-.05.06-.13.09-.21.07l-.62-.18-.44.46c-.06.06-.14.08-.22.05l-.59-.24-.49.41c-.06.05-.15.06-.22.02l-.56-.31-.53.36s-.07.03-.11.03Zm-.63-.82s.08.01.11.03l.52.35.52-.35c.06-.04.14-.05.2-.01l.55.3.48-.4c.06-.05.13-.06.2-.03l.58.24.43-.45c.05-.05.13-.07.2-.05l.6.18.38-.5c.05-.06.12-.09.19-.07l.62.11.33-.53c.04-.06.11-.1.18-.09l.62.05.27-.57c.03-.07.1-.11.17-.11l.63-.02.21-.59c.02-.07.09-.12.16-.13l.62-.08.15-.61c.02-.07.07-.13.15-.15l.61-.15.08-.62c0-.07.06-.13.13-.16l.59-.21.02-.63c0-.07.05-.14.11-.17l.56-.27-.05-.63c0-.07.03-.14.09-.18l.54-.33-.11-.62c-.01-.07.02-.15.07-.19l.5-.38-.17-.6c-.02-.07,0-.15.05-.2l.45-.43-.24-.58c-.03-.07-.02-.15.03-.2l.4-.48-.3-.55c-.03-.06-.03-.14.01-.2l.35-.52-.35-.52c-.04-.06-.05-.14-.01-.2l.3-.55-.4-.48c-.05-.06-.06-.13-.03-.2l.24-.58-.45-.43c-.05-.05-.07-.13-.05-.2l.18-.6-.5-.38c-.06-.05-.09-.12-.07-.19l.11-.62-.53-.33c-.06-.04-.1-.11-.09-.18l.05-.63-.56-.27c-.07-.03-.11-.1-.11-.17l-.02-.63-.59-.21c-.07-.02-.12-.09-.13-.16l-.08-.62-.61-.15c-.07-.02-.13-.07-.15-.15l-.15-.61-.62-.08c-.07,0-.13-.06-.16-.13l-.21-.59-.63-.02c-.07,0-.14-.05-.17-.11l-.27-.56-.63.05c-.08.01-.14-.03-.18-.09l-.33-.53-.62.11c-.07.01-.15-.01-.19-.07l-.38-.5-.6.18c-.07.02-.15,0-.2-.05l-.43-.45-.58.24c-.07.03-.15.02-.2-.03l-.48-.4-.55.3c-.07.03-.14.03-.21-.01l-.52-.36-.52.36c-.06.04-.14.05-.21.01l-.55-.3-.48.4c-.06.05-.13.06-.2.03l-.58-.24-.43.45c-.05.05-.13.07-.2.05l-.6-.18-.38.5c-.05.06-.12.09-.19.07l-.62-.11-.33.53c-.04.06-.11.1-.18.09l-.63-.05-.27.56c-.03.07-.1.11-.17.11l-.63.02-.21.59c-.02.07-.09.12-.16.13l-.62.08-.15.61c-.02.07-.07.13-.15.15l-.61.15-.08.62c0,.07-.06.13-.13.16l-.59.21-.02.63c0,.07-.05.14-.11.17l-.56.27.05.62c0,.07-.03.14-.09.18l-.53.33.11.62c.01.07-.02.15-.07.19l-.5.38.17.6c.02.07,0,.15-.05.2l-.45.43.24.58c.03.07.02.15-.03.2l-.4.48.3.55c.04.07.03.14-.01.21l-.36.52.36.52c.04.06.05.14.01.21l-.3.55.4.48c.05.06.06.13.03.2l-.24.58.45.43c.05.05.07.13.05.2l-.17.6.5.38c.06.05.09.12.07.19l-.11.62.53.33c.06.04.1.11.09.18l-.05.63.56.27c.07.03.11.1.11.17l.02.63.59.21c.07.02.12.09.13.16l.08.62.61.15c.07.02.13.07.15.14l.15.61.62.08c.07,0,.13.06.16.13l.21.59.63.02c.07,0,.14.05.17.11l.27.56.62-.05c.08,0,.14.03.18.09l.33.53.62-.11c.07-.01.15.02.19.07l.38.5.6-.18c.07-.02.15,0,.2.05l.43.45.58-.24c.07-.03.15-.02.2.03l.48.4.55-.3s.06-.02.09-.02Z"/>
      </g>
      <g id="circle3946">
        <circle class="cls-2" cx="21.39" cy="22.32" r="4.11"/>
        <path class="cls-2" d="m21.39,26.53c-2.32,0-4.21-1.89-4.21-4.21s1.89-4.21,4.21-4.21,4.21,1.89,4.21,4.21-1.89,4.21-4.21,4.21Zm0-8.23c-2.21,0-4.02,1.8-4.02,4.02s1.8,4.02,4.02,4.02,4.02-1.8,4.02-4.02-1.8-4.02-4.02-4.02Z"/>
      </g>
      <g id="polygon3948">
        <polygon class="cls-3" points="46.11 10.05 46.76 9.65 47.36 10.12 48.06 9.79 48.6 10.31 49.33 10.06 49.82 10.64 50.56 10.46 50.99 11.09 51.75 10.99 52.11 11.66 52.87 11.64 53.16 12.34 53.92 12.4 54.14 13.13 54.89 13.27 55.03 14.02 55.76 14.24 55.82 15 56.52 15.29 56.5 16.05 57.17 16.41 57.07 17.17 57.7 17.6 57.52 18.34 58.1 18.83 57.85 19.56 58.37 20.1 58.04 20.8 58.51 21.4 58.11 22.05 58.51 22.7 58.04 23.3 58.37 23.99 57.85 24.54 58.1 25.26 57.52 25.75 57.7 26.5 57.07 26.93 57.17 27.69 56.5 28.05 56.52 28.81 55.82 29.1 55.76 29.86 55.03 30.08 54.89 30.82 54.14 30.97 53.92 31.7 53.16 31.75 52.87 32.46 52.11 32.44 51.75 33.11 50.99 33.01 50.56 33.64 49.82 33.46 49.33 34.04 48.6 33.79 48.06 34.31 47.36 33.98 46.76 34.45 46.11 34.05 45.46 34.45 44.86 33.98 44.17 34.31 43.62 33.79 42.9 34.04 42.41 33.46 41.66 33.64 41.23 33.01 40.47 33.11 40.11 32.44 39.35 32.46 39.06 31.75 38.3 31.7 38.08 30.97 37.34 30.82 37.19 30.08 36.46 29.86 36.41 29.1 35.7 28.81 35.72 28.05 35.05 27.69 35.15 26.93 34.52 26.5 34.7 25.75 34.12 25.26 34.37 24.54 33.85 23.99 34.18 23.3 33.71 22.7 34.11 22.05 33.71 21.4 34.18 20.8 33.85 20.1 34.37 19.56 34.12 18.83 34.7 18.34 34.52 17.6 35.15 17.17 35.05 16.41 35.72 16.05 35.7 15.29 36.41 15 36.46 14.24 37.19 14.02 37.34 13.27 38.08 13.13 38.3 12.4 39.06 12.34 39.35 11.64 40.11 11.66 40.47 10.99 41.23 11.09 41.66 10.46 42.41 10.64 42.9 10.06 43.62 10.31 44.17 9.79 44.86 10.12 45.46 9.65 46.11 10.05"/>
        <path class="cls-2" d="m46.76,34.64s-.07,0-.1-.03l-.55-.34-.55.34c-.07.04-.16.04-.22-.01l-.51-.39-.58.28c-.07.03-.16.02-.22-.04l-.46-.44-.61.21c-.08.03-.16,0-.21-.06l-.41-.49-.63.15c-.08.02-.16-.01-.21-.08l-.36-.53-.64.08c-.08,0-.16-.03-.2-.1l-.31-.56h-.64c-.08.01-.15-.03-.19-.11l-.25-.59-.64-.05c-.08,0-.15-.06-.17-.14l-.18-.62-.63-.12c-.08-.02-.14-.08-.16-.16l-.12-.63-.62-.18c-.08-.02-.13-.09-.14-.17l-.05-.64-.59-.25c-.07-.03-.12-.1-.12-.19v-.64s-.55-.31-.55-.31c-.07-.04-.11-.12-.1-.2l.08-.64-.53-.36c-.07-.05-.1-.13-.08-.21l.15-.63-.49-.41c-.06-.05-.09-.14-.06-.21l.21-.61-.44-.46c-.06-.06-.07-.15-.04-.22l.28-.58-.39-.51c-.05-.06-.05-.15-.01-.22l.34-.55-.34-.55c-.04-.07-.04-.16.01-.22l.39-.51-.28-.58c-.03-.07-.02-.16.04-.22l.44-.46-.21-.61c-.03-.08,0-.16.06-.21l.49-.41-.15-.63c-.02-.08.01-.16.08-.21l.53-.36-.08-.64c-.01-.08.03-.16.1-.2l.56-.31v-.64c-.02-.08.03-.15.11-.19l.59-.25.05-.64c0-.08.06-.15.14-.17l.62-.18.12-.63c.02-.08.08-.14.16-.16l.63-.12.18-.62c.02-.08.09-.13.17-.14l.64-.05.25-.59c.03-.07.11-.13.19-.12h.64s.31-.55.31-.55c.04-.07.11-.11.2-.1l.64.08.36-.53c.05-.07.13-.1.21-.08l.63.15.41-.49c.05-.06.14-.08.21-.06l.61.21.46-.44c.06-.06.15-.07.22-.04l.58.28.51-.39c.06-.05.15-.05.22-.01l.55.34.55-.34c.07-.04.16-.04.22.01l.51.39.58-.28c.07-.03.16-.02.22.04l.46.44.61-.21c.08-.03.16,0,.21.06l.41.49.63-.15c.08-.02.16.01.21.08l.36.53.64-.08c.08,0,.16.03.2.1l.31.56h.64c.08-.02.15.03.19.11l.25.59.64.05c.08,0,.15.06.17.14l.18.62.63.12c.08.02.14.08.16.16l.12.63.62.18c.08.02.13.09.14.17l.05.64.59.25c.07.03.12.1.12.19v.64s.55.31.55.31c.07.04.11.12.1.2l-.08.64.53.36c.07.05.1.13.08.21l-.15.63.49.41c.06.05.09.14.06.21l-.21.61.44.46c.06.06.07.15.04.22l-.28.58.39.51c.05.06.05.15.01.22l-.34.55.34.55c.04.07.04.16-.01.22l-.39.51.28.58c.03.07.02.16-.04.22l-.44.46.21.61c.03.08,0,.16-.06.21l-.49.41.15.63c.02.08-.01.16-.08.21l-.53.36.08.64c.01.08-.03.16-.1.2l-.56.31v.64c.02.08-.03.15-.11.19l-.59.25-.05.64c0,.08-.06.15-.14.17l-.62.18-.12.63c-.02.08-.08.14-.16.16l-.63.12-.18.62c-.02.08-.09.13-.17.14l-.64.05-.25.59c-.03.07-.11.12-.19.12h-.64s-.31.55-.31.55c-.04.07-.12.11-.2.1l-.64-.08-.36.53c-.05.07-.13.1-.21.08l-.63-.15-.41.49c-.05.06-.14.08-.21.06l-.61-.21-.46.44c-.06.06-.15.07-.22.04l-.58-.28-.51.39s-.08.04-.12.04Zm-1.9-.86s.08.01.12.04l.5.38.54-.33c.06-.04.14-.04.21,0l.54.33.49-.38c.06-.05.14-.05.2-.02l.57.27.45-.43c.05-.05.13-.07.2-.04l.59.21.4-.48c.05-.06.12-.08.19-.06l.61.15.35-.51c.04-.06.11-.09.19-.08l.62.08.3-.55c.04-.06.1-.1.18-.1h.63s.24-.57.24-.57c.03-.07.09-.11.17-.12l.62-.05.18-.6c.02-.07.08-.12.15-.14l.62-.12.12-.62c.01-.07.07-.13.14-.15l.6-.18.05-.62c0-.07.05-.14.12-.17l.58-.24v-.63c-.02-.07.02-.14.09-.18l.55-.3-.08-.62c0-.07.02-.14.08-.19l.51-.35-.15-.61c-.02-.07,0-.15.06-.19l.48-.4-.21-.59c-.02-.07,0-.15.04-.2l.43-.45-.27-.57c-.03-.07-.02-.15.02-.2l.38-.49-.33-.54c-.04-.06-.04-.14,0-.21l.33-.54-.38-.49c-.05-.06-.05-.14-.02-.2l.27-.57-.43-.45c-.05-.05-.07-.13-.04-.2l.21-.59-.48-.4c-.06-.05-.08-.12-.06-.19l.15-.61-.51-.35c-.06-.04-.09-.11-.08-.19l.08-.62-.55-.3c-.06-.04-.1-.1-.1-.18v-.63s-.56-.24-.56-.24c-.07-.03-.11-.09-.12-.17l-.05-.62-.6-.18c-.07-.02-.12-.08-.14-.15l-.12-.62-.62-.12c-.07-.01-.13-.07-.15-.14l-.18-.6-.62-.05c-.07,0-.14-.05-.16-.12l-.24-.58h-.63c-.08.02-.14-.02-.18-.09l-.3-.55-.62.08c-.07,0-.15-.02-.19-.08l-.35-.51-.61.15c-.07.02-.15,0-.2-.06l-.4-.48-.59.21c-.07.02-.15,0-.2-.04l-.45-.43-.57.27c-.07.03-.15.02-.2-.02l-.49-.38-.54.33c-.06.04-.14.04-.21,0l-.54-.33-.5.38c-.06.05-.14.05-.2.02l-.57-.27-.45.43c-.05.05-.13.07-.2.04l-.59-.21-.4.48c-.05.06-.12.08-.2.06l-.61-.15-.35.51c-.04.06-.11.09-.19.08l-.62-.08-.3.55c-.03.06-.11.1-.18.1h-.63s-.24.56-.24.56c-.03.07-.09.11-.16.12l-.62.05-.18.6c-.02.07-.08.12-.15.14l-.62.12-.12.62c-.01.07-.07.13-.14.15l-.6.18-.05.62c0,.07-.05.14-.12.17l-.58.24v.63c.02.07-.02.14-.09.18l-.55.3.08.62c0,.07-.02.14-.08.19l-.51.35.15.61c.02.07,0,.15-.06.19l-.48.4.21.59c.02.07,0,.15-.04.2l-.43.45.27.57c.03.07.02.15-.02.2l-.38.49.33.54c.04.06.04.14,0,.21l-.33.54.38.49c.05.06.05.14.02.2l-.27.57.43.45c.05.05.07.13.04.2l-.21.59.48.4c.06.05.08.12.06.19l-.15.61.51.35c.06.04.09.11.08.19l-.08.62.55.3c.06.04.1.1.1.18v.63s.57.24.57.24c.07.03.11.09.12.17l.05.62.6.18c.07.02.12.08.14.15l.12.62.62.12c.07.01.13.07.15.14l.18.6.62.05c.07,0,.14.05.17.12l.24.58h.63c.07-.01.14.02.18.09l.3.55.62-.08c.08,0,.15.02.19.08l.35.51.61-.15c.07-.02.15,0,.19.06l.4.48.59-.21c.07-.02.15,0,.2.04l.45.43.57-.27s.06-.02.08-.02Z"/>
      </g>
      <g id="circle3950">
        <circle class="cls-2" cx="46.22" cy="22.32" r="4.11"/>
        <path class="cls-2" d="m46.22,26.53c-2.32,0-4.21-1.89-4.21-4.21s1.89-4.21,4.21-4.21,4.21,1.89,4.21,4.21-1.89,4.21-4.21,4.21Zm0-8.23c-2.21,0-4.02,1.8-4.02,4.02s1.8,4.02,4.02,4.02,4.02-1.8,4.02-4.02-1.8-4.02-4.02-4.02Z"/>
      </g>
      <g id="circle3952">
        <circle class="cls-3" cx="20.63" cy="20.64" r="1.04"/>
        <path class="cls-2" d="m20.63,21.77c-.63,0-1.13-.51-1.13-1.13s.51-1.13,1.13-1.13,1.13.51,1.13,1.13-.51,1.13-1.13,1.13Zm0-2.07c-.52,0-.94.42-.94.94s.42.94.94.94.94-.42.94-.94-.42-.94-.94-.94Z"/>
      </g>
      <g id="circle3954">
        <circle class="cls-3" cx="44.9" cy="20.64" r="1.04"/>
        <path class="cls-2" d="m44.9,21.77c-.63,0-1.13-.51-1.13-1.13s.51-1.13,1.13-1.13,1.13.51,1.13,1.13-.51,1.13-1.13,1.13Zm0-2.07c-.52,0-.94.42-.94.94s.42.94.94.94.94-.42.94-.94-.42-.94-.94-.94Z"/>
      </g>
    </g>
    <path class="cls-6" d="m50.77,39.35c.42,0,.71.43.54.82-1.39,3.22-7.14,14.8-17.62,14.8s-16.37-11.62-17.65-14.81c-.16-.39.13-.8.55-.8h34.18Z"/>
    <path class="cls-4" d="m18.79,18.6s-.12-5.2,3.78-5.29c8.61-.21,2.78,16.65,2.78,16.65,0,0-17.52-3.38-13.03-10.73,2.03-3.32,6.47-.62,6.47-.62Z"/>
    <path class="cls-4" d="m47.43,18.46s4.44-2.7,6.47.62c4.49,7.35-13.03,10.73-13.03,10.73,0,0-5.83-16.86,2.78-16.65,3.89.1,3.78,5.29,3.78,5.29Z"/>
    <path class="cls-3" d="m17.89,39.35h31.57v1.38c0,.39-.31.7-.7.7h-30.17c-.39,0-.7-.31-.7-.7v-1.38h0Z"/>
    <ellipse class="cls-5" cx="33.69" cy="78.66" rx="25.43" ry="3.4"/>
  </g>
</svg>