<?xml version="1.0" encoding="UTF-8"?>
<svg id="Layer_2" data-name="Layer 2" xmlns="http://www.w3.org/2000/svg" viewBox="0 0 115.27 109.71">
  <defs>
    <style>
      .cls-1 {
        fill: #a41d24;
        stroke: #000;
        stroke-miterlimit: 10;
        stroke-width: 1.2px;
      }

      .cls-2 {
        fill: #32adc6;
      }

      .cls-2, .cls-3, .cls-4, .cls-5, .cls-6 {
        stroke-width: 0px;
      }

      .cls-4 {
        fill: #ef4442;
      }

      .cls-5 {
        fill: #fff;
      }

      .cls-6 {
        fill: #bcbec0;
      }
    </style>
  </defs>
  <g id="Layer_1-2" data-name="Layer 1">
    <g>
      <path class="cls-2" d="m109.6,90.3H5.67c-2.81,0-5.1-2.28-5.1-5.1V19.14c0-2.81,2.28-5.1,5.1-5.1h103.93c2.81,0,5.1,2.28,5.1,5.1v66.06c0,2.81-2.29,5.1-5.1,5.1Z"/>
      <path class="cls-3" d="m109.6,90.87H5.67c-3.13,0-5.67-2.54-5.67-5.67V19.14c0-3.13,2.54-5.67,5.67-5.67h103.93c3.13,0,5.67,2.54,5.67,5.67v66.06c-.01,3.13-2.55,5.67-5.67,5.67ZM5.67,14.62c-2.5,0-4.53,2.03-4.53,4.53v66.06c0,2.5,2.03,4.53,4.53,4.53h103.93c2.49,0,4.52-2.03,4.53-4.53V19.14c0-2.5-2.03-4.53-4.53-4.53H5.67Z"/>
      <g>
        <g id="polyline3958">
          <polygon class="cls-5" points="25.14 21.48 17.39 2.91 9.65 1.25 19.55 22.44 25.14 21.48"/>
          <path class="cls-3" d="m19.44,22.8c-.1-.03-.19-.1-.24-.2L9.31,1.42c-.06-.13-.04-.29.05-.4.09-.11.24-.17.38-.14l7.74,1.66c.13.03.22.11.27.23l7.74,18.57c.08.19-.01.42-.2.5-.19.08-.42-.01-.5-.2L17.12,3.24l-6.79-1.46,9.57,20.49c.09.19,0,.42-.18.51-.09.04-.18.05-.27.02Z"/>
        </g>
        <g id="path3736">
          <path class="cls-3" d="m50.79,12.55L11.8,5.6c-.21-.04-.35-.24-.31-.45l-1.53-3.49c.04-.21-.34-.86-.12-.83l41.68,7.68c.21.04.35.24.31.45l-.59,3.28c-.03.21-.24.35-.45.31Z"/>
          <path class="cls-3" d="m11.7,5.77c-.12-.04-.23-.11-.3-.22-.08-.11-.26-.21-.26-.21l-.59-1.26c-.14-.47-.43-.93-.79-1.68l-.46-.99c-.12-.25-.26-.51-.06-.7.17-.16.53-.09.62-.08l41.68,7.68c.15.03.28.11.37.24.09.13.12.28.09.43l-.58,3.28c-.02.15-.11.28-.24.37-.13.09-.28.12-.43.09L11.77,5.79s-.05,0-.07-.02Zm-1.55-4.15l1.51,3.44s.02.07.01.11c0,.06,0,.11.03.15.03.04.07.07.12.08l38.99,6.95s0,0,0,0c.05.01.1,0,.14-.03.04-.03.07-.07.08-.12l.59-3.28c0-.05,0-.11-.03-.15-.03-.04-.08-.07-.13-.08L10,1.06s.03.08.04.12c.06.16.11.32.11.45Z"/>
        </g>
      </g>
      <g id="polygon3960">
        <polygon class="cls-5" points="33.8 18.97 35.1 18.27 36.22 19.22 37.59 18.66 38.61 19.73 40.02 19.31 40.93 20.48 42.38 20.22 43.16 21.47 44.63 21.36 45.27 22.69 46.75 22.74 47.24 24.13 48.71 24.33 49.05 25.76 50.49 26.11 50.69 27.58 52.08 28.07 52.12 29.55 53.46 30.18 53.35 31.66 54.6 32.44 54.33 33.89 55.5 34.79 55.09 36.21 56.16 37.23 55.6 38.59 56.55 39.72 55.85 41.02 56.68 42.24 55.85 43.46 56.55 44.76 55.6 45.89 56.16 47.25 55.09 48.28 55.5 49.69 54.33 50.59 54.6 52.04 53.34 52.82 53.46 54.3 52.12 54.93 52.08 56.41 50.69 56.91 50.49 58.37 49.05 58.72 48.71 60.15 47.24 60.35 46.75 61.74 45.27 61.79 44.63 63.12 43.16 63.01 42.38 64.26 40.93 64 40.02 65.17 38.61 64.75 37.59 65.82 36.22 65.26 35.1 66.21 33.8 65.51 32.58 66.34 31.36 65.51 30.06 66.21 28.93 65.26 27.56 65.82 26.54 64.75 25.12 65.17 24.22 64 22.77 64.26 21.99 63.01 20.52 63.12 19.89 61.79 18.41 61.74 17.91 60.35 16.45 60.15 16.09 58.72 14.66 58.37 14.47 56.9 13.08 56.41 13.03 54.93 11.7 54.3 11.81 52.82 10.56 52.04 10.82 50.59 9.65 49.69 10.07 48.27 9 47.25 9.56 45.89 8.6 44.76 9.31 43.46 8.47 42.24 9.31 41.02 8.6 39.72 9.56 38.59 9 37.23 10.07 36.2 9.65 34.78 10.82 33.89 10.56 32.44 11.81 31.65 11.7 30.18 13.03 29.55 13.08 28.07 14.47 27.57 14.67 26.11 16.1 25.76 16.45 24.32 17.92 24.13 18.41 22.74 19.89 22.69 20.52 21.36 22 21.47 22.78 20.22 24.23 20.48 25.13 19.31 26.55 19.73 27.56 18.66 28.93 19.22 30.06 18.27 31.36 18.97 32.58 18.13 33.8 18.97"/>
        <path class="cls-3" d="m32.58,66.72c-.08,0-.15-.02-.22-.07l-1.03-.7-1.09.59c-.14.07-.31.06-.43-.04l-.95-.81-1.15.47c-.14.06-.31.02-.42-.09l-.86-.9-1.2.35c-.15.05-.31,0-.41-.13l-.76-.99-1.22.23c-.16.03-.31-.04-.39-.17l-.65-1.06-1.24.09c-.17.02-.31-.07-.37-.22l-.54-1.12-1.25-.04c-.16,0-.29-.11-.35-.25l-.42-1.17-1.23-.17c-.15-.02-.28-.13-.32-.29l-.3-1.21-1.21-.29c-.15-.04-.27-.16-.29-.32l-.16-1.24-1.17-.41c-.15-.05-.25-.19-.25-.35l-.04-1.25-1.12-.54c-.14-.07-.23-.22-.22-.37l.09-1.25-1.06-.65c-.13-.08-.2-.24-.17-.39l.23-1.23-.99-.76c-.12-.1-.18-.26-.13-.41l.35-1.2-.9-.85c-.11-.11-.15-.27-.09-.42l.47-1.15-.8-.95c-.1-.12-.12-.29-.04-.43l.59-1.09-.71-1.03c-.09-.13-.09-.3,0-.43l.71-1.03-.59-1.09c-.08-.14-.06-.31.04-.43l.8-.95-.47-1.15c-.06-.14-.02-.31.09-.42l.9-.86-.35-1.2c-.04-.15,0-.31.13-.41l.98-.75-.22-1.22c-.03-.15.04-.31.17-.39l1.06-.66-.09-1.24c-.01-.16.07-.3.22-.37l1.12-.54.04-1.25c0-.16.1-.29.25-.35l1.18-.42.17-1.23c.02-.16.14-.28.29-.32l1.21-.29.29-1.22c.04-.15.17-.27.32-.29l1.24-.16.41-1.17c.05-.15.19-.25.35-.25l1.25-.04.54-1.12c.07-.14.21-.23.37-.22l1.25.09.65-1.06c.08-.13.24-.21.39-.17l1.22.22.76-.99c.1-.12.26-.18.41-.13l1.2.35.86-.9c.11-.11.27-.15.42-.09l1.15.47.95-.81c.12-.1.29-.12.43-.04l1.09.59,1.03-.71c.13-.09.3-.09.43,0l1.03.71,1.09-.59c.14-.08.31-.06.43.04l.95.81,1.15-.47c.14-.06.31-.02.42.09l.86.9,1.2-.35c.15-.05.31,0,.41.13l.76.99,1.22-.22c.15-.03.31.04.39.17l.65,1.06,1.25-.09c.16-.02.31.07.37.22l.54,1.12,1.25.04c.16,0,.3.11.35.25l.41,1.17,1.24.17c.16.02.28.14.32.29l.29,1.21,1.21.29c.15.04.27.16.29.32l.17,1.24,1.17.41c.15.05.25.19.25.35l.04,1.25,1.12.54c.14.07.23.22.22.37l-.09,1.25,1.06.65c.13.08.2.24.17.39l-.23,1.23.99.76c.12.1.18.26.13.41l-.35,1.2.9.85c.11.11.15.27.09.42l-.47,1.15.8.95c.1.12.12.29.04.43l-.59,1.09.7,1.03c.09.13.09.3,0,.43l-.7,1.03.59,1.09c.08.14.06.31-.04.43l-.8.95.47,1.15c.06.14.02.31-.09.42l-.9.86.35,1.19c.04.15,0,.31-.13.41l-.99.76.23,1.23c.03.15-.04.31-.18.39l-1.06.65.1,1.25c.01.16-.07.31-.22.37l-1.12.54-.04,1.25c0,.16-.11.29-.25.35l-1.17.42-.17,1.23c-.02.16-.14.28-.29.32l-1.21.29-.29,1.21c-.04.15-.16.27-.32.29l-1.24.17-.41,1.17c-.05.15-.19.25-.35.25l-1.25.04-.54,1.12c-.07.14-.21.23-.37.21l-1.24-.09-.65,1.06c-.08.13-.24.2-.39.17l-1.22-.23-.76.99c-.1.12-.26.18-.41.13l-1.2-.35-.86.9c-.11.11-.28.15-.42.09l-1.15-.47-.95.81c-.12.1-.29.12-.43.04l-1.09-.59-1.03.7c-.06.04-.14.07-.22.07Zm-1.22-1.6c.08,0,.15.02.22.07l1.01.69,1.01-.69c.12-.08.27-.09.4-.02l1.07.58.93-.79c.11-.09.26-.12.39-.06l1.13.46.84-.88c.1-.1.25-.14.38-.1l1.17.34.74-.96c.09-.11.23-.17.37-.14l1.2.22.64-1.03c.07-.12.21-.2.35-.18l1.21.09.53-1.1c.06-.13.19-.21.33-.22l1.22-.04.4-1.15c.05-.14.17-.23.31-.25l1.21-.16.28-1.18c.03-.14.14-.25.28-.28l1.18-.28.16-1.2c.02-.14.12-.26.25-.31l1.15-.41.04-1.22c0-.14.09-.27.22-.33l1.1-.52-.1-1.22c-.01-.14.06-.28.18-.36l1.04-.64-.22-1.2c-.03-.14.03-.28.14-.37l.96-.74-.34-1.16c-.04-.14,0-.28.1-.38l.88-.84-.46-1.13c-.05-.13-.03-.28.06-.39l.79-.93-.58-1.07c-.07-.13-.06-.28.02-.4l.69-1.01-.69-1.01c-.08-.12-.09-.27-.02-.4l.58-1.07-.79-.93c-.09-.11-.12-.26-.06-.39l.46-1.13-.88-.84c-.1-.1-.14-.25-.1-.38l.34-1.17-.96-.74c-.11-.09-.17-.23-.14-.37l.22-1.2-1.03-.64c-.12-.07-.19-.21-.18-.35l.09-1.22-1.1-.52c-.13-.06-.21-.19-.22-.33l-.04-1.22-1.15-.4c-.14-.05-.23-.17-.25-.31l-.16-1.21-1.18-.28c-.14-.03-.25-.14-.28-.28l-.28-1.18-1.21-.16c-.14-.02-.26-.12-.31-.25l-.4-1.15-1.22-.04c-.14,0-.27-.09-.33-.22l-.52-1.1-1.22.09c-.15.02-.28-.06-.35-.18l-.64-1.03-1.2.22c-.14.03-.28-.03-.37-.14l-.74-.96-1.17.34c-.14.04-.28,0-.38-.1l-.84-.88-1.13.46c-.13.05-.28.03-.39-.06l-.93-.79-1.07.58c-.13.07-.28.06-.4-.02l-1-.69-1,.69c-.12.08-.27.09-.4.02l-1.07-.58-.93.79c-.11.09-.26.12-.39.06l-1.13-.46-.84.88c-.1.1-.25.14-.38.1l-1.17-.34-.74.96c-.09.11-.23.17-.37.14l-1.2-.22-.64,1.03c-.07.12-.2.2-.35.18l-1.22-.09-.52,1.1c-.06.13-.19.21-.33.22l-1.22.04-.4,1.15c-.05.14-.17.23-.31.25l-1.21.16-.28,1.19c-.03.14-.14.25-.28.28l-1.18.28-.16,1.2c-.02.14-.12.26-.25.31l-1.15.41-.04,1.22c0,.14-.09.27-.22.33l-1.1.52.09,1.21c.01.14-.06.28-.18.35l-1.04.65.22,1.2c.03.14-.03.28-.14.37l-.96.74.34,1.17c.04.14,0,.28-.1.38l-.88.84.46,1.13c.05.13.03.28-.06.39l-.79.93.58,1.07c.07.13.06.28-.02.4l-.69,1,.69,1c.08.12.09.27.02.4l-.58,1.07.79.93c.09.11.12.26.06.39l-.46,1.13.88.84c.1.1.14.25.1.38l-.34,1.17.96.74c.11.09.17.23.14.37l-.22,1.2,1.03.64c.12.07.19.21.18.35l-.09,1.22,1.1.52c.13.06.21.19.22.33l.04,1.22,1.15.4c.14.05.23.17.25.31l.16,1.21,1.18.28c.14.03.25.14.28.28l.29,1.18,1.21.16c.14.02.26.12.31.25l.41,1.15,1.22.04c.14,0,.27.09.33.22l.52,1.1,1.21-.09c.15-.02.28.06.35.18l.64,1.03,1.2-.22c.14-.02.28.03.37.14l.74.96,1.17-.34c.14-.04.28,0,.38.1l.84.88,1.13-.46c.13-.05.28-.03.39.06l.93.79,1.07-.58c.06-.03.12-.05.18-.05Z"/>
      </g>
      <g>
        <g id="polyline3944">
          <polygon class="cls-5" points="87.3 19.19 93.26 6.1 99.44 4.88 92.37 21.52 87.3 19.19"/>
          <path class="cls-3" d="m92.48,21.89c-.08.03-.18.02-.26-.01-.19-.08-.28-.31-.2-.5l6.79-15.98-5.28,1.05-5.88,12.91c-.09.19-.31.28-.5.19-.19-.09-.28-.31-.19-.5l5.96-13.09c.05-.11.15-.19.27-.22l6.18-1.22c.14-.03.28.02.37.13.09.11.11.26.06.39l-7.07,16.65c-.05.11-.13.18-.24.21Z"/>
        </g>
        <g id="path3736-2" data-name="path3736">
          <path class="cls-3" d="m60.11,12.23l-.65-3.27c-.04-.21.09-.42.31-.46L101.28,0c.21-.04-.15.62-.11.83l-1.39,4.19c-.78-.02-.17-.26-.38-.22l-38.84,7.72c-.21.05-.42-.09-.46-.3Z"/>
        </g>
      </g>
      <g id="circle3946">
        <circle class="cls-3" cx="32.78" cy="42.76" r="7.99"/>
        <path class="cls-3" d="m32.78,50.94c-4.51,0-8.18-3.67-8.18-8.18s3.67-8.18,8.18-8.18,8.18,3.67,8.18,8.18-3.67,8.18-8.18,8.18Zm0-15.98c-4.3,0-7.8,3.5-7.8,7.8s3.5,7.8,7.8,7.8,7.8-3.5,7.8-7.8-3.5-7.8-7.8-7.8Z"/>
      </g>
      <g id="polygon3948">
        <polygon class="cls-5" points="80.79 18.94 82.06 18.16 83.23 19.06 84.57 18.43 85.63 19.44 87.04 18.95 87.99 20.08 89.44 19.74 90.27 20.95 91.74 20.76 92.45 22.06 93.92 22.02 94.49 23.38 95.96 23.5 96.38 24.92 97.84 25.2 98.11 26.65 99.53 27.07 99.65 28.54 101.01 29.11 100.98 30.59 102.27 31.29 102.09 32.76 103.3 33.6 102.95 35.04 104.08 36 103.59 37.4 104.6 38.46 103.97 39.81 104.87 40.98 104.1 42.24 104.87 43.5 103.97 44.67 104.6 46.01 103.59 47.08 104.08 48.48 102.95 49.44 103.3 50.88 102.09 51.72 102.27 53.19 100.98 53.89 101.01 55.37 99.65 55.94 99.53 57.41 98.11 57.83 97.84 59.28 96.38 59.56 95.96 60.98 94.49 61.09 93.92 62.46 92.45 62.42 91.74 63.72 90.27 63.53 89.44 64.74 87.99 64.4 87.04 65.53 85.63 65.04 84.57 66.05 83.23 65.41 82.06 66.32 80.79 65.54 79.53 66.32 78.36 65.41 77.02 66.05 75.95 65.04 74.55 65.53 73.6 64.4 72.15 64.74 71.32 63.53 69.85 63.72 69.14 62.42 67.66 62.46 67.1 61.09 65.62 60.98 65.2 59.56 63.75 59.28 63.47 57.83 62.06 57.41 61.94 55.94 60.58 55.37 60.61 53.89 59.31 53.19 59.5 51.72 58.29 50.88 58.63 49.44 57.51 48.48 58 47.08 56.98 46.01 57.62 44.67 56.72 43.5 57.49 42.24 56.72 40.98 57.62 39.81 56.98 38.46 58 37.4 57.51 36 58.63 35.04 58.29 33.6 59.5 32.76 59.31 31.29 60.61 30.59 60.58 29.11 61.94 28.54 62.06 27.07 63.47 26.65 63.75 25.2 65.2 24.92 65.62 23.5 67.1 23.38 67.66 22.02 69.14 22.06 69.85 20.76 71.32 20.95 72.15 19.74 73.6 20.08 74.55 18.95 75.95 19.44 77.02 18.43 78.36 19.06 79.53 18.16 80.79 18.94"/>
        <path class="cls-3" d="m82.06,66.7c-.07,0-.14-.02-.2-.06l-1.07-.65-1.06.65c-.14.08-.31.07-.43-.02l-.98-.76-1.13.54c-.14.07-.31.04-.43-.07l-.9-.85-1.18.41c-.15.05-.31,0-.42-.11l-.8-.95-1.22.29c-.15.03-.31-.03-.4-.15l-.7-1.02-1.24.16c-.16.02-.31-.06-.38-.2l-.59-1.09-1.25.03c-.15,0-.3-.09-.36-.24l-.48-1.15-1.24-.09c-.16-.01-.29-.12-.34-.27l-.36-1.2-1.23-.23c-.15-.03-.27-.15-.3-.3l-.23-1.23-1.2-.36c-.15-.04-.26-.18-.27-.34l-.09-1.24-1.15-.48c-.15-.06-.24-.2-.24-.36l.03-1.25-1.09-.59c-.14-.08-.22-.23-.2-.38l.16-1.24-1.02-.7c-.13-.09-.19-.25-.15-.4l.29-1.22-.95-.8c-.12-.1-.17-.27-.11-.42l.41-1.18-.85-.9c-.11-.11-.14-.28-.07-.43l.54-1.13-.76-.98c-.1-.13-.11-.3-.02-.43l.65-1.07-.65-1.07c-.08-.13-.07-.31.02-.43l.76-.98-.54-1.13c-.07-.14-.04-.31.07-.43l.85-.9-.41-1.18c-.05-.15,0-.31.11-.42l.95-.8-.29-1.22c-.04-.15.03-.31.15-.4l1.02-.7-.16-1.24c-.02-.16.06-.31.2-.38l1.09-.59-.03-1.25c0-.16.09-.3.24-.36l1.15-.48.09-1.24c.01-.16.12-.29.27-.34l1.2-.36.23-1.23c.03-.15.15-.27.3-.3l1.23-.23.36-1.2c.04-.15.18-.26.33-.27l1.24-.1.48-1.14c.06-.14.21-.25.36-.23l1.25.03.59-1.09c.08-.14.22-.21.38-.2l1.24.16.7-1.02c.09-.13.25-.19.4-.15l1.22.29.8-.95c.1-.12.27-.16.42-.11l1.18.41.9-.85c.11-.11.28-.14.43-.07l1.13.54.98-.76c.12-.1.3-.11.43-.02l1.06.65,1.07-.65c.14-.08.31-.07.43.02l.98.76,1.13-.54c.14-.07.31-.04.43.07l.9.85,1.18-.41c.15-.05.31,0,.42.11l.8.95,1.22-.29c.15-.03.31.03.4.16l.7,1.02,1.24-.16c.16-.02.31.06.38.2l.59,1.09,1.25-.03c.16-.01.3.09.36.23l.48,1.14,1.24.1c.16.01.29.12.33.27l.36,1.2,1.23.23c.15.03.27.15.3.3l.23,1.22,1.2.36c.15.04.26.18.27.33l.1,1.24,1.14.48c.14.06.24.2.23.36l-.03,1.25,1.09.59c.14.08.22.23.2.38l-.16,1.24,1.02.7c.13.09.19.25.15.4l-.29,1.22.95.8c.12.1.17.27.11.42l-.41,1.18.85.9c.11.11.14.28.07.43l-.54,1.13.76.98c.1.12.11.3.02.43l-.65,1.07.65,1.07c.08.14.07.31-.02.43l-.76.98.54,1.13c.07.14.04.31-.07.43l-.85.9.41,1.18c.05.15,0,.31-.11.42l-.95.8.29,1.22c.04.15-.03.31-.15.4l-1.02.7.16,1.24c.02.16-.06.31-.2.38l-1.09.59.03,1.25c0,.16-.09.3-.23.36l-1.14.48-.1,1.24c-.01.16-.12.29-.27.33l-1.2.36-.23,1.22c-.03.15-.15.27-.3.3l-1.23.23-.36,1.2c-.04.15-.18.26-.34.27l-1.24.09-.48,1.15c-.06.14-.21.23-.36.24l-1.25-.03-.59,1.09c-.08.14-.22.21-.38.2l-1.24-.16-.7,1.02c-.09.13-.25.19-.4.16l-1.22-.29-.8.95c-.1.12-.27.16-.42.11l-1.18-.41-.9.85c-.11.11-.28.14-.43.07l-1.13-.54-.98.76c-.07.05-.15.08-.23.08Zm-3.7-1.66c.08,0,.16.03.23.08l.96.74,1.04-.64c.12-.07.28-.07.4,0l1.04.64.96-.74c.11-.09.27-.1.4-.04l1.11.52.88-.83c.1-.1.25-.13.39-.08l1.15.4.79-.93c.09-.11.24-.16.38-.12l1.19.28.69-1c.08-.12.22-.18.36-.16l1.21.16.58-1.07c.07-.13.19-.2.34-.2l1.22.03.47-1.13c.05-.13.18-.22.32-.23l1.21-.09.35-1.17c.04-.14.15-.24.29-.27l1.2-.23.23-1.2c.03-.14.13-.25.27-.29l1.17-.35.1-1.21c.01-.14.1-.27.23-.32l1.12-.47-.03-1.22c0-.14.07-.28.2-.34l1.07-.58-.16-1.21c-.02-.14.04-.28.16-.36l1-.69-.28-1.19c-.03-.14.02-.29.12-.38l.93-.79-.4-1.15c-.05-.13-.01-.28.08-.39l.83-.88-.52-1.11c-.06-.13-.04-.28.04-.4l.74-.96-.64-1.04c-.08-.12-.08-.28,0-.4l.64-1.04-.74-.96c-.09-.11-.1-.27-.04-.4l.52-1.11-.83-.88c-.1-.1-.13-.25-.08-.39l.4-1.15-.93-.79c-.11-.09-.16-.24-.12-.38l.28-1.19-1-.69c-.12-.08-.18-.22-.16-.36l.16-1.21-1.07-.58c-.13-.07-.2-.2-.2-.34l.03-1.22-1.12-.47c-.13-.05-.22-.18-.23-.32l-.1-1.21-1.17-.35c-.14-.04-.24-.15-.27-.29l-.23-1.2-1.2-.23c-.14-.03-.25-.13-.29-.27l-.35-1.17-1.21-.1c-.14-.01-.27-.1-.32-.23l-.47-1.12-1.22.03c-.15,0-.28-.07-.34-.2l-.58-1.07-1.21.16c-.15.02-.28-.04-.36-.16l-.69-1-1.19.28c-.14.03-.29-.01-.38-.12l-.79-.93-1.15.4c-.14.05-.29.01-.39-.08l-.88-.83-1.11.52c-.13.06-.28.04-.4-.04l-.96-.74-1.04.64c-.12.07-.28.07-.4,0l-1.04-.64-.96.74c-.11.09-.27.1-.4.04l-1.11-.52-.88.83c-.1.1-.25.13-.39.08l-1.15-.4-.79.93c-.09.11-.24.16-.38.12l-1.19-.28-.69,1c-.08.12-.22.18-.36.16l-1.21-.16-.58,1.07c-.07.13-.21.2-.34.2l-1.22-.03-.47,1.12c-.05.13-.18.22-.32.23l-1.21.1-.35,1.17c-.04.14-.15.24-.29.27l-1.2.23-.23,1.2c-.03.14-.13.25-.27.29l-1.17.35-.09,1.21c-.01.14-.1.27-.23.32l-1.13.47.03,1.22c0,.14-.07.28-.2.34l-1.07.58.16,1.21c.02.14-.04.28-.16.36l-1,.69.28,1.19c.03.14-.02.29-.12.38l-.93.79.4,1.15c.05.13.01.28-.08.39l-.83.88.52,1.11c.06.13.04.28-.04.4l-.74.96.64,1.04c.08.12.08.28,0,.4l-.64,1.04.74.96c.09.11.1.27.04.4l-.52,1.11.83.88c.1.1.13.25.08.39l-.4,1.15.93.79c.11.09.16.24.12.38l-.28,1.19,1,.69c.12.08.18.22.16.36l-.16,1.21,1.07.58c.13.07.2.2.2.34l-.03,1.22,1.13.47c.13.05.22.18.23.32l.09,1.21,1.17.35c.14.04.24.15.27.29l.23,1.2,1.2.23c.14.03.25.13.29.27l.35,1.17,1.21.09c.14.01.27.1.32.23l.47,1.13,1.22-.03c.14,0,.28.07.34.2l.58,1.07,1.21-.16c.15-.01.28.04.36.16l.69,1,1.19-.28c.14-.03.29.01.38.12l.79.93,1.15-.4c.14-.05.29-.01.39.08l.88.83,1.11-.52c.05-.02.11-.04.16-.04Z"/>
      </g>
      <g id="circle3950">
        <circle class="cls-3" cx="81" cy="42.76" r="7.99"/>
        <path class="cls-3" d="m81,50.94c-4.51,0-8.18-3.67-8.18-8.18s3.67-8.18,8.18-8.18,8.18,3.67,8.18,8.18-3.67,8.18-8.18,8.18Zm0-15.98c-4.3,0-7.8,3.5-7.8,7.8s3.5,7.8,7.8,7.8,7.8-3.5,7.8-7.8-3.5-7.8-7.8-7.8Z"/>
      </g>
      <g id="circle3952">
        <circle class="cls-5" cx="31.31" cy="39.5" r="2.01"/>
        <path class="cls-3" d="m31.31,41.7c-1.21,0-2.2-.99-2.2-2.2s.99-2.2,2.2-2.2,2.2.99,2.2,2.2-.99,2.2-2.2,2.2Zm0-4.02c-1,0-1.82.82-1.82,1.82s.82,1.82,1.82,1.82,1.82-.82,1.82-1.82-.82-1.82-1.82-1.82Z"/>
      </g>
      <g id="circle3954">
        <circle class="cls-5" cx="78.44" cy="39.5" r="2.01"/>
        <path class="cls-3" d="m78.44,41.7c-1.21,0-2.2-.99-2.2-2.2s.99-2.2,2.2-2.2,2.2.99,2.2,2.2-.99,2.2-2.2,2.2Zm0-4.02c-1,0-1.82.82-1.82,1.82s.82,1.82,1.82,1.82,1.82-.82,1.82-1.82-.82-1.82-1.82-1.82Z"/>
      </g>
      <path class="cls-1" d="m40.26,82.59c-.24,0-.38-.28-.22-.47,1.47-1.69,7.21-7.4,17.57-7.4s16.24,5.72,17.61,7.41c.15.19.02.46-.22.46h-34.74Z"/>
      <g>
        <g>
          <path class="cls-4" d="m40.69,81l-23.39,6.47,4.85,10.6,19.34-15.5c.35-.28.44-.78.21-1.17-.21-.34-.62-.51-1.01-.4Z"/>
          <path class="cls-6" d="m35.98,100.2c2.65-3.63,2.14-8.58-.99-11.62.25-2.99-1-6.04-3.61-7.94-1.74-1.27-3.79-1.82-5.79-1.69-.47-.58-1.01-1.11-1.64-1.57-3.16-2.31-7.32-2.22-10.35-.09-3.26-.6-6.72.64-8.81,3.49-1.74,2.39-2.11,5.35-1.28,7.96-2.07,3.62-1.34,8.22,1.76,11.02-.05,2.8,1.21,5.58,3.64,7.35,2.71,1.98,6.16,2.2,9,.88,0,0,.02.02.03.02,3.97,2.9,9.53,2.03,12.43-1.94.62-.84,1.05-1.76,1.33-2.71,1.66-.57,3.16-1.63,4.28-3.16Z"/>
        </g>
        <g>
          <path class="cls-4" d="m74.58,81l23.39,6.47-4.85,10.6-19.34-15.5c-.35-.28-.44-.78-.21-1.17.21-.34.62-.51,1.01-.4Z"/>
          <path class="cls-6" d="m79.29,100.2c-2.65-3.63-2.14-8.58.99-11.62-.25-2.99,1-6.04,3.61-7.94,1.74-1.27,3.79-1.82,5.79-1.69.47-.58,1.01-1.11,1.64-1.57,3.16-2.31,7.32-2.22,10.35-.09,3.26-.6,6.72.64,8.81,3.49,1.74,2.39,2.11,5.35,1.28,7.96,2.07,3.62,1.34,8.22-1.76,11.02.05,2.8-1.21,5.58-3.64,7.35-2.71,1.98-6.16,2.2-9,.88,0,0-.02.02-.03.02-3.97,2.9-9.53,2.03-12.43-1.94-.62-.84-1.05-1.76-1.33-2.71-1.66-.57-3.16-1.63-4.28-3.16Z"/>
        </g>
      </g>
    </g>
  </g>
</svg>