<?xml version="1.0" encoding="UTF-8"?>
<svg id="Layer_2" data-name="Layer 2" xmlns="http://www.w3.org/2000/svg" viewBox="0 0 115.55 93.85">
  <defs>
    <style>
      .cls-1 {
        fill: #a41d24;
      }

      .cls-1, .cls-2, .cls-3 {
        stroke: #000;
        stroke-miterlimit: 10;
        stroke-width: 1.2px;
      }

      .cls-4 {
        fill: #32adc6;
      }

      .cls-4, .cls-5, .cls-6, .cls-7 {
        stroke-width: 0px;
      }

      .cls-6, .cls-3 {
        fill: #ef4442;
      }

      .cls-2 {
        fill: none;
      }

      .cls-7 {
        fill: #fff;
      }
    </style>
  </defs>
  <g id="Layer_1-2" data-name="Layer 1">
    <g>
      <path class="cls-4" d="m109.88,90.33H5.95c-2.81,0-5.1-2.28-5.1-5.1V19.17c0-2.81,2.28-5.1,5.1-5.1h103.93c2.81,0,5.1,2.28,5.1,5.1v66.06c0,2.81-2.29,5.1-5.1,5.1Z"/>
      <path class="cls-5" d="m109.88,90.9H5.95c-3.13,0-5.67-2.54-5.67-5.67V19.17c0-3.13,2.54-5.67,5.67-5.67h103.93c3.13,0,5.67,2.54,5.67,5.67v66.06c-.01,3.13-2.55,5.67-5.67,5.67ZM5.95,14.64c-2.5,0-4.53,2.03-4.53,4.53v66.06c0,2.5,2.03,4.53,4.53,4.53h103.93c2.49,0,4.52-2.03,4.53-4.53V19.17c0-2.5-2.03-4.53-4.53-4.53H5.95Z"/>
      <g>
        <path class="cls-1" d="m75.27,70.53c.24,0,.38.28.22.47-1.47,1.69-7.21,7.4-17.57,7.4s-16.24-5.72-17.61-7.41c-.15-.19-.02-.46.22-.46h34.74Z"/>
        <rect class="cls-6" x="51.5" y="75.98" width="13.22" height="3.32"/>
        <path class="cls-3" d="m64.71,76.31c0,.27,0,.54,0,.81-.08,8.95-3.2,16.17-6.96,16.14s-6.74-7.32-6.65-16.26c0-.27,0-.54.02-.81"/>
        <path class="cls-5" d="m57.8,87.9c-.17-1.98-.27-3.96-.36-5.94-.18-2.01-.19-3.98.48-5.93,0,0,.12,0,.12,0,.63,1.96.59,3.93.36,5.94-.13,1.98-.27,3.95-.48,5.93,0,0-.12,0-.12,0h0Z"/>
        <line class="cls-2" x1="57.89" y1="79.85" x2="57.93" y2="75.94"/>
        <path class="cls-2" d="m49.7,77.15s3.24-2.81,8.26-1.11"/>
        <path class="cls-2" d="m66.23,77.15s-3.24-2.81-8.26-1.11"/>
      </g>
      <g>
        <g id="polyline3958">
          <polygon class="cls-7" points="23.08 23.52 8.35 9.82 .62 11.5 18.38 26.7 23.08 23.52"/>
          <path class="cls-5" d="m18.44,27.08c-.1.01-.21-.01-.3-.09L.37,11.79c-.11-.09-.16-.24-.12-.38.04-.14.15-.25.29-.28l7.73-1.69c.13-.03.25,0,.34.09l14.73,13.71c.15.14.16.38.02.54-.14.15-.38.16-.54.02l-14.58-13.57-6.79,1.48,17.18,14.7c.16.14.18.38.04.54-.06.07-.15.12-.24.13Z"/>
        </g>
        <g id="path3736">
          <path class="cls-5" d="m42.75,4.79L4.37,14.57c-.21.06-.42-.07-.47-.28l-2.84-2.54c-.06-.21-.66-.65-.46-.7L41.73.82c.21-.06.42.07.47.28l.82,3.23c.05.2-.07.42-.28.46Z"/>
          <path class="cls-5" d="m4.35,14.77c-.13.02-.25,0-.37-.07-.12-.07-.32-.09-.32-.09l-1.05-.9c-.32-.37-.78-.67-1.41-1.21l-.83-.71c-.21-.18-.45-.36-.35-.61.09-.21.44-.3.53-.32L41.69.63c.15-.04.31-.02.44.06.13.08.23.2.26.36l.82,3.23c.04.14.02.31-.06.44-.08.13-.21.23-.36.26L4.42,14.76s-.05.01-.07.01Zm-3.13-3.13l2.8,2.51s.05.06.06.09c.01.05.05.1.09.13.04.03.1.03.15.02L42.7,4.61s0,0,0,0c.05-.01.09-.04.12-.09.03-.04.03-.1.02-.14l-.82-3.23c-.01-.05-.05-.1-.09-.12-.04-.03-.1-.03-.15-.02L.85,11.18s.06.06.08.09c.12.13.23.25.29.36Z"/>
        </g>
      </g>
      <g id="polygon3960">
        <polygon class="cls-7" points="34.07 19 35.37 18.29 36.5 19.25 37.87 18.69 38.88 19.75 40.3 19.34 41.2 20.51 42.66 20.24 43.43 21.5 44.91 21.39 45.55 22.72 47.02 22.76 47.51 24.16 48.99 24.35 49.33 25.79 50.77 26.13 50.96 27.6 52.36 28.09 52.4 29.57 53.73 30.21 53.62 31.69 54.88 32.46 54.61 33.92 55.78 34.82 55.37 36.24 56.43 37.25 55.87 38.62 56.83 39.75 56.12 41.04 56.96 42.27 56.12 43.49 56.83 44.78 55.87 45.91 56.43 47.28 55.37 48.3 55.78 49.71 54.61 50.62 54.88 52.07 53.61 52.84 53.73 54.32 52.4 54.96 52.36 56.44 50.96 56.94 50.77 58.4 49.33 58.74 48.99 60.18 47.51 60.38 47.02 61.77 45.55 61.81 44.9 63.14 43.43 63.03 42.66 64.29 41.2 64.02 40.3 65.19 38.88 64.78 37.87 65.84 36.5 65.29 35.37 66.24 34.07 65.53 32.85 66.37 31.63 65.53 30.33 66.24 29.21 65.29 27.84 65.84 26.82 64.78 25.4 65.19 24.49 64.02 23.04 64.29 22.27 63.03 20.8 63.14 20.16 61.81 18.68 61.77 18.18 60.38 16.72 60.18 16.37 58.74 14.93 58.4 14.74 56.93 13.35 56.44 13.31 54.96 11.97 54.32 12.09 52.84 10.83 52.07 11.1 50.62 9.93 49.71 10.34 48.29 9.27 47.28 9.83 45.91 8.88 44.78 9.58 43.49 8.74 42.27 9.58 41.04 8.88 39.75 9.83 38.62 9.27 37.25 10.34 36.23 9.93 34.81 11.1 33.92 10.83 32.46 12.09 31.68 11.97 30.21 13.31 29.57 13.35 28.09 14.74 27.6 14.94 26.13 16.38 25.79 16.72 24.34 18.19 24.16 18.68 22.76 20.16 22.72 20.8 21.39 22.28 21.5 23.05 20.24 24.5 20.51 25.41 19.34 26.83 19.75 27.84 18.69 29.21 19.25 30.33 18.29 31.63 19 32.85 18.15 34.07 19"/>
        <path class="cls-5" d="m32.85,66.75c-.08,0-.15-.02-.22-.07l-1.03-.7-1.09.59c-.14.07-.31.06-.43-.04l-.95-.81-1.15.47c-.14.06-.31.02-.42-.09l-.86-.9-1.2.35c-.15.05-.31,0-.41-.13l-.76-.99-1.22.23c-.16.03-.31-.04-.39-.17l-.65-1.06-1.24.09c-.17.02-.31-.07-.37-.22l-.54-1.12-1.25-.04c-.16,0-.29-.11-.35-.25l-.42-1.17-1.23-.17c-.15-.02-.28-.13-.32-.29l-.3-1.21-1.21-.29c-.15-.04-.27-.16-.29-.32l-.16-1.24-1.17-.41c-.15-.05-.25-.19-.25-.35l-.04-1.25-1.12-.54c-.14-.07-.23-.22-.22-.37l.09-1.25-1.06-.65c-.13-.08-.2-.24-.17-.39l.23-1.23-.99-.76c-.12-.1-.18-.26-.13-.41l.35-1.2-.9-.85c-.11-.11-.15-.27-.09-.42l.47-1.15-.8-.95c-.1-.12-.12-.29-.04-.43l.59-1.09-.71-1.03c-.09-.13-.09-.3,0-.43l.71-1.03-.59-1.09c-.08-.14-.06-.31.04-.43l.8-.95-.47-1.15c-.06-.14-.02-.31.09-.42l.9-.86-.35-1.2c-.04-.15,0-.31.13-.41l.98-.75-.22-1.22c-.03-.15.04-.31.17-.39l1.06-.66-.09-1.24c-.01-.16.07-.3.22-.37l1.12-.54.04-1.25c0-.16.1-.29.25-.35l1.18-.42.17-1.23c.02-.16.14-.28.29-.32l1.21-.29.29-1.22c.04-.15.17-.27.32-.29l1.24-.16.41-1.17c.05-.15.19-.25.35-.25l1.25-.04.54-1.12c.07-.14.21-.23.37-.22l1.25.09.65-1.06c.08-.13.24-.21.39-.17l1.22.22.76-.99c.1-.12.26-.18.41-.13l1.2.35.86-.9c.11-.11.27-.15.42-.09l1.15.47.95-.81c.12-.1.29-.12.43-.04l1.09.59,1.03-.71c.13-.09.3-.09.43,0l1.03.71,1.09-.59c.14-.08.31-.06.43.04l.95.81,1.15-.47c.14-.06.31-.02.42.09l.86.9,1.2-.35c.15-.05.31,0,.41.13l.76.99,1.22-.22c.15-.03.31.04.39.17l.65,1.06,1.25-.09c.16-.02.31.07.37.22l.54,1.12,1.25.04c.16,0,.3.11.35.25l.41,1.17,1.24.17c.16.02.28.14.32.29l.29,1.21,1.21.29c.15.04.27.16.29.32l.17,1.24,1.17.41c.15.05.25.19.25.35l.04,1.25,1.12.54c.14.07.23.22.22.37l-.09,1.25,1.06.65c.13.08.2.24.17.39l-.23,1.23.99.76c.12.1.18.26.13.41l-.35,1.2.9.85c.11.11.15.27.09.42l-.47,1.15.8.95c.1.12.12.29.04.43l-.59,1.09.7,1.03c.09.13.09.3,0,.43l-.7,1.03.59,1.09c.08.14.06.31-.04.43l-.8.95.47,1.15c.06.14.02.31-.09.42l-.9.86.35,1.19c.04.15,0,.31-.13.41l-.99.76.23,1.23c.03.15-.04.31-.18.39l-1.06.65.1,1.25c.01.16-.07.31-.22.37l-1.12.54-.04,1.25c0,.16-.11.29-.25.35l-1.17.42-.17,1.23c-.02.16-.14.28-.29.32l-1.21.29-.29,1.21c-.04.15-.16.27-.32.29l-1.24.17-.41,1.17c-.05.15-.19.25-.35.25l-1.25.04-.54,1.12c-.07.14-.21.23-.37.21l-1.24-.09-.65,1.06c-.08.13-.24.2-.39.17l-1.22-.23-.76.99c-.1.12-.26.18-.41.13l-1.2-.35-.86.9c-.11.11-.28.15-.42.09l-1.15-.47-.95.81c-.12.1-.29.12-.43.04l-1.09-.59-1.03.7c-.06.04-.14.07-.22.07Zm-1.22-1.6c.08,0,.15.02.22.07l1.01.69,1.01-.69c.12-.08.27-.09.4-.02l1.07.58.93-.79c.11-.09.26-.12.39-.06l1.13.46.84-.88c.1-.1.25-.14.38-.1l1.17.34.74-.96c.09-.11.23-.17.37-.14l1.2.22.64-1.03c.07-.12.21-.2.35-.18l1.21.09.53-1.1c.06-.13.19-.21.33-.22l1.22-.04.4-1.15c.05-.14.17-.23.31-.25l1.21-.16.28-1.18c.03-.14.14-.25.28-.28l1.18-.28.16-1.2c.02-.14.12-.26.25-.31l1.15-.41.04-1.22c0-.14.09-.27.22-.33l1.1-.52-.1-1.22c-.01-.14.06-.28.18-.36l1.04-.64-.22-1.2c-.03-.14.03-.28.14-.37l.96-.74-.34-1.16c-.04-.14,0-.28.1-.38l.88-.84-.46-1.13c-.05-.13-.03-.28.06-.39l.79-.93-.58-1.07c-.07-.13-.06-.28.02-.4l.69-1.01-.69-1.01c-.08-.12-.09-.27-.02-.4l.58-1.07-.79-.93c-.09-.11-.12-.26-.06-.39l.46-1.13-.88-.84c-.1-.1-.14-.25-.1-.38l.34-1.17-.96-.74c-.11-.09-.17-.23-.14-.37l.22-1.2-1.03-.64c-.12-.07-.19-.21-.18-.35l.09-1.22-1.1-.52c-.13-.06-.21-.19-.22-.33l-.04-1.22-1.15-.4c-.14-.05-.23-.17-.25-.31l-.16-1.21-1.18-.28c-.14-.03-.25-.14-.28-.28l-.28-1.18-1.21-.16c-.14-.02-.26-.12-.31-.25l-.4-1.15-1.22-.04c-.14,0-.27-.09-.33-.22l-.52-1.1-1.22.09c-.15.02-.28-.06-.35-.18l-.64-1.03-1.2.22c-.14.03-.28-.03-.37-.14l-.74-.96-1.17.34c-.14.04-.28,0-.38-.1l-.84-.88-1.13.46c-.13.05-.28.03-.39-.06l-.93-.79-1.07.58c-.13.07-.28.06-.4-.02l-1-.69-1,.69c-.12.08-.27.09-.4.02l-1.07-.58-.93.79c-.11.09-.26.12-.39.06l-1.13-.46-.84.88c-.1.1-.25.14-.38.1l-1.17-.34-.74.96c-.09.11-.23.17-.37.14l-1.2-.22-.64,1.03c-.07.12-.2.2-.35.18l-1.22-.09-.52,1.1c-.06.13-.19.21-.33.22l-1.22.04-.4,1.15c-.05.14-.17.23-.31.25l-1.21.16-.28,1.19c-.03.14-.14.25-.28.28l-1.18.28-.16,1.2c-.02.14-.12.26-.25.31l-1.15.41-.04,1.22c0,.14-.09.27-.22.33l-1.1.52.09,1.21c.01.14-.06.28-.18.35l-1.04.65.22,1.2c.03.14-.03.28-.14.37l-.96.74.34,1.17c.04.14,0,.28-.1.38l-.88.84.46,1.13c.05.13.03.28-.06.39l-.79.93.58,1.07c.07.13.06.28-.02.4l-.69,1,.69,1c.08.12.09.27.02.4l-.58,1.07.79.93c.09.11.12.26.06.39l-.46,1.13.88.84c.1.1.14.25.1.38l-.34,1.17.96.74c.11.09.17.23.14.37l-.22,1.2,1.03.64c.12.07.19.21.18.35l-.09,1.22,1.1.52c.13.06.21.19.22.33l.04,1.22,1.15.4c.14.05.23.17.25.31l.16,1.21,1.18.28c.14.03.25.14.28.28l.29,1.18,1.21.16c.14.02.26.12.31.25l.41,1.15,1.22.04c.14,0,.27.09.33.22l.52,1.1,1.21-.09c.15-.02.28.06.35.18l.64,1.03,1.2-.22c.14-.02.28.03.37.14l.74.96,1.17-.34c.14-.04.28,0,.38.1l.84.88,1.13-.46c.13-.05.28-.03.39.06l.93.79,1.07-.58c.06-.03.12-.05.18-.05Z"/>
      </g>
      <g>
        <g id="path3942">
          <path class="cls-5" d="m71.22,4.15l38.02,11.09c.21.06.42-.06.48-.27l.93-3.2c.06-.21-.06-.42-.27-.48L72.37.21c-.21-.06-.42.06-.48.27l-.93,3.2c-.05.21.06.43.27.48Z"/>
          <path class="cls-5" d="m109.25,15.44s-.04,0-.07-.02l-38.02-11.08c-.3-.08-.48-.4-.4-.71l.93-3.2c.09-.31.42-.49.72-.39l38.02,11.09c.15.05.28.15.35.28.07.13.09.29.04.44l-.93,3.2c-.09.29-.37.46-.65.41ZM72.29.38s-.09,0-.13.02c-.05.03-.08.07-.1.12l-.93,3.2c-.03.1.03.22.13.25h0s38.02,11.09,38.02,11.09c.1.04.21-.03.25-.14l.93-3.2c.02-.05.01-.1-.01-.15-.03-.05-.07-.08-.12-.1L72.31.39s-.02,0-.02,0Z"/>
        </g>
        <g>
          <g id="polyline3944">
            <polygon class="cls-7" points="91.86 22.34 103.19 13.48 109.24 15.25 95.27 26.75 91.86 22.34"/>
            <path class="cls-5" d="m95.21,27.12c-.09-.02-.17-.06-.23-.13-.13-.16-.11-.4.05-.54l13.41-11.04-5.17-1.51-11.17,8.74c-.17.13-.41.1-.53-.07-.13-.17-.1-.41.07-.53l11.33-8.86c.1-.08.23-.1.34-.07l6.05,1.77c.14.04.24.15.27.29.03.14-.02.28-.13.37l-13.96,11.5c-.09.07-.2.1-.31.08Z"/>
          </g>
          <g id="path3736-2" data-name="path3736">
            <path class="cls-5" d="m70.96,3.6l.93-3.2c.06-.21.28-.33.48-.27l40.75,11.64c.21.06-.42.48-.48.69l-3.17,3.08c-.69-.38-.03-.31-.24-.37l-38.02-11.09c-.21-.05-.33-.28-.27-.47Z"/>
          </g>
        </g>
      </g>
      <g id="circle3946">
        <circle class="cls-5" cx="33.05" cy="42.79" r="7.99"/>
        <path class="cls-5" d="m33.05,50.97c-4.51,0-8.18-3.67-8.18-8.18s3.67-8.18,8.18-8.18,8.18,3.67,8.18,8.18-3.67,8.18-8.18,8.18Zm0-15.98c-4.3,0-7.8,3.5-7.8,7.8s3.5,7.8,7.8,7.8,7.8-3.5,7.8-7.8-3.5-7.8-7.8-7.8Z"/>
      </g>
      <g id="polygon3948">
        <polygon class="cls-7" points="81.07 18.96 82.33 18.19 83.5 19.09 84.84 18.45 85.91 19.47 87.31 18.98 88.27 20.11 89.71 19.76 90.54 20.97 92.02 20.78 92.72 22.08 94.2 22.05 94.77 23.41 96.24 23.53 96.66 24.95 98.11 25.22 98.39 26.67 99.81 27.1 99.93 28.57 101.29 29.13 101.25 30.61 102.55 31.32 102.36 32.79 103.57 33.62 103.23 35.07 104.36 36.02 103.87 37.42 104.88 38.49 104.24 39.83 105.15 41 104.37 42.27 105.15 43.53 104.24 44.7 104.88 46.04 103.87 47.11 104.36 48.51 103.23 49.46 103.57 50.91 102.36 51.74 102.55 53.21 101.25 53.92 101.29 55.4 99.93 55.96 99.81 57.43 98.39 57.86 98.11 59.31 96.66 59.58 96.24 61 94.77 61.11 94.2 62.48 92.72 62.45 92.02 63.75 90.54 63.56 89.71 64.77 88.27 64.43 87.31 65.55 85.91 65.06 84.84 66.08 83.5 65.44 82.33 66.34 81.07 65.57 79.8 66.34 78.64 65.44 77.29 66.08 76.23 65.06 74.83 65.55 73.87 64.43 72.43 64.77 71.59 63.56 70.12 63.75 69.42 62.45 67.94 62.48 67.37 61.11 65.9 61 65.48 59.58 64.03 59.31 63.75 57.86 62.33 57.43 62.22 55.96 60.85 55.4 60.89 53.92 59.59 53.21 59.78 51.74 58.56 50.91 58.91 49.46 57.78 48.51 58.27 47.11 57.26 46.04 57.89 44.7 56.99 43.53 57.76 42.27 56.99 41 57.89 39.83 57.26 38.49 58.27 37.42 57.78 36.02 58.91 35.07 58.56 33.62 59.78 32.79 59.59 31.32 60.89 30.61 60.85 29.13 62.22 28.57 62.33 27.1 63.75 26.67 64.03 25.22 65.48 24.95 65.9 23.53 67.37 23.41 67.94 22.05 69.42 22.08 70.12 20.78 71.59 20.97 72.43 19.76 73.87 20.11 74.83 18.98 76.23 19.47 77.29 18.45 78.64 19.09 79.8 18.19 81.07 18.96"/>
        <path class="cls-5" d="m82.33,66.72c-.07,0-.14-.02-.2-.06l-1.07-.65-1.06.65c-.14.08-.31.07-.43-.02l-.98-.76-1.13.54c-.14.07-.31.04-.43-.07l-.9-.85-1.18.41c-.15.05-.31,0-.42-.11l-.8-.95-1.22.29c-.15.03-.31-.03-.4-.15l-.7-1.02-1.24.16c-.16.02-.31-.06-.38-.2l-.59-1.09-1.25.03c-.15,0-.3-.09-.36-.24l-.48-1.15-1.24-.09c-.16-.01-.29-.12-.34-.27l-.36-1.2-1.23-.23c-.15-.03-.27-.15-.3-.3l-.23-1.23-1.2-.36c-.15-.04-.26-.18-.27-.34l-.09-1.24-1.15-.48c-.15-.06-.24-.2-.24-.36l.03-1.25-1.09-.59c-.14-.08-.22-.23-.2-.38l.16-1.24-1.02-.7c-.13-.09-.19-.25-.15-.4l.29-1.22-.95-.8c-.12-.1-.17-.27-.11-.42l.41-1.18-.85-.9c-.11-.11-.14-.28-.07-.43l.54-1.13-.76-.98c-.1-.13-.11-.3-.02-.43l.65-1.07-.65-1.07c-.08-.13-.07-.31.02-.43l.76-.98-.54-1.13c-.07-.14-.04-.31.07-.43l.85-.9-.41-1.18c-.05-.15,0-.31.11-.42l.95-.8-.29-1.22c-.04-.15.03-.31.15-.4l1.02-.7-.16-1.24c-.02-.16.06-.31.2-.38l1.09-.59-.03-1.25c0-.16.09-.3.24-.36l1.15-.48.09-1.24c.01-.16.12-.29.27-.34l1.2-.36.23-1.23c.03-.15.15-.27.3-.3l1.23-.23.36-1.2c.04-.15.18-.26.33-.27l1.24-.1.48-1.14c.06-.14.21-.25.36-.23l1.25.03.59-1.09c.08-.14.22-.21.38-.2l1.24.16.7-1.02c.09-.13.25-.19.4-.15l1.22.29.8-.95c.1-.12.27-.16.42-.11l1.18.41.9-.85c.11-.11.28-.14.43-.07l1.13.54.98-.76c.12-.1.3-.11.43-.02l1.06.65,1.07-.65c.14-.08.31-.07.43.02l.98.76,1.13-.54c.14-.07.31-.04.43.07l.9.85,1.18-.41c.15-.05.31,0,.42.11l.8.95,1.22-.29c.15-.03.31.03.4.16l.7,1.02,1.24-.16c.16-.02.31.06.38.2l.59,1.09,1.25-.03c.16-.01.3.09.36.23l.48,1.14,1.24.1c.16.01.29.12.33.27l.36,1.2,1.23.23c.15.03.27.15.3.3l.23,1.22,1.2.36c.15.04.26.18.27.33l.1,1.24,1.14.48c.14.06.24.2.23.36l-.03,1.25,1.09.59c.14.08.22.23.2.38l-.16,1.24,1.02.7c.13.09.19.25.15.4l-.29,1.22.95.8c.12.1.17.27.11.42l-.41,1.18.85.9c.11.11.14.28.07.43l-.54,1.13.76.98c.1.12.11.3.02.43l-.65,1.07.65,1.07c.08.14.07.31-.02.43l-.76.98.54,1.13c.07.14.04.31-.07.43l-.85.9.41,1.18c.05.15,0,.31-.11.42l-.95.8.29,1.22c.04.15-.03.31-.15.4l-1.02.7.16,1.24c.02.16-.06.31-.2.38l-1.09.59.03,1.25c0,.16-.09.3-.23.36l-1.14.48-.1,1.24c-.01.16-.12.29-.27.33l-1.2.36-.23,1.22c-.03.15-.15.27-.3.3l-1.23.23-.36,1.2c-.04.15-.18.26-.34.27l-1.24.09-.48,1.15c-.06.14-.21.23-.36.24l-1.25-.03-.59,1.09c-.08.14-.22.21-.38.2l-1.24-.16-.7,1.02c-.09.13-.25.19-.4.16l-1.22-.29-.8.95c-.1.12-.27.16-.42.11l-1.18-.41-.9.85c-.11.11-.28.14-.43.07l-1.13-.54-.98.76c-.07.05-.15.08-.23.08Zm-3.7-1.66c.08,0,.16.03.23.08l.96.74,1.04-.64c.12-.07.28-.07.4,0l1.04.64.96-.74c.11-.09.27-.1.4-.04l1.11.52.88-.83c.1-.1.25-.13.39-.08l1.15.4.79-.93c.09-.11.24-.16.38-.12l1.19.28.69-1c.08-.12.22-.18.36-.16l1.21.16.58-1.07c.07-.13.19-.2.34-.2l1.22.03.47-1.13c.05-.13.18-.22.32-.23l1.21-.09.35-1.17c.04-.14.15-.24.29-.27l1.2-.23.23-1.2c.03-.14.13-.25.27-.29l1.17-.35.1-1.21c.01-.14.1-.27.23-.32l1.12-.47-.03-1.22c0-.14.07-.28.2-.34l1.07-.58-.16-1.21c-.02-.14.04-.28.16-.36l1-.69-.28-1.19c-.03-.14.02-.29.12-.38l.93-.79-.4-1.15c-.05-.13-.01-.28.08-.39l.83-.88-.52-1.11c-.06-.13-.04-.28.04-.4l.74-.96-.64-1.04c-.08-.12-.08-.28,0-.4l.64-1.04-.74-.96c-.09-.11-.1-.27-.04-.4l.52-1.11-.83-.88c-.1-.1-.13-.25-.08-.39l.4-1.15-.93-.79c-.11-.09-.16-.24-.12-.38l.28-1.19-1-.69c-.12-.08-.18-.22-.16-.36l.16-1.21-1.07-.58c-.13-.07-.2-.2-.2-.34l.03-1.22-1.12-.47c-.13-.05-.22-.18-.23-.32l-.1-1.21-1.17-.35c-.14-.04-.24-.15-.27-.29l-.23-1.2-1.2-.23c-.14-.03-.25-.13-.29-.27l-.35-1.17-1.21-.1c-.14-.01-.27-.1-.32-.23l-.47-1.12-1.22.03c-.15,0-.28-.07-.34-.2l-.58-1.07-1.21.16c-.15.02-.28-.04-.36-.16l-.69-1-1.19.28c-.14.03-.29-.01-.38-.12l-.79-.93-1.15.4c-.14.05-.29.01-.39-.08l-.88-.83-1.11.52c-.13.06-.28.04-.4-.04l-.96-.74-1.04.64c-.12.07-.28.07-.4,0l-1.04-.64-.96.74c-.11.09-.27.1-.4.04l-1.11-.52-.88.83c-.1.1-.25.13-.39.08l-1.15-.4-.79.93c-.09.11-.24.16-.38.12l-1.19-.28-.69,1c-.08.12-.22.18-.36.16l-1.21-.16-.58,1.07c-.07.13-.21.2-.34.2l-1.22-.03-.47,1.12c-.05.13-.18.22-.32.23l-1.21.1-.35,1.17c-.04.14-.15.24-.29.27l-1.2.23-.23,1.2c-.03.14-.13.25-.27.29l-1.17.35-.09,1.21c-.01.14-.1.27-.23.32l-1.13.47.03,1.22c0,.14-.07.28-.2.34l-1.07.58.16,1.21c.02.14-.04.28-.16.36l-1,.69.28,1.19c.03.14-.02.29-.12.38l-.93.79.4,1.15c.05.13.01.28-.08.39l-.83.88.52,1.11c.06.13.04.28-.04.4l-.74.96.64,1.04c.08.12.08.28,0,.4l-.64,1.04.74.96c.09.11.1.27.04.4l-.52,1.11.83.88c.1.1.13.25.08.39l-.4,1.15.93.79c.11.09.16.24.12.38l-.28,1.19,1,.69c.12.08.18.22.16.36l-.16,1.21,1.07.58c.13.07.2.2.2.34l-.03,1.22,1.13.47c.13.05.22.18.23.32l.09,1.21,1.17.35c.14.04.24.15.27.29l.23,1.2,1.2.23c.14.03.25.13.29.27l.35,1.17,1.21.09c.14.01.27.1.32.23l.47,1.13,1.22-.03c.14,0,.28.07.34.2l.58,1.07,1.21-.16c.15-.01.28.04.36.16l.69,1,1.19-.28c.14-.03.29.01.38.12l.79.93,1.15-.4c.14-.05.29-.01.39.08l.88.83,1.11-.52c.05-.02.11-.04.16-.04Z"/>
      </g>
      <g id="circle3950">
        <circle class="cls-5" cx="81.28" cy="42.79" r="7.99"/>
        <path class="cls-5" d="m81.28,50.97c-4.51,0-8.18-3.67-8.18-8.18s3.67-8.18,8.18-8.18,8.18,3.67,8.18,8.18-3.67,8.18-8.18,8.18Zm0-15.98c-4.3,0-7.8,3.5-7.8,7.8s3.5,7.8,7.8,7.8,7.8-3.5,7.8-7.8-3.5-7.8-7.8-7.8Z"/>
      </g>
      <g id="circle3952">
        <circle class="cls-7" cx="31.58" cy="39.52" r="2.01"/>
        <path class="cls-5" d="m31.58,41.73c-1.21,0-2.2-.99-2.2-2.2s.99-2.2,2.2-2.2,2.2.99,2.2,2.2-.99,2.2-2.2,2.2Zm0-4.02c-1,0-1.82.82-1.82,1.82s.82,1.82,1.82,1.82,1.82-.82,1.82-1.82-.82-1.82-1.82-1.82Z"/>
      </g>
      <g id="circle3954">
        <circle class="cls-7" cx="78.71" cy="39.52" r="2.01"/>
        <path class="cls-5" d="m78.71,41.73c-1.21,0-2.2-.99-2.2-2.2s.99-2.2,2.2-2.2,2.2.99,2.2,2.2-.99,2.2-2.2,2.2Zm0-4.02c-1,0-1.82.82-1.82,1.82s.82,1.82,1.82,1.82,1.82-.82,1.82-1.82-.82-1.82-1.82-1.82Z"/>
      </g>
    </g>
  </g>
</svg>