<?xml version="1.0" encoding="UTF-8"?>
<svg id="Layer_2" data-name="Layer 2" xmlns="http://www.w3.org/2000/svg" viewBox="0 0 67.38 82.07">
  <defs>
    <style>
      .cls-1 {
        fill: #ffda61;
      }

      .cls-1, .cls-2, .cls-3, .cls-4 {
        stroke-width: 0px;
      }

      .cls-3 {
        fill: #fff;
      }

      .cls-4 {
        fill: #d1d3d4;
      }

      .cls-5 {
        fill: none;
        stroke: #231f20;
        stroke-linecap: round;
        stroke-miterlimit: 10;
        stroke-width: 3px;
      }
    </style>
  </defs>
  <g id="Layer_1-2" data-name="Layer 1">
    <circle class="cls-1" cx="33.69" cy="33.69" r="33.69"/>
    <g>
      <g id="polygon3960">
        <polygon class="cls-3" points="21.91 14.77 22.58 14.41 23.16 14.9 23.87 14.61 24.39 15.16 25.12 14.95 25.58 15.55 26.33 15.41 26.73 16.06 27.49 16 27.82 16.69 28.58 16.71 28.83 17.43 29.59 17.53 29.77 18.27 30.51 18.45 30.61 19.2 31.33 19.46 31.35 20.22 32.04 20.55 31.98 21.31 32.62 21.71 32.49 22.45 33.09 22.92 32.88 23.65 33.43 24.17 33.14 24.88 33.63 25.46 33.27 26.13 33.7 26.75 33.27 27.38 33.63 28.05 33.14 28.63 33.43 29.34 32.88 29.86 33.09 30.59 32.49 31.05 32.62 31.8 31.97 32.2 32.04 32.96 31.35 33.29 31.33 34.05 30.61 34.31 30.51 35.06 29.77 35.24 29.59 35.98 28.83 36.08 28.58 36.8 27.82 36.82 27.49 37.5 26.73 37.45 26.33 38.09 25.58 37.96 25.12 38.56 24.39 38.35 23.87 38.89 23.16 38.61 22.58 39.1 21.91 38.74 21.28 39.17 20.66 38.74 19.99 39.1 19.41 38.61 18.7 38.89 18.18 38.35 17.45 38.56 16.98 37.96 16.23 38.09 15.83 37.45 15.08 37.5 14.75 36.82 13.99 36.8 13.73 36.08 12.98 35.98 12.8 35.24 12.06 35.06 11.96 34.3 11.24 34.05 11.22 33.29 10.53 32.96 10.59 32.2 9.95 31.8 10.08 31.05 9.48 30.59 9.69 29.86 9.14 29.34 9.43 28.63 8.94 28.05 9.3 27.38 8.87 26.75 9.3 26.13 8.94 25.46 9.43 24.88 9.14 24.17 9.69 23.65 9.48 22.91 10.08 22.45 9.95 21.71 10.59 21.3 10.53 20.55 11.22 20.22 11.24 19.46 11.96 19.2 12.06 18.45 12.8 18.27 12.98 17.53 13.74 17.43 13.99 16.71 14.75 16.69 15.08 16 15.84 16.06 16.24 15.41 16.99 15.55 17.45 14.95 18.18 15.16 18.7 14.61 19.41 14.9 19.99 14.41 20.66 14.77 21.28 14.34 21.91 14.77"/>
        <path class="cls-2" d="m21.28,39.36s-.08-.01-.11-.03l-.53-.36-.56.31c-.07.04-.16.03-.22-.02l-.49-.41-.59.24c-.07.03-.16.01-.22-.05l-.44-.46-.62.18c-.08.02-.16,0-.21-.07l-.39-.51-.63.12c-.08.01-.16-.02-.2-.09l-.34-.54-.64.05c-.09.01-.16-.04-.19-.11l-.28-.58-.64-.02c-.08,0-.15-.05-.18-.13l-.22-.6-.63-.09c-.08-.01-.14-.07-.16-.15l-.15-.62-.62-.15c-.08-.02-.14-.08-.15-.17l-.08-.64-.6-.21c-.08-.03-.13-.1-.13-.18l-.02-.64-.58-.28c-.07-.03-.12-.11-.11-.19l.05-.64-.54-.34c-.07-.04-.1-.12-.09-.2l.12-.63-.51-.39c-.06-.05-.09-.13-.07-.21l.18-.62-.46-.44c-.06-.06-.08-.14-.05-.22l.24-.59-.41-.49c-.05-.06-.06-.15-.02-.22l.31-.56-.37-.53c-.05-.07-.05-.16,0-.22l.37-.53-.31-.56c-.04-.07-.03-.16.02-.22l.41-.49-.24-.59c-.03-.07-.01-.16.05-.22l.46-.44-.18-.62c-.02-.08,0-.16.07-.21l.51-.39-.12-.63c-.01-.08.02-.16.09-.2l.55-.34-.05-.64c0-.08.04-.16.11-.19l.58-.28.02-.64c0-.08.05-.15.13-.18l.61-.22.09-.63c.01-.08.07-.15.15-.16l.62-.15.15-.63c.02-.08.09-.14.17-.15l.64-.08.21-.6c.03-.08.1-.13.18-.13l.64-.02.28-.58c.03-.07.11-.12.19-.11l.64.05.34-.54c.04-.07.12-.11.2-.09l.63.12.39-.51c.05-.06.13-.09.21-.07l.62.18.44-.46c.06-.06.14-.08.22-.05l.59.24.49-.41c.06-.05.15-.06.22-.02l.56.31.53-.37c.07-.05.16-.05.22,0l.53.37.56-.31c.07-.04.16-.03.22.02l.49.41.59-.24c.07-.03.16-.01.22.05l.44.46.62-.18c.08-.02.16,0,.21.07l.39.51.63-.12c.08-.02.16.02.2.09l.34.54.64-.05c.08-.01.16.04.19.11l.28.58.64.02c.08,0,.15.05.18.13l.21.6.64.09c.08.01.15.07.16.15l.15.62.62.15c.08.02.14.08.15.16l.09.64.6.21c.08.03.13.1.13.18l.02.64.58.28c.07.03.12.11.11.19l-.05.64.54.34c.07.04.1.12.09.2l-.12.63.51.39c.06.05.09.13.07.21l-.18.62.46.44c.06.06.08.14.05.22l-.24.59.41.49c.05.06.06.15.02.22l-.31.56.36.53c.05.07.05.15,0,.22l-.36.53.31.56c.04.07.03.16-.02.22l-.41.49.24.59c.03.07.01.16-.05.22l-.46.44.18.61c.02.08,0,.16-.07.21l-.51.39.12.63c.01.08-.02.16-.09.2l-.55.34.05.64c0,.08-.04.16-.11.19l-.58.28-.02.64c0,.08-.05.15-.13.18l-.6.22-.09.63c-.01.08-.07.15-.15.16l-.62.15-.15.62c-.02.08-.08.14-.16.15l-.64.09-.21.6c-.03.08-.1.13-.18.13l-.64.02-.28.58c-.04.07-.11.12-.19.11l-.64-.05-.34.54c-.04.07-.12.1-.2.09l-.63-.12-.39.51c-.05.06-.13.09-.21.07l-.62-.18-.44.46c-.06.06-.14.08-.22.05l-.59-.24-.49.41c-.06.05-.15.06-.22.02l-.56-.31-.53.36s-.07.03-.11.03Zm-.63-.82s.08.01.11.03l.52.35.52-.35c.06-.04.14-.05.2-.01l.55.3.48-.4c.06-.05.13-.06.2-.03l.58.24.43-.45c.05-.05.13-.07.2-.05l.6.18.38-.5c.05-.06.12-.09.19-.07l.62.11.33-.53c.04-.06.11-.1.18-.09l.62.05.27-.57c.03-.07.1-.11.17-.11l.63-.02.21-.59c.02-.07.09-.12.16-.13l.62-.08.15-.61c.02-.07.07-.13.15-.15l.61-.15.08-.62c0-.07.06-.13.13-.16l.59-.21.02-.63c0-.07.05-.14.11-.17l.56-.27-.05-.63c0-.07.03-.14.09-.18l.54-.33-.11-.62c-.01-.07.02-.15.07-.19l.5-.38-.17-.6c-.02-.07,0-.15.05-.2l.45-.43-.24-.58c-.03-.07-.02-.15.03-.2l.4-.48-.3-.55c-.03-.06-.03-.14.01-.2l.35-.52-.35-.52c-.04-.06-.05-.14-.01-.2l.3-.55-.4-.48c-.05-.06-.06-.13-.03-.2l.24-.58-.45-.43c-.05-.05-.07-.13-.05-.2l.18-.6-.5-.38c-.06-.05-.09-.12-.07-.19l.11-.62-.53-.33c-.06-.04-.1-.11-.09-.18l.05-.63-.56-.27c-.07-.03-.11-.1-.11-.17l-.02-.63-.59-.21c-.07-.02-.12-.09-.13-.16l-.08-.62-.61-.15c-.07-.02-.13-.07-.15-.15l-.15-.61-.62-.08c-.07,0-.13-.06-.16-.13l-.21-.59-.63-.02c-.07,0-.14-.05-.17-.11l-.27-.56-.63.05c-.08.01-.14-.03-.18-.09l-.33-.53-.62.11c-.07.01-.15-.01-.19-.07l-.38-.5-.6.18c-.07.02-.15,0-.2-.05l-.43-.45-.58.24c-.07.03-.15.02-.2-.03l-.48-.4-.55.3c-.07.03-.14.03-.21-.01l-.52-.36-.52.36c-.06.04-.14.05-.21.01l-.55-.3-.48.4c-.06.05-.13.06-.2.03l-.58-.24-.43.45c-.05.05-.13.07-.2.05l-.6-.18-.38.5c-.05.06-.12.09-.19.07l-.62-.11-.33.53c-.04.06-.11.1-.18.09l-.63-.05-.27.56c-.03.07-.1.11-.17.11l-.63.02-.21.59c-.02.07-.09.12-.16.13l-.62.08-.15.61c-.02.07-.07.13-.15.15l-.61.15-.08.62c0,.07-.06.13-.13.16l-.59.21-.02.63c0,.07-.05.14-.11.17l-.56.27.05.62c0,.07-.03.14-.09.18l-.53.33.11.62c.01.07-.02.15-.07.19l-.5.38.17.6c.02.07,0,.15-.05.2l-.45.43.24.58c.03.07.02.15-.03.2l-.4.48.3.55c.04.07.03.14-.01.21l-.36.52.36.52c.04.06.05.14.01.21l-.3.55.4.48c.05.06.06.13.03.2l-.24.58.45.43c.05.05.07.13.05.2l-.17.6.5.38c.06.05.09.12.07.19l-.11.62.53.33c.06.04.1.11.09.18l-.05.63.56.27c.07.03.11.1.11.17l.02.63.59.21c.07.02.12.09.13.16l.08.62.61.15c.07.02.13.07.15.14l.15.61.62.08c.07,0,.13.06.16.13l.21.59.63.02c.07,0,.14.05.17.11l.27.56.62-.05c.08,0,.14.03.18.09l.33.53.62-.11c.07-.01.15.02.19.07l.38.5.6-.18c.07-.02.15,0,.2.05l.43.45.58-.24c.07-.03.15-.02.2.03l.48.4.55-.3s.06-.02.09-.02Z"/>
      </g>
      <g id="circle3946">
        <circle class="cls-2" cx="21.39" cy="27.02" r="4.11"/>
        <path class="cls-2" d="m21.39,31.24c-2.32,0-4.21-1.89-4.21-4.21s1.89-4.21,4.21-4.21,4.21,1.89,4.21,4.21-1.89,4.21-4.21,4.21Zm0-8.23c-2.21,0-4.02,1.8-4.02,4.02s1.8,4.02,4.02,4.02,4.02-1.8,4.02-4.02-1.8-4.02-4.02-4.02Z"/>
      </g>
      <g id="polygon3948">
        <polygon class="cls-3" points="46.11 14.75 46.76 14.36 47.36 14.82 48.06 14.49 48.6 15.02 49.33 14.76 49.82 15.34 50.56 15.17 50.99 15.79 51.75 15.69 52.11 16.36 52.87 16.34 53.16 17.04 53.92 17.11 54.14 17.84 54.89 17.98 55.03 18.73 55.76 18.94 55.82 19.7 56.52 19.99 56.5 20.75 57.17 21.12 57.07 21.87 57.7 22.3 57.52 23.05 58.1 23.54 57.85 24.26 58.37 24.81 58.04 25.5 58.51 26.1 58.11 26.75 58.51 27.4 58.04 28.01 58.37 28.7 57.85 29.25 58.1 29.97 57.52 30.46 57.7 31.2 57.07 31.63 57.17 32.39 56.5 32.75 56.52 33.52 55.82 33.81 55.76 34.56 55.03 34.78 54.89 35.53 54.14 35.67 53.92 36.4 53.16 36.46 52.87 37.16 52.11 37.15 51.75 37.81 50.99 37.72 50.56 38.34 49.82 38.16 49.33 38.74 48.6 38.49 48.06 39.01 47.36 38.69 46.76 39.15 46.11 38.75 45.46 39.15 44.86 38.69 44.17 39.01 43.62 38.49 42.9 38.74 42.41 38.16 41.66 38.34 41.23 37.72 40.47 37.81 40.11 37.15 39.35 37.16 39.06 36.46 38.3 36.4 38.08 35.67 37.34 35.53 37.19 34.78 36.46 34.56 36.41 33.81 35.7 33.52 35.72 32.75 35.05 32.39 35.15 31.63 34.52 31.2 34.7 30.46 34.12 29.97 34.37 29.25 33.85 28.7 34.18 28.01 33.71 27.4 34.11 26.75 33.71 26.1 34.18 25.5 33.85 24.81 34.37 24.26 34.12 23.54 34.7 23.05 34.52 22.3 35.15 21.87 35.05 21.12 35.72 20.75 35.7 19.99 36.41 19.7 36.46 18.94 37.19 18.73 37.34 17.98 38.08 17.84 38.3 17.11 39.06 17.04 39.35 16.34 40.11 16.36 40.47 15.69 41.23 15.79 41.66 15.17 42.41 15.34 42.9 14.76 43.62 15.02 44.17 14.49 44.86 14.82 45.46 14.36 46.11 14.75"/>
        <path class="cls-2" d="m46.76,39.35s-.07,0-.1-.03l-.55-.34-.55.34c-.07.04-.16.04-.22-.01l-.51-.39-.58.28c-.07.03-.16.02-.22-.04l-.46-.44-.61.21c-.08.03-.16,0-.21-.06l-.41-.49-.63.15c-.08.02-.16-.01-.21-.08l-.36-.53-.64.08c-.08,0-.16-.03-.2-.1l-.31-.56h-.64c-.08.01-.15-.03-.19-.11l-.25-.59-.64-.05c-.08,0-.15-.06-.17-.14l-.18-.62-.63-.12c-.08-.02-.14-.08-.16-.16l-.12-.63-.62-.18c-.08-.02-.13-.09-.14-.17l-.05-.64-.59-.25c-.07-.03-.12-.1-.12-.19v-.64s-.55-.31-.55-.31c-.07-.04-.11-.12-.1-.2l.08-.64-.53-.36c-.07-.05-.1-.13-.08-.21l.15-.63-.49-.41c-.06-.05-.09-.14-.06-.21l.21-.61-.44-.46c-.06-.06-.07-.15-.04-.22l.28-.58-.39-.51c-.05-.06-.05-.15-.01-.22l.34-.55-.34-.55c-.04-.07-.04-.16.01-.22l.39-.51-.28-.58c-.03-.07-.02-.16.04-.22l.44-.46-.21-.61c-.03-.08,0-.16.06-.21l.49-.41-.15-.63c-.02-.08.01-.16.08-.21l.53-.36-.08-.64c-.01-.08.03-.16.1-.2l.56-.31v-.64c-.02-.08.03-.15.11-.19l.59-.25.05-.64c0-.08.06-.15.14-.17l.62-.18.12-.63c.02-.08.08-.14.16-.16l.63-.12.18-.62c.02-.08.09-.13.17-.14l.64-.05.25-.59c.03-.07.11-.13.19-.12h.64s.31-.55.31-.55c.04-.07.11-.11.2-.1l.64.08.36-.53c.05-.07.13-.1.21-.08l.63.15.41-.49c.05-.06.14-.08.21-.06l.61.21.46-.44c.06-.06.15-.07.22-.04l.58.28.51-.39c.06-.05.15-.05.22-.01l.55.34.55-.34c.07-.04.16-.04.22.01l.51.39.58-.28c.07-.03.16-.02.22.04l.46.44.61-.21c.08-.03.16,0,.21.06l.41.49.63-.15c.08-.02.16.01.21.08l.36.53.64-.08c.08,0,.16.03.2.1l.31.56h.64c.08-.02.15.03.19.11l.25.59.64.05c.08,0,.15.06.17.14l.18.62.63.12c.08.02.14.08.16.16l.12.63.62.18c.08.02.13.09.14.17l.05.64.59.25c.07.03.12.1.12.19v.64s.55.31.55.31c.07.04.11.12.1.2l-.08.64.53.36c.07.05.1.13.08.21l-.15.63.49.41c.06.05.09.14.06.21l-.21.61.44.46c.06.06.07.15.04.22l-.28.58.39.51c.05.06.05.15.01.22l-.34.55.34.55c.04.07.04.16-.01.22l-.39.51.28.58c.03.07.02.16-.04.22l-.44.46.21.61c.03.08,0,.16-.06.21l-.49.41.15.63c.02.08-.01.16-.08.21l-.53.36.08.64c.01.08-.03.16-.1.2l-.56.31v.64c.02.08-.03.15-.11.19l-.59.25-.05.64c0,.08-.06.15-.14.17l-.62.18-.12.63c-.02.08-.08.14-.16.16l-.63.12-.18.62c-.02.08-.09.13-.17.14l-.64.05-.25.59c-.03.07-.11.12-.19.12h-.64s-.31.55-.31.55c-.04.07-.12.11-.2.1l-.64-.08-.36.53c-.05.07-.13.1-.21.08l-.63-.15-.41.49c-.05.06-.14.08-.21.06l-.61-.21-.46.44c-.06.06-.15.07-.22.04l-.58-.28-.51.39s-.08.04-.12.04Zm-1.9-.86s.08.01.12.04l.5.38.54-.33c.06-.04.14-.04.21,0l.54.33.49-.38c.06-.05.14-.05.2-.02l.57.27.45-.43c.05-.05.13-.07.2-.04l.59.21.4-.48c.05-.06.12-.08.19-.06l.61.15.35-.51c.04-.06.11-.09.19-.08l.62.08.3-.55c.04-.06.1-.1.18-.1h.63s.24-.57.24-.57c.03-.07.09-.11.17-.12l.62-.05.18-.6c.02-.07.08-.12.15-.14l.62-.12.12-.62c.01-.07.07-.13.14-.15l.6-.18.05-.62c0-.07.05-.14.12-.17l.58-.24v-.63c-.02-.07.02-.14.09-.18l.55-.3-.08-.62c0-.07.02-.14.08-.19l.51-.35-.15-.61c-.02-.07,0-.15.06-.19l.48-.4-.21-.59c-.02-.07,0-.15.04-.2l.43-.45-.27-.57c-.03-.07-.02-.15.02-.2l.38-.49-.33-.54c-.04-.06-.04-.14,0-.21l.33-.54-.38-.49c-.05-.06-.05-.14-.02-.2l.27-.57-.43-.45c-.05-.05-.07-.13-.04-.2l.21-.59-.48-.4c-.06-.05-.08-.12-.06-.19l.15-.61-.51-.35c-.06-.04-.09-.11-.08-.19l.08-.62-.55-.3c-.06-.04-.1-.1-.1-.18v-.63s-.56-.24-.56-.24c-.07-.03-.11-.09-.12-.17l-.05-.62-.6-.18c-.07-.02-.12-.08-.14-.15l-.12-.62-.62-.12c-.07-.01-.13-.07-.15-.14l-.18-.6-.62-.05c-.07,0-.14-.05-.16-.12l-.24-.58h-.63c-.08.02-.14-.02-.18-.09l-.3-.55-.62.08c-.07,0-.15-.02-.19-.08l-.35-.51-.61.15c-.07.02-.15,0-.2-.06l-.4-.48-.59.21c-.07.02-.15,0-.2-.04l-.45-.43-.57.27c-.07.03-.15.02-.2-.02l-.49-.38-.54.33c-.06.04-.14.04-.21,0l-.54-.33-.5.38c-.06.05-.14.05-.2.02l-.57-.27-.45.43c-.05.05-.13.07-.2.04l-.59-.21-.4.48c-.05.06-.12.08-.2.06l-.61-.15-.35.51c-.04.06-.11.09-.19.08l-.62-.08-.3.55c-.03.06-.11.1-.18.1h-.63s-.24.56-.24.56c-.03.07-.09.11-.16.12l-.62.05-.18.6c-.02.07-.08.12-.15.14l-.62.12-.12.62c-.01.07-.07.13-.14.15l-.6.18-.05.62c0,.07-.05.14-.12.17l-.58.24v.63c.02.07-.02.14-.09.18l-.55.3.08.62c0,.07-.02.14-.08.19l-.51.35.15.61c.02.07,0,.15-.06.19l-.48.4.21.59c.02.07,0,.15-.04.2l-.43.45.27.57c.03.07.02.15-.02.2l-.38.49.33.54c.04.06.04.14,0,.21l-.33.54.38.49c.05.06.05.14.02.2l-.27.57.43.45c.05.05.07.13.04.2l-.21.59.48.4c.06.05.08.12.06.19l-.15.61.51.35c.06.04.09.11.08.19l-.08.62.55.3c.06.04.1.1.1.18v.63s.57.24.57.24c.07.03.11.09.12.17l.05.62.6.18c.07.02.12.08.14.15l.12.62.62.12c.07.01.13.07.15.14l.18.6.62.05c.07,0,.14.05.17.12l.24.58h.63c.07-.01.14.02.18.09l.3.55.62-.08c.08,0,.15.02.19.08l.35.51.61-.15c.07-.02.15,0,.19.06l.4.48.59-.21c.07-.02.15,0,.2.04l.45.43.57-.27s.06-.02.08-.02Z"/>
      </g>
      <g id="circle3950">
        <circle class="cls-2" cx="46.22" cy="27.02" r="4.11"/>
        <path class="cls-2" d="m46.22,31.24c-2.32,0-4.21-1.89-4.21-4.21s1.89-4.21,4.21-4.21,4.21,1.89,4.21,4.21-1.89,4.21-4.21,4.21Zm0-8.23c-2.21,0-4.02,1.8-4.02,4.02s1.8,4.02,4.02,4.02,4.02-1.8,4.02-4.02-1.8-4.02-4.02-4.02Z"/>
      </g>
      <g id="circle3952">
        <circle class="cls-3" cx="20.63" cy="25.34" r="1.04"/>
        <path class="cls-2" d="m20.63,26.48c-.63,0-1.13-.51-1.13-1.13s.51-1.13,1.13-1.13,1.13.51,1.13,1.13-.51,1.13-1.13,1.13Zm0-2.07c-.52,0-.94.42-.94.94s.42.94.94.94.94-.42.94-.94-.42-.94-.94-.94Z"/>
      </g>
      <g id="circle3954">
        <circle class="cls-3" cx="44.9" cy="25.34" r="1.04"/>
        <path class="cls-2" d="m44.9,26.48c-.63,0-1.13-.51-1.13-1.13s.51-1.13,1.13-1.13,1.13.51,1.13,1.13-.51,1.13-1.13,1.13Zm0-2.07c-.52,0-.94.42-.94.94s.42.94.94.94.94-.42.94-.94-.42-.94-.94-.94Z"/>
      </g>
    </g>
    <ellipse class="cls-4" cx="33.69" cy="78.66" rx="25.43" ry="3.4"/>
    <line class="cls-5" x1="19.52" y1="52.56" x2="47.86" y2="48.22"/>
  </g>
</svg>