<?xml version="1.0" encoding="UTF-8"?>
<svg id="Layer_2" data-name="Layer 2" xmlns="http://www.w3.org/2000/svg" viewBox="0 0 121.6 93.16">
  <defs>
    <style>
      .cls-1 {
        fill: #a41d24;
      }

      .cls-1, .cls-2 {
        stroke: #000;
        stroke-miterlimit: 10;
        stroke-width: 1.2px;
      }

      .cls-3 {
        fill: #32adc6;
      }

      .cls-3, .cls-4, .cls-5, .cls-6 {
        stroke-width: 0px;
      }

      .cls-2 {
        fill: none;
      }

      .cls-5 {
        fill: #fff;
      }

      .cls-6 {
        fill: #ec008c;
      }
    </style>
  </defs>
  <g id="Layer_1-2" data-name="Layer 1">
    <g>
      <path class="cls-3" d="m113.31,92.59H9.38c-2.81,0-5.1-2.28-5.1-5.1V21.43c0-2.81,2.28-5.1,5.1-5.1h103.93c2.81,0,5.1,2.28,5.1,5.1v66.06c0,2.81-2.29,5.1-5.1,5.1Z"/>
      <path class="cls-4" d="m113.31,93.16H9.38c-3.13,0-5.67-2.54-5.67-5.67V21.43c0-3.13,2.54-5.67,5.67-5.67h103.93c3.13,0,5.67,2.54,5.67,5.67v66.06c-.01,3.13-2.55,5.67-5.67,5.67ZM9.38,16.9c-2.5,0-4.53,2.03-4.53,4.53v66.06c0,2.5,2.03,4.53,4.53,4.53h103.93c2.49,0,4.52-2.03,4.53-4.53V21.43c0-2.5-2.03-4.53-4.53-4.53H9.38Z"/>
      <g>
        <g id="polyline3958">
          <polygon class="cls-5" points="25.28 27.64 7.79 17.7 .65 21.13 21.45 31.82 25.28 27.64"/>
          <path class="cls-4" d="m21.59,32.17c-.1.04-.21.04-.31-.02L.48,21.47c-.13-.07-.21-.2-.21-.34,0-.14.09-.28.22-.34l7.13-3.43c.12-.05.25-.05.35.01l17.49,9.94c.18.1.25.34.14.52-.1.18-.34.25-.52.14L7.77,18.13l-6.26,3.01,20.11,10.34c.19.1.26.33.16.51-.04.09-.12.15-.2.18Z"/>
        </g>
        <g id="path3736">
          <path class="cls-4" d="m40.1,4.87L5.01,23.25c-.19.1-.42.03-.53-.16l-3.35-1.82c-.1-.19-.8-.48-.61-.58L38.19,1.24c.19-.1.42-.03.53.16l1.55,2.95c.1.18.03.42-.17.52Z"/>
          <path class="cls-4" d="m5.04,23.45c-.12.05-.25.05-.37.01-.13-.04-.33-.01-.33-.01l-1.23-.63c-.39-.28-.91-.47-1.65-.85l-.97-.5c-.24-.12-.52-.24-.48-.51.04-.23.36-.4.44-.44L38.11,1.07c.14-.07.29-.09.44-.04.15.05.27.15.34.28l1.55,2.95c.07.13.09.29.04.44-.05.15-.15.27-.29.33L5.1,23.42s-.04.02-.06.03Zm-3.77-2.33l3.31,1.8s.06.04.08.08c.03.05.07.09.12.1.05.01.1,0,.15-.01L40.01,4.7s0,0,0,0c.05-.02.08-.06.1-.11.02-.05.01-.1-.01-.15l-1.55-2.95s-.07-.08-.12-.1c-.05-.02-.11,0-.15.01L.8,20.76s.07.05.1.07c.15.1.29.19.37.29Z"/>
        </g>
      </g>
      <g id="polygon3960">
        <polygon class="cls-5" points="37.51 21.26 38.81 20.55 39.93 21.51 41.3 20.95 42.32 22.01 43.74 21.6 44.64 22.77 46.09 22.5 46.87 23.76 48.34 23.65 48.98 24.98 50.46 25.02 50.95 26.42 52.42 26.61 52.76 28.05 54.2 28.39 54.4 29.87 55.79 30.36 55.83 31.83 57.17 32.47 57.06 33.95 58.31 34.72 58.04 36.18 59.21 37.08 58.8 38.5 59.87 39.51 59.31 40.88 60.26 42.01 59.56 43.31 60.39 44.53 59.56 45.75 60.26 47.05 59.31 48.17 59.87 49.54 58.8 50.56 59.21 51.97 58.04 52.88 58.31 54.33 57.05 55.1 57.17 56.58 55.83 57.22 55.79 58.7 54.4 59.2 54.2 60.66 52.76 61 52.42 62.44 50.95 62.64 50.46 64.03 48.98 64.07 48.34 65.41 46.87 65.29 46.09 66.55 44.64 66.28 43.74 67.45 42.32 67.04 41.3 68.11 39.93 67.55 38.81 68.5 37.51 67.8 36.29 68.63 35.07 67.8 33.77 68.5 32.64 67.55 31.28 68.11 30.25 67.04 28.83 67.45 27.93 66.28 26.48 66.55 25.7 65.29 24.23 65.41 23.6 64.07 22.12 64.03 21.62 62.64 20.16 62.44 19.8 61 18.37 60.66 18.18 59.19 16.79 58.7 16.74 57.22 15.41 56.58 15.52 55.1 14.27 54.33 14.53 52.88 13.36 51.97 13.78 50.55 12.71 49.54 13.27 48.17 12.31 47.05 13.02 45.75 12.18 44.53 13.02 43.31 12.31 42.01 13.27 40.88 12.71 39.51 13.78 38.49 13.36 37.07 14.53 36.18 14.27 34.72 15.52 33.94 15.41 32.47 16.74 31.83 16.79 30.36 18.18 29.86 18.38 28.39 19.81 28.05 20.16 26.61 21.63 26.42 22.12 25.02 23.6 24.98 24.23 23.65 25.71 23.76 26.49 22.5 27.94 22.77 28.84 21.6 30.26 22.01 31.28 20.95 32.64 21.51 33.77 20.55 35.07 21.26 36.29 20.41 37.51 21.26"/>
        <path class="cls-4" d="m36.29,69.01c-.08,0-.15-.02-.22-.07l-1.03-.7-1.09.59c-.14.07-.31.06-.43-.04l-.95-.81-1.15.47c-.14.06-.31.02-.42-.09l-.86-.9-1.2.35c-.15.05-.31,0-.41-.13l-.76-.99-1.22.23c-.16.03-.31-.04-.39-.17l-.65-1.06-1.24.09c-.17.02-.31-.07-.37-.22l-.54-1.12-1.25-.04c-.16,0-.29-.11-.35-.25l-.42-1.17-1.23-.17c-.15-.02-.28-.13-.32-.29l-.3-1.21-1.21-.29c-.15-.04-.27-.16-.29-.32l-.16-1.24-1.17-.41c-.15-.05-.25-.19-.25-.35l-.04-1.25-1.12-.54c-.14-.07-.23-.22-.22-.37l.09-1.25-1.06-.65c-.13-.08-.2-.24-.17-.39l.23-1.23-.99-.76c-.12-.1-.18-.26-.13-.41l.35-1.2-.9-.85c-.11-.11-.15-.27-.09-.42l.47-1.15-.8-.95c-.1-.12-.12-.29-.04-.43l.59-1.09-.71-1.03c-.09-.13-.09-.3,0-.43l.71-1.03-.59-1.09c-.08-.14-.06-.31.04-.43l.8-.95-.47-1.15c-.06-.14-.02-.31.09-.42l.9-.86-.35-1.2c-.04-.15,0-.31.13-.41l.98-.75-.22-1.22c-.03-.15.04-.31.17-.39l1.06-.66-.09-1.24c-.01-.16.07-.3.22-.37l1.12-.54.04-1.25c0-.16.1-.29.25-.35l1.18-.42.17-1.23c.02-.16.14-.28.29-.32l1.21-.29.29-1.22c.04-.15.17-.27.32-.29l1.24-.16.41-1.17c.05-.15.19-.25.35-.25l1.25-.04.54-1.12c.07-.14.21-.23.37-.22l1.25.09.65-1.06c.08-.13.24-.21.39-.17l1.22.22.76-.99c.1-.12.26-.18.41-.13l1.2.35.86-.9c.11-.11.27-.15.42-.09l1.15.47.95-.81c.12-.1.29-.12.43-.04l1.09.59,1.03-.71c.13-.09.3-.09.43,0l1.03.71,1.09-.59c.14-.08.31-.06.43.04l.95.81,1.15-.47c.14-.06.31-.02.42.09l.86.9,1.2-.35c.15-.05.31,0,.41.13l.76.99,1.22-.22c.15-.03.31.04.39.17l.65,1.06,1.25-.09c.16-.02.31.07.37.22l.54,1.12,1.25.04c.16,0,.3.11.35.25l.41,1.17,1.24.17c.16.02.28.14.32.29l.29,1.21,1.21.29c.15.04.27.16.29.32l.17,1.24,1.17.41c.15.05.25.19.25.35l.04,1.25,1.12.54c.14.07.23.22.22.37l-.09,1.25,1.06.65c.13.08.2.24.17.39l-.23,1.23.99.76c.12.1.18.26.13.41l-.35,1.2.9.85c.11.11.15.27.09.42l-.47,1.15.8.95c.1.12.12.29.04.43l-.59,1.09.7,1.03c.09.13.09.3,0,.43l-.7,1.03.59,1.09c.08.14.06.31-.04.43l-.8.95.47,1.15c.06.14.02.31-.09.42l-.9.86.35,1.19c.04.15,0,.31-.13.41l-.99.76.23,1.23c.03.15-.04.31-.18.39l-1.06.65.1,1.25c.01.16-.07.31-.22.37l-1.12.54-.04,1.25c0,.16-.11.29-.25.35l-1.17.42-.17,1.23c-.02.16-.14.28-.29.32l-1.21.29-.29,1.21c-.04.15-.16.27-.32.29l-1.24.17-.41,1.17c-.05.15-.19.25-.35.25l-1.25.04-.54,1.12c-.07.14-.21.23-.37.21l-1.24-.09-.65,1.06c-.08.13-.24.2-.39.17l-1.22-.23-.76.99c-.1.12-.26.18-.41.13l-1.2-.35-.86.9c-.11.11-.28.15-.42.09l-1.15-.47-.95.81c-.12.1-.29.12-.43.04l-1.09-.59-1.03.7c-.06.04-.14.07-.22.07Zm-1.22-1.6c.08,0,.15.02.22.07l1.01.69,1.01-.69c.12-.08.27-.09.4-.02l1.07.58.93-.79c.11-.09.26-.12.39-.06l1.13.46.84-.88c.1-.1.25-.14.38-.1l1.17.34.74-.96c.09-.11.23-.17.37-.14l1.2.22.64-1.03c.07-.12.21-.2.35-.18l1.21.09.53-1.1c.06-.13.19-.21.33-.22l1.22-.04.4-1.15c.05-.14.17-.23.31-.25l1.21-.16.28-1.18c.03-.14.14-.25.28-.28l1.18-.28.16-1.2c.02-.14.12-.26.25-.31l1.15-.41.04-1.22c0-.14.09-.27.22-.33l1.1-.52-.1-1.22c-.01-.14.06-.28.18-.36l1.04-.64-.22-1.2c-.03-.14.03-.28.14-.37l.96-.74-.34-1.16c-.04-.14,0-.28.1-.38l.88-.84-.46-1.13c-.05-.13-.03-.28.06-.39l.79-.93-.58-1.07c-.07-.13-.06-.28.02-.4l.69-1.01-.69-1.01c-.08-.12-.09-.27-.02-.4l.58-1.07-.79-.93c-.09-.11-.12-.26-.06-.39l.46-1.13-.88-.84c-.1-.1-.14-.25-.1-.38l.34-1.17-.96-.74c-.11-.09-.17-.23-.14-.37l.22-1.2-1.03-.64c-.12-.07-.19-.21-.18-.35l.09-1.22-1.1-.52c-.13-.06-.21-.19-.22-.33l-.04-1.22-1.15-.4c-.14-.05-.23-.17-.25-.31l-.16-1.21-1.18-.28c-.14-.03-.25-.14-.28-.28l-.28-1.18-1.21-.16c-.14-.02-.26-.12-.31-.25l-.4-1.15-1.22-.04c-.14,0-.27-.09-.33-.22l-.52-1.1-1.22.09c-.15.02-.28-.06-.35-.18l-.64-1.03-1.2.22c-.14.03-.28-.03-.37-.14l-.74-.96-1.17.34c-.14.04-.28,0-.38-.1l-.84-.88-1.13.46c-.13.05-.28.03-.39-.06l-.93-.79-1.07.58c-.13.07-.28.06-.4-.02l-1-.69-1,.69c-.12.08-.27.09-.4.02l-1.07-.58-.93.79c-.11.09-.26.12-.39.06l-1.13-.46-.84.88c-.1.1-.25.14-.38.1l-1.17-.34-.74.96c-.09.11-.23.17-.37.14l-1.2-.22-.64,1.03c-.07.12-.2.2-.35.18l-1.22-.09-.52,1.1c-.06.13-.19.21-.33.22l-1.22.04-.4,1.15c-.05.14-.17.23-.31.25l-1.21.16-.28,1.19c-.03.14-.14.25-.28.28l-1.18.28-.16,1.2c-.02.14-.12.26-.25.31l-1.15.41-.04,1.22c0,.14-.09.27-.22.33l-1.1.52.09,1.21c.01.14-.06.28-.18.35l-1.04.65.22,1.2c.03.14-.03.28-.14.37l-.96.74.34,1.17c.04.14,0,.28-.1.38l-.88.84.46,1.13c.05.13.03.28-.06.39l-.79.93.58,1.07c.07.13.06.28-.02.4l-.69,1,.69,1c.08.12.09.27.02.4l-.58,1.07.79.93c.09.11.12.26.06.39l-.46,1.13.88.84c.1.1.14.25.1.38l-.34,1.17.96.74c.11.09.17.23.14.37l-.22,1.2,1.03.64c.12.07.19.21.18.35l-.09,1.22,1.1.52c.13.06.21.19.22.33l.04,1.22,1.15.4c.14.05.23.17.25.31l.16,1.21,1.18.28c.14.03.25.14.28.28l.29,1.18,1.21.16c.14.02.26.12.31.25l.41,1.15,1.22.04c.14,0,.27.09.33.22l.52,1.1,1.21-.09c.15-.02.28.06.35.18l.64,1.03,1.2-.22c.14-.02.28.03.37.14l.74.96,1.17-.34c.14-.04.28,0,.38.1l.84.88,1.13-.46c.13-.05.28-.03.39.06l.93.79,1.07-.58c.06-.03.12-.05.18-.05Z"/>
      </g>
      <g>
        <g>
          <g id="polyline3944">
            <polygon class="cls-5" points="98.51 26.09 111.5 19.92 117.02 22.96 100.88 31.14 98.51 26.09"/>
            <path class="cls-4" d="m100.74,31.49c-.08-.03-.15-.1-.19-.18-.1-.19-.02-.42.17-.51l15.49-7.85-4.71-2.6-12.81,6.09c-.19.09-.42,0-.51-.18-.09-.19,0-.42.18-.51l12.99-6.17c.11-.05.24-.05.35.01l5.51,3.05c.12.07.2.2.2.34,0,.14-.08.27-.21.33l-16.13,8.18c-.1.05-.22.05-.32.01Z"/>
          </g>
          <g id="path3736-2" data-name="path3736">
            <path class="cls-4" d="m82.2,3.25l1.61-2.92c.11-.19.34-.26.53-.15l37.23,20.25c.19.11-.51.38-.62.57l-3.76,2.31c-.59-.52.04-.31-.15-.41L82.35,3.77c-.19-.1-.26-.34-.16-.52Z"/>
          </g>
        </g>
        <g id="path3942">
          <path class="cls-4" d="m82.33,3.84l34.69,19.11c.19.11.42.04.53-.15l1.61-2.92c.11-.19.04-.42-.15-.53L84.32.24c-.19-.11-.42-.04-.53.15l-1.61,2.92c-.1.19-.03.43.15.53Z"/>
          <path class="cls-4" d="m116.99,23.15s-.04-.02-.06-.03L82.24,4.01c-.28-.14-.38-.5-.23-.78l1.61-2.92c.16-.28.52-.38.79-.23l34.68,19.11c.14.08.24.2.28.35.04.15.02.3-.05.44l-1.61,2.92c-.15.26-.46.37-.73.26ZM84.2.4s-.09-.02-.13,0c-.05.02-.09.05-.12.1l-1.61,2.92c-.05.09-.02.22.07.27h0s34.69,19.11,34.69,19.11c.09.06.22.02.27-.08l1.61-2.92s.03-.1.02-.15c-.01-.05-.05-.1-.1-.12L84.22.41s-.01,0-.02-.01Z"/>
        </g>
      </g>
      <g id="circle3946">
        <circle class="cls-4" cx="36.49" cy="45.05" r="7.99"/>
        <path class="cls-4" d="m36.49,53.23c-4.51,0-8.18-3.67-8.18-8.18s3.67-8.18,8.18-8.18,8.18,3.67,8.18,8.18-3.67,8.18-8.18,8.18Zm0-15.98c-4.3,0-7.8,3.5-7.8,7.8s3.5,7.8,7.8,7.8,7.8-3.5,7.8-7.8-3.5-7.8-7.8-7.8Z"/>
      </g>
      <g id="polygon3948">
        <polygon class="cls-5" points="84.5 21.22 85.77 20.45 86.94 21.35 88.28 20.72 89.35 21.73 90.75 21.24 91.7 22.37 93.15 22.02 93.98 23.24 95.45 23.05 96.16 24.34 97.64 24.31 98.2 25.67 99.67 25.79 100.09 27.21 101.55 27.48 101.82 28.94 103.24 29.36 103.36 30.83 104.72 31.4 104.69 32.88 105.99 33.58 105.8 35.05 107.01 35.88 106.66 37.33 107.79 38.28 107.3 39.69 108.32 40.75 107.68 42.09 108.58 43.26 107.81 44.53 108.58 45.79 107.68 46.96 108.32 48.3 107.3 49.37 107.79 50.77 106.66 51.72 107.01 53.17 105.8 54 105.99 55.47 104.69 56.18 104.72 57.66 103.36 58.23 103.24 59.7 101.82 60.12 101.55 61.57 100.09 61.85 99.67 63.26 98.2 63.38 97.64 64.74 96.16 64.71 95.45 66.01 93.98 65.82 93.15 67.03 91.7 66.69 90.75 67.81 89.35 67.32 88.28 68.34 86.94 67.7 85.77 68.6 84.5 67.83 83.24 68.6 82.07 67.7 80.73 68.34 79.66 67.32 78.26 67.81 77.31 66.69 75.86 67.03 75.03 65.82 73.56 66.01 72.85 64.71 71.37 64.74 70.81 63.38 69.34 63.26 68.91 61.85 67.46 61.57 67.19 60.12 65.77 59.7 65.66 58.23 64.29 57.66 64.32 56.18 63.02 55.47 63.21 54 62 53.17 62.34 51.72 61.22 50.77 61.71 49.37 60.69 48.3 61.33 46.96 60.43 45.79 61.2 44.53 60.43 43.26 61.33 42.09 60.69 40.75 61.71 39.69 61.22 38.28 62.34 37.33 62 35.88 63.21 35.05 63.02 33.58 64.32 32.88 64.29 31.4 65.66 30.83 65.77 29.36 67.19 28.94 67.46 27.48 68.91 27.21 69.34 25.79 70.81 25.67 71.37 24.31 72.85 24.34 73.56 23.05 75.03 23.24 75.86 22.02 77.31 22.37 78.26 21.24 79.66 21.73 80.73 20.72 82.07 21.35 83.24 20.45 84.5 21.22"/>
        <path class="cls-4" d="m85.77,68.99c-.07,0-.14-.02-.2-.06l-1.07-.65-1.06.65c-.14.08-.31.07-.43-.02l-.98-.76-1.13.54c-.14.07-.31.04-.43-.07l-.9-.85-1.18.41c-.15.05-.31,0-.42-.11l-.8-.95-1.22.29c-.15.03-.31-.03-.4-.15l-.7-1.02-1.24.16c-.16.02-.31-.06-.38-.2l-.59-1.09-1.25.03c-.15,0-.3-.09-.36-.24l-.48-1.15-1.24-.09c-.16-.01-.29-.12-.34-.27l-.36-1.2-1.23-.23c-.15-.03-.27-.15-.3-.3l-.23-1.23-1.2-.36c-.15-.04-.26-.18-.27-.34l-.09-1.24-1.15-.48c-.15-.06-.24-.2-.24-.36l.03-1.25-1.09-.59c-.14-.08-.22-.23-.2-.38l.16-1.24-1.02-.7c-.13-.09-.19-.25-.15-.4l.29-1.22-.95-.8c-.12-.1-.17-.27-.11-.42l.41-1.18-.85-.9c-.11-.11-.14-.28-.07-.43l.54-1.13-.76-.98c-.1-.13-.11-.3-.02-.43l.65-1.07-.65-1.07c-.08-.13-.07-.31.02-.43l.76-.98-.54-1.13c-.07-.14-.04-.31.07-.43l.85-.9-.41-1.18c-.05-.15,0-.31.11-.42l.95-.8-.29-1.22c-.04-.15.03-.31.15-.4l1.02-.7-.16-1.24c-.02-.16.06-.31.2-.38l1.09-.59-.03-1.25c0-.16.09-.3.24-.36l1.15-.48.09-1.24c.01-.16.12-.29.27-.34l1.2-.36.23-1.23c.03-.15.15-.27.3-.3l1.23-.23.36-1.2c.04-.15.18-.26.33-.27l1.24-.1.48-1.14c.06-.14.21-.25.36-.23l1.25.03.59-1.09c.08-.14.22-.21.38-.2l1.24.16.7-1.02c.09-.13.25-.19.4-.15l1.22.29.8-.95c.1-.12.27-.16.42-.11l1.18.41.9-.85c.11-.11.28-.14.43-.07l1.13.54.98-.76c.12-.1.3-.11.43-.02l1.06.65,1.07-.65c.14-.08.31-.07.43.02l.98.76,1.13-.54c.14-.07.31-.04.43.07l.9.85,1.18-.41c.15-.05.31,0,.42.11l.8.95,1.22-.29c.15-.03.31.03.4.16l.7,1.02,1.24-.16c.16-.02.31.06.38.2l.59,1.09,1.25-.03c.16-.01.3.09.36.23l.48,1.14,1.24.1c.16.01.29.12.33.27l.36,1.2,1.23.23c.15.03.27.15.3.3l.23,1.22,1.2.36c.15.04.26.18.27.33l.1,1.24,1.14.48c.14.06.24.2.23.36l-.03,1.25,1.09.59c.14.08.22.23.2.38l-.16,1.24,1.02.7c.13.09.19.25.15.4l-.29,1.22.95.8c.12.1.17.27.11.42l-.41,1.18.85.9c.11.11.14.28.07.43l-.54,1.13.76.98c.1.12.11.3.02.43l-.65,1.07.65,1.07c.08.14.07.31-.02.43l-.76.98.54,1.13c.07.14.04.31-.07.43l-.85.9.41,1.18c.05.15,0,.31-.11.42l-.95.8.29,1.22c.04.15-.03.31-.15.4l-1.02.7.16,1.24c.02.16-.06.31-.2.38l-1.09.59.03,1.25c0,.16-.09.3-.23.36l-1.14.48-.1,1.24c-.01.16-.12.29-.27.33l-1.2.36-.23,1.22c-.03.15-.15.27-.3.3l-1.23.23-.36,1.2c-.04.15-.18.26-.34.27l-1.24.09-.48,1.15c-.06.14-.21.23-.36.24l-1.25-.03-.59,1.09c-.08.14-.22.21-.38.2l-1.24-.16-.7,1.02c-.09.13-.25.19-.4.16l-1.22-.29-.8.95c-.1.12-.27.16-.42.11l-1.18-.41-.9.85c-.11.11-.28.14-.43.07l-1.13-.54-.98.76c-.07.05-.15.08-.23.08Zm-3.7-1.66c.08,0,.16.03.23.08l.96.74,1.04-.64c.12-.07.28-.07.4,0l1.04.64.96-.74c.11-.09.27-.1.4-.04l1.11.52.88-.83c.1-.1.25-.13.39-.08l1.15.4.79-.93c.09-.11.24-.16.38-.12l1.19.28.69-1c.08-.12.22-.18.36-.16l1.21.16.58-1.07c.07-.13.19-.2.34-.2l1.22.03.47-1.13c.05-.13.18-.22.32-.23l1.21-.09.35-1.17c.04-.14.15-.24.29-.27l1.2-.23.23-1.2c.03-.14.13-.25.27-.29l1.17-.35.1-1.21c.01-.14.1-.27.23-.32l1.12-.47-.03-1.22c0-.14.07-.28.2-.34l1.07-.58-.16-1.21c-.02-.14.04-.28.16-.36l1-.69-.28-1.19c-.03-.14.02-.29.12-.38l.93-.79-.4-1.15c-.05-.13-.01-.28.08-.39l.83-.88-.52-1.11c-.06-.13-.04-.28.04-.4l.74-.96-.64-1.04c-.08-.12-.08-.28,0-.4l.64-1.04-.74-.96c-.09-.11-.1-.27-.04-.4l.52-1.11-.83-.88c-.1-.1-.13-.25-.08-.39l.4-1.15-.93-.79c-.11-.09-.16-.24-.12-.38l.28-1.19-1-.69c-.12-.08-.18-.22-.16-.36l.16-1.21-1.07-.58c-.13-.07-.2-.2-.2-.34l.03-1.22-1.12-.47c-.13-.05-.22-.18-.23-.32l-.1-1.21-1.17-.35c-.14-.04-.24-.15-.27-.29l-.23-1.2-1.2-.23c-.14-.03-.25-.13-.29-.27l-.35-1.17-1.21-.1c-.14-.01-.27-.1-.32-.23l-.47-1.12-1.22.03c-.15,0-.28-.07-.34-.2l-.58-1.07-1.21.16c-.15.02-.28-.04-.36-.16l-.69-1-1.19.28c-.14.03-.29-.01-.38-.12l-.79-.93-1.15.4c-.14.05-.29.01-.39-.08l-.88-.83-1.11.52c-.13.06-.28.04-.4-.04l-.96-.74-1.04.64c-.12.07-.28.07-.4,0l-1.04-.64-.96.74c-.11.09-.27.1-.4.04l-1.11-.52-.88.83c-.1.1-.25.13-.39.08l-1.15-.4-.79.93c-.09.11-.24.16-.38.12l-1.19-.28-.69,1c-.08.12-.22.18-.36.16l-1.21-.16-.58,1.07c-.07.13-.21.2-.34.2l-1.22-.03-.47,1.12c-.05.13-.18.22-.32.23l-1.21.1-.35,1.17c-.04.14-.15.24-.29.27l-1.2.23-.23,1.2c-.03.14-.13.25-.27.29l-1.17.35-.09,1.21c-.01.14-.1.27-.23.32l-1.13.47.03,1.22c0,.14-.07.28-.2.34l-1.07.58.16,1.21c.02.14-.04.28-.16.36l-1,.69.28,1.19c.03.14-.02.29-.12.38l-.93.79.4,1.15c.05.13.01.28-.08.39l-.83.88.52,1.11c.06.13.04.28-.04.4l-.74.96.64,1.04c.08.12.08.28,0,.4l-.64,1.04.74.96c.09.11.1.27.04.4l-.52,1.11.83.88c.1.1.13.25.08.39l-.4,1.15.93.79c.11.09.16.24.12.38l-.28,1.19,1,.69c.12.08.18.22.16.36l-.16,1.21,1.07.58c.13.07.2.2.2.34l-.03,1.22,1.13.47c.13.05.22.18.23.32l.09,1.21,1.17.35c.14.04.24.15.27.29l.23,1.2,1.2.23c.14.03.25.13.29.27l.35,1.17,1.21.09c.14.01.27.1.32.23l.47,1.13,1.22-.03c.14,0,.28.07.34.2l.58,1.07,1.21-.16c.15-.01.28.04.36.16l.69,1,1.19-.28c.14-.03.29.01.38.12l.79.93,1.15-.4c.14-.05.29-.01.39.08l.88.83,1.11-.52c.05-.02.11-.04.16-.04Z"/>
      </g>
      <g id="circle3950">
        <circle class="cls-4" cx="84.71" cy="45.05" r="7.99"/>
        <path class="cls-4" d="m84.71,53.23c-4.51,0-8.18-3.67-8.18-8.18s3.67-8.18,8.18-8.18,8.18,3.67,8.18,8.18-3.67,8.18-8.18,8.18Zm0-15.98c-4.3,0-7.8,3.5-7.8,7.8s3.5,7.8,7.8,7.8,7.8-3.5,7.8-7.8-3.5-7.8-7.8-7.8Z"/>
      </g>
      <g id="circle3952">
        <circle class="cls-5" cx="35.02" cy="41.78" r="2.01"/>
        <path class="cls-4" d="m35.02,43.99c-1.21,0-2.2-.99-2.2-2.2s.99-2.2,2.2-2.2,2.2.99,2.2,2.2-.99,2.2-2.2,2.2Zm0-4.02c-1,0-1.82.82-1.82,1.82s.82,1.82,1.82,1.82,1.82-.82,1.82-1.82-.82-1.82-1.82-1.82Z"/>
      </g>
      <g id="circle3954">
        <circle class="cls-5" cx="82.15" cy="41.78" r="2.01"/>
        <path class="cls-4" d="m82.15,43.99c-1.21,0-2.2-.99-2.2-2.2s.99-2.2,2.2-2.2,2.2.99,2.2,2.2-.99,2.2-2.2,2.2Zm0-4.02c-1,0-1.82.82-1.82,1.82s.82,1.82,1.82,1.82,1.82-.82,1.82-1.82-.82-1.82-1.82-1.82Z"/>
      </g>
      <path class="cls-6" d="m88.74,37.66s7.12-4.33,10.38,1c7.2,11.78-20.82,17.09-20.88,17.2.06-.1-9.35-27.03,4.45-26.68,6.24.16,6.05,8.49,6.05,8.49Z"/>
      <path class="cls-6" d="m32.48,37.63s-.19-8.33,6.05-8.49c13.8-.34,4.39,26.58,4.45,26.68-.06-.1-28.08-5.41-20.88-17.2,3.26-5.33,10.38-1,10.38-1Z"/>
      <g>
        <path class="cls-1" d="m78.44,70.69c.42,0,.71.43.54.82-1.39,3.22-7.14,14.8-17.62,14.8s-16.37-11.62-17.65-14.81c-.16-.39.13-.8.55-.8h34.18Z"/>
        <path class="cls-5" d="m48.16,70.69h26.37v1.99c0,.39-.31.7-.7.7h-24.96c-.39,0-.7-.31-.7-.7v-1.99h0Z"/>
        <line class="cls-2" x1="44.26" y1="70.69" x2="78.44" y2="70.69"/>
      </g>
    </g>
  </g>
</svg>