<?xml version="1.0" encoding="UTF-8"?>
<svg id="Layer_2" data-name="Layer 2" xmlns="http://www.w3.org/2000/svg" viewBox="0 0 67.38 83.2">
  <defs>
    <style>
      .cls-1 {
        fill: #ffda61;
      }

      .cls-1, .cls-2, .cls-3, .cls-4 {
        stroke-width: 0px;
      }

      .cls-3 {
        fill: #fff;
      }

      .cls-4 {
        fill: #d1d3d4;
      }

      .cls-5 {
        fill: none;
        stroke: #231f20;
        stroke-linecap: round;
        stroke-miterlimit: 10;
        stroke-width: 3px;
      }
    </style>
  </defs>
  <g id="Layer_1-2" data-name="Layer 1">
    <circle class="cls-1" cx="33.69" cy="33.69" r="33.69"/>
    <g>
      <g>
        <g id="polygon3960">
          <polygon class="cls-3" points="21.91 17.04 22.58 16.68 23.16 17.17 23.87 16.88 24.39 17.43 25.12 17.22 25.58 17.82 26.33 17.69 26.73 18.33 27.49 18.27 27.82 18.96 28.58 18.98 28.83 19.7 29.59 19.8 29.77 20.54 30.51 20.72 30.61 21.48 31.33 21.73 31.35 22.49 32.04 22.82 31.98 23.58 32.62 23.98 32.49 24.73 33.09 25.19 32.88 25.92 33.43 26.44 33.14 27.15 33.63 27.73 33.27 28.4 33.7 29.02 33.27 29.65 33.63 30.32 33.14 30.9 33.43 31.61 32.88 32.13 33.09 32.86 32.49 33.32 32.62 34.07 31.97 34.47 32.04 35.23 31.35 35.56 31.33 36.32 30.61 36.58 30.51 37.33 29.77 37.51 29.59 38.25 28.83 38.35 28.58 39.07 27.82 39.09 27.49 39.78 26.73 39.72 26.33 40.36 25.58 40.23 25.12 40.83 24.39 40.62 23.87 41.17 23.16 40.88 22.58 41.37 21.91 41.01 21.28 41.44 20.66 41.01 19.99 41.37 19.41 40.88 18.7 41.17 18.18 40.62 17.45 40.83 16.98 40.23 16.23 40.36 15.83 39.72 15.08 39.78 14.75 39.09 13.99 39.07 13.73 38.35 12.98 38.25 12.8 37.51 12.06 37.33 11.96 36.57 11.24 36.32 11.22 35.56 10.53 35.23 10.59 34.47 9.95 34.07 10.08 33.32 9.48 32.86 9.69 32.13 9.14 31.61 9.43 30.9 8.94 30.32 9.3 29.65 8.87 29.02 9.3 28.4 8.94 27.73 9.43 27.15 9.14 26.44 9.69 25.92 9.48 25.19 10.08 24.73 9.95 23.98 10.59 23.57 10.53 22.82 11.22 22.49 11.24 21.73 11.96 21.47 12.06 20.72 12.8 20.54 12.98 19.8 13.74 19.7 13.99 18.98 14.75 18.96 15.08 18.27 15.84 18.33 16.24 17.69 16.99 17.82 17.45 17.22 18.18 17.43 18.7 16.88 19.41 17.17 19.99 16.68 20.66 17.04 21.28 16.61 21.91 17.04"/>
          <path class="cls-2" d="m21.28,41.63s-.08-.01-.11-.03l-.53-.36-.56.31c-.07.04-.16.03-.22-.02l-.49-.41-.59.24c-.07.03-.16.01-.22-.05l-.44-.46-.62.18c-.08.02-.16,0-.21-.07l-.39-.51-.63.12c-.08.01-.16-.02-.2-.09l-.34-.54-.64.05c-.09.01-.16-.04-.19-.11l-.28-.58-.64-.02c-.08,0-.15-.05-.18-.13l-.22-.6-.63-.09c-.08-.01-.14-.07-.16-.15l-.15-.62-.62-.15c-.08-.02-.14-.08-.15-.17l-.08-.64-.6-.21c-.08-.03-.13-.1-.13-.18l-.02-.64-.58-.28c-.07-.03-.12-.11-.11-.19l.05-.64-.54-.34c-.07-.04-.1-.12-.09-.2l.12-.63-.51-.39c-.06-.05-.09-.13-.07-.21l.18-.62-.46-.44c-.06-.06-.08-.14-.05-.22l.24-.59-.41-.49c-.05-.06-.06-.15-.02-.22l.31-.56-.37-.53c-.05-.07-.05-.16,0-.22l.37-.53-.31-.56c-.04-.07-.03-.16.02-.22l.41-.49-.24-.59c-.03-.07-.01-.16.05-.22l.46-.44-.18-.62c-.02-.08,0-.16.07-.21l.51-.39-.12-.63c-.01-.08.02-.16.09-.2l.55-.34-.05-.64c0-.08.04-.16.11-.19l.58-.28.02-.64c0-.08.05-.15.13-.18l.61-.22.09-.63c.01-.08.07-.15.15-.16l.62-.15.15-.63c.02-.08.09-.14.17-.15l.64-.08.21-.6c.03-.08.1-.13.18-.13l.64-.02.28-.58c.03-.07.11-.12.19-.11l.64.05.34-.54c.04-.07.12-.11.2-.09l.63.12.39-.51c.05-.06.13-.09.21-.07l.62.18.44-.46c.06-.06.14-.08.22-.05l.59.24.49-.41c.06-.05.15-.06.22-.02l.56.31.53-.37c.07-.05.16-.05.22,0l.53.37.56-.31c.07-.04.16-.03.22.02l.49.41.59-.24c.07-.03.16-.01.22.05l.44.46.62-.18c.08-.02.16,0,.21.07l.39.51.63-.12c.08-.02.16.02.2.09l.34.54.64-.05c.08-.01.16.04.19.11l.28.58.64.02c.08,0,.15.05.18.13l.21.6.64.09c.08.01.15.07.16.15l.15.62.62.15c.08.02.14.08.15.16l.09.64.6.21c.08.03.13.1.13.18l.02.64.58.28c.07.03.12.11.11.19l-.05.64.54.34c.07.04.1.12.09.2l-.12.63.51.39c.06.05.09.13.07.21l-.18.62.46.44c.06.06.08.14.05.22l-.24.59.41.49c.05.06.06.15.02.22l-.31.56.36.53c.05.07.05.15,0,.22l-.36.53.31.56c.04.07.03.16-.02.22l-.41.49.24.59c.03.07.01.16-.05.22l-.46.44.18.61c.02.08,0,.16-.07.21l-.51.39.12.63c.01.08-.02.16-.09.2l-.55.34.05.64c0,.08-.04.16-.11.19l-.58.28-.02.64c0,.08-.05.15-.13.18l-.6.22-.09.63c-.01.08-.07.15-.15.16l-.62.15-.15.62c-.02.08-.08.14-.16.15l-.64.09-.21.6c-.03.08-.1.13-.18.13l-.64.02-.28.58c-.04.07-.11.12-.19.11l-.64-.05-.34.54c-.04.07-.12.1-.2.09l-.63-.12-.39.51c-.05.06-.13.09-.21.07l-.62-.18-.44.46c-.06.06-.14.08-.22.05l-.59-.24-.49.41c-.06.05-.15.06-.22.02l-.56-.31-.53.36s-.07.03-.11.03Zm-.63-.82s.08.01.11.03l.52.35.52-.35c.06-.04.14-.05.2-.01l.55.3.48-.4c.06-.05.13-.06.2-.03l.58.24.43-.45c.05-.05.13-.07.2-.05l.6.18.38-.5c.05-.06.12-.09.19-.07l.62.11.33-.53c.04-.06.11-.1.18-.09l.62.05.27-.57c.03-.07.1-.11.17-.11l.63-.02.21-.59c.02-.07.09-.12.16-.13l.62-.08.15-.61c.02-.07.07-.13.15-.15l.61-.15.08-.62c0-.07.06-.13.13-.16l.59-.21.02-.63c0-.07.05-.14.11-.17l.56-.27-.05-.63c0-.07.03-.14.09-.18l.54-.33-.11-.62c-.01-.07.02-.15.07-.19l.5-.38-.17-.6c-.02-.07,0-.15.05-.2l.45-.43-.24-.58c-.03-.07-.02-.15.03-.2l.4-.48-.3-.55c-.03-.06-.03-.14.01-.2l.35-.52-.35-.52c-.04-.06-.05-.14-.01-.2l.3-.55-.4-.48c-.05-.06-.06-.13-.03-.2l.24-.58-.45-.43c-.05-.05-.07-.13-.05-.2l.18-.6-.5-.38c-.06-.05-.09-.12-.07-.19l.11-.62-.53-.33c-.06-.04-.1-.11-.09-.18l.05-.63-.56-.27c-.07-.03-.11-.1-.11-.17l-.02-.63-.59-.21c-.07-.02-.12-.09-.13-.16l-.08-.62-.61-.15c-.07-.02-.13-.07-.15-.15l-.15-.61-.62-.08c-.07,0-.13-.06-.16-.13l-.21-.59-.63-.02c-.07,0-.14-.05-.17-.11l-.27-.56-.63.05c-.08.01-.14-.03-.18-.09l-.33-.53-.62.11c-.07.01-.15-.01-.19-.07l-.38-.5-.6.18c-.07.02-.15,0-.2-.05l-.43-.45-.58.24c-.07.03-.15.02-.2-.03l-.48-.4-.55.3c-.07.03-.14.03-.21-.01l-.52-.36-.52.36c-.06.04-.14.05-.21.01l-.55-.3-.48.4c-.06.05-.13.06-.2.03l-.58-.24-.43.45c-.05.05-.13.07-.2.05l-.6-.18-.38.5c-.05.06-.12.09-.19.07l-.62-.11-.33.53c-.04.06-.11.1-.18.09l-.63-.05-.27.56c-.03.07-.1.11-.17.11l-.63.02-.21.59c-.02.07-.09.12-.16.13l-.62.08-.15.61c-.02.07-.07.13-.15.15l-.61.15-.08.62c0,.07-.06.13-.13.16l-.59.21-.02.63c0,.07-.05.14-.11.17l-.56.27.05.62c0,.07-.03.14-.09.18l-.53.33.11.62c.01.07-.02.15-.07.19l-.5.38.17.6c.02.07,0,.15-.05.2l-.45.43.24.58c.03.07.02.15-.03.2l-.4.48.3.55c.04.07.03.14-.01.21l-.36.52.36.52c.04.06.05.14.01.21l-.3.55.4.48c.05.06.06.13.03.2l-.24.58.45.43c.05.05.07.13.05.2l-.17.6.5.38c.06.05.09.12.07.19l-.11.62.53.33c.06.04.1.11.09.18l-.05.63.56.27c.07.03.11.1.11.17l.02.63.59.21c.07.02.12.09.13.16l.08.62.61.15c.07.02.13.07.15.14l.15.61.62.08c.07,0,.13.06.16.13l.21.59.63.02c.07,0,.14.05.17.11l.27.56.62-.05c.08,0,.14.03.18.09l.33.53.62-.11c.07-.01.15.02.19.07l.38.5.6-.18c.07-.02.15,0,.2.05l.43.45.58-.24c.07-.03.15-.02.2.03l.48.4.55-.3s.06-.02.09-.02Z"/>
        </g>
        <g id="circle3946">
          <circle class="cls-2" cx="21.39" cy="29.29" r="4.11"/>
          <path class="cls-2" d="m21.39,33.51c-2.32,0-4.21-1.89-4.21-4.21s1.89-4.21,4.21-4.21,4.21,1.89,4.21,4.21-1.89,4.21-4.21,4.21Zm0-8.23c-2.21,0-4.02,1.8-4.02,4.02s1.8,4.02,4.02,4.02,4.02-1.8,4.02-4.02-1.8-4.02-4.02-4.02Z"/>
        </g>
        <g id="polygon3948">
          <polygon class="cls-3" points="46.11 17.03 46.76 16.63 47.36 17.09 48.06 16.76 48.6 17.29 49.33 17.03 49.82 17.61 50.56 17.44 50.99 18.06 51.75 17.96 52.11 18.63 52.87 18.62 53.16 19.31 53.92 19.38 54.14 20.11 54.89 20.25 55.03 21 55.76 21.21 55.82 21.97 56.52 22.26 56.5 23.03 57.17 23.39 57.07 24.15 57.7 24.57 57.52 25.32 58.1 25.81 57.85 26.53 58.37 27.08 58.04 27.77 58.51 28.37 58.11 29.02 58.51 29.68 58.04 30.28 58.37 30.97 57.85 31.52 58.1 32.24 57.52 32.73 57.7 33.47 57.07 33.9 57.17 34.66 56.5 35.02 56.52 35.79 55.82 36.08 55.76 36.84 55.03 37.05 54.89 37.8 54.14 37.94 53.92 38.67 53.16 38.73 52.87 39.43 52.11 39.42 51.75 40.09 50.99 39.99 50.56 40.61 49.82 40.44 49.33 41.02 48.6 40.76 48.06 41.29 47.36 40.96 46.76 41.42 46.11 41.02 45.46 41.42 44.86 40.96 44.17 41.29 43.62 40.76 42.9 41.02 42.41 40.44 41.66 40.61 41.23 39.99 40.47 40.09 40.11 39.42 39.35 39.43 39.06 38.73 38.3 38.67 38.08 37.94 37.34 37.8 37.19 37.05 36.46 36.84 36.41 36.08 35.7 35.79 35.72 35.02 35.05 34.66 35.15 33.9 34.52 33.47 34.7 32.73 34.12 32.24 34.37 31.52 33.85 30.97 34.18 30.28 33.71 29.68 34.11 29.02 33.71 28.37 34.18 27.77 33.85 27.08 34.37 26.53 34.12 25.81 34.7 25.32 34.52 24.57 35.15 24.15 35.05 23.39 35.72 23.03 35.7 22.26 36.41 21.97 36.46 21.21 37.19 21 37.34 20.25 38.08 20.11 38.3 19.38 39.06 19.31 39.35 18.62 40.11 18.63 40.47 17.96 41.23 18.06 41.66 17.44 42.41 17.61 42.9 17.03 43.62 17.29 44.17 16.76 44.86 17.09 45.46 16.63 46.11 17.03"/>
          <path class="cls-2" d="m46.76,41.62s-.07,0-.1-.03l-.55-.34-.55.34c-.07.04-.16.04-.22-.01l-.51-.39-.58.28c-.07.03-.16.02-.22-.04l-.46-.44-.61.21c-.08.03-.16,0-.21-.06l-.41-.49-.63.15c-.08.02-.16-.01-.21-.08l-.36-.53-.64.08c-.08,0-.16-.03-.2-.1l-.31-.56h-.64c-.08.01-.15-.03-.19-.11l-.25-.59-.64-.05c-.08,0-.15-.06-.17-.14l-.18-.62-.63-.12c-.08-.02-.14-.08-.16-.16l-.12-.63-.62-.18c-.08-.02-.13-.09-.14-.17l-.05-.64-.59-.25c-.07-.03-.12-.1-.12-.19v-.64s-.55-.31-.55-.31c-.07-.04-.11-.12-.1-.2l.08-.64-.53-.36c-.07-.05-.1-.13-.08-.21l.15-.63-.49-.41c-.06-.05-.09-.14-.06-.21l.21-.61-.44-.46c-.06-.06-.07-.15-.04-.22l.28-.58-.39-.51c-.05-.06-.05-.15-.01-.22l.34-.55-.34-.55c-.04-.07-.04-.16.01-.22l.39-.51-.28-.58c-.03-.07-.02-.16.04-.22l.44-.46-.21-.61c-.03-.08,0-.16.06-.21l.49-.41-.15-.63c-.02-.08.01-.16.08-.21l.53-.36-.08-.64c-.01-.08.03-.16.1-.2l.56-.31v-.64c-.02-.08.03-.15.11-.19l.59-.25.05-.64c0-.08.06-.15.14-.17l.62-.18.12-.63c.02-.08.08-.14.16-.16l.63-.12.18-.62c.02-.08.09-.13.17-.14l.64-.05.25-.59c.03-.07.11-.13.19-.12h.64s.31-.55.31-.55c.04-.07.11-.11.2-.1l.64.08.36-.53c.05-.07.13-.1.21-.08l.63.15.41-.49c.05-.06.14-.08.21-.06l.61.21.46-.44c.06-.06.15-.07.22-.04l.58.28.51-.39c.06-.05.15-.05.22-.01l.55.34.55-.34c.07-.04.16-.04.22.01l.51.39.58-.28c.07-.03.16-.02.22.04l.46.44.61-.21c.08-.03.16,0,.21.06l.41.49.63-.15c.08-.02.16.01.21.08l.36.53.64-.08c.08,0,.16.03.2.1l.31.56h.64c.08-.02.15.03.19.11l.25.59.64.05c.08,0,.15.06.17.14l.18.62.63.12c.08.02.14.08.16.16l.12.63.62.18c.08.02.13.09.14.17l.05.64.59.25c.07.03.12.1.12.19v.64s.55.31.55.31c.07.04.11.12.1.2l-.08.64.53.36c.07.05.1.13.08.21l-.15.63.49.41c.06.05.09.14.06.21l-.21.61.44.46c.06.06.07.15.04.22l-.28.58.39.51c.05.06.05.15.01.22l-.34.55.34.55c.04.07.04.16-.01.22l-.39.51.28.58c.03.07.02.16-.04.22l-.44.46.21.61c.03.08,0,.16-.06.21l-.49.41.15.63c.02.08-.01.16-.08.21l-.53.36.08.64c.01.08-.03.16-.1.2l-.56.31v.64c.02.08-.03.15-.11.19l-.59.25-.05.64c0,.08-.06.15-.14.17l-.62.18-.12.63c-.02.08-.08.14-.16.16l-.63.12-.18.62c-.02.08-.09.13-.17.14l-.64.05-.25.59c-.03.07-.11.12-.19.12h-.64s-.31.55-.31.55c-.04.07-.12.11-.2.1l-.64-.08-.36.53c-.05.07-.13.1-.21.08l-.63-.15-.41.49c-.05.06-.14.08-.21.06l-.61-.21-.46.44c-.06.06-.15.07-.22.04l-.58-.28-.51.39s-.08.04-.12.04Zm-1.9-.86s.08.01.12.04l.5.38.54-.33c.06-.04.14-.04.21,0l.54.33.49-.38c.06-.05.14-.05.2-.02l.57.27.45-.43c.05-.05.13-.07.2-.04l.59.21.4-.48c.05-.06.12-.08.19-.06l.61.15.35-.51c.04-.06.11-.09.19-.08l.62.08.3-.55c.04-.06.1-.1.18-.1h.63s.24-.57.24-.57c.03-.07.09-.11.17-.12l.62-.05.18-.6c.02-.07.08-.12.15-.14l.62-.12.12-.62c.01-.07.07-.13.14-.15l.6-.18.05-.62c0-.07.05-.14.12-.17l.58-.24v-.63c-.02-.07.02-.14.09-.18l.55-.3-.08-.62c0-.07.02-.14.08-.19l.51-.35-.15-.61c-.02-.07,0-.15.06-.19l.48-.4-.21-.59c-.02-.07,0-.15.04-.2l.43-.45-.27-.57c-.03-.07-.02-.15.02-.2l.38-.49-.33-.54c-.04-.06-.04-.14,0-.21l.33-.54-.38-.49c-.05-.06-.05-.14-.02-.2l.27-.57-.43-.45c-.05-.05-.07-.13-.04-.2l.21-.59-.48-.4c-.06-.05-.08-.12-.06-.19l.15-.61-.51-.35c-.06-.04-.09-.11-.08-.19l.08-.62-.55-.3c-.06-.04-.1-.1-.1-.18v-.63s-.56-.24-.56-.24c-.07-.03-.11-.09-.12-.17l-.05-.62-.6-.18c-.07-.02-.12-.08-.14-.15l-.12-.62-.62-.12c-.07-.01-.13-.07-.15-.14l-.18-.6-.62-.05c-.07,0-.14-.05-.16-.12l-.24-.58h-.63c-.08.02-.14-.02-.18-.09l-.3-.55-.62.08c-.07,0-.15-.02-.19-.08l-.35-.51-.61.15c-.07.02-.15,0-.2-.06l-.4-.48-.59.21c-.07.02-.15,0-.2-.04l-.45-.43-.57.27c-.07.03-.15.02-.2-.02l-.49-.38-.54.33c-.06.04-.14.04-.21,0l-.54-.33-.5.38c-.06.05-.14.05-.2.02l-.57-.27-.45.43c-.05.05-.13.07-.2.04l-.59-.21-.4.48c-.05.06-.12.08-.2.06l-.61-.15-.35.51c-.04.06-.11.09-.19.08l-.62-.08-.3.55c-.03.06-.11.1-.18.1h-.63s-.24.56-.24.56c-.03.07-.09.11-.16.12l-.62.05-.18.6c-.02.07-.08.12-.15.14l-.62.12-.12.62c-.01.07-.07.13-.14.15l-.6.18-.05.62c0,.07-.05.14-.12.17l-.58.24v.63c.02.07-.02.14-.09.18l-.55.3.08.62c0,.07-.02.14-.08.19l-.51.35.15.61c.02.07,0,.15-.06.19l-.48.4.21.59c.02.07,0,.15-.04.2l-.43.45.27.57c.03.07.02.15-.02.2l-.38.49.33.54c.04.06.04.14,0,.21l-.33.54.38.49c.05.06.05.14.02.2l-.27.57.43.45c.05.05.07.13.04.2l-.21.59.48.4c.06.05.08.12.06.19l-.15.61.51.35c.06.04.09.11.08.19l-.08.62.55.3c.06.04.1.1.1.18v.63s.57.24.57.24c.07.03.11.09.12.17l.05.62.6.18c.07.02.12.08.14.15l.12.62.62.12c.07.01.13.07.15.14l.18.6.62.05c.07,0,.14.05.17.12l.24.58h.63c.07-.01.14.02.18.09l.3.55.62-.08c.08,0,.15.02.19.08l.35.51.61-.15c.07-.02.15,0,.19.06l.4.48.59-.21c.07-.02.15,0,.2.04l.45.43.57-.27s.06-.02.08-.02Z"/>
        </g>
        <g id="circle3950">
          <circle class="cls-2" cx="46.22" cy="29.29" r="4.11"/>
          <path class="cls-2" d="m46.22,33.51c-2.32,0-4.21-1.89-4.21-4.21s1.89-4.21,4.21-4.21,4.21,1.89,4.21,4.21-1.89,4.21-4.21,4.21Zm0-8.23c-2.21,0-4.02,1.8-4.02,4.02s1.8,4.02,4.02,4.02,4.02-1.8,4.02-4.02-1.8-4.02-4.02-4.02Z"/>
        </g>
        <g id="circle3952">
          <circle class="cls-3" cx="20.63" cy="27.61" r="1.04"/>
          <path class="cls-2" d="m20.63,28.75c-.63,0-1.13-.51-1.13-1.13s.51-1.13,1.13-1.13,1.13.51,1.13,1.13-.51,1.13-1.13,1.13Zm0-2.07c-.52,0-.94.42-.94.94s.42.94.94.94.94-.42.94-.94-.42-.94-.94-.94Z"/>
        </g>
        <g id="circle3954">
          <circle class="cls-3" cx="44.9" cy="27.61" r="1.04"/>
          <path class="cls-2" d="m44.9,28.75c-.63,0-1.13-.51-1.13-1.13s.51-1.13,1.13-1.13,1.13.51,1.13,1.13-.51,1.13-1.13,1.13Zm0-2.07c-.52,0-.94.42-.94.94s.42.94.94.94.94-.42.94-.94-.42-.94-.94-.94Z"/>
        </g>
      </g>
      <path class="cls-5" d="m15.95,10.5s3.57,7.66,12.89,7.66"/>
      <path class="cls-5" d="m50.21,10.5s-3.57,7.66-12.89,7.66"/>
    </g>
    <path class="cls-5" d="m51.42,53.49s-5.28-3.94-17.96-3.94-17.96,3.94-17.96,3.94"/>
    <ellipse class="cls-4" cx="33.69" cy="79.8" rx="25.43" ry="3.4"/>
  </g>
</svg>