<svg xmlns="http://www.w3.org/2000/svg" viewBox="0 0 320 240" width="320" height="240" role="img" aria-labelledby="title desc">
  <title id="title">Robot head speaking</title>
  <desc id="desc">A friendly robot head with animated mouth and radiating speech lines.</desc>

  <!-- ====== Vars (tweak these) ====== -->
  <defs>
    <!-- Base palette -->
    <linearGradient id="metal" x1="0" y1="0" x2="0" y2="1">
      <stop offset="0" stop-color="#e9eef3"/>
      <stop offset="1" stop-color="#cfd7df"/>
    </linearGradient>
    <clipPath id="headClip">
      <rect x="40" y="30" width="200" height="180" rx="28" ry="28"/>
    </clipPath>
  </defs>

  <!-- ====== Antenna ====== -->
  <line x1="140" y1="18" x2="140" y2="34" stroke="#596575" stroke-width="6" stroke-linecap="round"/>
  <circle cx="140" cy="12" r="8" fill="#ff4d6d">
    <animate attributeName="r" values="8;11;8" dur="1.4s" repeatCount="indefinite"/>
    <animate attributeName="opacity" values="1;0.7;1" dur="1.4s" repeatCount="indefinite"/>
  </circle>

  <!-- ====== Head Shell ====== -->
  <rect x="40" y="30" width="200" height="180" rx="28" ry="28" fill="url(#metal)" stroke="#596575" stroke-width="6"/>

  <!-- Side bolts -->
  <g fill="#9aa6b2" stroke="#596575" stroke-width="4">
    <circle cx="36" cy="120" r="8"/>
    <circle cx="244" cy="120" r="8"/>
  </g>

  <!-- ====== Face ====== -->
  <g clip-path="url(#headClip)">
    <!-- Eyes -->
    <g>
      <circle cx="95" cy="98" r="16" fill="#2a3240"/>
      <circle cx="185" cy="98" r="16" fill="#2a3240"/>
      <!-- Eye blink -->
      <rect x="79" y="88" width="32" height="20" fill="#e9eef3">
        <animate attributeName="height" values="0;0;20;0;0" keyTimes="0;0.42;0.45;0.48;1" dur="4.5s" repeatCount="indefinite"/>
      </rect>
      <rect x="169" y="88" width="32" height="20" fill="#e9eef3">
        <animate attributeName="height" values="0;0;20;0;0" keyTimes="0;0.52;0.55;0.58;1" dur="4.5s" repeatCount="indefinite"/>
      </rect>
    </g>

    <!-- Cheeks -->
    <g opacity="0.25">
      <ellipse cx="95" cy="126" rx="18" ry="10" fill="#ff6b6b"/>
      <ellipse cx="185" cy="126" rx="18" ry="10" fill="#ff6b6b"/>
    </g>

    <!-- Speaker grill frame -->
    <rect x="78" y="144" width="134" height="44" rx="10" ry="10" fill="#f5f7fa" stroke="#8a96a5" stroke-width="4"/>

    <!-- Mouth (animated opening) -->
    <g>
      <!-- Static grill background -->
      <rect x="86" y="152" width="118" height="28" rx="6" ry="6" fill="#2a3240"/>
      <!-- Dynamic aperture -->
      <rect id="mouth" x="86" y="166" width="118" height="4" fill="#00d1b2">
        <animate attributeName="height" values="4;22;4;16;4" dur="1.4s" repeatCount="indefinite"/>
        <animate attributeName="y"      values="166;156;166;160;166" dur="1.4s" repeatCount="indefinite"/>
      </rect>
      <!-- Grill lines -->
      <g stroke="#10151c" stroke-width="2" opacity="0.25">
        <line x1="96" x2="96" y1="154" y2="180"/>
        <line x1="112" x2="112" y1="154" y2="180"/>
        <line x1="128" x2="128" y1="154" y2="180"/>
        <line x1="144" x2="144" y1="154" y2="180"/>
        <line x1="160" x2="160" y1="154" y2="180"/>
        <line x1="176" x2="176" y1="154" y2="180"/>
        <line x1="192" x2="192" y1="154" y2="180"/>
      </g>
    </g>
  </g>

  <!-- ====== Speech Waves (animated) ====== -->
  <g fill="none" stroke="#3b82f6" stroke-width="6" stroke-linecap="round" opacity="0.9">
    <!-- wave 1 -->
    <path d="M254 160 q28 -18 56 0" opacity="0">
      <animate attributeName="opacity" values="0;1;0" dur="1.6s" repeatCount="indefinite"/>
      <animateTransform attributeName="transform" type="translate" from="0 0" to="18 0" dur="1.6s" repeatCount="indefinite"/>
    </path>
    <!-- wave 2 -->
    <path d="M254 140 q36 -22 72 0" opacity="0">
      <animate attributeName="opacity" values="0;1;0" begin="0.25s" dur="1.6s" repeatCount="indefinite"/>
      <animateTransform attributeName="transform" type="translate" from="0 0" to="22 0" begin="0.25s" dur="1.6s" repeatCount="indefinite"/>
    </path>
    <!-- wave 3 -->
    <path d="M254 120 q44 -26 88 0" opacity="0">
      <animate attributeName="opacity" values="0;1;0" begin="0.5s" dur="1.6s" repeatCount="indefinite"/>
      <animateTransform attributeName="transform" type="translate" from="0 0" to="26 0" begin="0.5s" dur="1.6s" repeatCount="indefinite"/>
    </path>
  </g>

  <!-- ====== Subtle shadow ====== -->
  <ellipse cx="140" cy="214" rx="90" ry="10" fill="#000" opacity="0.08"/>
</svg>