<?xml version="1.0" encoding="UTF-8"?><svg id="Layer_1" xmlns="http://www.w3.org/2000/svg" viewBox="0 13 85 60"><path d="M54.99,61.58l-3.81-2.21-7.43-4.29h0s0,0,0,0l6.84-3.94,2.19-1.26,2.23-1.29c.63-.36,1.02-1.04,1.02-1.76s-.39-1.4-1.02-1.76l-13.42-7.75c-.63-.36-1.4-.36-2.03,0-.63.36-1.02,1.04-1.02,1.76v12.99l-6.88-3.97c-.83-.49-1.89-.2-2.37.63-.48.83-.2,1.89.63,2.37l6.88,3.97-6.88,3.98c-.83.48-1.11,1.55-.63,2.37.32.56.9.87,1.5.87.3,0,.6-.07.87-.23l6.88-3.97v12.99c0,.73.39,1.4,1.02,1.76.31.18.67.27,1.02.27s.7-.09,1.02-.27l13.42-7.75c.63-.36,1.02-1.03,1.02-1.76s-.39-1.4-1.02-1.75ZM41.99,41.57l9.09,5.25s-.04.03-.07.03l-9.02,5.21v-10.49ZM41.99,68.59v-10.5l7.37,4.26s.02,0,.03,0l1.69.98-9.09,5.25Z" style="fill:#fff;"/><path d="M27.59,35.5c.83,0,1.5-.67,1.5-1.5,0-2.7,2.2-4.9,4.9-4.9.83,0,1.5-.67,1.5-1.5s-.67-1.5-1.5-1.5c-4.36,0-7.91,3.55-7.91,7.91,0,.83.67,1.5,1.5,1.5Z" style="fill:#fff;"/><path d="M20.5,35.73c.83,0,1.5-.67,1.5-1.5,0-6.74,5.48-12.22,12.22-12.22.83,0,1.5-.67,1.5-1.5s-.67-1.5-1.5-1.5c-8.4,0-15.23,6.83-15.23,15.23,0,.83.67,1.5,1.5,1.5Z" style="fill:#fff;"/><path d="M14.22,35.73c.83,0,1.5-.67,1.5-1.5,0-10.2,8.3-18.49,18.49-18.49.83,0,1.5-.67,1.5-1.5s-.67-1.5-1.5-1.5c-11.86,0-21.5,9.65-21.5,21.5,0,.83.67,1.5,1.5,1.5Z" style="fill:#fff;"/><path d="M70.38,23.75h-5.6v-5.6c0-1.1-.9-2-2-2s-2,.9-2,2v5.6h-5.6c-1.1,0-2,.9-2,2s.9,2,2,2h5.6v5.6c0,1.1.9,2,2,2s2-.9,2-2v-5.6h5.6c1.1,0,2-.9,2-2s-.9-2-2-2Z" style="fill:#fff;"/></svg>