<?xml version="1.0" encoding="iso-8859-1"?>
<svg version="1.1" id="Layer_1" xmlns="http://www.w3.org/2000/svg" xmlns:xlink="http://www.w3.org/1999/xlink" x="0px" y="0px"
	 viewBox="0 0 812 512" xml:space="preserve">
<g>
	<g>
		<path d="M340.817,190.28c-0.978-3.082-4.269-4.788-7.352-3.81l-22.167,7.034l-3.576-11.265c-0.785-2.471-4.079-2.96-5.547-0.823
			l-13.161,19.159l22.438,70.713c0.627,1.977,2.739,3.071,4.716,2.445l9.39-2.98c-3.237-7.113-3.356-15.176-0.484-22.241
			c4.604-11.33,16.095-18.596,28.696-17.414L340.817,190.28z"/>
	</g>
</g>
<g>
	<g>
		<path d="M463.687,219.636h-38.883c-12.042,0-21.805,10.441-21.805,23.321v6.722l44.583-15.932l-45.082,30.736l-45.976-18.678
			c-7.342-2.984-15.722,0.583-18.69,7.892c-2.98,7.336,0.547,15.714,7.892,18.69c41.961,17.047,31.485,12.791,53.101,21.573
			c4.403,1.788,9.534,1.252,13.481-1.438l49.782-33.941l-39.629,43.245c-3.341,3.647-11.024,7.298-19.464,6.932
			c0,0-0.441-1.395-0.441,185.071c0,10.036,8.136,18.173,18.173,18.173c2.718,0,5.287-0.613,7.602-1.682
			c-2.872-4.828-4.527-10.465-4.527-16.49V362.606h14.135v131.22c0,10.036,8.136,18.173,18.173,18.173s18.173-8.136,18.173-18.173
			V361.448c6.547-2.5,11.205-8.823,11.205-16.249c0-11.377,0-91.365,0-102.244C485.492,230.077,475.729,219.636,463.687,219.636z"/>
	</g>
</g>
<g>
	<g>
		<circle cx="444.074" cy="167.003" r="42.415"/>
	</g>
</g>
<g>
</g>
<g>
</g>
<g>
</g>
<g>
</g>
<g>
</g>
<g>
</g>
<g>
</g>
<g>
</g>
<g>
</g>
<g>
</g>
<g>
</g>
<g>
</g>
<g>
</g>
<g>
</g>
<g>
</g>
</svg>
