<?xml version="1.0" encoding="UTF-8"?>
<svg id="Layer_2" data-name="Layer 2" xmlns="http://www.w3.org/2000/svg" viewBox="0 0 336.13 336.03">
  <defs>
    <style>
      .cls-1 {
        fill: #414042;
      }

      .cls-1, .cls-2, .cls-3 {
        stroke: #231f20;
        stroke-miterlimit: 10;
        stroke-width: 4px;
      }

      .cls-4 {
        fill: #8b5e3c;
      }

      .cls-4, .cls-5, .cls-6, .cls-7, .cls-8, .cls-9, .cls-10, .cls-11, .cls-12, .cls-13, .cls-14, .cls-15 {
        stroke-width: 0px;
      }

      .cls-5 {
        fill: #ed1c24;
      }

      .cls-2, .cls-11 {
        fill: #fff;
      }

      .cls-6 {
        fill: #e6e7e8;
      }

      .cls-7 {
        fill: #32adc6;
      }

      .cls-9 {
        fill: #fed768;
      }

      .cls-10 {
        fill: #888b8c;
      }

      .cls-12 {
        fill: #a7a9ac;
      }

      .cls-13 {
        fill: #231f20;
      }

      .cls-3 {
        fill: none;
      }

      .cls-14 {
        fill: #901827;
      }

      .cls-15 {
        fill: #be1e2d;
      }
    </style>
  </defs>
  <g id="Layer_2-2" data-name="Layer 2">
    <g>
      <rect class="cls-12" x="14.13" y="14.03" width="322" height="322" rx="12" ry="12"/>
      <rect class="cls-2" x="2.1" y="2" width="322" height="322" rx="12" ry="12"/>
      <rect class="cls-1" x="2.1" y="2" width="322" height="322" rx="12" ry="12"/>
      <g>
        <path class="cls-11" d="m41.38,32.15v.47h-11.3v29.61h-.52v-29.61h-11.39v-.47h23.21Z"/>
        <path class="cls-11" d="m48.85,40.83c1.1,0,2.13.2,3.09.59s1.79.98,2.5,1.75c.71.77,1.26,1.72,1.67,2.85.4,1.12.6,2.42.6,3.88,0,.07-.02.13-.08.16-.05.04-.11.05-.18.05h-16.25c-.03.2-.04.39-.04.58v.58c0,1.75.21,3.29.62,4.63.42,1.34,1.01,2.46,1.77,3.37.77.91,1.69,1.6,2.77,2.07,1.08.47,2.28.71,3.6.71,1.19,0,2.21-.13,3.06-.39.85-.26,1.56-.54,2.13-.86.57-.31,1-.6,1.29-.86.29-.26.48-.39.57-.39.06,0,.11.03.17.09l.09.09c-.24.3-.61.61-1.09.94s-1.05.62-1.7.89-1.36.49-2.14.67c-.77.17-1.57.26-2.39.26-1.45,0-2.74-.25-3.89-.76-1.15-.51-2.12-1.24-2.91-2.2-.8-.96-1.41-2.13-1.84-3.52s-.65-2.97-.65-4.73c0-1.55.21-2.96.62-4.24.42-1.28,1.02-2.38,1.81-3.3.79-.92,1.75-1.63,2.89-2.14s2.43-.76,3.88-.76Zm0,.43c-1.26,0-2.4.2-3.41.61s-1.88.98-2.61,1.72c-.73.74-1.31,1.63-1.75,2.68s-.72,2.2-.85,3.46h16.01c0-1.36-.19-2.57-.56-3.62-.37-1.05-.89-1.94-1.56-2.65-.67-.72-1.45-1.26-2.35-1.63-.9-.37-1.88-.56-2.92-.56Z"/>
        <path class="cls-11" d="m75.85,62.24c-.2,0-.3-.11-.3-.34l-.13-3.42c-.6.63-1.2,1.2-1.81,1.71-.6.51-1.24.94-1.91,1.29s-1.4.62-2.17.82c-.77.19-1.63.29-2.58.29-.63,0-1.26-.1-1.9-.29-.64-.19-1.21-.5-1.73-.92-.52-.42-.94-.97-1.26-1.63-.32-.67-.48-1.48-.48-2.44s.28-1.79.83-2.55c.55-.75,1.4-1.39,2.54-1.92,1.14-.53,2.58-.95,4.31-1.26,1.73-.31,3.79-.49,6.17-.55v-2.71c0-1.1-.12-2.09-.37-2.97-.24-.87-.6-1.61-1.07-2.21-.47-.6-1.07-1.06-1.78-1.39-.72-.32-1.55-.48-2.49-.48-.75,0-1.42.08-2.02.24-.6.16-1.14.35-1.61.58-.47.23-.89.48-1.24.75-.35.27-.66.52-.91.75-.26.23-.47.42-.62.58-.16.16-.27.24-.34.24-.06,0-.13-.04-.22-.13l-.09-.09c1.03-1.09,2.1-1.92,3.2-2.49,1.1-.57,2.39-.86,3.85-.86,1.07,0,2,.17,2.78.52.78.34,1.43.84,1.94,1.48.52.65.9,1.43,1.14,2.35.24.92.37,1.97.37,3.13v13.93h-.09Zm-8.9-.09c.99,0,1.88-.11,2.69-.34.8-.23,1.54-.54,2.21-.92s1.3-.83,1.88-1.34c.58-.51,1.14-1.04,1.69-1.6v-6.49c-4.51.14-7.86.71-10.05,1.69-2.19.98-3.28,2.37-3.28,4.16,0,.85.14,1.57.42,2.18.28.61.65,1.11,1.1,1.5.45.39.97.69,1.55.88s1.18.29,1.79.29Z"/>
        <path class="cls-11" d="m96.35,43.15c-.06.06-.11.09-.17.09-.09,0-.25-.1-.48-.31s-.58-.43-1.03-.68-1.02-.47-1.7-.68c-.68-.21-1.5-.31-2.46-.31-1.36,0-2.58.24-3.65.73-1.07.49-1.98,1.18-2.73,2.08-.75.9-1.31,2-1.71,3.29-.39,1.29-.59,2.74-.59,4.34s.2,3.13.59,4.42.96,2.36,1.69,3.25c.73.88,1.61,1.55,2.63,2.01,1.02.46,2.17.69,3.43.69,1.12,0,2.06-.13,2.84-.39.77-.26,1.41-.54,1.91-.86.5-.31.88-.6,1.14-.86.26-.26.43-.39.52-.39.06,0,.11.03.17.09l.09.09c-.21.32-.53.63-.95.96-.42.32-.91.62-1.48.88-.57.27-1.22.48-1.93.66-.72.17-1.48.26-2.3.26-1.36,0-2.59-.24-3.67-.73-1.09-.49-2.02-1.19-2.78-2.12-.77-.92-1.36-2.05-1.77-3.38-.42-1.33-.62-2.85-.62-4.56s.21-3.12.62-4.46c.42-1.34,1.02-2.48,1.81-3.43.79-.95,1.75-1.68,2.89-2.2s2.43-.78,3.88-.78c1.28,0,2.41.2,3.41.61,1,.41,1.85.93,2.57,1.58l-.13.13Z"/>
        <path class="cls-11" d="m102.07,62.24v-30.95h.52v14.27c.49-.72,1.03-1.36,1.64-1.94.61-.58,1.26-1.08,1.97-1.49.7-.42,1.44-.73,2.21-.96.77-.22,1.57-.33,2.39-.33,2.33,0,4.08.7,5.23,2.08s1.73,3.33,1.73,5.82v13.5h-.52v-13.5c0-1.17-.13-2.22-.39-3.15-.26-.92-.66-1.71-1.19-2.35-.54-.65-1.21-1.14-2.02-1.47-.81-.34-1.76-.51-2.85-.51-1.65,0-3.17.44-4.56,1.32-1.39.88-2.61,2.1-3.65,3.64v16.01h-.52Z"/>
        <path class="cls-11" d="m132.33,40.83c1.1,0,2.13.2,3.09.59s1.79.98,2.5,1.75c.71.77,1.26,1.72,1.67,2.85.4,1.12.6,2.42.6,3.88,0,.07-.02.13-.08.16-.05.04-.11.05-.18.05h-16.25c-.03.2-.04.39-.04.58v.58c0,1.75.21,3.29.62,4.63.42,1.34,1.01,2.46,1.77,3.37.77.91,1.69,1.6,2.77,2.07,1.08.47,2.28.71,3.6.71,1.19,0,2.21-.13,3.06-.39.85-.26,1.56-.54,2.13-.86.57-.31,1-.6,1.29-.86.29-.26.48-.39.57-.39.06,0,.11.03.17.09l.09.09c-.24.3-.61.61-1.09.94s-1.05.62-1.7.89-1.36.49-2.14.67c-.77.17-1.57.26-2.39.26-1.45,0-2.74-.25-3.89-.76-1.15-.51-2.12-1.24-2.91-2.2-.8-.96-1.41-2.13-1.84-3.52s-.65-2.97-.65-4.73c0-1.55.21-2.96.62-4.24.42-1.28,1.02-2.38,1.81-3.3.79-.92,1.75-1.63,2.89-2.14s2.43-.76,3.88-.76Zm0,.43c-1.26,0-2.4.2-3.41.61s-1.88.98-2.61,1.72c-.73.74-1.31,1.63-1.75,2.68s-.72,2.2-.85,3.46h16.01c0-1.36-.19-2.57-.56-3.62-.37-1.05-.89-1.94-1.56-2.65-.67-.72-1.45-1.26-2.35-1.63-.9-.37-1.88-.56-2.92-.56Z"/>
        <path class="cls-11" d="m146.25,62.24v-21.06h.13c.2,0,.3.12.3.34l.06,5.85c.3-1.05.67-1.97,1.12-2.78.44-.81.97-1.49,1.57-2.05.6-.56,1.29-.98,2.05-1.27.77-.29,1.63-.43,2.59-.43.69,0,1.33.07,1.91.21.59.14,1.15.34,1.7.6l-.09.17s-.05.08-.08.12-.07.05-.14.05-.19-.04-.35-.11-.38-.15-.64-.24-.59-.16-.97-.24-.83-.11-1.34-.11c-1.88,0-3.4.62-4.56,1.85-1.16,1.23-2.08,2.98-2.75,5.24v13.84h-.52Z"/>
      </g>
      <rect class="cls-3" x="2.1" y="2" width="322" height="322" rx="12" ry="12"/>
      <path class="cls-8" d="m22.95,234.91s0,.01-.01.02v-.02h.01Z"/>
      <polygon class="cls-8" points="29.44 225.69 29.38 225.86 29.36 225.7 29.44 225.69"/>
      <rect class="cls-6" x="1" y="76.7" width="199.8" height="146.55"/>
      <rect class="cls-4" x="2.1" y="228.87" width="148.75" height="9.01"/>
      <rect class="cls-4" x="97.75" y="276.96" width="89.84" height="5.78" transform="translate(422.52 137.18) rotate(90)"/>
      <g>
        <path class="cls-12" d="m56.57,116.59c.17.09.3.13.43.13.52,0,1.03.56,1.29,1.03.26.47.39.34.39,1.07,0,.47-.17.6-.34.6-2.84,0-5.2.73-7.61,1.16-.47.09-.56.21-.69.43-.77,1.33-1.07,3.01-1.59,4.56-.95,2.92-1.29,5.89-1.63,8.77-.04.34-.56.56-.99.56-.56,0-1.25-.17-1.68-.34-.52-.21-.73-.95-.86-1.55-.04-.21-.09-.43-.09-.64,0-.34,0-.64.17-1.2.73-2.41,1.25-5.59,2.02-7.91.09-.26.17-.73.17-.99,0-.3-.17-.47-.47-.47l-6.02,1.2c-.43.09-.52.17-.64.39-.95,1.59-1.29,4.9-1.63,5.59-.09.17-.17.47-.17,1.07,0,.77.21,1.46.21,1.89,0,.77-.09,1.25-.86,1.25-.39,0-.99-.09-1.2-.26-.52-.43-.73-.3-1.2-.69-.3-.26-.39-.47-.6-.47s-.26-.13-.26-.43c0-.22.04-1.12.17-1.59l.13-.69c.17-1.08.82-3.83.82-4.38,0-.17-.04-.21-.17-.21-.3,0-1.33.26-2.19.26-.99,0-1.93-.17-2.67-1.03-.26-.3-.47-1.68-.47-1.89,0-.3.26-.6.69-.6.52,0,1.29.39,1.89.39.39,0,2.71-.34,3.78-.64.3-.09.34-.17.43-.34.73-1.55.99-3.4,1.72-5.12,1.68-3.96,3.48-8.12,5.54-11.86.21-.39.52-.52,1.29-.52.43,0,.64.34,1.72.69.39.13.64.47.64.73,0,.17,0,.43-.13.64-2.88,4.13-3.65,8.04-6.19,13.11-.26.52-.26.77-.26.99s.09.43.26.43c2.24-.34,4.51-.82,6.58-1.42.3-.09.43-.17.6-.56,1.5-3.18,2.54-6.62,3.65-10.02.09-.26.17-.34.3-.43.3-.21.52-.56,1.12-.56.43,0,.82.13,1.46.13.56,0,1.25.39,1.25.99,0,.52-.09,1.07-.43,2.02-.86,2.41-1.98,4.47-2.84,6.92,0,.21.04.34.3.34.64,0,2.67-.82,3.4-.82.6,0,.99.09,1.46.3Z"/>
        <path class="cls-12" d="m62.33,133.18c-.52,0-.95-.04-1.63-.3-.95-.34-2.45-1.03-2.75-1.2-.86-.47-1.68-1.55-2.15-2.97-.3-.86-.52-2.49-.52-3.31,0-.39.04-.82.21-1.42,1.2-4.38,4.13-8.17,7.39-11.65.73-.77,2.49-1.93,4.6-1.93,1.16,0,1.76.17,2.62.47.47.17,1.38.95,1.38,2.67,0,1.12-.47,2.06-.99,3.09-.43.86-.77,1.33-1.38,2.02-2.97,3.35-6.32,7.09-9.97,9.11-.21.13-.26.21-.26.34,0,.69.65,1.59,1.03,1.81.47.26.9.34,1.33.34.73,0,1.38-.17,3.31-1.2,2.97-1.59,4.77-3.91,7.35-5.54.47-.3.69-.3.86-.3.26,0,.86.43.86.86,0,.39-.04.43-.04.56,0,.17,0,.43-.21.6-2.06,1.76-2.97,3.91-9.5,7.52-.77.43-.99.43-1.55.43Zm5.54-19.64c0-.34,0-.52-.26-.52s-.52.13-.9.39c-.47.3-.43.17-.86.56-2.79,2.49-5.8,6.02-6.75,9.84,0,.17.04.21.09.21.09,0,.17-.04.3-.13,2.54-1.93,4.64-4.3,6.58-6.62.65-.77.47-.9,1.03-1.76.43-.64.77-1.2.77-1.98Z"/>
        <path class="cls-12" d="m70.5,130.08c-.09-.47-.13-.95-.13-1.46,0-1.98.9-3.96,1.85-6.41,1.85-4.81,5.67-11.69,8.94-17.28.73-1.25.99-3.65,2.67-3.65.6,0,.95-.09,1.42-.09.43,0,.9.17,1.12.47.26.39.34.77.34,1.2,0,.56-.17,1.08-.43,1.5-3.91,6.32-8.42,12.08-10.96,18.78-.69,1.76-1.63,3.4-1.63,5.29,0,.52.04,1.03.21,1.59.13.39.47.52.86.52.26,0,.52-.04.73-.17,1.89-1.16,4-4.81,5.97-4.81.34,0,1.46.3,1.46.99,0,.56-.43.73-.86,1.2-2.19,2.36-3.95,5.63-7.26,5.63-.3,0-3.87-.95-4.3-3.31Z"/>
        <path class="cls-12" d="m80.47,130.08c-.09-.47-.13-.95-.13-1.46,0-1.98.9-3.96,1.85-6.41,1.85-4.81,5.67-11.69,8.94-17.28.73-1.25.99-3.65,2.67-3.65.6,0,.95-.09,1.42-.09.43,0,.9.17,1.12.47.26.39.34.77.34,1.2,0,.56-.17,1.08-.43,1.5-3.91,6.32-8.42,12.08-10.96,18.78-.69,1.76-1.63,3.4-1.63,5.29,0,.52.04,1.03.21,1.59.13.39.47.52.86.52.26,0,.52-.04.73-.17,1.89-1.16,4-4.81,5.97-4.81.34,0,1.46.3,1.46.99,0,.56-.43.73-.86,1.2-2.19,2.36-3.95,5.63-7.26,5.63-.3,0-3.87-.95-4.3-3.31Z"/>
        <path class="cls-12" d="m105.66,115.21c1.72,0,2.71-.13,3.7-.13,1.38,0,2.67.43,2.67,1.12,0,.56-1.07.69-1.2.9-.09.17-.17.21-.47.26-.86.13-2.11.56-3.22.73-.86.13-1.38.13-1.68.13-.34,0-.43.04-.52.34-1.12,4.6-2.67,8.6-5.42,11.52-1.2,1.29-2.36,2.54-3.87,2.54-.39,0-.77-.09-1.03-.21-1.63-.77-2.84-1.72-3.22-2.71-.47-1.2-.65-2.49-.65-3.57,0-3.53,1.76-6.62,3.74-9.59.6-.9.6-.69,1.03-1.29,1.38-1.93,3.18-3.96,5.07-3.96.69,0,1.55.17,2.28.82.34.3.47.39.6.73.39,1.07.95,2.36,2.19,2.36Zm-4.73-.17c-.13-.43-.26-.73-.43-.73s-.43.17-.65.43c-.17.22-.6.43-.82.73-1.33,1.68-5.37,7.01-5.37,12.04,0,.13,0,.3.13.6.13.34.64,1.16,1.03,1.42.13.09.26.09.39.09.43,0,.64-.26.82-.34.3-.13.39-.26.73-.77,2.49-3.74,4.81-7.09,4.81-11.43,0-.17,0-.69-.04-.9-.04-.3-.13-.34-.26-.47-.21-.21-.3-.47-.34-.64Z"/>
      </g>
      <g>
        <g>
          <polygon class="cls-9" points="113.99 221.92 115.36 226.43 119.94 233.39 118.89 237.01 115.3 237.54 111.21 228.08 112.74 225.15 109.82 213.94 120.11 206.3 134.55 204.46 153.64 149.02 160 149.02 160.31 160.54 154.61 160.77 136.74 206.94 140.91 214.37 142.34 228.57 129 238.85 124.2 238.56 121.36 230.76 132.97 222.95 134.68 216.13 122.35 215.35 113.99 221.92"/>
          <path class="cls-8" d="m129,239.08s0,0-.01,0l-4.81-.29c-.09,0-.17-.06-.2-.15l-2.84-7.8c-.04-.1,0-.21.09-.27l11.54-7.76,1.62-6.47-11.96-.75-8.17,6.42,1.31,4.33,4.56,6.93c.04.06.05.13.03.19l-1.05,3.62c-.02.09-.1.15-.19.16l-3.59.54c-.1.01-.2-.04-.24-.14l-4.09-9.47c-.03-.06-.02-.14,0-.2l1.49-2.85-2.9-11.13c-.02-.09,0-.19.09-.24l10.29-7.64s.07-.04.11-.04l14.3-1.83,19.05-55.3c.03-.09.12-.16.22-.16h6.36c.12,0,.23.1.23.22l.31,11.52c0,.13-.09.23-.22.24l-5.55.22-17.78,45.93,4.11,7.33s.03.06.03.09l1.43,14.2c0,.08-.03.16-.09.2l-13.33,10.28s-.09.05-.14.05Zm-4.64-.74l4.57.28,13.16-10.15-1.41-14.03-4.14-7.39c-.03-.06-.04-.13-.01-.2l17.87-46.17c.03-.09.11-.14.2-.15l5.47-.22-.3-11.07h-5.97l-19.04,55.28c-.03.08-.1.14-.19.15l-14.38,1.84-10.12,7.51,2.89,11.06c.01.05,0,.11-.02.16l-1.48,2.83,3.98,9.21,3.27-.49.98-3.37-4.52-6.87s-.02-.04-.03-.06l-1.37-4.51c-.03-.09,0-.19.08-.25l8.36-6.57s.1-.04.16-.05l12.33.78c.07,0,.13.04.17.09.04.05.05.12.04.19l-1.71,6.82c-.01.06-.05.1-.09.14l-11.46,7.7,2.73,7.49Z"/>
        </g>
        <polygon class="cls-7" points="230.7 266.4 226.11 280.57 177.56 281.52 173.21 265.62 173.66 252.39 229.97 252.39 230.7 266.4"/>
        <polygon class="cls-7" points="294.58 266.34 289.99 280.51 241.44 281.46 237.09 265.56 237.54 252.33 293.85 252.33 294.58 266.34"/>
        <path class="cls-7" d="m237.79,169.94v68.74h51.67v-68.74h-51.67Zm35.49,46.86v6.66h-13.04v-6.66h13.04Zm-16.46-10.96v-6.43h17.93v6.43h-17.93Z"/>
        <path class="cls-7" d="m172.22,170.06v68.74h51.68v-68.74h-51.68Zm35.8,46.74v6.66h-13.04v-6.66h13.04Zm-16.47-10.96v-6.43h17.93v6.43h-17.93Z"/>
        <path class="cls-7" d="m223.32,170.07h4.2c1.61,0,2.91,1.31,2.91,2.91v63.67c0,1.21-.98,2.21-2.21,2.21h-5.47l.57-68.79Z"/>
        <path class="cls-8" d="m228.22,239.55h-5.47c-.38,0-.69-.31-.69-.69s.31-.69.69-.69h5.47c.84,0,1.52-.68,1.52-1.52v-63.67c0-1.23-1-2.22-2.22-2.22h-4.2c-.38,0-.69-.31-.69-.69s.31-.69.69-.69h4.2c1.99,0,3.6,1.61,3.6,3.6v63.67c0,1.6-1.3,2.9-2.9,2.9Z"/>
        <path class="cls-7" d="m222.74,251.08h4.07c.55,0,1.08.1,1.55.29.44.17.57.7.27,1.06l-4.08,4.65c-.21.23-.5.36-.81.36h-43.53c-.47,0-.92-.15-1.31-.42l-4.48-3.29c-.39-.29-.42-.85-.07-1.19.92-.9,2.19-1.45,3.57-1.45h44.81Z"/>
        <path class="cls-8" d="m223.74,258.13h-43.53c-.62,0-1.21-.19-1.71-.56l-4.48-3.3c-.35-.26-.57-.65-.59-1.08-.03-.43.14-.86.45-1.16,1.08-1.06,2.52-1.65,4.05-1.65h1.55c.38,0,.69.31.69.69s-.31.69-.69.69h-1.55c-1.17,0-2.27.45-3.09,1.25-.03.03-.04.06-.04.08l4.51,3.36c.26.19.57.29.9.29h43.53c.11,0,.22-.05.3-.14l4.07-4.64c-.41-.12-.86-.2-1.31-.2h-4.07c-.38,0-.69-.31-.69-.69s.31-.69.69-.69h4.07c.63,0,1.23.11,1.8.34.41.15.72.5.83.93.11.43,0,.88-.28,1.22l-4.09,4.66c-.35.38-.83.6-1.33.6Z"/>
        <path class="cls-7" d="m244.76,251.08h-4.08c-.55,0-1.08.1-1.55.29-.44.17-.57.7-.27,1.06l4.08,4.65c.21.23.5.36.81.36h43.54c.47,0,.92-.15,1.31-.42l4.48-3.29c.39-.29.42-.85.07-1.19-.92-.9-2.19-1.45-3.57-1.45h-44.81Z"/>
        <path class="cls-8" d="m287.29,258.13h-43.54c-.5,0-.98-.21-1.32-.59l-4.09-4.66c-.29-.34-.4-.8-.29-1.22.11-.42.42-.77.83-.93.57-.22,1.17-.34,1.8-.34h4.08c.38,0,.69.31.69.69s-.31.69-.69.69h-4.08c-.45,0-.89.08-1.3.24l4.08,4.61c.07.08.18.13.29.13h43.54c.33,0,.64-.1.9-.29l4.47-3.29c.04-.08.03-.11,0-.14-.83-.81-1.93-1.26-3.09-1.26h-1.55c-.38,0-.69-.31-.69-.69s.31-.69.69-.69h1.55c1.53,0,2.97.59,4.06,1.65.31.3.48.73.45,1.16-.03.43-.25.82-.59,1.08l-4.48,3.29c-.5.37-1.09.56-1.71.56Z"/>
        <path class="cls-7" d="m222.56,224.58s-.04-.07-.06-.1c-.09-.13-.2-.24-.32-.33-.03-.02-.07-.05-.11-.07-.18-.11-.41-.17-.64-.17h-8.76c-.7,0-1.28-.58-1.28-1.29v-9.41c0-.71-.58-1.29-1.29-1.29h-17.73c-.72,0-1.29.58-1.29,1.29v9.41c0,.71-.58,1.29-1.3,1.29h-9.08c-.28,0-.53.09-.74.24-.12.09-.24.19-.32.32-.15.21-.23.46-.23.74v27.28c0,.71.58,1.29,1.29,1.29h40.74c.71,0,1.29-.58,1.29-1.29v-27.28c0-.23-.06-.45-.17-.64Zm-27.59-1.12v-6.66h13.04v6.66h-13.04Z"/>
        <path class="cls-8" d="m180.7,253.1c-.34,0-.61-.27-.61-.61v-1.09c-.11.22-.34.37-.6.37h-.08v.72c0,.71.58,1.29,1.29,1.29h22.15v-.69h-22.15Zm42.54-28.71c-.07-.16-.17-.31-.28-.44-.03-.04-.06-.07-.09-.1-.05-.06-.1-.11-.16-.16-.19-.16-.42-.29-.66-.37-.19-.06-.4-.1-.61-.1h-8.76c-.32,0-.59-.28-.59-.6v-9.41c0-1.09-.89-1.98-1.99-1.98h-17.74c-1.09,0-1.98.89-1.98,1.98v9.41c0,.33-.27.6-.6.6h-9.09c-.48,0-.93.17-1.27.46-.09.07-.17.15-.24.24-.3.35-.48.8-.48,1.29v27.28c0,1.09.89,1.99,1.99,1.99h40.74c1.09,0,1.98-.89,1.98-1.99v-27.28c0-.29-.06-.57-.18-.82Zm-1.2,28.1c0,.34-.27.61-.6.61h-40.74c-.34,0-.61-.27-.61-.61v-27.28c0-.07.01-.14.04-.21.06-.15.17-.27.31-.34.08-.04.17-.06.26-.06h9.09c1.09,0,1.98-.89,1.98-1.98v-9.41c0-.33.27-.6.6-.6h17.74c.34,0,.61.27.61.6v9.41c0,1.09.88,1.98,1.96,1.98h8.76c.09,0,.17.02.24.05.14.06.26.18.32.34.03.07.04.14.04.22v27.28Z"/>
        <path class="cls-7" d="m287.82,224.58s-.03-.06-.05-.08c-.09-.13-.2-.24-.32-.33-.03-.02-.06-.05-.1-.06-.19-.12-.42-.18-.65-.18h-8.76c-.69,0-1.27-.58-1.27-1.29v-9.41c0-.71-.58-1.29-1.29-1.29h-17.74c-.71,0-1.29.58-1.29,1.29v9.41c0,.71-.58,1.29-1.29,1.29h-9.09c-.27,0-.53.09-.74.24-.12.09-.23.19-.32.32-.14.21-.23.46-.23.74v27.28c0,.71.58,1.29,1.29,1.29h40.74c.71,0,1.29-.58,1.29-1.29v-27.28c0-.24-.06-.45-.17-.64Zm-27.58-1.12v-6.66h13.04v6.66h-13.04Z"/>
        <path class="cls-8" d="m245.96,253.1c-.33,0-.6-.27-.6-.61v-1.07c-.03.06-.07.11-.12.16-.03.03-.06.06-.1.08-.03.03-.07.05-.11.06-.05.02-.09.03-.14.04-.04,0-.08.01-.13.01h-.1v.72c0,.71.58,1.29,1.29,1.29h22.16v-.69h-22.16Zm42.54-28.7s0,0,0,0c-.07-.16-.16-.3-.27-.43-.03-.04-.06-.07-.1-.11-.05-.06-.11-.11-.17-.16-.19-.17-.41-.29-.65-.37-.2-.06-.41-.1-.63-.1h-8.76c-.32,0-.59-.28-.59-.6v-9.41c0-1.09-.89-1.98-1.98-1.98h-17.74c-1.1,0-1.99.89-1.99,1.98v9.41c0,.33-.27.6-.6.6h-9.09c-.48,0-.92.17-1.26.46-.09.07-.17.15-.24.24-.3.35-.48.8-.48,1.29v27.28c0,1.09.89,1.99,1.98,1.99h40.74c1.09,0,1.99-.89,1.99-1.99v-27.28c0-.29-.06-.57-.18-.82Zm-1.2,28.09c0,.34-.27.61-.61.61h-40.74c-.33,0-.6-.27-.6-.61v-27.28c0-.07.01-.14.04-.2.05-.15.16-.28.3-.34.08-.04.17-.06.26-.06h9.09c1.09,0,1.98-.89,1.98-1.98v-9.41c0-.33.27-.6.61-.6h17.74c.33,0,.6.27.6.6v9.41c0,1.09.88,1.98,1.96,1.98h8.76c.09,0,.18.02.25.06.14.06.26.18.31.34h0c.03.07.04.14.04.22v27.28Zm-41.34.61c-.33,0-.6-.27-.6-.61v-1.07c-.03.06-.07.11-.12.16-.03.03-.06.06-.1.08-.03.03-.07.05-.11.06-.05.02-.09.03-.14.04-.04,0-.08.01-.13.01h-.1v.72c0,.71.58,1.29,1.29,1.29h22.16v-.69h-22.16Z"/>
        <g id="rect3570">
          <path class="cls-11" d="m194.52,216.34v7.58h13.95v-7.58h-13.95Zm13.5,7.12h-13.04v-6.66h13.04v6.66Z"/>
          <path class="cls-8" d="m208.47,215.88h-13.95c-.25,0-.46.21-.46.46v7.58c0,.25.21.46.46.46h13.95c.25,0,.46-.21.46-.46v-7.58c0-.25-.21-.46-.46-.46Zm-.46,7.58h-13.04v-6.66h13.04v6.66Z"/>
        </g>
        <path class="cls-7" d="m222.74,171.33v20.24c0,.83-.73,1.51-1.61,1.51h-42.02c-.82,0-1.48-.62-1.48-1.39v-27.52h45.12v7.15h-.01Z"/>
        <path class="cls-8" d="m221.13,193.77h-42.02c-1.2,0-2.17-.93-2.17-2.08v-27.51c0-.38.31-.69.69-.69h45.12c.38,0,.69.31.69.69v7.15s0,.08,0,.12v20.13c0,1.21-1.03,2.2-2.29,2.2Zm-42.81-28.9v26.83c0,.39.36.7.79.7h42.02c.5,0,.92-.38.92-.82v-20.24s0-.08,0-.12v-6.34h-43.74Z"/>
        <g id="rect3578">
          <path class="cls-11" d="m191.09,198.96v7.34h18.84v-7.34h-18.84Zm18.39,6.88h-17.93v-6.43h17.93v6.43Z"/>
          <path class="cls-8" d="m209.93,198.5h-18.84c-.25,0-.46.21-.46.46v7.34c0,.25.21.46.46.46h18.84c.25,0,.46-.21.46-.46v-7.34c0-.25-.21-.46-.46-.46Zm-.46,7.35h-17.93v-6.43h17.93v6.43Z"/>
        </g>
        <g id="path3582">
          <path class="cls-8" d="m179.42,239.54h-5.35c-1.5,0-2.73-1.22-2.73-2.73v-63.95c0-1.91,1.55-3.47,3.47-3.47h2.81c.38,0,.69.31.69.69s-.31.69-.69.69h-2.81c-1.15,0-2.09.94-2.09,2.09v63.95c0,.75.61,1.35,1.35,1.35h5.35c.38,0,.69.31.69.69s-.31.69-.69.69Z"/>
        </g>
        <g id="rect3584">
          <path class="cls-8" d="m220.71,212.17h-3.92c-.13,0-.23-.1-.23-.23v-9.3c0-.13.1-.23.23-.23h3.92c.13,0,.23.1.23.23v9.3c0,.13-.1.23-.23.23Zm-3.69-.46h3.46v-8.84h-3.46v8.84Z"/>
        </g>
        <g id="rect3586">
          <path class="cls-8" d="m229.19,212.17h-3.92c-.13,0-.23-.1-.23-.23v-9.3c0-.13.1-.23.23-.23h3.92c.13,0,.23.1.23.23v9.3c0,.13-.1.23-.23.23Zm-3.69-.46h3.46v-8.84h-3.46v8.84Z"/>
        </g>
        <g id="polyline3590">
          <path class="cls-8" d="m203.08,254.01c-.13,0-.23-.1-.23-.23v-8.32c0-.13.1-.23.23-.23h17.63c.13,0,.23.1.23.23s-.1.23-.23.23h-17.4v8.09c0,.13-.1.23-.23.23Z"/>
        </g>
        <g id="line3592">
          <path class="cls-8" d="m195.81,241.77c-.06,0-.12-.02-.17-.07l-16.39-17.62c-.09-.09-.08-.24.01-.32s.24-.08.32.01l16.39,17.62c.09.09.08.24-.01.32-.04.04-.1.06-.16.06Z"/>
        </g>
        <g id="rect3594">
          <rect class="cls-9" x="192.41" y="259.82" width="19.49" height="2.94"/>
          <path class="cls-8" d="m211.89,263.03h-19.49c-.15,0-.27-.12-.27-.27v-2.94c0-.15.12-.27.27-.27h19.49c.15,0,.27.12.27.27v2.94c0,.15-.12.27-.27.27Zm-19.21-.55h18.94v-2.4h-18.94v2.4Z"/>
        </g>
        <g id="path3598">
          <path class="cls-8" d="m177.51,281.2c-.22,0-.43-.1-.56-.29-2.07-2.91-3.7-9.25-4.49-12.77-.22-.98-.33-1.99-.33-3v-8.92c0-1.24.54-3.03,1.54-3.91.29-.25.72-.22.97.07.25.29.22.72-.07.97-.64.56-1.07,1.93-1.07,2.87v8.92c0,.91.1,1.82.29,2.7,1.3,5.82,2.86,10.29,4.27,12.27.22.31.15.74-.16.96-.12.09-.26.13-.4.13Z"/>
        </g>
        <g id="path3602">
          <path class="cls-8" d="m224.24,282.61h-2.15c-.38,0-.69-.31-.69-.69s.31-.69.69-.69h2.15c1.55,0,3.25-4.3,5.05-12.79.09-.41.16-.77.23-1.08.13-.59.2-1.2.2-1.81v-10.21c0-1.29-.65-2.66-1.55-3.27-.31-.21-.4-.64-.18-.96.21-.31.64-.4.96-.18,1.29.88,2.16,2.65,2.16,4.41v10.21c0,.71-.08,1.42-.23,2.11-.07.3-.14.66-.23,1.06-1.42,6.72-3.21,13.89-6.4,13.89Z"/>
        </g>
        <g id="path3606">
          <path class="cls-9" d="m160,135.28h-7.45c-2.42,0-4.59,1.53-5.4,3.82l-22.48,64.17,9.87,1.18,19.09-55.43h6.36s0-13.74,0-13.74Z"/>
          <path class="cls-8" d="m134.55,204.92s-.04,0-.05,0l-9.87-1.18c-.14-.02-.26-.1-.33-.21-.07-.12-.09-.26-.04-.39l22.48-64.17c.87-2.47,3.21-4.13,5.83-4.13h7.45c.25,0,.46.21.46.46v13.74c0,.25-.21.46-.46.46h-6.03l-18.99,55.13c-.06.19-.24.31-.43.31Zm-9.25-2.03l8.94,1.07,18.97-55.08c.06-.19.24-.31.43-.31h5.9v-12.82h-6.99c-2.23,0-4.22,1.41-4.96,3.52l-22.29,63.63Z"/>
        </g>
        <g id="path3608">
          <path class="cls-9" d="m115.95,228.33l.18-1c.12-.71-.35-1.39-1.06-1.51l-.35-.06c-1.22-.22-2.2-1.16-2.46-2.37l-1.46-6.79c-.29-1.37.2-2.78,1.27-3.67l6.57-5.42c.94-.78,2.17-1.12,3.37-.94l8.89,1.29c1.28.19,2.29,1.23,2.41,2.53l.74,7.27c.17,1.65-.57,3.25-1.92,4.22l-5.65,4.01c-.95.68-2.1,1.04-3.28,1l-1.27-.03c-.48-.01-.9.32-1,.8l-.41,1.97c-.11.56.28,1.09.85,1.13l1.74.12c1.23.08,2.47-.27,3.46-.99l9.77-7.05c1.17-.85,1.81-2.25,1.69-3.7l-.94-10.53c-.19-2.12-1.81-3.84-3.93-4.13l-10.95-1.55c-1.38-.2-2.78.19-3.86,1.07l-9.66,7.79c-1.33,1.08-1.91,2.83-1.46,4.49l2.62,9.74c.45,1.66,1.8,2.92,3.49,3.24l1,.19c.76.17,1.48-.34,1.62-1.1Z"/>
          <path class="cls-8" d="m123.45,231.35c-.13,0-.26,0-.39-.01l-1.74-.13c-.4-.03-.77-.23-1.01-.55-.24-.32-.34-.73-.26-1.13l.41-1.97c.15-.69.75-1.19,1.46-1.16l1.28.03c1.09.04,2.13-.29,3-.92l5.65-4.01c1.21-.87,1.87-2.32,1.73-3.8l-.74-7.27c-.1-1.09-.94-1.96-2.02-2.12l-8.89-1.29c-1.07-.16-2.17.15-3.01.84l-6.57,5.42c-.94.78-1.37,2.01-1.12,3.22l1.46,6.78c.22,1.02,1.06,1.83,2.09,2.02l.35.06c.96.17,1.6,1.09,1.43,2.04l-.18,1h0c-.09.49-.37.93-.79,1.21-.41.27-.9.37-1.38.26l-.99-.18c-1.85-.35-3.36-1.75-3.85-3.58l-2.62-9.74c-.49-1.82.14-3.77,1.61-4.96l9.66-7.79c1.18-.95,2.71-1.38,4.22-1.17l10.95,1.55c2.33.32,4.11,2.19,4.32,4.55l.94,10.52c.14,1.6-.58,3.17-1.88,4.11l-9.77,7.06c-.98.71-2.16,1.09-3.37,1.09Zm-1.55-4.03c-.25,0-.48.18-.53.44l-.41,1.97c-.03.14,0,.28.09.39.08.11.21.18.35.19l1.74.12c1.13.08,2.25-.25,3.16-.91l9.77-7.06c1.05-.76,1.61-1.99,1.5-3.29l-.94-10.52c-.17-1.93-1.62-3.46-3.53-3.72l-10.95-1.55c-1.25-.18-2.53.18-3.51.97l-9.66,7.79c-1.19.97-1.7,2.54-1.31,4.01l2.62,9.74c.4,1.48,1.63,2.62,3.13,2.91l1,.19c.25.05.49,0,.69-.12.21-.14.35-.35.39-.6l.18-1c.08-.46-.23-.9-.68-.98l-.35-.06c-1.42-.25-2.52-1.32-2.82-2.73l-1.46-6.78c-.33-1.54.22-3.12,1.43-4.12l6.57-5.42c1.04-.86,2.4-1.24,3.73-1.04l8.89,1.29c1.51.22,2.66,1.43,2.8,2.94l.74,7.27c.18,1.8-.63,3.58-2.11,4.64l-5.65,4.01c-1.04.75-2.27,1.12-3.56,1.09l-1.27-.03h-.01Zm-5.95,1.01h0,0Z"/>
        </g>
        <g id="path3610">
          <path class="cls-8" d="m129,239.31h-2.5c-1.3,0-2.49-.71-3.11-1.85l-2.9-6.58c-.1-.23,0-.5.23-.6.23-.1.5,0,.61.23l2.88,6.55c.44.81,1.32,1.33,2.28,1.33h2.34l11.54-8.84c.91-.74,1.39-1.9,1.27-3.08l-1.2-11.96-4.12-7.34c-.07-.12-.08-.26-.03-.39l17.87-46.17c.07-.18.24-.29.43-.29h4.93v-11.29c0-.25.21-.46.46-.46s.46.21.46.46v11.75c0,.25-.21.46-.46.46h-5.07l-17.68,45.68,4.06,7.24c.03.06.05.12.06.18l1.21,12.06c.15,1.49-.45,2.95-1.62,3.89l-11.68,8.94c-.08.06-.18.09-.28.09Z"/>
        </g>
        <g id="line3612">
          <path class="cls-8" d="m129,239.08c-.09,0-.17-.05-.21-.13l-4-8.48c-.05-.12,0-.25.11-.31.12-.05.25,0,.31.11l4,8.48c.05.12,0,.25-.11.31-.03.01-.07.02-.1.02Z"/>
        </g>
        <g id="line3614">
          <path class="cls-8" d="m142.34,228.8c-.08,0-.15-.04-.2-.11l-4.77-7.75c-.07-.11-.03-.25.08-.32.11-.06.25-.03.32.08l4.77,7.75c.07.11.03.25-.08.32-.04.02-.08.03-.12.03Z"/>
        </g>
        <g id="path3616">
          <path class="cls-8" d="m118.54,238h-2.04c-.92,0-1.75-.55-2.12-1.39l-3.6-8.35c-.1-.23,0-.5.24-.6.23-.1.5,0,.6.24l3.59,8.35c.22.51.73.84,1.28.84h1.92l-3.79-7.83c-.11-.23-.01-.5.21-.61.23-.11.5-.01.61.21l3.84,7.95c.12.27.1.57-.05.81-.16.24-.42.39-.71.39Zm-.06-.81h0,0Z"/>
        </g>
        <g id="polyline3618">
          <path class="cls-8" d="m115.3,237.77c-.08,0-.16-.04-.2-.12l-5.47-10.44s-.02-.04-.02-.06l-2.69-13.54c-.02-.12.06-.25.18-.27.12-.03.25.06.27.18l2.69,13.51,5.46,10.41c.06.11.01.25-.1.31-.03.02-.07.03-.11.03Z"/>
        </g>
        <g id="polyline3620">
          <path class="cls-8" d="m133.9,216.57s-.01,0-.02,0l-11.55-.98c-.1,0-.18-.08-.2-.17l-2.25-9.05c-.03-.12.04-.25.17-.28.13-.03.25.04.28.17l2.21,8.9,11.39.97c.13.01.22.12.21.25,0,.12-.11.21-.23.21Z"/>
        </g>
        <g id="path3622">
          <path class="cls-8" d="m119.13,238s-.1,0-.15-.02c-.24-.08-.37-.34-.29-.58l.95-2.81c.09-.32.05-.67-.12-.99l-3.57-6.7c-.12-.22-.03-.5.19-.62.23-.12.5-.03.62.19l3.57,6.7c.27.52.34,1.12.18,1.68l-.96,2.83c-.06.19-.24.31-.43.31Z"/>
        </g>
        <g id="polyline3624">
          <path class="cls-8" d="m114.97,225.79c-.1,0-.19-.07-.22-.17l-.97-3.64c-.02-.09,0-.18.08-.24l8.36-6.57c.1-.08.24-.06.32.04.08.1.06.24-.04.32l-8.24,6.47.93,3.49c.03.12-.04.25-.16.28-.02,0-.04,0-.06,0Z"/>
        </g>
        <g id="line3626">
          <path class="cls-8" d="m113.99,222.15c-.09,0-.18-.05-.21-.14l-3.03-7.54c-.05-.12,0-.25.13-.3.12-.05.25,0,.3.13l3.03,7.54c.05.12,0,.25-.13.3-.03.01-.06.02-.09.02Z"/>
        </g>
        <g id="line3628">
          <path class="cls-8" d="m224.24,282.38c-.25,0-.46-.21-.46-.46v-24.47c0-.25.21-.46.46-.46s.46.21.46.46v24.47c0,.25-.21.46-.46.46Z"/>
        </g>
        <g id="polyline3630">
          <path class="cls-8" d="m179.49,279.77c-.25,0-.46-.21-.46-.46v-21.63l-.26-.19c-.2-.15-.24-.44-.09-.64.15-.2.44-.25.64-.09l.44.33c.12.09.18.22.18.37v21.86c0,.25-.21.46-.46.46Z"/>
        </g>
        <g id="polyline3636">
          <path class="cls-8" d="m197.45,172.38h-19.83c-.25,0-.46-.21-.46-.46s.21-.46.46-.46h19.37v-7.91c0-.25.21-.46.46-.46s.46.21.46.46v8.37c0,.25-.21.46-.46.46Z"/>
        </g>
        <g id="line3638">
          <path class="cls-8" d="m177.62,193.31c-.07,0-.14-.03-.18-.09-.08-.1-.06-.24.04-.32l15.05-11.81c.1-.08.24-.06.32.04.08.1.06.24-.04.32l-15.05,11.81s-.09.05-.14.05Z"/>
        </g>
        <g id="line3640">
          <path class="cls-8" d="m205.28,241.77c-.06,0-.12-.02-.16-.07-.09-.09-.09-.23,0-.32l17.46-17.62c.09-.09.23-.09.32,0s.09.23,0,.32l-17.46,17.62s-.1.07-.16.07Z"/>
        </g>
        <g id="line3642">
          <path class="cls-8" d="m222.74,224.61c-.38,0-.69-.31-.69-.69v-30.84c0-.38.31-.69.69-.69s.69.31.69.69v30.84c0,.38-.31.69-.69.69Z"/>
        </g>
        <g id="line3644">
          <path class="cls-8" d="m222.74,193.31c-.05,0-.11-.02-.15-.06l-13.54-11.81c-.1-.08-.11-.23-.02-.32s.23-.11.32-.02l13.54,11.81c.1.08.11.23.02.32-.05.05-.11.08-.17.08Z"/>
        </g>
        <g id="line3646">
          <path class="cls-8" d="m230.41,226.93h-7.68c-.13,0-.23-.1-.23-.23s.1-.23.23-.23h7.68c.13,0,.23.1.23.23s-.1.23-.23.23Z"/>
        </g>
        <g id="line3648">
          <path class="cls-8" d="m179.42,226.93h-7.39c-.13,0-.23-.1-.23-.23s.1-.23.23-.23h7.39c.13,0,.23.1.23.23s-.1.23-.23.23Z"/>
        </g>
        <g id="line3650">
          <path class="cls-8" d="m177.62,187.41h-5.58c-.13,0-.23-.1-.23-.23s.1-.23.23-.23h5.58c.13,0,.23.1.23.23s-.1.23-.23.23Z"/>
        </g>
        <g id="line3652">
          <path class="cls-8" d="m230.41,187.41h-7.68c-.13,0-.23-.1-.23-.23s.1-.23.23-.23h7.68c.13,0,.23.1.23.23s-.1.23-.23.23Z"/>
        </g>
        <g id="path3686">
          <path class="cls-9" d="m163.06,130.79h-.18c-1.42,0-2.58-1.15-2.58-2.58v-36.16c0-1.42,1.15-2.58,2.58-2.58h.18c1.42,0,2.58,1.15,2.58,2.58v36.16c0,1.43-1.16,2.58-2.58,2.58Z"/>
          <path class="cls-8" d="m163.06,131.25h-.18c-1.68,0-3.04-1.36-3.04-3.04v-36.16c0-1.68,1.36-3.04,3.04-3.04h.18c1.68,0,3.04,1.36,3.04,3.04v36.16c0,1.68-1.36,3.04-3.04,3.04Zm-.18-41.31c-1.17,0-2.12.95-2.12,2.12v36.16c0,1.17.95,2.12,2.12,2.12h.18c1.17,0,2.12-.95,2.12-2.12v-36.16c0-1.17-.95-2.12-2.12-2.12h-.18Z"/>
        </g>
        <g id="path3688">
          <path class="cls-9" d="m163.4,162.78h-.85c-1.23,0-2.24-1-2.24-2.24v-27.69c0-1.23,1-2.24,2.24-2.24h.85c1.23,0,2.24,1,2.24,2.24v27.69c0,1.23-1,2.24-2.24,2.24Z"/>
          <path class="cls-8" d="m163.4,163.24h-.85c-1.49,0-2.7-1.21-2.7-2.7v-27.69c0-1.49,1.21-2.7,2.7-2.7h.85c1.49,0,2.7,1.21,2.7,2.7v27.69c0,1.49-1.21,2.7-2.7,2.7Zm-.85-32.17c-.98,0-1.78.8-1.78,1.78v27.69c0,.98.8,1.78,1.78,1.78h.85c.98,0,1.78-.8,1.78-1.78v-27.69c0-.98-.8-1.78-1.78-1.78h-.85Z"/>
        </g>
        <g id="line3690">
          <path class="cls-8" d="m165.54,91.64h-5.15c-.13,0-.23-.1-.23-.23s.1-.23.23-.23h5.15c.13,0,.23.1.23.23s-.1.23-.23.23Z"/>
        </g>
        <g id="line3692">
          <path class="cls-8" d="m165.54,93.6h-5.15c-.13,0-.23-.1-.23-.23s.1-.23.23-.23h5.15c.13,0,.23.1.23.23s-.1.23-.23.23Z"/>
        </g>
        <g id="line3694">
          <path class="cls-8" d="m165.54,96.21h-5.15c-.13,0-.23-.1-.23-.23s.1-.23.23-.23h5.15c.13,0,.23.1.23.23s-.1.23-.23.23Z"/>
        </g>
        <g id="line3696">
          <path class="cls-8" d="m165.54,99.47h-5.15c-.13,0-.23-.1-.23-.23s.1-.23.23-.23h5.15c.13,0,.23.1.23.23s-.1.23-.23.23Z"/>
        </g>
        <g id="line3698">
          <path class="cls-8" d="m165.54,102.74h-5.15c-.13,0-.23-.1-.23-.23s.1-.23.23-.23h5.15c.13,0,.23.1.23.23s-.1.23-.23.23Z"/>
        </g>
        <g id="line3700">
          <path class="cls-8" d="m165.54,106.65h-5.15c-.13,0-.23-.1-.23-.23s.1-.23.23-.23h5.15c.13,0,.23.1.23.23s-.1.23-.23.23Z"/>
        </g>
        <g id="line3702">
          <path class="cls-8" d="m165.54,111.22h-5.15c-.13,0-.23-.1-.23-.23s.1-.23.23-.23h5.15c.13,0,.23.1.23.23s-.1.23-.23.23Z"/>
        </g>
        <g id="line3704">
          <path class="cls-8" d="m165.54,115.14h-5.15c-.13,0-.23-.1-.23-.23s.1-.23.23-.23h5.15c.13,0,.23.1.23.23s-.1.23-.23.23Z"/>
        </g>
        <g id="line3706">
          <path class="cls-8" d="m165.54,118.4h-5.15c-.13,0-.23-.1-.23-.23s.1-.23.23-.23h5.15c.13,0,.23.1.23.23s-.1.23-.23.23Z"/>
        </g>
        <g id="line3708">
          <path class="cls-8" d="m165.54,121.66h-5.15c-.13,0-.23-.1-.23-.23s.1-.23.23-.23h5.15c.13,0,.23.1.23.23s-.1.23-.23.23Z"/>
        </g>
        <g id="line3710">
          <path class="cls-8" d="m165.54,124.93h-5.15c-.13,0-.23-.1-.23-.23s.1-.23.23-.23h5.15c.13,0,.23.1.23.23s-.1.23-.23.23Z"/>
        </g>
        <g id="line3712">
          <path class="cls-8" d="m165.54,127.54h-5.15c-.13,0-.23-.1-.23-.23s.1-.23.23-.23h5.15c.13,0,.23.1.23.23s-.1.23-.23.23Z"/>
        </g>
        <g id="line3714">
          <path class="cls-8" d="m165.54,129.5h-5.15c-.13,0-.23-.1-.23-.23s.1-.23.23-.23h5.15c.13,0,.23.1.23.23s-.1.23-.23.23Z"/>
        </g>
        <g id="line3716">
          <path class="cls-8" d="m165.64,133.08h-5.33c-.13,0-.23-.1-.23-.23s.1-.23.23-.23h5.33c.13,0,.23.1.23.23s-.1.23-.23.23Z"/>
        </g>
        <g id="line3718">
          <path class="cls-8" d="m165.64,135.69h-5.33c-.13,0-.23-.1-.23-.23s.1-.23.23-.23h5.33c.13,0,.23.1.23.23s-.1.23-.23.23Z"/>
        </g>
        <g id="line3720">
          <path class="cls-8" d="m165.64,138.95h-5.33c-.13,0-.23-.1-.23-.23s.1-.23.23-.23h5.33c.13,0,.23.1.23.23s-.1.23-.23.23Z"/>
        </g>
        <g id="line3722">
          <path class="cls-8" d="m165.64,142.22h-5.33c-.13,0-.23-.1-.23-.23s.1-.23.23-.23h5.33c.13,0,.23.1.23.23s-.1.23-.23.23Z"/>
        </g>
        <g id="line3724">
          <path class="cls-8" d="m165.64,146.13h-5.33c-.13,0-.23-.1-.23-.23s.1-.23.23-.23h5.33c.13,0,.23.1.23.23s-.1.23-.23.23Z"/>
        </g>
        <g id="line3726">
          <path class="cls-8" d="m165.64,150.05h-5.33c-.13,0-.23-.1-.23-.23s.1-.23.23-.23h5.33c.13,0,.23.1.23.23s-.1.23-.23.23Z"/>
        </g>
        <g id="line3728">
          <path class="cls-8" d="m165.64,153.31h-5.33c-.13,0-.23-.1-.23-.23s.1-.23.23-.23h5.33c.13,0,.23.1.23.23s-.1.23-.23.23Z"/>
        </g>
        <g id="line3730">
          <path class="cls-8" d="m165.64,155.92h-5.33c-.13,0-.23-.1-.23-.23s.1-.23.23-.23h5.33c.13,0,.23.1.23.23s-.1.23-.23.23Z"/>
        </g>
        <g id="line3732">
          <path class="cls-8" d="m165.64,158.53h-5.33c-.13,0-.23-.1-.23-.23s.1-.23.23-.23h5.33c.13,0,.23.1.23.23s-.1.23-.23.23Z"/>
        </g>
        <g id="line3734">
          <path class="cls-8" d="m165.64,161.14h-5.33c-.13,0-.23-.1-.23-.23s.1-.23.23-.23h5.33c.13,0,.23.1.23.23s-.1.23-.23.23Z"/>
        </g>
        <g id="path3742">
          <path class="cls-10" d="m219.4,210.68h-1.12c-.47,0-.84-.38-.84-.84v-5.35c0-.47.38-.84.84-.84h1.12c.47,0,.84.38.84.84v5.35c0,.47-.38.84-.84.84Z"/>
          <path class="cls-8" d="m219.4,210.91h-1.12c-.59,0-1.07-.48-1.07-1.07v-5.35c0-.59.48-1.07,1.07-1.07h1.12c.59,0,1.07.48,1.07,1.07v5.35c0,.59-.48,1.07-1.07,1.07Zm-1.12-7.02c-.34,0-.61.27-.61.61v5.35c0,.34.27.61.61.61h1.12c.34,0,.61-.27.61-.61v-5.35c0-.34-.27-.61-.61-.61h-1.12Z"/>
        </g>
        <g id="path3744">
          <path class="cls-10" d="m227.89,210.68h-1.12c-.47,0-.84-.38-.84-.84v-5.35c0-.47.38-.84.84-.84h1.12c.47,0,.84.38.84.84v5.35c0,.47-.38.84-.84.84Z"/>
          <path class="cls-8" d="m227.89,210.91h-1.12c-.59,0-1.07-.48-1.07-1.07v-5.35c0-.59.48-1.07,1.07-1.07h1.12c.59,0,1.07.48,1.07,1.07v5.35c0,.59-.48,1.07-1.07,1.07Zm-1.12-7.02c-.34,0-.61.27-.61.61v5.35c0,.34.27.61.61.61h1.12c.34,0,.61-.27.61-.61v-5.35c0-.34-.27-.61-.61-.61h-1.12Z"/>
        </g>
        <g id="line3746">
          <path class="cls-8" d="m228.73,205.3h-2.8c-.13,0-.23-.1-.23-.23s.1-.23.23-.23h2.8c.13,0,.23.1.23.23s-.1.23-.23.23Z"/>
        </g>
        <g id="line3748">
          <path class="cls-8" d="m228.73,209.42h-2.8c-.13,0-.23-.1-.23-.23s.1-.23.23-.23h2.8c.13,0,.23.1.23.23s-.1.23-.23.23Z"/>
        </g>
        <g id="line3750">
          <path class="cls-8" d="m220.24,205.3h-2.8c-.13,0-.23-.1-.23-.23s.1-.23.23-.23h2.8c.13,0,.23.1.23.23s-.1.23-.23.23Z"/>
        </g>
        <g id="line3752">
          <path class="cls-8" d="m220.24,209.42h-2.8c-.13,0-.23-.1-.23-.23s.1-.23.23-.23h2.8c.13,0,.23.1.23.23s-.1.23-.23.23Z"/>
        </g>
        <g id="path3754">
          <path class="cls-10" d="m202.93,252.76h0v-6.93c0-.21.17-.36.36-.36h0c1.27,0,2.31,1.04,2.31,2.31v2.32c0,1.46-1.2,2.66-2.67,2.66Z"/>
          <path class="cls-8" d="m202.93,252.99c-.13,0-.23-.1-.23-.23v-6.93c0-.33.27-.59.59-.59,1.4,0,2.54,1.14,2.54,2.54v2.32c0,1.59-1.3,2.89-2.9,2.89Zm.36-7.29c-.06,0-.13.05-.13.13v6.69c1.24-.12,2.21-1.16,2.21-2.42v-2.32c0-1.15-.93-2.08-2.08-2.08Z"/>
        </g>
        <g id="rect3756">
          <path class="cls-11" d="m259.78,216.34v7.58h13.96v-7.58h-13.96Zm13.5,7.12h-13.04v-6.66h13.04v6.66Z"/>
          <path class="cls-8" d="m273.74,215.88h-13.95c-.25,0-.46.21-.46.46v7.58c0,.25.2.46.46.46h13.95c.25,0,.46-.21.46-.46v-7.58c0-.25-.21-.46-.46-.46Zm-.46,7.58h-13.04v-6.66h13.04v6.66Z"/>
        </g>
        <path class="cls-7" d="m288.01,171.33v20.24c0,.83-.73,1.51-1.61,1.51h-42.02c-.82,0-1.48-.62-1.48-1.39v-27.52h45.12v7.15h-.01Z"/>
        <path class="cls-8" d="m286.41,193.77h-42.02c-1.2,0-2.17-.93-2.17-2.08v-27.51c0-.38.31-.69.69-.69h45.12c.38,0,.69.31.69.69v7.15s0,.08,0,.12v20.13c0,1.21-1.03,2.2-2.29,2.2Zm-42.81-28.9v26.83c0,.39.36.7.79.7h42.02c.5,0,.92-.38.92-.82v-20.24s0-.08,0-.12v-6.34h-43.74Z"/>
        <g id="rect3764">
          <path class="cls-11" d="m256.35,198.96v7.34h18.85v-7.34h-18.85Zm18.39,6.88h-17.93v-6.43h17.93v6.43Z"/>
          <path class="cls-8" d="m275.2,198.5h-18.85c-.25,0-.46.21-.46.46v7.34c0,.25.21.46.46.46h18.85c.25,0,.46-.21.46-.46v-7.34c0-.25-.2-.46-.46-.46Zm-.46,7.35h-17.93v-6.43h17.93v6.43Z"/>
        </g>
        <path class="cls-7" d="m288.58,170.07h4.2c1.61,0,2.91,1.31,2.91,2.91v63.67c0,1.21-.98,2.21-2.21,2.21h-5.47l.57-68.79Z"/>
        <path class="cls-8" d="m293.48,239.55h-5.47c-.38,0-.69-.31-.69-.69s.31-.69.69-.69h5.47c.84,0,1.52-.68,1.52-1.52v-63.67c0-1.23-1-2.22-2.22-2.22h-4.2c-.38,0-.69-.31-.69-.69s.31-.69.69-.69h4.2c1.99,0,3.6,1.61,3.6,3.6v63.67c0,1.6-1.3,2.9-2.9,2.9Z"/>
        <g id="path3768">
          <path class="cls-8" d="m244.69,239.54h-5.35c-1.5,0-2.73-1.22-2.73-2.73v-63.95c0-1.91,1.55-3.47,3.47-3.47h2.81c.38,0,.69.31.69.69s-.31.69-.69.69h-2.81c-1.15,0-2.09.94-2.09,2.09v63.95c0,.75.61,1.35,1.35,1.35h5.35c.38,0,.69.31.69.69s-.31.69-.69.69Z"/>
        </g>
        <g id="rect3770">
          <path class="cls-8" d="m285.97,212.17h-3.92c-.13,0-.23-.1-.23-.23v-9.3c0-.13.1-.23.23-.23h3.92c.13,0,.23.1.23.23v9.3c0,.13-.1.23-.23.23Zm-3.69-.46h3.46v-8.84h-3.46v8.84Z"/>
        </g>
        <g id="rect3772">
          <path class="cls-8" d="m294.46,212.17h-3.92c-.13,0-.23-.1-.23-.23v-9.3c0-.13.1-.23.23-.23h3.92c.13,0,.23.1.23.23v9.3c0,.13-.1.23-.23.23Zm-3.69-.46h3.46v-8.84h-3.46v8.84Z"/>
        </g>
        <g id="polyline3776">
          <path class="cls-8" d="m268.35,254.01c-.13,0-.23-.1-.23-.23v-8.32c0-.13.1-.23.23-.23h17.62c.13,0,.23.1.23.23s-.1.23-.23.23h-17.39v8.09c0,.13-.1.23-.23.23Z"/>
        </g>
        <g id="line3778">
          <path class="cls-8" d="m261.08,241.77c-.06,0-.12-.02-.17-.07l-16.39-17.62c-.09-.09-.08-.24.01-.32.09-.09.24-.08.32.01l16.39,17.62c.09.09.08.24-.01.32-.04.04-.1.06-.16.06Z"/>
        </g>
        <g id="rect3780">
          <rect class="cls-9" x="255.61" y="259.81" width="19.49" height="2.94"/>
          <path class="cls-8" d="m275.1,263.03h-19.49c-.15,0-.27-.12-.27-.27v-2.94c0-.15.12-.27.27-.27h19.49c.15,0,.27.12.27.27v2.94c0,.15-.12.27-.27.27Zm-19.21-.55h18.94v-2.4h-18.94v2.4Z"/>
        </g>
        <g id="path3784">
          <path class="cls-8" d="m289.99,281.2c-.14,0-.28-.04-.4-.13-.31-.22-.38-.65-.16-.96,1.93-2.71,3.5-8.85,4.27-12.28.2-.88.29-1.79.29-2.7v-8.92c0-.94-.43-2.31-1.07-2.87-.29-.25-.32-.68-.07-.97.25-.29.69-.32.97-.07,1,.87,1.54,2.66,1.54,3.91v8.92c0,1.01-.11,2.02-.33,3-.79,3.52-2.42,9.87-4.49,12.78-.13.19-.35.29-.56.29Z"/>
        </g>
        <g id="path3788">
          <path class="cls-8" d="m245.42,282.61h-2.16c-3.19,0-4.98-7.17-6.4-13.89-.09-.4-.16-.76-.23-1.06-.16-.69-.23-1.4-.23-2.11v-10.21c0-1.76.87-3.54,2.16-4.41.32-.21.74-.13.96.18.21.32.13.74-.18.96-.9.61-1.55,1.99-1.55,3.27v10.21c0,.61.07,1.22.2,1.81.07.31.14.67.23,1.07,1.8,8.49,3.5,12.8,5.05,12.8h2.16c.38,0,.69.31.69.69s-.31.69-.69.69Z"/>
        </g>
        <g id="line3792">
          <path class="cls-8" d="m243.26,282.38c-.25,0-.46-.21-.46-.46v-24.47c0-.25.21-.46.46-.46s.46.21.46.46v24.47c0,.25-.21.46-.46.46Z"/>
        </g>
        <g id="polyline3794">
          <path class="cls-8" d="m288.01,279.77c-.25,0-.46-.21-.46-.46v-21.86c0-.15.07-.28.19-.37l.45-.33c.2-.15.49-.11.64.09.15.2.11.49-.09.64l-.26.19v21.63c0,.25-.21.46-.46.46Z"/>
        </g>
        <g id="polyline3800">
          <path class="cls-8" d="m262.72,172.38h-19.82c-.25,0-.46-.21-.46-.46s.21-.46.46-.46h19.36v-7.91c0-.25.21-.46.46-.46s.46.21.46.46v8.37c0,.25-.21.46-.46.46Z"/>
        </g>
        <g id="line3802">
          <path class="cls-8" d="m242.9,193.31c-.07,0-.14-.03-.18-.09-.08-.1-.06-.24.04-.32l15.05-11.81c.1-.08.24-.06.32.04.08.1.06.24-.04.32l-15.05,11.81s-.09.05-.14.05Z"/>
        </g>
        <g id="line3804">
          <path class="cls-8" d="m270.55,241.77c-.06,0-.12-.02-.16-.07-.09-.09-.09-.23,0-.32l17.47-17.62c.09-.09.23-.09.32,0s.09.23,0,.32l-17.47,17.62s-.1.07-.16.07Z"/>
        </g>
        <g id="line3806">
          <path class="cls-8" d="m288.01,224.61c-.38,0-.69-.31-.69-.69v-30.84c0-.38.31-.69.69-.69s.69.31.69.69v30.84c0,.38-.31.69-.69.69Z"/>
        </g>
        <g id="line3808">
          <path class="cls-8" d="m288.01,193.31c-.05,0-.11-.02-.15-.06l-13.55-11.81c-.1-.08-.11-.23-.02-.32.08-.1.23-.11.32-.02l13.55,11.81c.1.08.11.23.02.32-.05.05-.11.08-.17.08Z"/>
        </g>
        <g id="line3810">
          <path class="cls-8" d="m295.68,226.93h-7.67c-.13,0-.23-.1-.23-.23s.1-.23.23-.23h7.67c.13,0,.23.1.23.23s-.1.23-.23.23Z"/>
        </g>
        <g id="line3812">
          <path class="cls-8" d="m244.69,226.93h-7.39c-.13,0-.23-.1-.23-.23s.1-.23.23-.23h7.39c.13,0,.23.1.23.23s-.1.23-.23.23Z"/>
        </g>
        <g id="line3814">
          <path class="cls-8" d="m242.9,187.41h-5.59c-.13,0-.23-.1-.23-.23s.1-.23.23-.23h5.59c.13,0,.23.1.23.23s-.1.23-.23.23Z"/>
        </g>
        <g>
          <polygon class="cls-9" points="314.46 149.09 324 176.78 324 187.99 313.49 160.84 308.66 160.64 308.65 160.64 308.2 160.63 308.05 160.62 307.79 160.61 307.85 158.53 307.86 158.07 307.92 155.92 307.93 155.46 307.99 153.31 308 152.85 308.05 150.95 308.07 150.05 308.09 149.59 308.1 149.22 308.1 149.09 314.46 149.09"/>
          <path class="cls-8" d="m314.46,148.86h-6.38s-.03,0-.04.01c-.09.02-.16.11-.17.22v.5s-.03.46-.03.46l-.07,2.8v.46s-.03.61-.03.61l-.04,1.54v.46s-.07,2.15-.07,2.15v.46s-.07,2.08-.07,2.08c0,.02,0,.05.02.07.01.07.07.12.13.14.02.02.05.02.07.02h.29s.1.02.1.02h.24s.23.01.23.01l4.69.19.07.17,10.6,27.39v-1.25l-10.3-26.61c-.03-.09-.11-.14-.2-.15l-4.84-.19h-.01l-.45-.02h-.15s-.02,0-.02,0l.02-.76.03-1.1v-.46s.07-2.15.07-2.15v-.46s.05-1.56.05-1.56l.02-.59h0s.01-.45.01-.45l.07-2.84v-.39s.02-.19.02-.19v-.12h5.98l.06.16,9.64,28v-1.41l-9.32-27.05c-.03-.09-.12-.16-.22-.16Zm-6.26,1.19h-.13l-.02.9v2.36h-.06l-.06,2.15h.12v2.61h.04l.06-2.15v-.46s.05-1.56.05-1.56l.02-.59h0s.01-.45.01-.45l.07-2.84s-.06.03-.1.03Z"/>
        </g>
        <g id="line3816">
          <path class="cls-8" d="m295.68,187.41h-7.67c-.13,0-.23-.1-.23-.23s.1-.23.23-.23h7.67c.13,0,.23.1.23.23s-.1.23-.23.23Z"/>
        </g>
        <g id="path3854">
          <path class="cls-10" d="m284.67,210.68h-1.12c-.47,0-.84-.38-.84-.84v-5.35c0-.47.38-.84.84-.84h1.12c.47,0,.84.38.84.84v5.35c0,.47-.37.84-.84.84Z"/>
          <path class="cls-8" d="m284.67,210.91h-1.12c-.59,0-1.07-.48-1.07-1.07v-5.35c0-.59.48-1.07,1.07-1.07h1.12c.59,0,1.07.48,1.07,1.07v5.35c0,.59-.48,1.07-1.07,1.07Zm-1.12-7.02c-.34,0-.61.27-.61.61v5.35c0,.34.27.61.61.61h1.12c.34,0,.61-.27.61-.61v-5.35c0-.34-.27-.61-.61-.61h-1.12Z"/>
        </g>
        <g id="path3856">
          <path class="cls-10" d="m293.15,210.68h-1.12c-.47,0-.84-.38-.84-.84v-5.35c0-.47.38-.84.84-.84h1.12c.47,0,.84.38.84.84v5.35c0,.47-.37.84-.84.84Z"/>
          <path class="cls-8" d="m293.15,210.91h-1.12c-.59,0-1.07-.48-1.07-1.07v-5.35c0-.59.48-1.07,1.07-1.07h1.12c.59,0,1.07.48,1.07,1.07v5.35c0,.59-.48,1.07-1.07,1.07Zm-1.12-7.02c-.34,0-.61.27-.61.61v5.35c0,.34.27.61.61.61h1.12c.34,0,.61-.27.61-.61v-5.35c0-.34-.27-.61-.61-.61h-1.12Z"/>
        </g>
        <g id="line3858">
          <path class="cls-8" d="m293.99,205.3h-2.8c-.13,0-.23-.1-.23-.23s.1-.23.23-.23h2.8c.13,0,.23.1.23.23s-.1.23-.23.23Z"/>
        </g>
        <g id="line3860">
          <path class="cls-8" d="m293.99,209.42h-2.8c-.13,0-.23-.1-.23-.23s.1-.23.23-.23h2.8c.13,0,.23.1.23.23s-.1.23-.23.23Z"/>
        </g>
        <g id="line3862">
          <path class="cls-8" d="m285.51,205.3h-2.8c-.13,0-.23-.1-.23-.23s.1-.23.23-.23h2.8c.13,0,.23.1.23.23s-.1.23-.23.23Z"/>
        </g>
        <g id="line3864">
          <path class="cls-8" d="m285.51,209.42h-2.8c-.13,0-.23-.1-.23-.23s.1-.23.23-.23h2.8c.13,0,.23.1.23.23s-.1.23-.23.23Z"/>
        </g>
        <g id="path3866">
          <path class="cls-10" d="m268.2,252.76h0v-6.93c0-.21.17-.36.36-.36h0c1.27,0,2.31,1.04,2.31,2.31v2.32c0,1.46-1.19,2.66-2.67,2.66Z"/>
          <path class="cls-8" d="m268.2,252.99c-.13,0-.23-.1-.23-.23v-6.93c0-.33.27-.59.59-.59,1.4,0,2.54,1.14,2.54,2.54v2.32c0,1.59-1.3,2.89-2.9,2.89Zm.36-7.29c-.06,0-.13.05-.13.13v6.69c1.24-.12,2.21-1.16,2.21-2.42v-2.32c0-1.15-.93-2.08-2.08-2.08Z"/>
        </g>
        <path class="cls-9" d="m321.34,139.11l2.66,7.59v28.86l-9.14-26.54h-6.36v-13.74h7.45c2.42,0,4.59,1.54,5.39,3.83Z"/>
        <path class="cls-8" d="m315.95,134.82h-7.45c-.11,0-.22.04-.3.13-.09.06-.14.16-.15.28-.01.02-.01.03-.01.05v13.74s0,.03.01.05c0,.05.01.1.05.15.02.06.05.11.1.13.04.05.08.07.12.09.06.03.12.04.18.04h6.03l9.47,27.49v-2.82l-8.71-25.28c-.06-.18-.23-.31-.43-.31h-5.9v-12.82h6.99c2.22,0,4.22,1.42,4.96,3.52l3.09,8.82v-2.79l-2.22-6.34c-.87-2.47-3.22-4.13-5.83-4.13Z"/>
        <g id="path3872">
          <path class="cls-8" d="m314.32,160.6l9.68,24.99v2.56l-10.42-26.92h-5.07c-.1,0-.19-.03-.26-.1-.05-.02-.09-.06-.11-.11-.05-.05-.07-.11-.07-.17-.02-.02-.02-.05-.02-.08v-11.75c0-.06.01-.11.03-.16.02-.07.06-.12.12-.17.08-.08.18-.13.3-.13h.01s.09.01.14.03h.01c.13.04.23.14.27.27.03.05.04.1.04.16v11.29h4.93c.19,0,.36.12.42.29Z"/>
        </g>
        <g id="path3890">
          <path class="cls-9" d="m305.45,130.79h.18c1.42,0,2.58-1.15,2.58-2.58v-36.16c0-1.42-1.15-2.58-2.58-2.58h-.18c-1.42,0-2.58,1.15-2.58,2.58v36.16c0,1.43,1.15,2.58,2.58,2.58Z"/>
          <path class="cls-8" d="m305.63,131.25h-.18c-1.68,0-3.04-1.36-3.04-3.04v-36.16c0-1.68,1.36-3.04,3.04-3.04h.18c1.68,0,3.04,1.36,3.04,3.04v36.16c0,1.68-1.36,3.04-3.04,3.04Zm-.18-41.31c-1.17,0-2.12.95-2.12,2.12v36.16c0,1.17.95,2.12,2.12,2.12h.18c1.17,0,2.12-.95,2.12-2.12v-36.16c0-1.17-.95-2.12-2.12-2.12h-.18Z"/>
        </g>
        <g id="path3892">
          <path class="cls-9" d="m305.11,162.78h.85c1.23,0,2.24-1,2.24-2.24v-27.69c0-1.23-1-2.24-2.24-2.24h-.85c-1.23,0-2.24,1-2.24,2.24v27.69c0,1.23,1,2.24,2.24,2.24Z"/>
          <path class="cls-8" d="m305.96,163.24h-.85c-1.49,0-2.7-1.21-2.7-2.7v-27.69c0-1.49,1.21-2.7,2.7-2.7h.85c1.49,0,2.7,1.21,2.7,2.7v27.69c0,1.49-1.21,2.7-2.7,2.7Zm-.85-32.17c-.98,0-1.78.8-1.78,1.78v27.69c0,.98.8,1.78,1.78,1.78h.85c.98,0,1.78-.8,1.78-1.78v-27.69c0-.98-.8-1.78-1.78-1.78h-.85Z"/>
        </g>
        <g id="line3894">
          <path class="cls-8" d="m308.1,91.64h-5.14c-.13,0-.23-.1-.23-.23s.1-.23.23-.23h5.14c.13,0,.23.1.23.23s-.1.23-.23.23Z"/>
        </g>
        <g id="line3896">
          <path class="cls-8" d="m308.1,93.6h-5.14c-.13,0-.23-.1-.23-.23s.1-.23.23-.23h5.14c.13,0,.23.1.23.23s-.1.23-.23.23Z"/>
        </g>
        <g id="line3898">
          <path class="cls-8" d="m308.1,96.21h-5.14c-.13,0-.23-.1-.23-.23s.1-.23.23-.23h5.14c.13,0,.23.1.23.23s-.1.23-.23.23Z"/>
        </g>
        <g id="line3900">
          <path class="cls-8" d="m308.1,99.47h-5.14c-.13,0-.23-.1-.23-.23s.1-.23.23-.23h5.14c.13,0,.23.1.23.23s-.1.23-.23.23Z"/>
        </g>
        <g id="line3902">
          <path class="cls-8" d="m308.1,102.74h-5.14c-.13,0-.23-.1-.23-.23s.1-.23.23-.23h5.14c.13,0,.23.1.23.23s-.1.23-.23.23Z"/>
        </g>
        <g id="line3904">
          <path class="cls-8" d="m308.1,106.65h-5.14c-.13,0-.23-.1-.23-.23s.1-.23.23-.23h5.14c.13,0,.23.1.23.23s-.1.23-.23.23Z"/>
        </g>
        <g id="line3906">
          <path class="cls-8" d="m308.1,111.22h-5.14c-.13,0-.23-.1-.23-.23s.1-.23.23-.23h5.14c.13,0,.23.1.23.23s-.1.23-.23.23Z"/>
        </g>
        <g id="line3908">
          <path class="cls-8" d="m308.1,115.14h-5.14c-.13,0-.23-.1-.23-.23s.1-.23.23-.23h5.14c.13,0,.23.1.23.23s-.1.23-.23.23Z"/>
        </g>
        <g id="line3910">
          <path class="cls-8" d="m308.1,118.4h-5.14c-.13,0-.23-.1-.23-.23s.1-.23.23-.23h5.14c.13,0,.23.1.23.23s-.1.23-.23.23Z"/>
        </g>
        <g id="line3912">
          <path class="cls-8" d="m308.1,121.66h-5.14c-.13,0-.23-.1-.23-.23s.1-.23.23-.23h5.14c.13,0,.23.1.23.23s-.1.23-.23.23Z"/>
        </g>
        <g id="line3914">
          <path class="cls-8" d="m308.1,124.93h-5.14c-.13,0-.23-.1-.23-.23s.1-.23.23-.23h5.14c.13,0,.23.1.23.23s-.1.23-.23.23Z"/>
        </g>
        <g id="line3916">
          <path class="cls-8" d="m308.1,127.54h-5.14c-.13,0-.23-.1-.23-.23s.1-.23.23-.23h5.14c.13,0,.23.1.23.23s-.1.23-.23.23Z"/>
        </g>
        <g id="line3918">
          <path class="cls-8" d="m308.1,129.5h-5.14c-.13,0-.23-.1-.23-.23s.1-.23.23-.23h5.14c.13,0,.23.1.23.23s-.1.23-.23.23Z"/>
        </g>
        <g id="line3920">
          <path class="cls-8" d="m308.19,133.08h-5.33c-.13,0-.23-.1-.23-.23s.1-.23.23-.23h5.33c.13,0,.23.1.23.23s-.1.23-.23.23Z"/>
        </g>
        <path class="cls-7" d="m296.93,164.18h-125.21c-3.39,0-6.14-2.75-6.14-6.14v-79.58c0-3.39,2.75-6.14,6.14-6.14h125.21c3.39,0,6.14,2.75,6.14,6.14v79.58c-.01,3.39-2.76,6.14-6.14,6.14Z"/>
        <path class="cls-8" d="m296.93,164.87h-125.21c-3.77,0-6.83-3.07-6.83-6.83v-79.58c0-3.77,3.06-6.83,6.83-6.83h125.21c3.77,0,6.83,3.06,6.83,6.83v79.58c-.01,3.77-3.08,6.83-6.83,6.83Zm-125.21-91.87c-3.01,0-5.45,2.45-5.45,5.45v79.58c0,3.01,2.45,5.45,5.45,5.45h125.21c3,0,5.45-2.45,5.45-5.46v-79.58c0-3.01-2.45-5.45-5.45-5.45h-125.21Z"/>
        <g id="line3922">
          <path class="cls-8" d="m308.19,135.69h-5.33c-.13,0-.23-.1-.23-.23s.1-.23.23-.23h5.33c.13,0,.23.1.23.23s-.1.23-.23.23Z"/>
        </g>
        <g id="polyline3958">
          <polygon class="cls-11" points="190.93 83.68 175.63 64.88 166.12 65.61 184.8 86.69 190.93 83.68"/>
          <path class="cls-8" d="m184.8,87.15c-.13,0-.25-.05-.34-.15l-18.68-21.09c-.12-.13-.15-.32-.08-.48.07-.16.22-.27.39-.29l9.51-.73c.16,0,.3.05.39.17l15.3,18.8c.16.2.13.49-.07.65-.2.16-.49.13-.65-.07l-15.14-18.61-8.35.64,18.07,20.39c.17.19.15.48-.04.65-.09.08-.2.12-.3.12Z"/>
        </g>
        <g id="line3924">
          <path class="cls-8" d="m308.19,138.95h-5.33c-.13,0-.23-.1-.23-.23s.1-.23.23-.23h5.33c.13,0,.23.1.23.23s-.1.23-.23.23Z"/>
        </g>
        <g id="path3736">
          <path class="cls-8" d="m217.51,64.59l-47.42,5.3c-.26.03-.49-.16-.52-.41l-2.96-3.5c-.03-.26-.69-.88-.43-.91l50.77-5.38c.26-.03.49.16.52.41l.45,3.99c.03.25-.16.49-.41.51Z"/>
          <path class="cls-8" d="m170.03,70.13c-.15,0-.3-.05-.42-.15-.13-.1-.22-.24-.25-.4l-2.92-3.46s-.05-.08-.05-.12c-.01-.06-.14-.24-.22-.35-.19-.27-.33-.46-.25-.65.04-.09.13-.16.24-.17l50.78-5.38c.18-.02.37.03.51.15.14.12.24.28.26.47l.45,3.99c.02.18-.03.37-.15.51-.12.15-.29.23-.47.25l-47.41,5.3s-.06,0-.08,0Zm-3.21-4.26l2.93,3.46s.05.08.05.12c0,.07.04.13.09.17.05.04.11.05.17.05l47.42-5.3s0,0,0,0c.06,0,.12-.03.16-.08.04-.05.06-.11.05-.17l-.45-3.99c0-.06-.04-.12-.09-.16-.05-.04-.12-.05-.17-.05l-50.53,5.36s.06.09.09.12c.12.17.24.33.28.48Z"/>
        </g>
        <g id="polygon3960">
          <polygon class="cls-11" points="205.61 78.24 207.18 77.39 208.54 78.54 210.18 77.87 211.4 79.16 213.11 78.66 214.2 80.07 215.95 79.75 216.88 81.26 218.67 81.12 219.43 82.73 221.22 82.78 221.81 84.46 223.58 84.7 223.99 86.43 225.72 86.84 225.96 88.61 227.64 89.2 227.69 90.99 229.3 91.75 229.16 93.53 230.67 94.47 230.35 96.22 231.76 97.31 231.26 99.02 232.55 100.24 231.88 101.88 233.03 103.24 232.18 104.81 233.18 106.28 232.18 107.75 233.03 109.31 231.88 110.67 232.55 112.32 231.26 113.55 231.76 115.25 230.35 116.34 230.67 118.09 229.15 119.02 229.3 120.8 227.69 121.57 227.64 123.35 225.96 123.95 225.72 125.71 223.99 126.13 223.58 127.86 221.81 128.09 221.22 129.77 219.43 129.82 218.66 131.43 216.88 131.3 215.95 132.81 214.2 132.49 213.11 133.9 211.4 133.4 210.18 134.68 208.54 134.01 207.18 135.16 205.61 134.31 204.14 135.32 202.67 134.31 201.11 135.16 199.75 134.01 198.1 134.68 196.87 133.4 195.16 133.9 194.07 132.49 192.32 132.81 191.39 131.3 189.62 131.43 188.85 129.82 187.07 129.77 186.47 128.09 184.71 127.86 184.28 126.13 182.55 125.71 182.33 123.94 180.65 123.35 180.6 121.57 178.99 120.8 179.12 119.02 177.61 118.09 177.93 116.34 176.52 115.25 177.02 113.54 175.74 112.32 176.41 110.67 175.26 109.31 176.11 107.75 175.09 106.28 176.11 104.81 175.26 103.24 176.41 101.88 175.74 100.24 177.02 99 176.52 97.3 177.93 96.22 177.61 94.47 179.12 93.52 178.99 91.75 180.6 90.99 180.65 89.2 182.33 88.6 182.56 86.84 184.29 86.43 184.71 84.69 186.48 84.46 187.07 82.78 188.85 82.73 189.62 81.12 191.4 81.26 192.33 79.75 194.08 80.07 195.17 78.66 196.88 79.16 198.1 77.87 199.75 78.54 201.11 77.39 202.67 78.24 204.14 77.23 205.61 78.24"/>
          <path class="cls-8" d="m204.14,135.77c-.09,0-.18-.03-.26-.08l-1.24-.85-1.32.72c-.17.09-.37.07-.52-.05l-1.14-.97-1.39.57c-.17.07-.37.03-.5-.11l-1.04-1.08-1.44.42c-.18.06-.38-.01-.49-.16l-.92-1.19-1.48.27c-.19.03-.37-.05-.47-.21l-.79-1.27-1.49.11c-.2.02-.37-.09-.45-.26l-.65-1.35-1.5-.04c-.19,0-.36-.13-.42-.3l-.51-1.41-1.49-.2c-.19-.02-.34-.16-.38-.35l-.36-1.46-1.46-.35c-.19-.04-.32-.2-.35-.39l-.19-1.49-1.41-.5c-.18-.06-.3-.23-.31-.42l-.04-1.5-1.35-.65c-.17-.08-.27-.26-.26-.45l.11-1.5-1.27-.79c-.16-.1-.24-.29-.21-.47l.27-1.48-1.19-.92c-.15-.12-.21-.31-.16-.49l.42-1.44-1.08-1.03c-.14-.13-.18-.33-.11-.51l.57-1.39-.97-1.14c-.12-.14-.14-.35-.05-.52l.71-1.32-.85-1.24c-.11-.16-.11-.36,0-.52l.85-1.24-.71-1.32c-.09-.17-.07-.37.05-.52l.97-1.14-.57-1.39c-.07-.17-.03-.37.11-.5l1.08-1.04-.42-1.44c-.05-.18.01-.38.16-.49l1.19-.91-.27-1.47c-.03-.19.05-.37.21-.47l1.28-.8-.11-1.49c-.01-.19.09-.37.26-.45l1.35-.65.04-1.5c0-.19.13-.36.3-.42l1.42-.51.2-1.48c.02-.19.16-.34.35-.39l1.46-.35.35-1.47c.04-.19.2-.33.39-.35l1.49-.19.5-1.41c.06-.18.23-.3.42-.31l1.5-.04.65-1.35c.08-.17.25-.28.45-.26l1.5.11.79-1.27c.1-.16.29-.25.47-.21l1.48.27.92-1.19c.12-.15.31-.22.49-.16l1.44.42,1.03-1.08c.13-.14.33-.18.51-.11l1.39.57,1.14-.97c.14-.12.35-.14.52-.05l1.32.72,1.24-.86c.16-.11.36-.11.52,0l1.24.86,1.32-.72c.17-.09.37-.07.52.05l1.14.97,1.39-.57c.17-.07.38-.03.51.11l1.03,1.08,1.44-.42c.18-.05.38.01.49.16l.92,1.19,1.48-.27c.18-.04.37.05.47.21l.79,1.27,1.5-.11c.2-.02.37.09.45.26l.65,1.35,1.5.04c.19,0,.36.13.42.31l.5,1.41,1.49.2c.19.02.34.16.39.35l.35,1.46,1.46.35c.19.04.32.2.35.39l.2,1.49,1.41.5c.18.06.3.23.31.42l.04,1.5,1.35.65c.17.08.27.26.26.45l-.11,1.5,1.27.79c.16.1.24.29.21.47l-.27,1.48,1.19.92c.15.12.21.31.16.49l-.42,1.44,1.08,1.03c.14.13.18.33.11.51l-.57,1.39.97,1.14c.12.14.14.35.05.52l-.72,1.32.85,1.24c.11.16.11.36,0,.52l-.85,1.24.72,1.32c.09.17.07.37-.05.52l-.97,1.14.57,1.39c.07.17.03.37-.11.5l-1.08,1.04.42,1.43c.05.18-.01.38-.16.49l-1.19.92.27,1.48c.03.19-.05.38-.21.47l-1.28.79.12,1.5c.02.19-.09.37-.26.45l-1.35.65-.04,1.5c0,.19-.13.36-.3.42l-1.41.51-.2,1.48c-.02.19-.16.34-.35.39l-1.46.35-.35,1.46c-.04.18-.2.32-.39.35l-1.49.2-.5,1.41c-.06.18-.23.3-.42.31l-1.5.04-.65,1.36c-.08.17-.25.28-.45.26l-1.49-.11-.79,1.27c-.1.16-.29.24-.47.21l-1.48-.27-.92,1.19c-.12.15-.31.22-.49.16l-1.44-.42-1.03,1.08c-.13.14-.33.18-.51.11l-1.39-.57-1.14.97c-.14.12-.35.14-.52.05l-1.32-.72-1.24.85c-.08.05-.17.08-.26.08Zm-1.47-1.92c.09,0,.18.03.26.08l1.21.83,1.21-.83c.14-.1.33-.11.48-.02l1.29.7,1.12-.95c.13-.11.31-.14.47-.07l1.36.55,1.01-1.06c.12-.12.3-.17.46-.12l1.41.41.9-1.16c.11-.14.28-.2.45-.17l1.44.27.77-1.25c.09-.15.25-.24.43-.22l1.46.11.64-1.32c.07-.15.23-.25.4-.26l1.47-.04.49-1.38c.06-.16.2-.28.37-.3l1.46-.2.34-1.42c.04-.17.17-.3.34-.34l1.42-.34.2-1.45c.02-.17.14-.31.3-.37l1.38-.5.04-1.47c0-.17.11-.33.26-.4l1.32-.63-.12-1.47c-.01-.17.07-.34.22-.43l1.25-.77-.26-1.44c-.03-.17.04-.34.17-.45l1.16-.9-.41-1.4c-.05-.16,0-.34.12-.46l1.06-1.02-.56-1.36c-.06-.16-.04-.34.07-.47l.95-1.12-.7-1.29c-.08-.15-.07-.34.02-.48l.83-1.21-.83-1.21c-.1-.14-.11-.33-.02-.48l.7-1.29-.95-1.12c-.11-.13-.14-.31-.07-.47l.55-1.36-1.06-1.01c-.12-.12-.17-.3-.12-.46l.41-1.41-1.16-.9c-.14-.11-.2-.28-.17-.45l.26-1.44-1.25-.77c-.15-.09-.23-.25-.22-.43l.11-1.47-1.32-.63c-.16-.07-.26-.23-.26-.4l-.04-1.47-1.38-.49c-.16-.06-.28-.2-.3-.37l-.2-1.46-1.42-.34c-.17-.04-.3-.17-.34-.34l-.34-1.42-1.46-.2c-.17-.02-.31-.14-.37-.3l-.49-1.38-1.47-.04c-.17,0-.33-.11-.4-.26l-.63-1.32-1.47.11c-.18.02-.34-.07-.43-.22l-.77-1.25-1.44.27c-.17.03-.34-.03-.45-.17l-.9-1.16-1.41.41c-.16.05-.34,0-.46-.12l-1.01-1.06-1.36.55c-.16.06-.34.04-.47-.07l-1.12-.95-1.29.7c-.15.08-.34.07-.48-.03l-1.21-.84-1.21.84c-.14.1-.33.11-.48.03l-1.29-.7-1.12.95c-.13.11-.31.14-.47.07l-1.36-.55-1.01,1.06c-.12.12-.3.17-.46.12l-1.41-.41-.9,1.16c-.11.14-.28.2-.45.17l-1.44-.27-.77,1.25c-.09.15-.25.24-.43.22l-1.47-.11-.63,1.32c-.07.16-.23.26-.4.26l-1.47.04-.49,1.38c-.06.16-.2.28-.38.3l-1.46.19-.34,1.43c-.04.17-.17.3-.34.34l-1.42.34-.2,1.45c-.02.17-.14.31-.3.37l-1.38.5-.04,1.47c0,.17-.11.33-.26.4l-1.32.63.11,1.46c.01.17-.07.33-.21.42l-1.25.78.26,1.44c.03.17-.04.34-.17.45l-1.16.89.41,1.41c.05.16,0,.34-.12.46l-1.06,1.02.56,1.36c.06.16.04.34-.07.47l-.95,1.12.7,1.29c.08.15.07.34-.03.48l-.83,1.21.83,1.21c.1.14.11.33.03.48l-.7,1.29.95,1.12c.11.13.14.31.07.47l-.55,1.36,1.06,1.01c.12.12.17.3.12.46l-.41,1.41,1.16.9c.14.11.2.28.17.45l-.26,1.44,1.25.77c.15.09.23.25.22.43l-.11,1.47,1.32.63c.16.07.26.23.26.4l.04,1.47,1.38.49c.16.06.28.2.3.38l.19,1.46,1.42.34c.17.04.3.17.34.34l.35,1.43,1.45.2c.17.02.31.14.37.3l.5,1.38,1.47.04c.17,0,.33.11.4.26l.63,1.32,1.46-.11c.18-.02.34.07.43.22l.77,1.25,1.44-.27c.17-.03.34.04.45.17l.9,1.16,1.41-.41c.16-.05.34,0,.46.12l1.02,1.06,1.36-.56c.16-.06.34-.04.47.07l1.12.95,1.29-.7c.07-.04.14-.06.22-.06Z"/>
        </g>
        <g id="line3926">
          <path class="cls-8" d="m308.19,142.22h-5.33c-.13,0-.23-.1-.23-.23s.1-.23.23-.23h5.33c.13,0,.23.1.23.23s-.1.23-.23.23Z"/>
        </g>
        <g id="line3928">
          <path class="cls-8" d="m308.19,146.13h-5.33c-.13,0-.23-.1-.23-.23s.1-.23.23-.23h5.33c.13,0,.23.1.23.23s-.1.23-.23.23Z"/>
        </g>
        <g id="line3930">
          <path class="cls-8" d="m308.19,150.05h-5.33c-.13,0-.23-.1-.23-.23s.1-.23.23-.23h5.33c.13,0,.23.1.23.23s-.1.23-.23.23Z"/>
        </g>
        <g id="line3932">
          <path class="cls-8" d="m308.19,153.31h-5.33c-.13,0-.23-.1-.23-.23s.1-.23.23-.23h5.33c.13,0,.23.1.23.23s-.1.23-.23.23Z"/>
        </g>
        <g id="line3934">
          <path class="cls-8" d="m308.19,155.92h-5.33c-.13,0-.23-.1-.23-.23s.1-.23.23-.23h5.33c.13,0,.23.1.23.23s-.1.23-.23.23Z"/>
        </g>
        <g id="line3936">
          <path class="cls-8" d="m308.19,158.53h-5.33c-.13,0-.23-.1-.23-.23s.1-.23.23-.23h5.33c.13,0,.23.1.23.23s-.1.23-.23.23Z"/>
        </g>
        <g id="line3938">
          <path class="cls-8" d="m308.19,161.14h-5.33c-.13,0-.23-.1-.23-.23s.1-.23.23-.23h5.33c.13,0,.23.1.23.23s-.1.23-.23.23Z"/>
        </g>
        <g id="path3942">
          <path class="cls-8" d="m248.51,64.59l47.42,5.29c.26.03.49-.16.52-.41l.45-3.99c.03-.26-.16-.49-.41-.52l-47.42-5.29c-.26-.03-.49.16-.52.41l-.45,3.99c-.02.26.17.5.41.52Z"/>
          <path class="cls-8" d="m295.98,70.12s-.05,0-.08,0l-47.41-5.29c-.37-.03-.65-.38-.62-.77l.44-4c.05-.39.4-.67.77-.62l47.41,5.29c.19.02.36.12.47.26.11.15.16.33.14.51l-.44,3.99c-.04.36-.35.62-.69.62Zm-46.98-10.22c-.05,0-.1.02-.15.05-.05.04-.08.1-.09.17l-.44,3.99c-.01.13.08.25.2.26h0l47.42,5.29c.13.02.25-.08.26-.21l.44-3.99c0-.06,0-.12-.05-.17-.04-.05-.1-.08-.17-.09l-47.42-5.29s-.02,0-.03,0Z"/>
        </g>
        <g id="polyline3944">
          <polygon class="cls-11" points="276.77 81.9 288.39 69.04 295.93 69.89 281.74 86.43 276.77 81.9"/>
          <path class="cls-8" d="m281.74,86.89c-.11,0-.21-.04-.3-.11-.19-.17-.21-.46-.05-.65l13.63-15.88-6.45-.73-11.46,12.68c-.17.19-.46.2-.65.03-.19-.17-.2-.46-.03-.65l11.61-12.86c.1-.11.25-.17.39-.15l7.54.85c.17.02.31.13.38.29.06.16.03.34-.08.47l-14.19,16.53c-.09.11-.22.16-.35.16Z"/>
        </g>
        <g id="circle3946">
          <circle class="cls-8" cx="204.38" cy="106.91" r="9.62"/>
          <path class="cls-8" d="m204.38,116.76c-5.43,0-9.85-4.42-9.85-9.85s4.42-9.85,9.85-9.85,9.85,4.42,9.85,9.85-4.42,9.85-9.85,9.85Zm0-19.25c-5.18,0-9.39,4.21-9.39,9.39s4.21,9.39,9.39,9.39,9.39-4.21,9.39-9.39-4.21-9.39-9.39-9.39Z"/>
        </g>
        <g id="polygon3948">
          <polygon class="cls-11" points="262.23 78.2 263.75 77.27 265.16 78.36 266.78 77.59 268.06 78.81 269.75 78.22 270.9 79.58 272.64 79.17 273.65 80.63 275.42 80.4 276.27 81.96 278.05 81.92 278.73 83.56 280.5 83.7 281.01 85.41 282.76 85.74 283.09 87.5 284.8 88 284.95 89.77 286.58 90.46 286.54 92.24 288.11 93.09 287.88 94.86 289.34 95.87 288.93 97.61 290.28 98.76 289.69 100.44 290.92 101.73 290.15 103.35 291.24 104.75 290.3 106.28 291.24 107.8 290.15 109.21 290.92 110.83 289.69 112.11 290.28 113.8 288.93 114.95 289.34 116.69 287.88 117.69 288.11 119.47 286.54 120.31 286.58 122.1 284.95 122.78 284.8 124.55 283.09 125.06 282.76 126.81 281.01 127.14 280.5 128.85 278.73 128.99 278.05 130.63 276.27 130.59 275.42 132.16 273.65 131.93 272.64 133.39 270.9 132.97 269.75 134.33 268.06 133.74 266.78 134.96 265.16 134.2 263.75 135.28 262.23 134.35 260.71 135.28 259.3 134.2 257.68 134.96 256.4 133.74 254.71 134.33 253.56 132.97 251.82 133.39 250.81 131.93 249.04 132.16 248.19 130.59 246.41 130.63 245.73 128.99 243.95 128.85 243.45 127.14 241.7 126.81 241.36 125.06 239.66 124.55 239.52 122.78 237.87 122.1 237.92 120.31 236.35 119.47 236.58 117.69 235.12 116.69 235.53 114.95 234.18 113.8 234.77 112.11 233.54 110.83 234.31 109.21 233.22 107.8 234.15 106.28 233.22 104.75 234.31 103.35 233.54 101.73 234.77 100.44 234.18 98.76 235.53 97.61 235.12 95.87 236.58 94.86 236.35 93.09 237.92 92.24 237.87 90.46 239.52 89.77 239.66 88 241.36 87.5 241.7 85.74 243.45 85.41 243.95 83.7 245.73 83.56 246.41 81.92 248.19 81.96 249.04 80.4 250.81 80.63 251.82 79.17 253.56 79.58 254.71 78.22 256.4 78.81 257.68 77.59 259.3 78.36 260.71 77.27 262.23 78.2"/>
          <path class="cls-8" d="m263.75,135.74c-.08,0-.17-.02-.24-.07l-1.28-.79-1.28.79c-.16.1-.37.09-.52-.03l-1.19-.92-1.36.65c-.17.08-.38.05-.51-.08l-1.08-1.03-1.42.5c-.18.06-.38,0-.5-.14l-.97-1.14-1.47.35c-.18.04-.38-.03-.48-.19l-.85-1.23-1.49.19c-.19.02-.37-.07-.46-.24l-.72-1.32-1.5.03c-.18,0-.36-.11-.43-.28l-.58-1.39-1.49-.11c-.19-.01-.35-.14-.4-.33l-.43-1.44-1.48-.28c-.19-.04-.33-.18-.37-.37l-.28-1.48-1.44-.43c-.18-.05-.31-.21-.33-.4l-.11-1.49-1.39-.58c-.18-.07-.29-.25-.28-.43l.03-1.5-1.32-.72c-.17-.09-.26-.27-.24-.46l.19-1.49-1.23-.85c-.16-.11-.23-.3-.19-.48l.35-1.47-1.14-.97c-.15-.12-.2-.32-.14-.5l.5-1.42-1.03-1.08c-.13-.14-.16-.34-.08-.51l.65-1.36-.92-1.19c-.12-.15-.13-.36-.03-.52l.79-1.28-.79-1.28c-.1-.16-.09-.37.03-.52l.92-1.19-.65-1.36c-.08-.17-.05-.38.08-.51l1.03-1.08-.5-1.42c-.06-.18,0-.38.14-.5l1.14-.97-.35-1.47c-.04-.18.03-.38.19-.48l1.23-.85-.19-1.49c-.02-.19.07-.37.24-.46l1.32-.72-.03-1.5c0-.19.11-.36.28-.43l1.39-.58.11-1.49c.01-.19.14-.35.33-.4l1.44-.43.28-1.48c.04-.19.18-.33.37-.37l1.48-.28.43-1.44c.05-.18.21-.31.4-.33l1.49-.12.58-1.38c.07-.17.25-.3.43-.28l1.5.03.72-1.32c.09-.17.27-.26.46-.24l1.49.19.85-1.23c.11-.16.3-.23.49-.19l1.47.35.97-1.14c.12-.14.32-.2.5-.14l1.42.5,1.08-1.03c.14-.13.34-.16.51-.08l1.36.65,1.19-.92c.15-.12.36-.13.52-.03l1.28.79,1.28-.79c.16-.1.37-.09.52.03l1.19.92,1.36-.65c.17-.08.38-.05.51.08l1.08,1.03,1.42-.5c.18-.06.38,0,.5.14l.97,1.14,1.47-.35c.18-.04.38.03.49.19l.84,1.23,1.49-.19c.19-.02.37.07.46.24l.72,1.32,1.5-.03c.19-.01.36.11.43.28l.58,1.38,1.49.12c.19.02.35.15.4.33l.43,1.44,1.48.28c.19.04.33.18.37.37l.28,1.48,1.44.43c.18.05.31.21.33.4l.12,1.49,1.38.58c.17.07.29.24.28.43l-.03,1.5,1.32.72c.17.09.26.27.24.46l-.19,1.49,1.23.85c.16.11.23.3.19.48l-.35,1.47,1.14.97c.15.12.2.32.14.5l-.5,1.42,1.03,1.08c.13.14.16.34.08.51l-.65,1.36.92,1.19c.12.15.13.36.03.52l-.79,1.28.79,1.28c.1.16.09.37-.03.52l-.92,1.19.65,1.36c.08.17.05.38-.08.51l-1.03,1.08.5,1.42c.06.18,0,.38-.14.5l-1.14.97.35,1.47c.04.18-.03.38-.19.48l-1.23.85.19,1.49c.02.19-.07.37-.24.46l-1.32.72.03,1.5c0,.19-.11.36-.28.43l-1.38.58-.12,1.49c-.02.19-.15.35-.33.4l-1.44.43-.28,1.48c-.04.19-.18.33-.37.37l-1.48.28-.43,1.44c-.05.18-.21.31-.4.33l-1.49.11-.58,1.39c-.07.17-.25.28-.43.28l-1.5-.03-.72,1.32c-.09.17-.27.26-.46.24l-1.49-.19-.84,1.23c-.11.16-.3.23-.48.19l-1.47-.35-.97,1.14c-.12.14-.32.2-.5.14l-1.42-.5-1.08,1.03c-.14.13-.34.16-.51.08l-1.36-.65-1.19.92c-.08.06-.18.1-.28.1Zm-4.45-2.01c.1,0,.2.03.28.1l1.16.89,1.25-.77c.15-.09.33-.09.48,0l1.25.77,1.16-.89c.14-.11.32-.13.48-.05l1.33.63,1.06-1c.12-.12.3-.16.47-.1l1.39.49.95-1.12c.11-.13.29-.19.46-.15l1.43.34.83-1.2c.1-.14.26-.21.44-.2l1.46.19.7-1.29c.08-.15.23-.24.41-.24l1.47.03.56-1.36c.07-.16.22-.27.39-.28l1.46-.11.42-1.41c.05-.16.19-.29.35-.32l1.44-.27.27-1.44c.03-.17.16-.31.32-.35l1.41-.42.12-1.46c.01-.17.12-.32.28-.39l1.35-.56-.03-1.47c0-.17.09-.33.24-.41l1.29-.7-.19-1.46c-.02-.17.05-.34.2-.44l1.2-.83-.34-1.43c-.04-.17.02-.34.15-.46l1.12-.95-.49-1.39c-.06-.16-.02-.34.1-.47l1-1.06-.63-1.33c-.07-.16-.05-.34.05-.48l.89-1.16-.77-1.25c-.09-.15-.09-.33,0-.48l.77-1.25-.89-1.16c-.11-.14-.13-.32-.05-.48l.63-1.33-1-1.06c-.12-.13-.16-.31-.1-.47l.49-1.39-1.12-.95c-.13-.11-.19-.29-.15-.46l.34-1.43-1.2-.83c-.14-.1-.22-.27-.2-.44l.19-1.46-1.29-.7c-.15-.08-.24-.24-.24-.41l.03-1.47-1.35-.56c-.16-.07-.27-.21-.28-.39l-.12-1.46-1.41-.42c-.16-.05-.29-.19-.32-.35l-.27-1.44-1.44-.27c-.17-.03-.31-.16-.35-.32l-.42-1.41-1.46-.12c-.17-.01-.32-.12-.39-.28l-.56-1.35-1.47.03c-.18,0-.33-.09-.41-.24l-.7-1.29-1.46.19c-.18.02-.34-.05-.44-.2l-.83-1.2-1.43.34c-.17.04-.35-.02-.46-.15l-.95-1.12-1.39.49c-.16.06-.34.02-.47-.1l-1.06-1-1.33.63c-.16.07-.34.05-.48-.05l-1.16-.89-1.25.77c-.15.09-.33.09-.48,0l-1.25-.77-1.16.89c-.14.11-.32.13-.48.05l-1.33-.63-1.06,1c-.12.12-.3.16-.47.1l-1.39-.49-.95,1.12c-.11.13-.29.19-.46.15l-1.43-.34-.83,1.2c-.1.14-.26.21-.44.2l-1.46-.19-.7,1.29c-.08.15-.25.24-.41.24l-1.47-.03-.56,1.35c-.07.16-.21.27-.39.28l-1.46.12-.42,1.41c-.05.16-.19.29-.35.32l-1.44.27-.27,1.44c-.03.17-.16.31-.32.35l-1.41.42-.11,1.46c-.01.17-.12.32-.28.39l-1.36.56.03,1.47c0,.17-.09.33-.24.41l-1.29.7.19,1.46c.02.17-.05.34-.2.44l-1.2.83.34,1.43c.04.17-.02.34-.15.46l-1.12.95.49,1.39c.06.16.02.34-.1.47l-1,1.06.63,1.33c.07.16.05.34-.05.48l-.89,1.16.77,1.25c.09.15.09.33,0,.48l-.77,1.25.89,1.16c.11.14.13.32.05.48l-.63,1.33,1,1.06c.12.13.16.31.1.47l-.49,1.39,1.12.95c.13.11.19.29.15.46l-.34,1.43,1.2.83c.14.1.22.27.2.44l-.19,1.46,1.29.7c.15.08.24.24.24.41l-.03,1.47,1.36.56c.16.07.27.22.28.39l.11,1.46,1.41.42c.16.05.29.19.32.35l.27,1.44,1.44.27c.17.03.31.16.35.32l.42,1.41,1.46.11c.17.01.32.12.39.28l.56,1.36,1.47-.03c.16,0,.33.09.41.24l.7,1.29,1.46-.19c.18-.02.34.05.44.2l.83,1.2,1.43-.34c.16-.04.34.02.46.15l.95,1.12,1.39-.49c.16-.06.34-.02.47.1l1.06,1,1.33-.63c.06-.03.13-.04.2-.04Z"/>
        </g>
        <g id="circle3950">
          <circle class="cls-8" cx="262.48" cy="106.91" r="9.62"/>
          <path class="cls-8" d="m262.48,116.76c-5.43,0-9.85-4.42-9.85-9.85s4.42-9.85,9.85-9.85,9.85,4.42,9.85,9.85-4.42,9.85-9.85,9.85Zm0-19.25c-5.18,0-9.39,4.21-9.39,9.39s4.21,9.39,9.39,9.39,9.39-4.21,9.39-9.39-4.21-9.39-9.39-9.39Z"/>
        </g>
        <g id="circle3952">
          <circle class="cls-11" cx="202.61" cy="102.97" r="2.42"/>
          <path class="cls-8" d="m202.61,105.63c-1.46,0-2.65-1.19-2.65-2.65s1.19-2.65,2.65-2.65,2.65,1.19,2.65,2.65-1.19,2.65-2.65,2.65Zm0-4.85c-1.21,0-2.19.98-2.19,2.19s.98,2.19,2.19,2.19,2.19-.98,2.19-2.19-.98-2.19-2.19-2.19Z"/>
        </g>
        <g id="circle3954">
          <circle class="cls-11" cx="259.39" cy="102.97" r="2.42"/>
          <path class="cls-8" d="m259.39,105.63c-1.46,0-2.65-1.19-2.65-2.65s1.19-2.65,2.65-2.65,2.65,1.19,2.65,2.65-1.19,2.65-2.65,2.65Zm0-4.85c-1.21,0-2.19.98-2.19,2.19s.98,2.19,2.19,2.19,2.19-.98,2.19-2.19-.98-2.19-2.19-2.19Z"/>
        </g>
        <g id="path3736-2" data-name="path3736">
          <path class="cls-8" d="m248.09,63.99l.45-3.99c.03-.26.26-.45.52-.41l50.77,5.38c.26.03-.4.66-.43.91l-3.81,4.95c-.03.26.59-1,.33-1.03l-47.42-5.3c-.26-.02-.45-.26-.41-.51Z"/>
          <path class="cls-8" d="m295.59,71.1s-.01,0-.02,0c-.13-.01-.22-.16-.21-.29,0-.04.02-.08.05-.11l.15-.2c.07-.16.15-.35.18-.48l-47.26-5.29c-.18-.01-.35-.1-.47-.25-.12-.14-.17-.33-.15-.51l.44-3.99c.02-.19.12-.36.26-.47.14-.11.32-.17.51-.14l50.77,5.38c.11.01.2.08.24.17.08.19-.05.39-.25.65-.08.11-.21.29-.22.35,0,.03-.02.08-.05.11l-3.63,4.72c-.1.2-.22.36-.36.36Zm-46.59-11.28c-.05,0-.1.02-.14.05-.05.04-.08.1-.09.17l-.44,3.99s0,0,0,0c0,.06.01.12.05.17.04.05.09.08.16.08l47.42,5.3s.15.02.22.14l3.02-3.93c.04-.15.16-.31.29-.49.03-.04.06-.08.09-.12l-50.53-5.36s-.02,0-.03,0Zm-.91,4.18h0,0Z"/>
        </g>
        <g id="path3654">
          <path class="cls-9" d="m224.51,321.97l-.02.92-.03,1.11h-57.14c.23-1.16,1.25-2.02,2.46-2.02h37.59s17.14-.01,17.14-.01Z"/>
          <path class="cls-8" d="m179.05,321.98c0,.38-.31.69-.69.69h-8.58c-.83,0-1.54.55-1.74,1.33h-1.42c.22-1.55,1.56-2.71,3.16-2.71h8.58c.38,0,.69.31.69.69Z"/>
          <path class="cls-8" d="m225.2,321.99l-.05,2.01h-1.38v-.16l.03-1.18.02-.69h0c.01-.39.32-.69.69-.69,0,0,.01,0,.02.01.03,0,.06,0,.09.01.25.03.46.21.54.45h0c.03.08.04.16.04.24Z"/>
        </g>
        <g id="line3662">
          <path class="cls-8" d="m208.16,321.97h0c0,.13-.04.25-.1.35-.12.2-.34.34-.59.34h-15.95c-.14,0-.28-.05-.39-.12-.18-.12-.3-.33-.3-.56,0-.25.13-.46.32-.58.11-.07.23-.11.36-.11h15.95c.25,0,.47.13.58.33.07.1.11.23.11.35Z"/>
        </g>
        <g id="path3654-2" data-name="path3654">
          <path class="cls-9" d="m299.95,324h-56.98l-.04-1.31v-.19h32.58s22.16.01,22.16.01c1.01,0,1.9.61,2.28,1.49Z"/>
          <path class="cls-8" d="m243.66,324h-1.38l-.04-1.48c0-.22.1-.41.25-.55.11-.09.27-.15.43-.15h.02c.11,0,.22.02.31.08,0,.01.01.01.01.01.2.1.34.31.37.55v.04l.02,1.14h0s0,.36,0,.36Z"/>
          <path class="cls-8" d="m300.7,324h-1.54c-.31-.49-.86-.81-1.49-.81h-8.59c-.37,0-.68-.29-.69-.68h0c0-.38.32-.69.69-.69h8.59c1.4,0,2.6.89,3.03,2.18Z"/>
        </g>
        <g id="line3662-2" data-name="line3662">
          <path class="cls-8" d="m259.96,323.2c-.38,0-.69-.31-.69-.69s.31-.69.69-.69h15.95c.38,0,.69.31.69.69s-.31.69-.69.69h-15.95Z"/>
        </g>
        <path class="cls-7" d="m193.78,276.37c-.07.21-.14.41-.21.61-.25.69-.52,1.33-.76,1.87-.07.16-.14.31-.2.44-.16.34-.3.62-.4.81-.04.08-.07.14-.1.19-.03.05-.05.08-.06.11l-.02.83h0s-.87,40.17-.87,40.17v.58s-.02.56-.02.56l-.03,1.46h-14l-1.06-1.33h-.01s-.17-.22-.17-.22c-.12-.15-.24-.31-.34-.47-.17-.22-.32-.45-.46-.69-.95-1.57-1.46-3.37-1.48-5.23l-.12-12h0s0-.48,0-.48v-.68l-.02-1.47v-.68s-.01-.48-.01-.48l-.13-12.62c-.01-2.39.91-4.7,2.59-6.41,0,0,.31-.27.8-.72.15-.13.31-.27.49-.43.17-.16.36-.33.56-.51.4-.36.84-.75,1.29-1.16.3-.27.61-.55.92-.83.22-.2.43-.4.65-.6.38-.35.76-.7,1.11-1.03.21-.18.4-.37.59-.54.11-.11.22-.21.32-.31.27-.25.5-.47.69-.66.06-.07.12-.13.18-.18,0-.01.01-.01.01-.01.1-.11.18-.2.24-.27.06-.07.09-.11.09-.13-.23-1.75.4-3.41,1.58-4.54.34-.33.72-.61,1.14-.84.42-.23.87-.41,1.36-.52.16-.04.32-.07.49-.09,2.91-.39,5.59,1.65,5.98,4.57.15,1.13-.16,2.58-.6,3.93Z"/>
        <path class="cls-8" d="m176.93,322.67h-.01s-.88-.01-.88-.01h.01s1.06,1.34,1.06,1.34h.89l-1.07-1.33Zm17.45-50.23c-.39-2.92-3.07-4.96-5.98-4.57-.17.02-.33.05-.49.09-.49.11-.94.29-1.36.52-.42.23-.8.51-1.14.84-1.18,1.13-1.81,2.79-1.58,4.54,0,.02-.03.06-.09.13-.05.07-.14.16-.24.27,0,0-.01,0-.01.01-.06.05-.12.11-.18.18-.19.18-.42.41-.69.66-.1.1-.21.2-.32.31-.19.17-.38.35-.59.54-.35.33-.73.68-1.11,1.03-.22.2-.43.4-.65.6v.94c4.64-4.2,4.61-4.39,4.56-4.77-.16-1.22.16-2.44.91-3.42.75-.99,1.84-1.62,3.07-1.78,1.23-.17,2.44.15,3.43.9.98.76,1.61,1.84,1.78,3.07.33,2.45-1.86,6.87-2.22,7.48-.08.11-.12.24-.12.38l-.02.86-.88,40.73-.04,2.02h1.37l.03-1.34.02-.68v-.69s.85-38.98.85-38.98l.03-1.09h-.69s0,.01,0,.01l.02-.83h.01s.03-.06.06-.11c.02-.05.06-.11.1-.19.1-.19.24-.47.4-.81.06-.13.13-.28.2-.44.24-.54.51-1.18.76-1.87.07-.2.14-.4.21-.61.44-1.35.75-2.8.6-3.93Zm.69-.09c-.45-3.29-3.48-5.6-6.76-5.16-1.6.21-3.01,1.03-3.98,2.31-.92,1.2-1.34,2.67-1.21,4.16-.41.44-1.63,1.58-3.17,3-.3.27-.6.55-.92.84-.53.48-1.08.97-1.64,1.48-.14.12-.28.25-.42.37-.21.19-.42.39-.64.57-.31.29-.62.57-.93.84-1.82,1.85-2.8,4.29-2.78,6.9l.28,28.41c0,.18,0,.36.02.53l.03.39c.1,1.08.36,2.14.77,3.14.05.13.11.27.17.4.11.24.23.48.35.71.01.01.02.03.03.05.13.23.27.46.41.69.15.23.31.46.48.68h.01c.05.09.1.15.16.23l.89,1.11h1.78l-1.07-1.33h-.01s-.51-.65-.51-.65c-.02-.01-.03-.03-.04-.04-.17-.22-.34-.45-.49-.69-1.02-1.56-1.59-3.38-1.6-5.23l-.11-11.22v-.31s-.01-.33-.01-.33l-.04-4.09v-.33s-.01-.31-.01-.31l-.12-11.82c-.02-2.24.83-4.34,2.36-5.89.27-.24.52-.47.77-.69.08-.08.17-.15.26-.24.25-.22.5-.44.73-.65.33-.29.63-.56.92-.82h.01c.33-.31.62-.57.91-.83,4.64-4.2,4.61-4.39,4.56-4.77-.16-1.22.16-2.44.91-3.42.75-.99,1.84-1.62,3.07-1.78,1.23-.17,2.44.15,3.43.9.98.76,1.61,1.84,1.78,3.07.33,2.45-1.86,6.87-2.22,7.48-.08.11-.12.24-.12.38l-.02.86-.88,40.73-.04,2.02h1.37l.03-1.34.02-.68v-.69s.85-38.98.85-38.98l.03-1.09v-.65c.76-1.3,2.69-5.63,2.35-8.22Zm-18.14,50.32h-.88l1.06,1.33h.89l-1.07-1.33Zm17.45-50.23c-.39-2.92-3.07-4.96-5.98-4.57-.17.02-.33.05-.49.09-.49.11-.94.29-1.36.52-.42.23-.8.51-1.14.84-1.18,1.13-1.81,2.79-1.58,4.54,0,.02-.03.06-.09.13-.05.07-.14.16-.24.27,0,0-.01,0-.01.01-.06.05-.12.11-.18.18-.19.19-.42.41-.69.66-.1.1-.21.2-.32.31-.19.17-.38.36-.59.54-.35.33-.73.68-1.11,1.03-.22.2-.43.4-.65.6v.94c4.64-4.2,4.61-4.39,4.56-4.77-.16-1.22.16-2.44.91-3.42.75-.99,1.84-1.62,3.07-1.78,1.23-.17,2.44.15,3.43.9.98.76,1.61,1.84,1.78,3.07.33,2.45-1.86,6.87-2.22,7.48-.08.11-.12.24-.12.38l-.02.86-.88,40.73-.04,2.02h1.37l.03-1.34.02-.68v-.69s.85-38.98.85-38.98l.03-1.09h-.33s-.36.02-.36.02h0s0-.01,0-.01l.02-.83h.01s.03-.06.06-.11c.02-.05.06-.11.1-.19.1-.19.24-.47.4-.81.06-.13.13-.28.2-.44.24-.54.51-1.18.76-1.87.07-.2.14-.4.21-.61.44-1.35.75-2.8.6-3.93Z"/>
        <path class="cls-7" d="m226.4,288.51l-.69,28.41c-.03,1.53-.41,3.03-1.09,4.38-.11.23-.23.45-.37.67-.13.24-.28.47-.45.69-.14.21-.3.41-.46.61l-.6.73h-14.66v-1.67s-.02-.36-.02-.36v-.35l-.3-39.24v-1.14s-.01-.24-.01-.24c0,0-.01-.03-.04-.07-.29-.61-2.57-5.22-2.16-7.93.43-2.9,3.13-4.91,6.04-4.48,2.9.43,4.91,3.13,4.48,6.04,0,.22,4,3.96,6.28,6.08h.01c.24.22.46.42.65.6.37.34.64.59.78.72.07.07.11.1.11.1.1.1.19.21.29.31.06.08.12.15.19.23,1.35,1.66,2.06,3.75,2.02,5.91Z"/>
        <path class="cls-8" d="m223.35,280.62l-.99.02h-.01l-.99.02c.2.19.41.38.64.59.02-.01.06-.01.09-.01h1.69v-.22c-.14-.13-.29-.27-.43-.4Zm3.71,7.01c0-.08-.01-.16-.01-.24-.01-.02-.01-.06-.01-.08-.01-.11-.03-.22-.04-.32-.01-.05-.02-.11-.03-.16,0-.09-.03-.19-.04-.28-.11-.58-.28-1.16-.49-1.72-.04-.11-.09-.23-.14-.34-.01-.02-.01-.03-.01-.04-.16-.36-.33-.7-.52-1.03-.07-.11-.14-.23-.21-.34-.15-.22-.29-.44-.45-.65-.13-.17-.27-.34-.41-.51-.11-.12-.22-.24-.34-.36-.11-.11-.23-.22-.34-.32-.08-.08-.16-.15-.24-.22-.14-.13-.29-.27-.43-.4-2.94-2.71-5.88-5.5-6.56-6.25.31-3.16-1.92-6.06-5.1-6.53-.3-.05-.6-.07-.89-.07-2.92,0-5.49,2.15-5.93,5.13-.37,2.47,1.2,6.2,2.09,8.04.03.06.06.12.09.18,0,.02.01.03.02.04v1.34l.3,38.79v1.37s.02,1.34.02,1.34h1.38l-.02-2.03-.31-40.93c0-.05,0-.08-.01-.12h0c-.01-.13-.07-.23-.1-.3-.58-1.18-2.44-5.21-2.1-7.52.37-2.52,2.73-4.27,5.25-3.9,2.53.37,4.29,2.73,3.91,5.26-.07.42-.09.6,5.97,6.2.2.19.41.38.64.59.43.4.9.83,1.4,1.29.02.02.04.04.06.07h0c1.48,1.58,2.29,3.72,2.24,5.89l-.68,28.4c-.04,1.8-.6,3.57-1.59,5.07-.19.3-.4.59-.62.86l-.97,1.17h1.79l.13-.16.11-.13c.21-.26.41-.53.6-.81,0,0,0,0,.01,0,.24-.36.47-.74.67-1.13h0c.1-.2.19-.38.27-.57.07-.15.14-.3.2-.46.1-.24.18-.48.26-.73.06-.19.12-.39.17-.58s.09-.38.13-.57c.04-.19.07-.38.1-.58.01-.07.02-.14.02-.22.03-.13.04-.27.05-.4,0-.05.01-.09.01-.13.02-.2.03-.39.03-.59l.68-28.4c0-.21,0-.43,0-.64l-.02-.26Zm-3.71-7.01l-.99.02h-.01c-2.28-2.12-6.28-5.86-6.28-6.08.43-2.91-1.58-5.61-4.48-6.04-2.91-.43-5.61,1.58-6.04,4.48-.41,2.71,1.87,7.32,2.16,7.93h-.75c.03.07.06.13.09.19,0,.02.01.03.02.04v1.34l.3,38.79v.68h1.38l-.31-40.93c0-.05,0-.08-.01-.12h0c-.01-.13-.07-.23-.1-.3-.58-1.18-2.44-5.21-2.1-7.52.37-2.52,2.73-4.27,5.25-3.9,2.53.37,4.29,2.73,3.91,5.26-.07.42-.09.6,5.97,6.2.2.19.41.38.64.59.02-.01.06-.01.09-.01h1.69v-.22c-.14-.13-.29-.27-.43-.4Z"/>
        <g id="circle3604">
          <circle class="cls-10" cx="176.43" cy="302.13" r="3.3"/>
          <path class="cls-8" d="m176.42,305.66c-.77,0-1.51-.25-2.14-.72-.75-.57-1.23-1.4-1.36-2.34s.12-1.86.69-2.61c.57-.75,1.4-1.23,2.34-1.36h0c.94-.13,1.86.12,2.61.69.75.57,1.23,1.4,1.36,2.34.26,1.93-1.1,3.71-3.03,3.97-.16.02-.32.03-.48.03Zm-.4-6.58c-.81.11-1.54.53-2.03,1.18-.5.65-.71,1.46-.6,2.27.11.81.53,1.54,1.18,2.03.65.5,1.46.71,2.27.6,1.68-.22,2.86-1.78,2.64-3.45-.22-1.68-1.78-2.86-3.46-2.64h0Z"/>
        </g>
        <g id="polygon3740">
          <polygon class="cls-8" points="178.09 301.58 176.62 301.78 176.38 300.28 175.73 300.39 175.98 301.87 174.67 302.04 174.76 302.69 176.08 302.51 176.31 304.01 176.96 303.9 176.73 302.42 178.18 302.23 178.09 301.58"/>
          <path class="cls-8" d="m176.12,304.27l-.23-1.5-1.33.18-.15-1.1,1.3-.17-.24-1.47,1.1-.18.25,1.51,1.47-.2.15,1.1-1.44.19.23,1.47-1.1.18Zm.15-2.02l.23,1.49.19-.03-.23-1.48,1.45-.2-.03-.19-1.46.2-.24-1.5-.19.03.24,1.49-1.31.18.03.19,1.32-.18Z"/>
        </g>
        <path class="cls-7" d="m260.4,280.52c-.13.27-.22.42-.22.42v.15l-.02.74-.88,40.66v.03l-.03,1.48h-14.43l-.81-1.01c-.13-.16-.25-.32-.36-.49,0,0-.02-.01-.02-.02-.13-.18-.26-.37-.37-.57,0,0-.01,0-.01-.01-.98-1.59-1.5-3.41-1.52-5.3l-.12-12s-.01,0,0-.01v-.47s-.01-.65-.01-.65c0,0-.01,0,0-.02l-.02-1.52v-.66s-.01-.47-.01-.47l-.13-12.61c-.02-2.02.64-3.99,1.87-5.58.09-.12.19-.24.28-.36.14-.16.29-.32.44-.47,0,0,.15-.14.42-.38.05-.04.11-.1.18-.16,1.85-1.65,7.34-6.59,7.34-6.85-.4-2.91,1.65-5.59,4.56-5.98,2.92-.39,5.59,1.65,5.99,4.57.32,2.41-1.48,6.29-2.12,7.54Z"/>
        <path class="cls-8" d="m263.2,272.88c-.22-1.59-1.04-3-2.31-3.97-1.28-.98-2.86-1.4-4.45-1.18-1.59.21-3,1.03-3.98,2.31-.91,1.2-1.34,2.67-1.21,4.16-.76.81-4.26,4.03-7.53,6.93-.04.04-.08.07-.12.11-.02.02-.05.04-.07.06-.04.04-.08.08-.11.12-.21.21-.4.44-.58.67h0c-.12.14-.21.26-.3.39-1.18,1.65-1.81,3.64-1.79,5.72l.29,28.41c.02,1.88.52,3.73,1.45,5.36.14.25.29.49.44.72.17.25.35.5.54.73l.18.22h0s.29.36.29.36h1.76l-1.16-1.44s-.03-.04-.04-.06c-1.33-1.68-2.07-3.77-2.08-5.91l-.11-11.21v-.32s-.01-.32-.01-.32l-.04-4.1v-.33s-.01-.3-.01-.3l-.12-11.83c-.02-2.08.72-4.06,2.08-5.57.07-.11.17-.21.27-.31.36-.32.7-.63,1.03-.92.04-.04.08-.08.12-.11,7.1-6.35,7.08-6.53,7.02-6.97-.17-1.23.16-2.44.91-3.43.75-.98,1.84-1.61,3.06-1.78,1.23-.16,2.45.16,3.43.91.99.75,1.62,1.84,1.78,3.07.33,2.44-1.86,6.87-2.22,7.48-.07.11-.12.24-.12.37v.19l-.89,41.39-.03,1.5h1.37v-.8h.02v-.7s.02-.68.02-.68l.86-39.93.02-.78s.01-.02.02-.03c.08-.15.18-.33.3-.55.78-1.54,2.06-4.67,2.06-6.97,0-.24-.01-.46-.04-.68Zm-2.75,9.01c-.11,0-.2-.02-.29-.06l.02-.74h-.41s-.28.02-.28.02l-.89,41.39-.03,1.5h1.37v-.8h.02v-.7s.02-.68.02-.68l.86-39.93h-.39Z"/>
        <path class="cls-7" d="m294.53,289.05l-.68,28.41c-.03,1.52-.41,3.01-1.08,4.36-.11.23-.24.47-.38.69-.13.23-.28.46-.44.68-.15.21-.3.42-.47.62l-.16.19h-15.11v-.87s-.01-.62-.01-.62v-.63s-.31-40.34-.31-40.34c0-.01-.14-.28-.35-.75-.71-1.5-2.19-5.02-1.86-7.25.43-2.9,3.13-4.91,6.04-4.48,2.91.43,4.92,3.13,4.48,6.04,0,.14,1.6,1.69,3.36,3.35.31.28.62.57.92.86.32.3.63.59.93.86.13.12.25.23.36.34.22.2.42.39.61.56.97.9,1.65,1.53,1.65,1.53,1.66,1.73,2.56,4.05,2.5,6.45Z"/>
        <path class="cls-8" d="m292.5,282.09c-.56-.51-1.13-1.04-1.69-1.56-.21-.19-.42-.39-.63-.58-.13-.12-.26-.24-.39-.37-.45-.41-.89-.82-1.31-1.22-.32-.3-.63-.59-.92-.87-1.29-1.22-2.28-2.18-2.64-2.58.32-3.16-1.92-6.06-5.1-6.53-3.28-.49-6.33,1.78-6.82,5.06-.32,2.14.83,5.24,1.71,7.23.03.04.05.09.07.14.15.33.29.64.42.89v.28l.3,39.84v.69s.01.68.01.68v.81h1.39l-.02-1.49-.31-40.94c.01-.18-.06-.32-.11-.42-.05-.1-.11-.23-.18-.37-.7-1.5-2.23-5.04-1.92-7.14.18-1.22.83-2.3,1.82-3.04,1-.74,2.22-1.04,3.44-.86,2.53.37,4.28,2.73,3.9,5.26-.06.37-.08.55,4.07,4.43.11.1.22.2.34.32.27.24.55.5.85.78.79.74,1.71,1.58,2.76,2.55,1.52,1.58,2.36,3.75,2.3,5.95l-.68,28.41c-.04,1.53-.44,3.04-1.18,4.38-.11.24-.25.47-.41.69-.14.23-.3.46-.48.68-.04.06-.09.12-.14.18l-.52.63h1.77c.21-.26.4-.53.57-.81.15-.22.29-.45.4-.68.14-.22.25-.45.35-.69.63-1.36.98-2.85,1.02-4.35l.68-28.41c.06-2.56-.92-5.09-2.72-6.97Zm-4.94-2.78v-.86c-1.76-1.66-3.36-3.21-3.36-3.35.44-2.91-1.57-5.61-4.48-6.04-2.91-.43-5.61,1.58-6.04,4.48-.33,2.23,1.15,5.75,1.86,7.25h-.25s-.51.02-.51.02c.15.33.29.64.42.89v.28l.3,39.84v.69h1.38l-.31-40.94c.01-.18-.06-.32-.11-.42-.05-.1-.11-.23-.18-.37-.7-1.5-2.23-5.04-1.92-7.14.18-1.22.83-2.3,1.82-3.04,1-.74,2.22-1.04,3.44-.86,2.53.37,4.28,2.73,3.9,5.26-.06.37-.08.55,4.07,4.43-.02-.03-.03-.08-.03-.12Z"/>
        <g id="circle3604-2" data-name="circle3604">
          <circle class="cls-10" cx="244.56" cy="302.67" r="3.3"/>
          <path class="cls-8" d="m244.56,306.2c-1.74,0-3.26-1.29-3.5-3.06-.26-1.93,1.1-3.71,3.03-3.97h0c.94-.12,1.86.12,2.61.69.75.57,1.23,1.4,1.36,2.34s-.12,1.86-.69,2.61c-.57.75-1.4,1.23-2.34,1.36-.16.02-.32.03-.47.03Zm0-6.61c-.14,0-.28,0-.42.03h0c-1.68.22-2.86,1.78-2.64,3.46.22,1.68,1.78,2.86,3.46,2.64.81-.11,1.54-.53,2.03-1.18s.71-1.46.6-2.27c-.11-.81-.53-1.54-1.18-2.03-.54-.41-1.19-.63-1.86-.63Zm-.45-.2h0,0Z"/>
        </g>
        <g id="polygon3740-2" data-name="polygon3740">
          <polygon class="cls-8" points="246.22 302.12 244.76 302.32 244.51 300.82 243.87 300.92 244.11 302.41 242.81 302.58 242.89 303.23 244.22 303.05 244.45 304.54 245.09 304.44 244.86 302.96 246.31 302.77 246.22 302.12"/>
          <path class="cls-8" d="m244.26,304.81l-.23-1.5-1.33.18-.15-1.1,1.3-.17-.24-1.47,1.1-.18.24,1.51,1.47-.2.15,1.1-1.44.19.23,1.47-1.1.18Zm.15-2.02l.23,1.49.19-.03-.23-1.48,1.45-.2-.03-.19-1.46.2-.24-1.5-.19.03.24,1.49-1.31.18.03.19,1.32-.18Z"/>
        </g>
        <g id="circle3574">
          <path class="cls-8" d="m189.19,277.09c-1.79,0-3.36-1.33-3.6-3.15-.13-.96.12-1.92.71-2.69s1.44-1.27,2.41-1.4c.96-.13,1.92.12,2.69.71.77.59,1.27,1.44,1.4,2.41.27,1.99-1.13,3.82-3.12,4.09-.16.02-.33.03-.49.03Zm0-6.81c-.14,0-.29,0-.43.03-.84.11-1.59.55-2.1,1.22s-.74,1.51-.62,2.35c.23,1.74,1.84,2.96,3.57,2.73,1.74-.23,2.96-1.84,2.73-3.57-.11-.84-.55-1.59-1.22-2.1-.56-.43-1.23-.65-1.92-.65Z"/>
        </g>
        <g id="line3600">
          <path class="cls-8" d="m208.06,281.82c0,.23-.12.44-.3.56-.11.08-.24.12-.39.12h-.29s-14.16-.16-14.16-.16c-.08,0-.16-.01-.23-.04-.27-.1-.46-.35-.46-.65,0-.16.06-.31.16-.43.08-.1.19-.18.32-.22.06-.03.13-.04.21-.04h0l8,.09h.02l6.09.06h.33c.14,0,.27.05.37.12.19.12.31.34.31.58Z"/>
        </g>
        <g id="circle3738">
          <path class="cls-8" d="m188.42,283.06c-.98,0-1.84-.73-1.97-1.73-.15-1.09.62-2.09,1.71-2.24,1.09-.15,2.09.62,2.24,1.71.15,1.09-.62,2.09-1.71,2.24-.09.01-.18.02-.27.02Zm0-3.52c-.07,0-.14,0-.2.01-.84.11-1.43.88-1.31,1.72.11.84.88,1.43,1.72,1.31.84-.11,1.42-.88,1.31-1.72-.1-.77-.76-1.33-1.52-1.33Z"/>
        </g>
        <g id="circle3574-2" data-name="circle3574">
          <path class="cls-8" d="m257.32,277.62c-1.79,0-3.36-1.33-3.6-3.15-.13-.96.12-1.92.71-2.69.59-.77,1.44-1.27,2.41-1.4.96-.13,1.92.12,2.69.71.77.59,1.27,1.44,1.4,2.41.13.96-.12,1.92-.71,2.69-.59.77-1.44,1.27-2.41,1.4-.16.02-.33.03-.49.03Zm0-6.81c-.14,0-.28,0-.42.03-.84.11-1.59.55-2.1,1.22-.51.67-.74,1.51-.62,2.35.23,1.74,1.83,2.96,3.57,2.73.84-.11,1.59-.55,2.1-1.22.51-.67.74-1.51.62-2.35-.21-1.59-1.58-2.75-3.15-2.75Z"/>
        </g>
        <g id="circle3738-2" data-name="circle3738">
          <path class="cls-8" d="m256.55,283.6c-.98,0-1.84-.73-1.97-1.73-.15-1.09.62-2.09,1.71-2.24,1.1-.15,2.09.62,2.24,1.71.15,1.09-.62,2.09-1.71,2.24-.09.01-.18.02-.27.02Zm0-3.52c-.07,0-.14,0-.2.01-.84.11-1.43.88-1.31,1.72.11.84.88,1.43,1.72,1.31.84-.11,1.43-.88,1.31-1.72-.1-.77-.76-1.33-1.52-1.33Z"/>
        </g>
        <g id="line3600-2" data-name="line3600">
          <path class="cls-8" d="m274.9,282.05h0l-14.45-.16c-.38,0-.68-.32-.68-.7,0-.38.31-.68.69-.68h0l14.45.16c.38,0,.68.32.68.7,0,.38-.31.68-.69.68Z"/>
        </g>
        <g>
          <path class="cls-8" d="m220.39,137.65c1.99.14,3.99.2,5.99.08,3.34-.2,6.65-.67,9.9-1.52,2.95-.77,5.82-1.74,8.52-3.16.65-.34,1.28-.73,1.93-1.09.08-.04.16-.09.26-.08-1.73,1.18-3.62,2.08-5.59,2.86.12.29.23.57.34.86.74,1.86,1.48,3.71,1.96,5.66.42,1.73.43,3.49.47,5.26.03,1.59.03,3.17-.44,4.71-.86,2.81-1.96,5.5-3.96,7.72-.86.95-1.84,1.77-2.98,2.36-1.81.93-3.72.98-5.67.44-1.81-.51-3.59-.99-5.26-1.88-1.39-.75-2.73-1.58-3.62-2.94-.58-.87-.98-1.84-1.27-2.85-.61-2.14-.28-4.19.53-6.21,1.06-2.63,2.24-5.2,3.69-7.64.46-.78.93-1.55,1.41-2.36-.71.02-1.39.06-2.07.04-1.29-.03-2.58-.08-3.88-.13-.09,0-.18-.05-.27-.07v-.06Zm1.63,18.66c.22-.29.4-.54.59-.78.48-.57,1.08-.9,1.84-.85.83.05,1.67.08,2.49.17,2.3.25,4.57.67,6.82,1.22,1.09.27,2.19.5,3.18,1.07.97.56,1.86,1.19,1.92,2.5.11-.1.21-.17.28-.26.61-.74,1.25-1.46,1.81-2.24.99-1.38,1.56-2.98,2.19-4.55.04-.1.01-.23-.02-.34-.28-1.05-.69-2.04-1.3-2.95-1.41-2.13-3.76-3.14-6.28-2.66-1.92.37-3.44,1.4-4.66,2.91-.06.08-.13.15-.19.23l-.07-.07c.68-.98,1.57-1.73,2.6-2.35-.03-.04-.04-.06-.07-.08-1.22-1.03-2.63-1.62-4.22-1.62-3.1.01-5.56,1.38-7.59,3.65-.27.3-.42.64-.46,1.04-.05.45-.11.89-.12,1.34-.03,1.64.45,3.15,1.24,4.64Zm-.9-7.09s.06.02.09.03c1.72-1.8,3.07-2.72,4.95-3.31,2.63-.83,5.06-.49,7.22,1.33.25-.11.49-.24.75-.34,2.51-.96,4.83-.71,6.85,1.16,1.1,1.01,1.74,2.32,2.17,3.73.03.11.07.22.13.38,1.25-2.82.8-10.3-.06-12.06-.05,0-.1.01-.15.03-5.77,1.46-11.55,1.42-17.33.07-.27-.06-.4-.03-.55.23-1.29,2.2-2.38,4.49-3.33,6.85-.25.63-.49,1.27-.73,1.9Zm11.02,6.56s-.02.06-.02.09c-.19-.04-.38-.08-.56-.12-2.17-.45-4.35-.8-6.57-.91-.43-.02-.88,0-1.29.12-.69.19-1.07.78-1.48,1.32-.14.18-.12.29.01.46,1.27,1.69,2.99,2.76,4.88,3.57,1.16.5,2.37.87,3.55,1.3,1.19.43,2.42.48,3.67.33,1.62-.19,2.97-.96,4.19-2,.07-.06.14-.15.15-.23.04-.48-.07-.92-.39-1.31-.61-.74-1.39-1.24-2.29-1.52-1.27-.4-2.56-.74-3.85-1.1Zm11.09-15.8c-.66-1.75-1.3-3.46-1.95-5.19-.43.15-.81.26-1.18.4-2.09.79-4.24,1.33-6.42,1.77-2.17.43-4.36.74-6.57.85-.24.01-.39.1-.51.31-.25.44-.52.86-.78,1.29-.12.19-.23.39-.35.61,5.93,1.38,11.82,1.51,17.77-.03Z"/>
          <path class="cls-13" d="m247.93,132.15c-.5-.26-.96-.58-1.36-.96-.1.04-.18.08-.23.11-.21.12-.41.24-.62.36-.42.24-.85.5-1.28.72-2.37,1.24-5.02,2.22-8.36,3.09-3.04.79-6.23,1.28-9.75,1.5-1.76.11-3.63.08-5.89-.08l-.66-.03-.29,1.39.68.19h.04c.09.04.23.09.4.1l.76.03c1.02.04,2.08.08,3.13.1.24,0,.48,0,.73,0-.24.4-.47.79-.7,1.18-1.32,2.2-2.51,4.66-3.75,7.75-.97,2.42-1.15,4.61-.55,6.7.34,1.18.79,2.18,1.37,3.06,1.04,1.56,2.56,2.46,3.9,3.18,1.67.9,3.46,1.4,5.2,1.89l.22.06c1.22.34,2.39.45,3.5.33.95-.1,1.86-.38,2.72-.82,1.16-.59,2.2-1.42,3.2-2.53,2.24-2.49,3.34-5.44,4.13-8.01.5-1.63.51-3.27.48-4.94v-.33c-.04-1.66-.07-3.38-.49-5.09-.48-1.96-1.23-3.84-1.95-5.65l-.11-.27c2.01-.84,3.63-1.69,5.04-2.65l.52-.36Zm-21.21,7.22c.17-.27.33-.54.49-.81,2.13-.12,4.29-.4,6.61-.86,2.58-.52,4.65-1.09,6.54-1.8.15-.06.3-.11.46-.16l1.39,3.71c-5,1.17-10.11,1.18-15.57.05.02-.04.05-.08.07-.12Zm7.52,21.8c-1.27.15-2.36.05-3.32-.29-.37-.13-.74-.26-1.11-.39-.8-.27-1.62-.56-2.4-.89-1.98-.85-3.39-1.85-4.41-3.12.29-.38.55-.71.89-.8.3-.08.66-.12,1.05-.1,1.94.1,3.99.38,6.45.89l1.27.27v-.04c.15.04.29.08.43.12.88.24,1.79.49,2.66.77.79.25,1.44.68,1.93,1.28.14.17.21.35.22.57-1.24,1.03-2.41,1.58-3.67,1.73Zm7.97-8.27c-.54,1.37-1.06,2.67-1.87,3.8-.35.49-.74.95-1.14,1.43-.51-.87-1.34-1.35-1.87-1.66-.99-.57-2.06-.83-3.09-1.08l-.29-.07c-2.37-.58-4.7-1-6.91-1.24-.61-.07-1.23-.1-1.83-.13-.23-.01-.47-.03-.7-.04-.18-.01-.35,0-.52.01-.68.08-1.29.39-1.81.95-.45-1.1-.66-2.13-.64-3.19,0-.3.04-.6.08-.93.01-.12.03-.23.04-.35.03-.24.11-.43.27-.61,2.04-2.27,4.34-3.39,7.03-3.39,1.06,0,2.06.3,2.99.89-.78.58-1.42,1.23-1.93,1.96l-.34.55,1.1,1.07.59-.7c.05-.05.09-.11.14-.16,1.19-1.46,2.57-2.32,4.22-2.64,2.2-.42,4.25.45,5.5,2.34.53.81.92,1.7,1.19,2.71l-.18.46Zm.91-3.2c-.44-.86-.97-1.56-1.62-2.16-1.59-1.47-3.41-2.09-5.43-1.87-.71.08-1.45.26-2.21.55-.13.05-.25.1-.38.16-2.19-1.66-4.73-2.06-7.55-1.17-1.11.35-2.06.81-3,1.49.87-2.06,1.79-3.92,2.82-5.68,5.75,1.32,11.46,1.32,16.99.01.47,1.73.76,5.79.39,8.67Z"/>
          <path class="cls-13" d="m242.44,152.32s0,0,0,0h0Z"/>
        </g>
        <g>
          <path class="cls-5" d="m222.02,156.31c-.8-1.48-1.27-2.99-1.24-4.64,0-.45.07-.89.12-1.34.04-.39.19-.74.46-1.04,2.03-2.26,4.49-3.64,7.59-3.65,1.6,0,3,.59,4.22,1.62.02.02.04.05.07.08-1.03.62-1.92,1.37-2.6,2.35l.07.07c.06-.08.13-.15.19-.23,1.22-1.5,2.74-2.54,4.66-2.91,2.51-.48,4.87.53,6.28,2.66.6.91,1.02,1.9,1.3,2.95.03.11.05.24.02.34-.63,1.57-1.2,3.17-2.19,4.55-.56.78-1.2,1.49-1.81,2.24-.07.09-.17.16-.28.26-.06-1.31-.95-1.94-1.92-2.5-.99-.57-2.09-.8-3.18-1.07-2.25-.55-4.52-.97-6.82-1.22-.83-.09-1.66-.12-2.49-.17-.77-.05-1.37.28-1.84.85-.2.24-.37.49-.59.78Z"/>
          <path class="cls-13" d="m238.17,161.29l-.07-1.61c-.04-.86-.55-1.31-1.54-1.88-.8-.46-1.72-.69-2.69-.92l-.3-.07c-2.31-.56-4.57-.97-6.72-1.21-.57-.06-1.17-.1-1.75-.13-.24-.01-.47-.03-.71-.04-.48-.03-.85.15-1.21.58-.12.15-.24.3-.36.47-.07.09-.13.18-.21.28l-.71.94-.56-1.04c-.93-1.73-1.36-3.37-1.33-5.01,0-.37.05-.73.09-1.07l.04-.33c.06-.56.28-1.05.65-1.46,2.31-2.58,5.05-3.89,8.15-3.9,1.63,0,3.15.55,4.52,1.64.62-.29,1.27-.51,1.96-.64,2.82-.54,5.46.58,7.05,2.99.62.94,1.09,2.01,1.4,3.18.05.2.11.51-.01.81l-.23.58c-.55,1.4-1.12,2.84-2.05,4.13-.42.58-.87,1.12-1.32,1.65-.18.21-.35.42-.52.63-.09.11-.19.19-.27.26-.03.02-.06.05-.09.08l-1.2,1.08Zm-14.2-7.36c.17-.02.34-.02.52-.01.23.01.47.03.7.04.6.03,1.22.07,1.83.13,2.22.24,4.54.66,6.91,1.24l.29.07c1.03.25,2.1.51,3.09,1.08.53.31,1.37.79,1.87,1.66.41-.48.79-.94,1.14-1.43.82-1.14,1.33-2.43,1.87-3.8l.18-.46c-.27-1.02-.66-1.91-1.19-2.71-1.25-1.88-3.3-2.76-5.5-2.34-1.65.32-3.03,1.18-4.22,2.64-.04.05-.09.11-.14.16l-.59.7-1.1-1.07.34-.55c.51-.74,1.15-1.38,1.93-1.96-.93-.6-1.94-.9-2.99-.89-2.69,0-4.99,1.12-7.03,3.39-.16.18-.24.37-.27.61-.01.12-.03.23-.04.35-.04.32-.07.63-.08.93-.02,1.06.19,2.09.64,3.19.52-.56,1.12-.87,1.81-.95Zm18.47-1.61s0,0,0,0h0Z"/>
        </g>
        <g>
          <path class="cls-15" d="m221.12,149.22c.24-.63.48-1.27.73-1.9.96-2.36,2.05-4.65,3.33-6.85.15-.25.28-.29.55-.23,5.78,1.35,11.56,1.39,17.33-.07.05-.01.1-.02.15-.03.87,1.76,1.31,9.25.06,12.06-.06-.16-.1-.27-.13-.38-.43-1.41-1.07-2.71-2.17-3.73-2.02-1.87-4.34-2.12-6.85-1.16-.26.1-.51.23-.75.34-2.16-1.82-4.58-2.16-7.22-1.33-1.88.59-3.23,1.51-4.95,3.31-.03,0-.06-.02-.09-.03Z"/>
          <path class="cls-13" d="m243.26,152.72l-.21-.61c-.03-.09-.06-.17-.08-.24-.49-1.61-1.17-2.77-2.12-3.64-1.89-1.74-4.07-2.11-6.66-1.12-.17.07-.34.15-.5.22-.08.04-.16.08-.24.11l-.11.05-.09-.08c-2.04-1.72-4.34-2.14-7.04-1.29-1.83.58-3.15,1.46-4.87,3.26l-.08.09-.39-.13.3-.79c.16-.43.33-.87.5-1.3,1.03-2.54,2.12-4.79,3.35-6.88.21-.36.45-.39.76-.32,5.84,1.37,11.64,1.34,17.24-.07.04-.01.08-.02.12-.02l.18-.03.06.13c.93,1.89,1.31,9.43.07,12.22l-.2.44Zm-7.14-6.48c1.86-.21,3.54.37,5,1.71.97.9,1.67,2.07,2.18,3.68.98-3.03.53-9.53-.19-11.28-5.65,1.43-11.51,1.45-17.41.07-.2-.05-.25-.03-.35.14-1.21,2.07-2.3,4.31-3.32,6.83-.17.41-.32.83-.48,1.25,1.55-1.53,2.83-2.33,4.56-2.87,2.75-.87,5.21-.43,7.3,1.29.04-.02.08-.04.12-.06.17-.08.35-.17.53-.24.71-.27,1.39-.44,2.05-.51Z"/>
        </g>
        <g>
          <path class="cls-11" d="m232.14,155.78c1.28.36,2.58.7,3.85,1.1.9.28,1.68.78,2.29,1.52.32.39.43.83.39,1.31,0,.08-.08.17-.15.23-1.22,1.04-2.57,1.81-4.19,2-1.24.15-2.34-.11-3.64-.43-1.19-.43-2.42-.7-3.57-1.2-1.89-.82-3.62-1.88-4.88-3.57-.13-.18-.15-.29-.01-.46.41-.54.79-1.13,1.48-1.32.41-.11.86-.14,1.29-.12,2.21.11,4.39.36,6.56.81.19.04.41.1.6.14,0-.03,0,.03,0,0Z"/>
          <path class="cls-13" d="m234.32,162.31c-1.34.15-2.56-.15-3.73-.45h-.04c-.47-.18-.96-.33-1.44-.47-.71-.21-1.45-.44-2.16-.74-2.29-.99-3.89-2.16-5.04-3.69-.15-.2-.32-.52-.01-.92l.12-.16c.38-.51.81-1.09,1.56-1.29.42-.12.89-.16,1.41-.14,2.39.12,4.56.39,6.62.82.08.02.16.04.24.06h0s.37.09.37.09c.39.11.77.22,1.16.32.89.25,1.81.5,2.7.78,1,.32,1.83.87,2.47,1.64.37.45.52.98.47,1.58-.02.24-.2.42-.28.48-1.44,1.22-2.88,1.91-4.39,2.08-.02,0-.03,0-.05,0Zm-3.53-1.18c1.37.34,2.36.56,3.49.42,1.38-.16,2.65-.77,3.99-1.91,0,0,.01-.01.02-.02.02-.39-.07-.71-.31-.99-.54-.66-1.25-1.13-2.11-1.4-.88-.28-1.8-.53-2.68-.77-.38-.11-.77-.21-1.15-.32-.09-.02-.18-.04-.27-.06-.1-.03-.21-.05-.31-.07-2.02-.42-4.15-.68-6.5-.8-.43-.02-.83.02-1.17.11-.49.14-.81.56-1.15,1.02l-.12.16s0,0,0,.01c1.07,1.42,2.57,2.52,4.73,3.45.67.29,1.38.5,2.07.71.48.14.97.29,1.46.47Z"/>
        </g>
        <g>
          <path class="cls-11" d="m243.23,139.97c-5.95,1.55-11.84,1.41-17.77.03.12-.21.24-.41.35-.61.26-.43.54-.85.78-1.29.12-.21.27-.3.51-.31,2.21-.12,4.41-.42,6.57-.85,2.18-.44,4.34-.98,6.42-1.77.37-.14.75-.25,1.18-.4.65,1.73,1.29,3.44,1.95,5.19Z"/>
          <path class="cls-13" d="m238.34,141.07c-4.15.46-8.42.17-12.92-.88l-.25-.06.25-.43c.08-.14.16-.27.24-.4.09-.14.18-.29.26-.43.18-.28.35-.56.51-.85.15-.26.35-.39.66-.4,2.1-.11,4.24-.39,6.55-.85,2.52-.51,4.56-1.06,6.39-1.76.25-.09.51-.18.78-.27l.58-.19,2.09,5.56-.2.05c-1.63.42-3.28.73-4.94.91Zm-12.58-1.19c6.07,1.37,11.71,1.36,17.23-.04l-1.81-4.82-.24.08c-.27.09-.52.17-.77.26-1.86.7-3.91,1.26-6.45,1.77-2.32.47-4.48.75-6.6.86-.18,0-.27.06-.35.21-.17.29-.34.58-.52.87-.09.14-.18.28-.26.43-.08.12-.15.25-.22.38Z"/>
        </g>
        <g>
          <polygon class="cls-14" points="237.59 145.1 238.57 146.07 238.63 146.67 237.3 146.45 235.52 146.52 233.48 147.08 229.08 145.42 230.47 144.25 231.77 143.83 232.79 143.71 233.14 143.71 233.46 143.71 234.07 143.76 234.59 143.84 235.17 143.97 236.26 144.34 237.59 145.1"/>
          <path class="cls-13" d="m238.85,146.9l-1.56-.26-1.74.07-2.07.56-4.76-1.79,1.7-1.41,1.3-.42,1.05-.13h.7s.63.05.63.05l.53.08.59.13,1.1.37,1.4.81,1.03,1.02.1.91Zm-3.36-.56l1.85-.08,1.08.18-.03-.28-.91-.91-1.31-.75-1.05-.35-.56-.13-.51-.07-.91-.06h-.34s-1,.12-1,.12l-1.23.4-1.11.94,4.04,1.52,2-.54Z"/>
        </g>
        <g>
          <path class="cls-5" d="m222.09,156.33c-.8-1.48-1.27-2.99-1.24-4.64,0-.45.07-.89.12-1.34.04-.39.19-.74.46-1.04,2.03-2.26,4.49-3.64,7.59-3.65,1.6,0,3,.59,4.22,1.62.02.02.04.05.07.08-1.03.62-1.92,1.37-2.6,2.35l.07.07c.06-.08.13-.15.19-.23,1.22-1.5,2.74-2.54,4.66-2.91,2.51-.48,4.87.53,6.28,2.66.6.91,1.02,1.9,1.3,2.95.03.11.05.24.02.34-.63,1.57-1.2,3.17-2.19,4.55-.56.78-1.2,1.49-1.81,2.24-.07.09-.17.16-.28.26-.06-1.31-.95-1.94-1.92-2.5-.99-.57-2.09-.8-3.18-1.07-2.25-.55-4.52-.97-6.82-1.22-.83-.09-1.66-.12-2.49-.17-.77-.05-1.37.28-1.84.85-.2.24-.37.49-.59.78Z"/>
          <path class="cls-13" d="m238.76,160.07l-.02-.4c-.05-1.23-.89-1.81-1.82-2.35-.87-.51-1.87-.75-2.84-.98l-.29-.07c-2.33-.57-4.61-.98-6.79-1.22-.59-.06-1.19-.1-1.78-.13-.24-.01-.47-.03-.71-.04-.66-.04-1.21.22-1.69.79-.13.16-.25.32-.39.5-.06.09-.13.18-.2.27l-.18.24-.14-.26c-.88-1.64-1.3-3.19-1.27-4.73,0-.34.05-.69.08-1.02l.04-.33c.05-.44.21-.81.51-1.14,2.23-2.49,4.76-3.7,7.73-3.71,1.57,0,3.03.55,4.35,1.66.03.03.06.06.07.09h0c.67-.36,1.39-.61,2.16-.76,2.59-.5,5.01.53,6.47,2.74.59.9,1.03,1.88,1.32,3.01.04.13.07.31,0,.46l-.23.58c-.54,1.37-1.1,2.78-1.98,4.01-.4.56-.85,1.09-1.29,1.61-.18.21-.36.42-.53.63-.05.07-.12.12-.2.19-.03.03-.07.06-.1.09l-.3.27Zm-14.64-5.56c.13-.01.27-.02.41,0,.23.01.47.03.7.04.59.03,1.2.07,1.8.13,2.19.24,4.49.65,6.84,1.23l.29.07c.99.24,2.02.49,2.94,1.02.89.51,1.76,1.11,1.97,2.27.17-.21.35-.42.52-.62.43-.51.88-1.04,1.27-1.59.86-1.19,1.41-2.58,1.94-3.93l.23-.58s.02-.07-.02-.22c-.28-1.09-.7-2.03-1.27-2.9-1.38-2.08-3.65-3.05-6.08-2.58-1.79.34-3.28,1.27-4.55,2.84l-.32.39-.34-.33.09-.13c.61-.88,1.41-1.62,2.44-2.27-1.22-.99-2.55-1.49-3.98-1.48-2.86,0-5.29,1.18-7.45,3.58-.24.27-.37.57-.41.93l-.04.34c-.04.32-.08.66-.08.99-.03,1.39.33,2.79,1.08,4.28,0,0,.01-.02.02-.03.14-.19.26-.36.4-.52.45-.54.98-.85,1.59-.91Z"/>
        </g>
      </g>
      <rect class="cls-3" x="2" y="2" width="322" height="322" rx="12" ry="12"/>
    </g>
  </g>
</svg>