<?xml version="1.0" encoding="iso-8859-1"?>
<svg version="1.1" id="Layer_1" xmlns="http://www.w3.org/2000/svg" xmlns:xlink="http://www.w3.org/1999/xlink" x="0px" y="0px"
	 viewBox="0 0 300 512" style="enable-background:new 0 0 212 412;" xml:space="preserve">
 <g>
	<g>
		<path d="M231.5,145.59c-0.132-26.399-21.717-47.876-48.117-47.876h-20.004c-5.086,13.19-17.909,46.447-21.753,56.417
			l40.699,18.683v-27.56c0-2.354,1.908-4.261,4.26-4.261c2.354,0,4.261,1.907,4.263,4.26c0,0.177-0.004,0.357-0.013,0.542
			l0.373,146.776c0,11.23,9.103,20.333,20.333,20.333c11.23,0,20.333-9.103,20.333-20.333L231.5,145.59z"/>
	</g>
</g> 
 <g>
	<g>
		<path d="M74.624,265.204l0.01,221.812c0,13.23,10.289,24.499,23.511,24.968c13.881,0.493,25.288-10.613,25.288-24.383V292.571
			h9.021C131.184,292.089,74.624,265.204,74.624,265.204z"/>
	</g>
</g>
<g>
	<g>
		<path d="M182.325,239.742l-18.309,39.882c-5.133,11.18-17.922,17.201-30.047,13.464V487.6c0,13.476,10.923,24.399,24.399,24.399
			c13.476,0,24.4-10.923,24.4-24.399C182.768,484.245,182.325,243.091,182.325,239.742z"/>
	</g>
</g> 
 <g>
	<g>
		<path d="M142.524,130.797l-8.266-15.035l7.335-13.34c1.093-1.989-0.348-4.429-2.619-4.429h-20.152
			c-2.269,0-3.715,2.438-2.619,4.429l7.35,13.368l-8.282,15.062c-0.963,1.747-1.277,3.778-0.888,5.736l2.817,14.187
			c10.504-3.781,18.162,0.48,22.65,2.54l3.539-16.673C143.811,134.653,143.504,132.578,142.524,130.797z"/>
	</g>
</g>
<g>
	<g>
		<path d="M178.345,188.491l-48.928-22.461c-4.567-2.096-9.962-0.089-12.054,4.469l-12.604,27.457l24.808,13.783
			c17.722,9.848,24.108,32.197,14.261,49.919c-3.057,5.5-7.326,9.895-12.28,13.066l5.957,2.735
			c4.565,2.095,9.961,0.091,12.054-4.469l33.255-72.443C184.909,195.983,182.909,190.585,178.345,188.491z"/>
	</g>
</g>
<g>
	<g>
		<circle cx="128.691" cy="42.14" r="42.14"/>
	</g>
</g> 
<g>
	<g>
		<path d="M121.614,226.054l-55.362-30.759c0.102-16.625,0.203-33.052,0.305-49.5c0.011-2.225,1.82-4.02,4.045-4.015
			c2.224,0.006,4.024,1.81,4.024,4.035v35.396l16.188,8.994l12.093-26.344c2.532-5.517,6.953-9.815,12.282-12.273
			c-3.74-9.702-16.622-43.112-20.773-53.876H74.008c-26.399,0-47.984,21.476-48.117,47.853c-0.047,7.532-0.333,54.067-0.379,61.526
			c-0.046,7.428,3.964,14.29,10.458,17.898l65.893,36.61c9.825,5.462,22.2,1.91,27.649-7.896
			C134.966,243.887,131.43,231.508,121.614,226.054z"/>
	</g>
</g>

</svg>
