<?xml version="1.0" encoding="UTF-8"?>
<svg id="Layer_2" data-name="Layer 2" xmlns="http://www.w3.org/2000/svg" viewBox="0 0 112.49 130.86">
  <defs>
    <style>
      .cls-1 {
        stroke: #414042;
      }

      .cls-1, .cls-2 {
        fill: #fff;
      }

      .cls-1, .cls-3 {
        stroke-miterlimit: 10;
      }

      .cls-4 {
        fill: #ffda61;
      }

      .cls-4, .cls-5, .cls-2, .cls-6 {
        stroke-width: 0px;
      }

      .cls-6 {
        fill: #414042;
      }

      .cls-3 {
        fill: none;
        stroke: #231f20;
        stroke-linecap: round;
        stroke-width: 3px;
      }
    </style>
  </defs>
  <g id="Layer_3" data-name="Layer 3">
    <g>
      <path class="cls-1" d="m83.56,23.78c0-4.49-2.18-8.45-5.54-10.92-.62-6.92-6.43-12.35-13.51-12.35-2.48,0-4.79.67-6.79,1.83-2-1.16-4.31-1.83-6.79-1.83-4.33,0-8.18,2.04-10.67,5.2-1.4-.49-2.91-.77-4.48-.77-3.36,0-6.43,1.23-8.8,3.25-2.14-1.41-4.71-2.24-7.46-2.24-7.5,0-13.57,6.08-13.57,13.57,0,1.64.31,3.21.84,4.67-3.78,2.41-6.29,6.63-6.29,11.44,0,6.89,5.14,12.57,11.8,13.45,1.14,6.35,6.68,11.17,13.35,11.17,3.85,0,7.31-1.61,9.78-4.18,2.13,1.39,4.67,2.21,7.41,2.21,4.5,0,8.49-2.2,10.95-5.58.59.08,1.2.13,1.81.13,2.25,0,4.36-.56,6.23-1.52,2.27,1.71,5.09,2.74,8.15,2.74,7.5,0,13.57-6.08,13.57-13.57,0-3.15-1.08-6.04-2.88-8.34,1.8-2.3,2.88-5.19,2.88-8.34Z"/>
      <path class="cls-6" d="m68.24,23.12h-3.54c-.08-.12-.16-.23-.24-.33-.62-.83-1.34-1.58-2.11-2.24-.1-.09-.21-.17-.32-.26l.2-3.54c-.53-.33-1.08-.63-1.64-.89l-2.87,2.08c-.13-.04-.26-.09-.39-.13-.98-.3-1.99-.49-3.02-.57-.14-.01-.27-.02-.41-.03l-1.91-2.98c-.62.05-1.24.13-1.85.24l-1.09,3.37c-.13.04-.26.08-.39.13-.48.16-.96.36-1.42.58s-.92.47-1.35.73c-.12.07-.23.15-.35.22l-3.3-1.29c-.48.4-.94.83-1.36,1.28l1.09,3.37c-.08.11-.16.22-.24.33-.59.85-1.08,1.75-1.47,2.7-.05.13-.1.25-.15.38l-3.43.9c-.15.6-.27,1.22-.35,1.83l2.86,2.08c0,.14,0,.28,0,.41.02,1.02.15,2.04.39,3.05.03.13.06.26.1.4l-2.24,2.73c.12.29.24.58.38.86s.28.56.42.83h3.53c.08.12.16.23.25.33.62.83,1.34,1.58,2.11,2.24.1.09.21.18.32.26l-.21,3.53c.53.33,1.08.63,1.64.89l2.86-2.08c.13.04.26.09.39.13.98.3,1.99.49,3.02.57.14,0,.27.02.41.03l1.91,2.98c.62-.05,1.24-.13,1.85-.24l1.09-3.37c.13-.04.26-.08.39-.13.48-.17.96-.36,1.43-.58s.92-.47,1.36-.73c.12-.07.23-.15.35-.22l3.29,1.29c.48-.4.94-.83,1.36-1.28l-1.09-3.37c.08-.11.16-.22.24-.33.59-.85,1.08-1.75,1.47-2.7.05-.13.1-.25.15-.38l3.43-.9c.15-.6.27-1.22.35-1.83l-2.86-2.08c0-.14,0-.27,0-.41-.02-1.01-.15-2.04-.4-3.05l2.28-2.78c-.04-.12-.09-.24-.14-.35-.12-.29-.24-.57-.38-.86s-.28-.56-.42-.83Zm-11.86,14.75c-3.66,1.73-8.03.17-9.76-3.49s-.17-8.03,3.49-9.76,8.03-.17,9.76,3.49c1.73,3.66.17,8.03-3.49,9.76Z"/>
      <path class="cls-6" d="m36.92,18.99h-2.04c-.05-.07-.09-.13-.14-.19-.36-.48-.77-.91-1.22-1.29-.06-.05-.12-.1-.18-.15l.12-2.04c-.31-.19-.62-.36-.95-.52l-1.66,1.2c-.08-.03-.15-.05-.23-.07-.57-.17-1.15-.28-1.74-.33-.08,0-.16-.01-.24-.02l-1.1-1.72c-.36.03-.71.07-1.07.14l-.63,1.94c-.08.02-.15.05-.23.07-.28.1-.55.21-.82.34s-.53.27-.78.42c-.07.04-.13.08-.2.13l-1.9-.74c-.28.23-.54.48-.79.74l.63,1.94c-.05.06-.09.13-.14.19-.34.49-.63,1.01-.85,1.56-.03.07-.06.15-.09.22l-1.98.52c-.09.35-.15.7-.2,1.06l1.65,1.2c0,.08,0,.16,0,.24.01.59.09,1.18.23,1.76.02.08.04.15.06.23l-1.29,1.58c.07.17.14.33.22.5s.16.32.24.48h2.04c.05.07.09.13.14.19.36.48.77.91,1.22,1.29.06.05.12.1.18.15l-.12,2.04c.31.19.62.36.95.52l1.65-1.2c.08.03.15.05.23.07.57.17,1.15.28,1.74.33.08,0,.16.01.24.01l1.1,1.72c.36-.03.71-.07,1.07-.14l.63-1.94c.08-.02.15-.05.23-.07.28-.1.55-.21.82-.34s.53-.27.78-.42c.07-.04.13-.08.2-.13l1.9.74c.28-.23.54-.48.79-.74l-.63-1.94c.05-.06.09-.13.14-.19.34-.49.63-1.01.85-1.56.03-.07.06-.15.09-.22l1.98-.52c.09-.35.15-.7.2-1.06l-1.65-1.2c0-.08,0-.16,0-.24-.01-.59-.09-1.18-.23-1.76l1.32-1.61c-.03-.07-.05-.14-.08-.2-.07-.17-.14-.33-.22-.49s-.16-.32-.24-.48Zm-6.85,8.52c-2.11,1-4.63.1-5.63-2.01s-.1-4.63,2.01-5.63,4.63-.1,5.63,2.01.1,4.63-2.01,5.63Z"/>
      <g>
        <circle class="cls-4" cx="78.8" cy="97.17" r="33.69"/>
        <g>
          <g id="polygon3960">
            <polygon class="cls-2" points="66.76 78.25 67.43 77.89 68.01 78.38 68.71 78.1 69.24 78.64 69.97 78.43 70.43 79.03 71.18 78.9 71.58 79.54 72.34 79.49 72.67 80.17 73.43 80.19 73.68 80.91 74.44 81.01 74.62 81.75 75.36 81.93 75.46 82.69 76.18 82.94 76.2 83.7 76.88 84.03 76.83 84.79 77.47 85.19 77.34 85.94 77.94 86.4 77.73 87.13 78.27 87.65 77.99 88.36 78.48 88.94 78.11 89.61 78.54 90.24 78.11 90.87 78.48 91.53 77.99 92.11 78.27 92.82 77.73 93.34 77.94 94.07 77.34 94.54 77.47 95.28 76.82 95.68 76.88 96.44 76.2 96.77 76.18 97.53 75.46 97.79 75.36 98.54 74.62 98.72 74.44 99.46 73.68 99.56 73.43 100.28 72.67 100.3 72.34 100.99 71.58 100.93 71.18 101.58 70.43 101.44 69.97 102.04 69.24 101.83 68.71 102.38 68.01 102.09 67.43 102.58 66.76 102.22 66.13 102.65 65.5 102.22 64.84 102.58 64.26 102.09 63.55 102.38 63.02 101.83 62.29 102.04 61.83 101.44 61.08 101.58 60.68 100.93 59.93 100.99 59.6 100.3 58.84 100.28 58.58 99.56 57.83 99.46 57.65 98.72 56.91 98.54 56.81 97.79 56.09 97.53 56.07 96.77 55.38 96.44 55.44 95.68 54.79 95.28 54.93 94.54 54.33 94.07 54.54 93.34 53.99 92.82 54.28 92.11 53.79 91.53 54.15 90.87 53.72 90.24 54.15 89.61 53.79 88.94 54.28 88.36 53.99 87.65 54.54 87.13 54.33 86.4 54.93 85.94 54.79 85.19 55.44 84.79 55.38 84.03 56.07 83.7 56.09 82.94 56.81 82.68 56.91 81.93 57.65 81.75 57.83 81.01 58.58 80.91 58.84 80.19 59.6 80.17 59.93 79.49 60.69 79.54 61.09 78.9 61.83 79.03 62.3 78.43 63.03 78.64 63.55 78.1 64.26 78.38 64.84 77.89 65.5 78.25 66.13 77.82 66.76 78.25"/>
            <path class="cls-5" d="m66.13,102.84s-.08-.01-.11-.03l-.53-.36-.56.31c-.07.04-.16.03-.22-.02l-.49-.41-.59.24c-.07.03-.16.01-.22-.05l-.44-.46-.62.18c-.08.02-.16,0-.21-.07l-.39-.51-.63.12c-.08.01-.16-.02-.2-.09l-.34-.54-.64.05c-.09.01-.16-.04-.19-.11l-.28-.58-.64-.02c-.08,0-.15-.05-.18-.13l-.22-.6-.63-.09c-.08-.01-.14-.07-.16-.15l-.15-.62-.62-.15c-.08-.02-.14-.08-.15-.17l-.08-.64-.6-.21c-.08-.03-.13-.1-.13-.18l-.02-.64-.58-.28c-.07-.03-.12-.11-.11-.19l.05-.64-.54-.34c-.07-.04-.1-.12-.09-.2l.12-.63-.51-.39c-.06-.05-.09-.13-.07-.21l.18-.62-.46-.44c-.06-.06-.08-.14-.05-.22l.24-.59-.41-.49c-.05-.06-.06-.15-.02-.22l.31-.56-.37-.53c-.05-.07-.05-.16,0-.22l.37-.53-.31-.56c-.04-.07-.03-.16.02-.22l.41-.49-.24-.59c-.03-.07-.01-.16.05-.22l.46-.44-.18-.62c-.02-.08,0-.16.07-.21l.51-.39-.12-.63c-.01-.08.02-.16.09-.2l.55-.34-.05-.64c0-.08.04-.16.11-.19l.58-.28.02-.64c0-.08.05-.15.13-.18l.61-.22.09-.63c.01-.08.07-.15.15-.16l.62-.15.15-.63c.02-.08.09-.14.17-.15l.64-.08.21-.6c.03-.08.1-.13.18-.13l.64-.02.28-.58c.03-.07.11-.12.19-.11l.64.05.34-.54c.04-.07.12-.11.2-.09l.63.12.39-.51c.05-.06.13-.09.21-.07l.62.18.44-.46c.06-.06.14-.08.22-.05l.59.24.49-.41c.06-.05.15-.06.22-.02l.56.31.53-.37c.07-.05.16-.05.22,0l.53.37.56-.31c.07-.04.16-.03.22.02l.49.41.59-.24c.07-.03.16-.01.22.05l.44.46.62-.18c.08-.02.16,0,.21.07l.39.51.63-.12c.08-.02.16.02.2.09l.34.54.64-.05c.08-.01.16.04.19.11l.28.58.64.02c.08,0,.15.05.18.13l.21.6.64.09c.08.01.15.07.16.15l.15.62.62.15c.08.02.14.08.15.16l.09.64.6.21c.08.03.13.1.13.18l.02.64.58.28c.07.03.12.11.11.19l-.05.64.54.34c.07.04.1.12.09.2l-.12.63.51.39c.06.05.09.13.07.21l-.18.62.46.44c.06.06.08.14.05.22l-.24.59.41.49c.05.06.06.15.02.22l-.31.56.36.53c.05.07.05.15,0,.22l-.36.53.31.56c.04.07.03.16-.02.22l-.41.49.24.59c.03.07.01.16-.05.22l-.46.44.18.61c.02.08,0,.16-.07.21l-.51.39.12.63c.01.08-.02.16-.09.2l-.55.34.05.64c0,.08-.04.16-.11.19l-.58.28-.02.64c0,.08-.05.15-.13.18l-.6.22-.09.63c-.01.08-.07.15-.15.16l-.62.15-.15.62c-.02.08-.08.14-.16.15l-.64.09-.21.6c-.03.08-.1.13-.18.13l-.64.02-.28.58c-.04.07-.11.12-.19.11l-.64-.05-.34.54c-.04.07-.12.1-.2.09l-.63-.12-.39.51c-.05.06-.13.09-.21.07l-.62-.18-.44.46c-.06.06-.14.08-.22.05l-.59-.24-.49.41c-.06.05-.15.06-.22.02l-.56-.31-.53.36s-.07.03-.11.03Zm-.63-.82s.08.01.11.03l.52.35.52-.35c.06-.04.14-.05.2-.01l.55.3.48-.4c.06-.05.13-.06.2-.03l.58.24.43-.45c.05-.05.13-.07.2-.05l.6.18.38-.5c.05-.06.12-.09.19-.07l.62.11.33-.53c.04-.06.11-.1.18-.09l.62.05.27-.57c.03-.07.1-.11.17-.11l.63-.02.21-.59c.02-.07.09-.12.16-.13l.62-.08.15-.61c.02-.07.07-.13.15-.15l.61-.15.08-.62c0-.07.06-.13.13-.16l.59-.21.02-.63c0-.07.05-.14.11-.17l.56-.27-.05-.63c0-.07.03-.14.09-.18l.54-.33-.11-.62c-.01-.07.02-.15.07-.19l.5-.38-.17-.6c-.02-.07,0-.15.05-.2l.45-.43-.24-.58c-.03-.07-.02-.15.03-.2l.4-.48-.3-.55c-.03-.06-.03-.14.01-.2l.35-.52-.35-.52c-.04-.06-.05-.14-.01-.2l.3-.55-.4-.48c-.05-.06-.06-.13-.03-.2l.24-.58-.45-.43c-.05-.05-.07-.13-.05-.2l.18-.6-.5-.38c-.06-.05-.09-.12-.07-.19l.11-.62-.53-.33c-.06-.04-.1-.11-.09-.18l.05-.63-.56-.27c-.07-.03-.11-.1-.11-.17l-.02-.63-.59-.21c-.07-.02-.12-.09-.13-.16l-.08-.62-.61-.15c-.07-.02-.13-.07-.15-.15l-.15-.61-.62-.08c-.07,0-.13-.06-.16-.13l-.21-.59-.63-.02c-.07,0-.14-.05-.17-.11l-.27-.56-.63.05c-.08.01-.14-.03-.18-.09l-.33-.53-.62.11c-.07.01-.15-.01-.19-.07l-.38-.5-.6.18c-.07.02-.15,0-.2-.05l-.43-.45-.58.24c-.07.03-.15.02-.2-.03l-.48-.4-.55.3c-.07.03-.14.03-.21-.01l-.52-.36-.52.36c-.06.04-.14.05-.21.01l-.55-.3-.48.4c-.06.05-.13.06-.2.03l-.58-.24-.43.45c-.05.05-.13.07-.2.05l-.6-.18-.38.5c-.05.06-.12.09-.19.07l-.62-.11-.33.53c-.04.06-.11.1-.18.09l-.63-.05-.27.56c-.03.07-.1.11-.17.11l-.63.02-.21.59c-.02.07-.09.12-.16.13l-.62.08-.15.61c-.02.07-.07.13-.15.15l-.61.15-.08.62c0,.07-.06.13-.13.16l-.59.21-.02.63c0,.07-.05.14-.11.17l-.56.27.05.62c0,.07-.03.14-.09.18l-.53.33.11.62c.01.07-.02.15-.07.19l-.5.38.17.6c.02.07,0,.15-.05.2l-.45.43.24.58c.03.07.02.15-.03.2l-.4.48.3.55c.04.07.03.14-.01.21l-.36.52.36.52c.04.06.05.14.01.21l-.3.55.4.48c.05.06.06.13.03.2l-.24.58.45.43c.05.05.07.13.05.2l-.17.6.5.38c.06.05.09.12.07.19l-.11.62.53.33c.06.04.1.11.09.18l-.05.63.56.27c.07.03.11.1.11.17l.02.63.59.21c.07.02.12.09.13.16l.08.62.61.15c.07.02.13.07.15.14l.15.61.62.08c.07,0,.13.06.16.13l.21.59.63.02c.07,0,.14.05.17.11l.27.56.62-.05c.08,0,.14.03.18.09l.33.53.62-.11c.07-.01.15.02.19.07l.38.5.6-.18c.07-.02.15,0,.2.05l.43.45.58-.24c.07-.03.15-.02.2.03l.48.4.55-.3s.06-.02.09-.02Z"/>
          </g>
          <g id="circle3946">
            <circle class="cls-5" cx="66.24" cy="90.51" r="4.11"/>
            <path class="cls-5" d="m66.24,94.72c-2.32,0-4.21-1.89-4.21-4.21s1.89-4.21,4.21-4.21,4.21,1.89,4.21,4.21-1.89,4.21-4.21,4.21Zm0-8.23c-2.21,0-4.02,1.8-4.02,4.02s1.8,4.02,4.02,4.02,4.02-1.8,4.02-4.02-1.8-4.02-4.02-4.02Z"/>
          </g>
          <g id="polygon3948">
            <polygon class="cls-2" points="90.96 78.24 91.61 77.84 92.21 78.3 92.9 77.98 93.45 78.5 94.17 78.25 94.67 78.83 95.41 78.65 95.84 79.27 96.6 79.18 96.96 79.84 97.72 79.83 98.01 80.53 98.77 80.59 98.99 81.32 99.74 81.46 99.88 82.21 100.61 82.43 100.67 83.18 101.37 83.48 101.35 84.24 102.02 84.6 101.92 85.36 102.55 85.79 102.37 86.53 102.95 87.02 102.7 87.74 103.22 88.29 102.89 88.98 103.36 89.59 102.96 90.24 103.36 90.89 102.89 91.49 103.22 92.18 102.7 92.73 102.95 93.45 102.37 93.94 102.55 94.69 101.92 95.12 102.02 95.87 101.35 96.24 101.37 97 100.67 97.29 100.61 98.05 99.88 98.26 99.74 99.01 98.99 99.15 98.77 99.88 98.01 99.94 97.72 100.65 96.96 100.63 96.6 101.3 95.84 101.2 95.41 101.82 94.67 101.65 94.17 102.23 93.45 101.97 92.9 102.5 92.21 102.17 91.61 102.63 90.96 102.24 90.31 102.63 89.71 102.17 89.02 102.5 88.47 101.97 87.75 102.23 87.25 101.65 86.51 101.82 86.08 101.2 85.32 101.3 84.96 100.63 84.2 100.65 83.91 99.94 83.15 99.88 82.93 99.15 82.18 99.01 82.04 98.26 81.31 98.05 81.25 97.29 80.55 97 80.57 96.24 79.9 95.87 80 95.12 79.37 94.69 79.55 93.94 78.97 93.45 79.22 92.73 78.7 92.18 79.03 91.49 78.56 90.89 78.96 90.24 78.56 89.59 79.03 88.98 78.7 88.29 79.22 87.74 78.97 87.02 79.55 86.53 79.37 85.79 80 85.36 79.9 84.6 80.57 84.24 80.55 83.48 81.25 83.18 81.31 82.43 82.04 82.21 82.18 81.46 82.93 81.32 83.15 80.59 83.91 80.53 84.2 79.83 84.96 79.84 85.32 79.18 86.08 79.27 86.51 78.65 87.25 78.83 87.75 78.25 88.47 78.5 89.02 77.98 89.71 78.3 90.31 77.84 90.96 78.24"/>
            <path class="cls-5" d="m91.61,102.83s-.07,0-.1-.03l-.55-.34-.55.34c-.07.04-.16.04-.22-.01l-.51-.39-.58.28c-.07.03-.16.02-.22-.04l-.46-.44-.61.21c-.08.03-.16,0-.21-.06l-.41-.49-.63.15c-.08.02-.16-.01-.21-.08l-.36-.53-.64.08c-.08,0-.16-.03-.2-.1l-.31-.56h-.64c-.08.01-.15-.03-.19-.11l-.25-.59-.64-.05c-.08,0-.15-.06-.17-.14l-.18-.62-.63-.12c-.08-.02-.14-.08-.16-.16l-.12-.63-.62-.18c-.08-.02-.13-.09-.14-.17l-.05-.64-.59-.25c-.07-.03-.12-.1-.12-.19v-.64s-.55-.31-.55-.31c-.07-.04-.11-.12-.1-.2l.08-.64-.53-.36c-.07-.05-.1-.13-.08-.21l.15-.63-.49-.41c-.06-.05-.09-.14-.06-.21l.21-.61-.44-.46c-.06-.06-.07-.15-.04-.22l.28-.58-.39-.51c-.05-.06-.05-.15-.01-.22l.34-.55-.34-.55c-.04-.07-.04-.16.01-.22l.39-.51-.28-.58c-.03-.07-.02-.16.04-.22l.44-.46-.21-.61c-.03-.08,0-.16.06-.21l.49-.41-.15-.63c-.02-.08.01-.16.08-.21l.53-.36-.08-.64c-.01-.08.03-.16.1-.2l.56-.31v-.64c-.02-.08.03-.15.11-.19l.59-.25.05-.64c0-.08.06-.15.14-.17l.62-.18.12-.63c.02-.08.08-.14.16-.16l.63-.12.18-.62c.02-.08.09-.13.17-.14l.64-.05.25-.59c.03-.07.11-.13.19-.12h.64s.31-.55.31-.55c.04-.07.11-.11.2-.1l.64.08.36-.53c.05-.07.13-.1.21-.08l.63.15.41-.49c.05-.06.14-.08.21-.06l.61.21.46-.44c.06-.06.15-.07.22-.04l.58.28.51-.39c.06-.05.15-.05.22-.01l.55.34.55-.34c.07-.04.16-.04.22.01l.51.39.58-.28c.07-.03.16-.02.22.04l.46.44.61-.21c.08-.03.16,0,.21.06l.41.49.63-.15c.08-.02.16.01.21.08l.36.53.64-.08c.08,0,.16.03.2.1l.31.56h.64c.08-.02.15.03.19.11l.25.59.64.05c.08,0,.15.06.17.14l.18.62.63.12c.08.02.14.08.16.16l.12.63.62.18c.08.02.13.09.14.17l.05.64.59.25c.07.03.12.1.12.19v.64s.55.31.55.31c.07.04.11.12.1.2l-.08.64.53.36c.07.05.1.13.08.21l-.15.63.49.41c.06.05.09.14.06.21l-.21.61.44.46c.06.06.07.15.04.22l-.28.58.39.51c.05.06.05.15.01.22l-.34.55.34.55c.04.07.04.16-.01.22l-.39.51.28.58c.03.07.02.16-.04.22l-.44.46.21.61c.03.08,0,.16-.06.21l-.49.41.15.63c.02.08-.01.16-.08.21l-.53.36.08.64c.01.08-.03.16-.1.2l-.56.31v.64c.02.08-.03.15-.11.19l-.59.25-.05.64c0,.08-.06.15-.14.17l-.62.18-.12.63c-.02.08-.08.14-.16.16l-.63.12-.18.62c-.02.08-.09.13-.17.14l-.64.05-.25.59c-.03.07-.11.12-.19.12h-.64s-.31.55-.31.55c-.04.07-.12.11-.2.1l-.64-.08-.36.53c-.05.07-.13.1-.21.08l-.63-.15-.41.49c-.05.06-.14.08-.21.06l-.61-.21-.46.44c-.06.06-.15.07-.22.04l-.58-.28-.51.39s-.08.04-.12.04Zm-1.9-.86s.08.01.12.04l.5.38.54-.33c.06-.04.14-.04.21,0l.54.33.49-.38c.06-.05.14-.05.2-.02l.57.27.45-.43c.05-.05.13-.07.2-.04l.59.21.4-.48c.05-.06.12-.08.19-.06l.61.15.35-.51c.04-.06.11-.09.19-.08l.62.08.3-.55c.04-.06.1-.1.18-.1h.63s.24-.57.24-.57c.03-.07.09-.11.17-.12l.62-.05.18-.6c.02-.07.08-.12.15-.14l.62-.12.12-.62c.01-.07.07-.13.14-.15l.6-.18.05-.62c0-.07.05-.14.12-.17l.58-.24v-.63c-.02-.07.02-.14.09-.18l.55-.3-.08-.62c0-.07.02-.14.08-.19l.51-.35-.15-.61c-.02-.07,0-.15.06-.19l.48-.4-.21-.59c-.02-.07,0-.15.04-.2l.43-.45-.27-.57c-.03-.07-.02-.15.02-.2l.38-.49-.33-.54c-.04-.06-.04-.14,0-.21l.33-.54-.38-.49c-.05-.06-.05-.14-.02-.2l.27-.57-.43-.45c-.05-.05-.07-.13-.04-.2l.21-.59-.48-.4c-.06-.05-.08-.12-.06-.19l.15-.61-.51-.35c-.06-.04-.09-.11-.08-.19l.08-.62-.55-.3c-.06-.04-.1-.1-.1-.18v-.63s-.56-.24-.56-.24c-.07-.03-.11-.09-.12-.17l-.05-.62-.6-.18c-.07-.02-.12-.08-.14-.15l-.12-.62-.62-.12c-.07-.01-.13-.07-.15-.14l-.18-.6-.62-.05c-.07,0-.14-.05-.16-.12l-.24-.58h-.63c-.08.02-.14-.02-.18-.09l-.3-.55-.62.08c-.07,0-.15-.02-.19-.08l-.35-.51-.61.15c-.07.02-.15,0-.2-.06l-.4-.48-.59.21c-.07.02-.15,0-.2-.04l-.45-.43-.57.27c-.07.03-.15.02-.2-.02l-.49-.38-.54.33c-.06.04-.14.04-.21,0l-.54-.33-.5.38c-.06.05-.14.05-.2.02l-.57-.27-.45.43c-.05.05-.13.07-.2.04l-.59-.21-.4.48c-.05.06-.12.08-.2.06l-.61-.15-.35.51c-.04.06-.11.09-.19.08l-.62-.08-.3.55c-.03.06-.11.1-.18.1h-.63s-.24.56-.24.56c-.03.07-.09.11-.16.12l-.62.05-.18.6c-.02.07-.08.12-.15.14l-.62.12-.12.62c-.01.07-.07.13-.14.15l-.6.18-.05.62c0,.07-.05.14-.12.17l-.58.24v.63c.02.07-.02.14-.09.18l-.55.3.08.62c0,.07-.02.14-.08.19l-.51.35.15.61c.02.07,0,.15-.06.19l-.48.4.21.59c.02.07,0,.15-.04.2l-.43.45.27.57c.03.07.02.15-.02.2l-.38.49.33.54c.04.06.04.14,0,.21l-.33.54.38.49c.05.06.05.14.02.2l-.27.57.43.45c.05.05.07.13.04.2l-.21.59.48.4c.06.05.08.12.06.19l-.15.61.51.35c.06.04.09.11.08.19l-.08.62.55.3c.06.04.1.1.1.18v.63s.57.24.57.24c.07.03.11.09.12.17l.05.62.6.18c.07.02.12.08.14.15l.12.62.62.12c.07.01.13.07.15.14l.18.6.62.05c.07,0,.14.05.17.12l.24.58h.63c.07-.01.14.02.18.09l.3.55.62-.08c.08,0,.15.02.19.08l.35.51.61-.15c.07-.02.15,0,.19.06l.4.48.59-.21c.07-.02.15,0,.2.04l.45.43.57-.27s.06-.02.08-.02Z"/>
          </g>
          <g id="circle3950">
            <circle class="cls-5" cx="91.07" cy="90.51" r="4.11"/>
            <path class="cls-5" d="m91.07,94.72c-2.32,0-4.21-1.89-4.21-4.21s1.89-4.21,4.21-4.21,4.21,1.89,4.21,4.21-1.89,4.21-4.21,4.21Zm0-8.23c-2.21,0-4.02,1.8-4.02,4.02s1.8,4.02,4.02,4.02,4.02-1.8,4.02-4.02-1.8-4.02-4.02-4.02Z"/>
          </g>
          <g id="circle3952">
            <circle class="cls-2" cx="65.48" cy="88.82" r="1.04"/>
            <path class="cls-5" d="m65.48,89.96c-.63,0-1.13-.51-1.13-1.13s.51-1.13,1.13-1.13,1.13.51,1.13,1.13-.51,1.13-1.13,1.13Zm0-2.07c-.52,0-.94.42-.94.94s.42.94.94.94.94-.42.94-.94-.42-.94-.94-.94Z"/>
          </g>
          <g id="circle3954">
            <circle class="cls-2" cx="89.75" cy="88.82" r="1.04"/>
            <path class="cls-5" d="m89.75,89.96c-.63,0-1.13-.51-1.13-1.13s.51-1.13,1.13-1.13,1.13.51,1.13,1.13-.51,1.13-1.13,1.13Zm0-2.07c-.52,0-.94.42-.94.94s.42.94.94.94.94-.42.94-.94-.42-.94-.94-.94Z"/>
          </g>
        </g>
        <path class="cls-3" d="m60.35,112.62s5.28,7.87,17.96,7.87,17.96-7.87,17.96-7.87"/>
      </g>
      <circle class="cls-1" cx="58.34" cy="59.1" r="4.38"/>
      <circle class="cls-1" cx="63.9" cy="67.79" r="2.71"/>
    </g>
  </g>
</svg>