<?xml version="1.0" encoding="UTF-8"?>
<svg id="Layer_2" data-name="Layer 2" xmlns="http://www.w3.org/2000/svg" viewBox="0 0 122.09 155.08">
  <defs>
    <style>
      .cls-1 {
        fill: #fff;
      }

      .cls-1, .cls-2, .cls-3, .cls-4, .cls-5 {
        stroke: #414042;
        stroke-miterlimit: 10;
      }

      .cls-2 {
        fill: #36abc7;
      }

      .cls-2, .cls-3, .cls-4, .cls-5 {
        stroke-width: .5px;
      }

      .cls-3 {
        fill: #f9a01b;
      }

      .cls-6 {
        fill: #414042;
        stroke-width: 0px;
      }

      .cls-4 {
        fill: #ffda61;
      }

      .cls-5 {
        fill: none;
      }
    </style>
  </defs>
  <g id="Layer_3" data-name="Layer 3">
    <g>
      <g>
        <rect class="cls-6" x="4.95" y="4.95" width="117.14" height="150.13" rx="17.21" ry="17.21"/>
        <rect class="cls-1" x=".5" y=".5" width="117.14" height="150.13" rx="17.21" ry="17.21"/>
      </g>
      <g>
        <rect class="cls-2" x="42.73" y="23.78" width="32.68" height="10.47" rx="1.96" ry="1.96"/>
        <rect class="cls-2" x="42.73" y="116.88" width="32.68" height="10.47" rx="1.96" ry="1.96"/>
        <circle class="cls-4" cx="30.73" cy="62.07" r="8"/>
        <circle class="cls-4" cx="87.41" cy="87.29" r="8"/>
        <circle class="cls-4" cx="87.41" cy="62.07" r="8"/>
        <path class="cls-5" d="m30.73,54.07v-13.06c0-6.63,5.37-12,12-12h0"/>
        <path class="cls-5" d="m75.41,29.01h0c6.63,0,12,5.37,12,12v13.06"/>
        <rect class="cls-3" x="51.58" y="79.8" width="14.98" height="14.98" transform="translate(-44.42 67.34) rotate(-45)"/>
        <path class="cls-5" d="m38.73,62.07h8.34c6.63,0,12,5.37,12,12v2.63"/>
        <line class="cls-5" x1="69.66" y1="87.29" x2="79.41" y2="87.29"/>
        <line class="cls-5" x1="87.41" y1="70.07" x2="87.41" y2="79.29"/>
        <line class="cls-5" x1="59.07" y1="97.88" x2="59.07" y2="116.88"/>
      </g>
    </g>
  </g>
</svg>