<?xml version="1.0" encoding="UTF-8"?>
<svg id="Layer_2" data-name="Layer 2" xmlns="http://www.w3.org/2000/svg" viewBox="0 0 153.72 138.32">
  <defs>
    <style>
      .cls-1 {
        fill: #36abc7;
        stroke-width: 0px;
      }

      .cls-2 {
        stroke-linecap: round;
      }

      .cls-2, .cls-3 {
        fill: none;
        stroke: #414042;
        stroke-miterlimit: 10;
        stroke-width: 4px;
      }
    </style>
  </defs>
  <g id="Layer_3" data-name="Layer 3">
    <g>
      <g>
        <path class="cls-2" d="m11.24,79.12c4.42,32.3,32.11,57.19,65.62,57.19s61.2-24.89,65.62-57.19"/>
        <polyline class="cls-2" points="2 92.7 10.94 77.22 26.41 86.16"/>
      </g>
      <g>
        <path class="cls-2" d="m142.48,59.19C138.06,26.89,110.38,2,76.86,2c-33.52,0-61.2,24.89-65.62,57.19"/>
        <polyline class="cls-2" points="151.72 45.61 142.78 61.09 127.31 52.16"/>
      </g>
    </g>
    <g>
      <path class="cls-1" d="m76.86,49.67c-2.53,0-6.21-7.4-8.5-6.65s-.99,8.94-2.96,10.37-9.33-2.38-10.78-.39,4.46,7.76,3.69,10.13-8.94,3.49-8.94,6.03,8.2,3.74,8.94,6.03-5.13,8.16-3.69,10.13,8.79-1.84,10.78-.39.59,9.6,2.96,10.37,5.96-6.65,8.5-6.65,6.21,7.4,8.5,6.65.99-8.94,2.96-10.37,9.33,2.38,10.78.39-4.46-7.76-3.69-10.13,8.94-3.49,8.94-6.03-8.2-3.74-8.94-6.03,5.13-8.16,3.69-10.13-8.79,1.84-10.78.39-.59-9.6-2.96-10.37-5.96,6.65-8.5,6.65Zm0,30.89c-.8,0-.33-7.92-1.05-8.16s-5.03,6.43-5.65,5.98,4.4-6.59,3.95-7.22-7.84,2.27-8.09,1.52,7.44-2.72,7.44-3.52-7.67-2.8-7.44-3.52,7.63,2.14,8.09,1.52-4.57-6.76-3.95-7.22,4.9,6.22,5.65,5.98.26-8.16,1.05-8.16.33,7.92,1.05,8.16,5.03-6.43,5.65-5.98-4.4,6.59-3.95,7.22,7.84-2.27,8.09-1.52-7.44,2.72-7.44,3.52,7.67,2.8,7.44,3.52-7.63-2.14-8.09-1.52,4.57,6.76,3.95,7.22-4.9-6.22-5.65-5.98-.26,8.16-1.05,8.16Z"/>
      <path class="cls-3" d="m76.86,49.67c-2.53,0-6.21-7.4-8.5-6.65s-.99,8.94-2.96,10.37-9.33-2.38-10.78-.39,4.46,7.76,3.69,10.13-8.94,3.49-8.94,6.03,8.2,3.74,8.94,6.03-5.13,8.16-3.69,10.13,8.79-1.84,10.78-.39.59,9.6,2.96,10.37,5.96-6.65,8.5-6.65,6.21,7.4,8.5,6.65.99-8.94,2.96-10.37,9.33,2.38,10.78.39-4.46-7.76-3.69-10.13,8.94-3.49,8.94-6.03-8.2-3.74-8.94-6.03,5.13-8.16,3.69-10.13-8.79,1.84-10.78.39-.59-9.6-2.96-10.37-5.96,6.65-8.5,6.65Zm0,30.89c-.8,0-.33-7.92-1.05-8.16s-5.03,6.43-5.65,5.98,4.4-6.59,3.95-7.22-7.84,2.27-8.09,1.52,7.44-2.72,7.44-3.52-7.67-2.8-7.44-3.52,7.63,2.14,8.09,1.52-4.57-6.76-3.95-7.22,4.9,6.22,5.65,5.98.26-8.16,1.05-8.16.33,7.92,1.05,8.16,5.03-6.43,5.65-5.98-4.4,6.59-3.95,7.22,7.84-2.27,8.09-1.52-7.44,2.72-7.44,3.52,7.67,2.8,7.44,3.52-7.63-2.14-8.09-1.52,4.57,6.76,3.95,7.22-4.9-6.22-5.65-5.98-.26,8.16-1.05,8.16Z"/>
    </g>
  </g>
</svg>