<?xml version="1.0" encoding="UTF-8"?>
<svg id="Layer_2" data-name="Layer 2" xmlns="http://www.w3.org/2000/svg" viewBox="0 0 122.09 155.08">
  <defs>
    <style>
      .cls-1 {
        fill: #fff;
      }

      .cls-1, .cls-2, .cls-3, .cls-4, .cls-5, .cls-6, .cls-7 {
        stroke-miterlimit: 10;
      }

      .cls-1, .cls-2, .cls-3, .cls-5, .cls-6, .cls-7 {
        stroke: #414042;
      }

      .cls-2 {
        fill: #36abc7;
      }

      .cls-2, .cls-3, .cls-5, .cls-6, .cls-7 {
        stroke-width: .5px;
      }

      .cls-3 {
        stroke-linecap: round;
      }

      .cls-3, .cls-4 {
        fill: none;
      }

      .cls-4 {
        stroke: #fff;
      }

      .cls-5 {
        fill: #f9a01b;
      }

      .cls-6 {
        fill: #28788c;
      }

      .cls-8 {
        fill: #414042;
        stroke-width: 0px;
      }

      .cls-7 {
        fill: #ffda61;
      }
    </style>
  </defs>
  <g id="Layer_3" data-name="Layer 3">
    <g>
      <rect class="cls-8" x="4.95" y="4.95" width="117.14" height="150.13" rx="17.21" ry="17.21"/>
      <rect class="cls-1" x=".5" y=".5" width="117.14" height="150.13" rx="17.21" ry="17.21"/>
      <g>
        <g>
          <line class="cls-3" x1="25.37" y1="61.14" x2="92.77" y2="61.14"/>
          <line class="cls-3" x1="25.37" y1="66.37" x2="92.77" y2="66.37"/>
          <line class="cls-3" x1="25.37" y1="55.9" x2="92.77" y2="55.9"/>
          <line class="cls-3" x1="25.37" y1="50.67" x2="92.77" y2="50.67"/>
          <line class="cls-3" x1="25.37" y1="45.44" x2="92.77" y2="45.44"/>
          <line class="cls-3" x1="25.37" y1="40.2" x2="92.77" y2="40.2"/>
          <line class="cls-3" x1="25.37" y1="34.97" x2="92.77" y2="34.97"/>
          <line class="cls-3" x1="25.37" y1="29.73" x2="92.77" y2="29.73"/>
          <line class="cls-3" x1="25.37" y1="24.5" x2="92.77" y2="24.5"/>
        </g>
        <rect class="cls-2" x="28.37" y="27.56" width="8.17" height="38.81"/>
        <rect class="cls-7" x="46" y="52.07" width="8.17" height="14.3"/>
        <rect class="cls-6" x="63.63" y="39.31" width="8.17" height="27.06"/>
        <rect class="cls-5" x="81.27" y="22.71" width="8.17" height="43.66"/>
      </g>
      <g>
        <path class="cls-2" d="m67.47,81.33l-8.4,23.85-24.84,4.67c-.28-1.51-.43-3.07-.43-4.67,0-13.96,11.31-25.28,25.27-25.28,2.95,0,5.77.5,8.4,1.43Z"/>
        <path class="cls-6" d="m80.14,119.14c-4.52,6.82-12.27,11.32-21.07,11.32-12.36,0-22.65-8.88-24.84-20.61l24.84-4.67,21.07,13.96Z"/>
        <path class="cls-7" d="m84.35,105.18c0,5.16-1.55,9.96-4.21,13.96l-21.07-13.96,8.4-23.85c9.83,3.46,16.88,12.84,16.88,23.85Z"/>
        <path class="cls-4" d="m67.47,81.33l-8.4,23.85-24.84,4.67c-.28-1.51-.43-3.07-.43-4.67,0-13.96,11.31-25.28,25.27-25.28,2.95,0,5.77.5,8.4,1.43Z"/>
        <path class="cls-4" d="m80.14,119.14c-4.52,6.82-12.27,11.32-21.07,11.32-12.36,0-22.65-8.88-24.84-20.61l24.84-4.67,21.07,13.96Z"/>
        <path class="cls-4" d="m84.35,105.18c0,5.16-1.55,9.96-4.21,13.96l-21.07-13.96,8.4-23.85c9.83,3.46,16.88,12.84,16.88,23.85Z"/>
      </g>
    </g>
  </g>
</svg>