<?xml version="1.0" encoding="utf-8"?>
<!-- Generator: Adobe Illustrator 25.2.3, SVG Export Plug-In . SVG Version: 6.00 Build 0)  -->
<svg version="1.1" id="Layer_1" xmlns="http://www.w3.org/2000/svg" xmlns:xlink="http://www.w3.org/1999/xlink" x="0px" y="0px"
	 viewBox="0 0 1044 1367" 
	 width="143.87126"
   height="184.45589"
	 style="enable-background:new 0 0 1044 1367;" xml:space="preserve">
<style type="text/css">
	.st0{fill:#282828;}
	.st1{fill:#CBCBCB;}
	.st2{fill:#EEEEEE;}
	.st3{fill:#0098FE;}
	.st4{fill:#FEFEFE;}
	.st5{fill:#46B4FE;}
	.st6{fill:#FEFE00;}
	.st7{fill:#005FBF;}
	.st8{fill:#FECB00;}
	.st9{fill:#FE9800;}
	.st10{fill:#FE8300;}
	.st11{fill:#333333;}
	.st12{fill:#005EBF;}
	.st13{fill:#0098FD;}
	.st14{fill:#FCD324;}
	.st15{fill:#0052A5;}
	.st16{fill:#002B56;}
	.st17{fill:#F6E222;}
	.st18{fill:#0051A3;}
	.st19{fill:#989898;}
</style>
<g>
	<path d="M1012.6,112.8c-1.1-5.3-1.2-10.8-2.8-16.1c-4.7-15.2-11.8-29-22.8-40.5c-11.2-11.6-24-20.7-41.1-20.9
		c-2.1,0.1-4.3-0.3-6.4,0.3c-17.4,2.3-31.9,10.3-43.4,23.3c-6.5,7.4-9.9,16.2-7.5,26.3c1.9,8.1,7.3,13.8,13.7,18.5
		c9.3,6.9,17.7,14.6,24.3,24.2c4.7,6.9,8.7,14.1,10.6,22.4c1.6,7.4-1.1,13-6.8,17.5c-5.1,4-9.8,0.9-14.5-0.8c-2-0.7-3.8-2-5.6-3.2
		c-8.6-5.5-16.1-12.4-24-18.8c-5-4-10.3-7.3-16.3-9.5c-3.3-1.3-6.5-1.9-10.1-0.3c-10,4.3-19.5,9.4-28,16.2
		c-8,6.4-15.2,13.4-15.4,24.9c-0.3,17.5,8.2,29.9,22.3,38.7c23.4,14.5,48.9,17.2,75.5,12.1c3.9-0.7,4.4,0.1,4.5,3.6
		c0.3,16.7-3.3,32.7-8.8,48.3c-11.3,31.8-31.6,56.7-58.7,76.3c-3.5,2.5-7.1,5.3-11.3,7c-0.8-5.1-2-9.8-2-14.6
		c-0.1-13.3-7.9-20.8-18.5-26.7c-24.7-13.8-49.3-27.6-73.9-41.5c-6.4-3.6-13.2-6.1-20.6-6.9c-3.7-0.4-6.4-1.9-9-4.6
		c-16.3-17.3-34.6-32.2-54.7-44.9c-4-2.5-8.6-7.2-12.3-6.6c-3.8,0.6-5.2,7.5-7.9,11.4c-0.2,0.3-0.3,0.6-0.5,0.9
		c-5.6,9.3-5.6,9.3,3.6,14.8c13.7,8.2,26.4,17.8,38.6,28.8c-62.5,14.6-124.5,29-187.3,43.7c4.8-5,8.6-9.3,12.8-13.3
		c2.2-2.1,2.8-3.4,0.2-5.8c-4.6-4.2-8.9-8.6-13-13.2c-2.3-2.6-3.6-2.1-5.8,0.1c-14,14.3-28.6,27.9-43.4,41.4c-2.2,1.9-4.5,3.3-7.3,4
		c-64.6,15-129.2,30.1-193.8,45.2c-12.9,3-26.1,5.5-37.8,12.2c-4.7,2.7-9.3,5.9-10.5,11.5c-1.3,6-1.4,12,0.2,18.2
		c9.5,35.7,18.7,71.4,28,107.1c0.6,2.5,1,4.4-2.2,5.9c-30.7,14.1-60.1,30.7-89,48.1c-29.7,17.9-57.5,38.5-83.2,61.9
		c-9.4,8.6-17.4,18.4-18.4,32.1c-0.5,2-0.5,4,0,6c1.2,9.1,3.4,18,9.1,25.5c17,22.4,40.2,35,67.3,40.2c24.4,4.7,49.2,5.7,74,7.3
		c6.2,0.4,12.4,1,19.3,1.5c-7.9,9.2-13.1,18.9-16.6,29.6c-4.8,14.8-6.8,30-0.1,44.4c12.5,26.6,34.2,42.7,62.4,50
		c10.3,2.6,16.8-4.4,14.6-15c-2.3-10.5-2.2-21.1-1.7-31.8c0.2-4.5,0.4-8.9,2-13.9c3.6,8,8.2,14.4,14,20c9.8,9.5,21.6,15.2,34.9,11.5
		c14.9-4.1,26.8-13.6,34.9-27.3c4.8-8.1,6.4-17.2,7.5-26.5c7,3.8,11.3,8.6,9.4,16.8c-0.4,1.4-0.2,3-0.2,4.5
		c0.1,26.9,3.1,53.2,14.4,77.9c1.8,4.1,2.4,8.3,2.7,12.6c0.8,14,1.7,27.9,2.7,41.9c0.2,2.5-0.3,3.8-2.6,5.1c-5.6,3-10.5,7-15.2,11.3
		c-14.6,13.6-25.2,30.1-34.7,47.3c-12.5,22.7-21.9,46.6-23.5,72.9c-0.2,2.8-1.3,3.6-3.8,4.1c-40.5,7.9-80.8,16.4-121.4,23.8
		c-11.5,2.1-15.9,15.6-11.4,23.4c2.6,4.5,5.8,8.5,9.2,12.4c47,52.9,94,105.9,141.1,158.8c9.1,10.2,17.9,20.9,27.7,30.6
		c0.7,0,1.3,0,2.5,0.8c1.6-1.9,3.9-1.1,5.9-1.5c32.6-6.6,65.3-13,97.9-19.5c37.8-7.6,75.7-15.2,113.5-22.7c2.9-0.6,4.7-1.9,6.3-4.3
		c5.7-8.4,3.4-20.3-3.8-28.6c-29.6-33.9-59.6-67.4-89.5-101c-2.7-2.9-7.3-5.9-7.4-9c-0.1-3.5,5.4-5.7,7.9-9c2.6-3.5,4.1-2.9,6.9,0.2
		c40.9,46.2,81.9,92.2,122.7,138.4c3.4,3.9,6.7,4.7,11.7,3.7c69.6-14,139.2-27.9,208.9-41.7c9.1-1.8,13.9-7.7,12.9-17.1
		c-0.7-6.7-3.1-12.8-7.7-18c-31.2-35.1-62.4-70.3-93.7-105.3c-2.6-2.9-2.7-4.3,0.2-7c35.8-34.3,64.4-73.5,81.6-120.4
		c8.9-24.2,15.9-48.7,12.5-75.4c-2.6-20.8-2.4-41.9-3.7-62.9c-0.5-7.6,0-14.8,2.5-22.1c2.2-6.1,3.5-12.5,4.9-18.8
		c5.5-25.7,7.1-51.4,2.5-77.4c-1.4-7.9-1.3-7.9,6.9-9.9c1.3-0.4,2.6-0.7,3.9-1c16.7-4.3,26.4-18.3,24.3-35.5
		c-2-16.9-4.1-33.7-6.2-50.6c-3.9-30.9-7.7-61.8-11.6-92.7c-2.9-22.8-5.6-45.6-8.6-68.4c-0.4-2.7,0-4.1,2.6-5.5
		c19.1-10.2,37.1-22.2,54.1-35.6c21.5-17,41.9-35.4,57.3-58.2c35.1-52.2,44.6-109.5,31.7-170.7c-0.7-3.1-0.7-5.7,0.7-8.6
		c3.9-8.1,6.7-16.6,9.3-25.2c1.9-6,1.4-12.5,4.4-18.1v-10c-0.8-2.3-0.8-4.7,0-7V112.8z M264.8,683.3c-4.9-1.4-47.5-3.5-55.8-4
		c-19-1.2-60.7-1.8-61.4-1.9c-2.6-0.5-3.2-3-0.5-4.2c4.6-2.1,92.7-58.4,102.6-57.6c3.1,0.2,17.2,52.4,19.2,60.5
		C269.1,676.8,269.2,684.6,264.8,683.3z M639.4,819.3c1.1,8.1,11,22.7,10.6,30.9c-0.4,7.8,2.3,38.3,2.3,46.9
		c0,1.9-26.3,22.1-33,31.1c-7.1,9.5-22,33.5-25.2,41.6c-18.5,46.7-18.9,68.6-18.9,68.6c-7.8,0.9-11.9,2.4-24.6,1.9
		c-5.3-0.2,21.9-44.5,16.5-88.7c-0.6-5.2-5.9-72.2-3.7-76.9c11.3-23.9,13.7-84.9,13.5-95.3c0-1.9,53.2-16.9,53.2-15
		C630.5,776.2,637.9,808.7,639.4,819.3z"/>
	<path class="st0" d="M1012.4,127.4c-1.7-2.3-1.5-4.7,0-7C1012.4,122.7,1012.4,125.1,1012.4,127.4z"/>
	<path class="st1" d="M946.4,34.4c0,0.3,0,0.6,0,0.8c-2.4,0-4.7,0-7.1,0c0-0.3,0-0.5,0-0.8C941.7,34.4,944.1,34.4,946.4,34.4z"/>
	<path class="st2" d="M32.2,671.4c0,2,0,4,0,6h-0.4h-0.4c0-2,0-4,0-6C31.7,671.4,32,671.4,32.2,671.4z"/>
	<path class="st3" d="M608.7,537.3c48.6,60.3,138.2,54.8,184.2,4c39.5-43.7,47.3-128.7-18.5-179.1c9.6-2.4,18.7-4.7,27.8-7.1
		c9-2.4,17.9-5.3,25.3-12.6c1.4,9.9,2.7,19.1,3.9,28.3c4.9,38.3,9.9,76.6,14.7,114.9c4.5,35.8,8.9,71.7,13.4,107.5
		c3.1,25.1,5.8,50.3,9.6,75.3c2.4,15.5-6.1,26.2-19.7,29.5c-147.2,35.7-294.3,71.8-441.5,107.8c-14.7,3.6-17.7,1.4-20.6-13.4
		c-13.8-72.6-27.7-145.1-41.6-217.6c-4.7-24.8-9.4-49.7-13.9-74.6c-1.2-6.4-1.5-12.9-0.4-19.4c1.2-7.5,4.6-10.7,12.2-11.1
		c9.7-0.5,19.1-2.7,29.2-4.9c-17.9,45-15.5,87.7,13.6,127.2c20,27.2,47.1,43,80.4,48.5C533.7,651.3,598.5,604.3,608.7,537.3z"/>
	<path class="st4" d="M601.8,516.1c0.8,71.7-60,119.4-118.8,117.4c-69.5-2.4-115-61.9-113.1-118.9c2.3-68.1,60.3-115.1,118.7-113.2
		C558.6,403.8,602.7,462.5,601.8,516.1z"/>
	<path class="st5" d="M425.4,343.5c-11.5,9.5-23.1,19-34.6,28.5c-5.8,4.7-5.8,4.7-1,10.6c3.2,3.9,6.5,7.6,9.4,11.7
		c1.8,2.5,3,2.5,5.4,0.6c24.3-19.8,48.4-39.8,71.2-61.3c3.3-3.1,6.8-5,11.2-6c62.2-14.4,124.3-29.3,186.6-43.4
		c21.8-4.9,15.6-6.3,30.3,9.7c8.6,9.3,16.1,19.5,22.9,30.2c1.9,3,3.3,3.1,6.1,1.1c4.9-3.7,10.1-7.1,15.3-10.4c2.5-1.5,2.5-2.7,1-5
		c-5.5-8.1-11.2-16.1-17.3-23.8c-0.5-0.6-0.8-1.3-1.5-2.5c3.9,0.5,6.8,2.1,9.6,3.7c25.1,14.1,50.2,28.1,75.3,42.3
		c7.6,4.3,7.6,6.4-0.1,10.8c-5.4,3.1-11.4,4.7-17.3,6.2c-9.8,2.6-19.7,4.9-29.5,7.6c-3.5,1-6.3,0.5-9.4-1.2
		c-54.8-28.7-122.7-11.2-157.2,40.4c-1.8,2.7-3.8,4.3-6.9,5.1c-14.1,3.4-28.1,7-42.1,10.7c-2.6,0.7-4.8,0.5-7.2-0.8
		c-31.7-16.2-64.6-20-98.6-8.8c-26.2,8.7-47.3,24.8-63.2,47.4c-3.1,4.3-6.3,7-11.5,8.3c-20.4,5.1-40.9,7.2-61.9,4.4
		c-6.3-0.9-12.3-2.7-17.9-5.9c-27-15.4-54.1-30.7-81.2-46.1c-6.5-3.7-6.7-7.8-0.4-11.9c7.1-4.6,15.1-6.9,23.2-8.8
		c62.8-14.8,125.6-29.5,188.5-44.2c0.8-0.2,1.6-0.1,2.4-0.2C425.1,342.8,425.1,343.1,425.4,343.5z"/>
	<path class="st4" d="M705.1,572.6c-40-0.1-69.7-15.6-92.6-44.7c-1.5-1.9-2.3-3.9-2.2-6.4c0.9-25.1-5.2-48.4-18.8-69.6
		c-1.4-2.1-0.9-4.2-0.7-6.2c6.4-49.5,45.3-89.8,94.4-96.9c62.4-8.9,112.8,30.3,126.2,82.4c18,69.8-29,129.5-89.5,140.1
		C715.5,572.4,709,572.9,705.1,572.6z"/>
	<path class="st6" d="M184.9,1118.9c39.6-7.9,78.2-15.6,116.9-23.4c1.1-0.2,2.3-0.4,3.4-0.6c0.8-0.2,1.7-0.4,2,0.8
		c0.2,0.8-0.2,1.3-0.9,1.5c-2.8,1-2.8,3.3-3,5.7c-1,17.3-2.1,34.6-3.2,51.9c-0.2,3.2,0.6,5.8,2.7,8.2c17.8,21,35.6,41.9,53.1,63.1
		c2.6,3.1,5.3,2.9,8.5,2.3c25.3-4.8,50.7-9.6,76-14.4c3.3-0.6,6.5-1.3,9.8-1.8c4.3-0.6,6.2-2.9,6.3-7.4c0.3-13,1.4-26,1.4-39
		c0-5.8,4.6-7.3,7.7-10.1c1.8-1.6,2.8,1.2,3.7,2.2c13.9,15.5,27.7,31.1,41.5,46.7c16.5,18.6,33,37.1,49.4,55.7
		c0.6,0.7,1.2,1.5,2.2,2.8c-15,3-29.4,5.8-43.8,8.7c-54.5,10.9-109,21.7-163.4,32.6c-3.5,0.7-5.6,0.2-8.1-2.6
		c-51.6-58.3-103.3-116.4-154.9-174.6C190,1124.7,187.7,1122.1,184.9,1118.9z"/>
	<path class="st6" d="M830.2,1211c-58.3,11.6-115.6,23-172.8,34.4c-12.1,2.4-24.2,4.7-36.2,7.2c-2.5,0.5-3.9,0.1-5.6-1.8
		c-37.5-42.4-75.1-84.7-112.8-127.1c-1.8-2.1-2.8-3.4-0.4-6.1c18.1-20.2,32.7-42.8,44.3-67.3c0.7-1.5,1.4-2.8,3.4-3.2
		c7.4-1.3,14.7-2.9,22-4.4c0.8-0.2,1.7-0.7,2.2,0.4c0.4,0.9-0.1,1.6-1,2c-2.5,1.2-2.7,3.6-2.8,5.9c-1,16.5-1.9,32.9-3.1,49.4
		c-0.3,4.6,0.8,8.2,3.9,11.8c17.2,20.1,34.3,40.4,51.2,60.7c2.6,3.1,5.2,4,9.1,3.3c28.4-5.4,56.9-10.8,85.3-16.1
		c4.6-0.9,6.8-2.8,6.9-7.9c0.2-13.2,1-26.3,1.6-39.4c0.1-2.4,6-9.5,8.1-9.7c1.6-0.2,2.1,1.4,2.9,2.3c24.4,27.4,48.7,54.8,73,82.2
		C816.2,1195.2,822.9,1202.8,830.2,1211z"/>
	<path class="st7" d="M207.6,416.4c9.3,5.3,18.4,10.4,27.5,15.5c17.7,10,35.3,20.1,53,30.1c10.9,6.2,23,7.4,35.2,8.2
		c1.8,0.1,3.6,0,5.8,0c-8.2,22.4,0.2,43.5,4,64.8c10,55.1,20.9,110.1,31.4,165.1c6.1,31.8,12.1,63.7,18.1,95.6
		c0.5,2.4,2,4.6,1.6,7.3c-5.9-2.1-10.1-6.5-14.9-10.1c-9.6-7.2-15.7-15.7-20.1-27.6c-11.8-32.2-32.9-57.8-63.5-74.2
		c-7-3.8-9.5-8.3-11.2-15.1c-5-20-10.2-39.9-15.6-59.9c-0.9-3.4-0.6-5.2,2.9-7c18.6-9.4,36.9-19.2,55.5-28.5c5-2.5,7.6-5.2,6.5-11.1
		c-0.9-4.7-0.7-9.6-0.9-14.4c-0.1-2.9-1.5-5-3.9-6.6c-17-11.4-34-22.8-51-34.2c-2.6-1.7-5-2.1-7.9-0.8c-7.2,3.1-14.5,5.9-21.7,8.9
		c-2,0.8-3.4,1.6-4.2-1.6c-8.8-34.1-17.7-68.2-26.6-102.3C207.4,418,207.5,417.5,207.6,416.4z"/>
	<path class="st6" d="M310,553.3c-15.3,7.6-29.9,14.8-44.4,22.2c-47.1,24-94.2,48.2-138.6,76.9c-10.5,6.8-20.6,14-30.3,22
		c-16.6,13.7-21.4,24.6-20.5,46.4c-21.3-9.7-35.5-28.4-35.1-47c0.3-12.9,8.1-21.2,16.6-29c23.3-21.3,48.5-40.1,75.4-56.6
		c40-24.5,81-47.3,124.8-64.6c3.8-1.5,6.5-1.3,10,1.1C281.6,534.3,295.4,543.5,310,553.3z"/>
	<path class="st6" d="M857.3,145.7c-0.5,20.1,11.3,31.7,26.6,40.7c24.6,14.5,50.6,19.9,78.5,11.6c3.7-1.1,4.3,0.6,4.8,3.3
		c1.7,8.3,2.6,16.8,2.8,25.3c1,30.6-3.2,60.4-14.8,88.9c-7.8,19.1-19.6,35.4-34.3,49.8c-21.8,21.4-46.9,38.2-73.9,53.6
		c-1.3-10-2.5-19.5-3.7-29c-0.5-3.6-0.5-7.4-1.5-10.9c-1.5-5.1,0.5-7.7,4.7-10.4c23.4-15,43.6-33.4,57.7-57.7
		c14.3-24.6,23-50.8,23-79.5c0-3.1-0.5-6.3-0.9-9.4c-0.7-5.2-2.8-6.7-7.9-5.2c-18.3,5.3-36.5,4.9-54.7-0.3
		c-13.5-3.8-25.9-9.7-33.8-22.2c-6.3-9.9-8.3-24,4.2-33.9C841.3,154.7,848.8,149.8,857.3,145.7z"/>
	<path class="st8" d="M163.4,639.4c20.2-12.6,41.3-23.6,62.3-34.5c27.6-14.4,55.4-28.2,83.1-42.3c1.6-0.8,3.3-1.4,4.8-2.1
		c0.3,0.5,0.5,0.6,0.5,0.7c1.3,10.3,1.2,10.2-8,15c-62.9,32.4-125,66-184.6,104.1c-5.5,3.5-10.8,7.3-14.8,12.5
		c-2.2,2.8-3.9,5.8-4.5,9.3c-1.6,10.5,3.3,16.7,14.6,19.4c8.8,2,17.9,2.1,26.8,2.5c30.4,1.6,60.9,3.1,91.2,6.4
		c24,2.6,48.1,4.4,71.4,11c12.8,3.6,23,11.4,31.2,21.5c8.5,10.4,8.5,23.1,6.6,35.7c-2.9,20.1-15.9,31.9-33.6,39.4
		c-3,1.3-6.3,0.7-9.4,0.5c-1.6-0.1-3.6,0.2-4.1-2c-0.5-2.1,0.1-3.9,2.1-5.1c5-3.3,10-6.7,14.3-10.9c2.7-2.7,5.6-5.3,8.1-8.1
		c11.5-12.8,12-26.7,1.4-40.2c-6.1-7.8-14.2-13.1-23.7-15.8c-12-3.4-22.6,1.7-30.5,14.3c-9.7,15.4-14.4,32.5-16.5,50.3
		c-1.6,13.8-1.9,27.6,1,41.3c1,4.6-0.4,6-5,4.9c-5.3-1.2-9.3-4.1-11.3-9.5c-5.3-14.8-4.6-29.8-1.3-44.8c4-18.4,11.4-35.4,21.7-51.2
		c1.5-2.2,3-4.4,5.3-5.9c1.8-1.2,3.1-2.7,2.3-5c-0.8-2.3-2.5-3.3-4.9-3.5c-11.8-0.9-23.6-2-35.4-2.8c-34.7-2.5-69.5-4.3-104.1-8.3
		c-7.9-0.9-15.8-2-23.4-4.7c-11.6-4.2-16.1-12.3-13.5-24.6c2.4-11.4,9.6-19.6,18.2-26.7c17.8-14.8,37.5-26.9,57.4-38.6
		C161.2,641.7,162.6,641,163.4,639.4z"/>
	<path class="st8" d="M977.5,214.4c-1.8-6.1-1.6-12.5-3.7-18.6c-2.5-7.1-3.9-8.1-10.9-5.9c-31.7,9.8-59.7,1.8-85.4-17.5
		c-8.5-6.4-12.8-15.1-12.4-26c0.1-3.1,1.2-3.7,4-2.3c4.4,2.1,8.4,4.7,12.2,7.8c4.8,3.9,9.6,7.7,14.2,11.8c14,12.5,30,17.4,48.5,13.5
		c4.2-0.9,8.5-1.6,12.7-2.7c13.6-3.8,23.1-11.7,26.3-25.8c5.9-26.2,1.4-49.6-19.5-68.1c-8.2-7.3-16.9-14-25.5-20.9
		c-3.6-2.9-4.3-6.4-3.5-10.6c0.6-3.1,2.1-4.8,5.7-5c10.9-0.6,20.5,3,28.8,9.5c28.6,22.5,38.2,52.5,33.1,87.8
		c-1.9,13.1-6.3,25.5-11.9,37.4c-1.7,3.5-1.9,6.8-1,10.6c12.9,59.1,4.2,114.6-29.6,165.2c-14.6,21.9-34.2,39.5-54.7,55.8
		c-15.5,12.4-32,23.4-49.2,33.2c-1.4,0.8-2.9,1.5-4.8,2.6c-0.8-5.8-1.4-11.2-2.3-16.6c-0.5-3,1.7-3.6,3.5-4.6
		c20.7-11.6,40.2-24.8,58.7-39.7c37.1-29.8,58.7-68.2,64.9-115.3c1.9-14.2,2.6-28.5,2.7-42.8C977.4,222.9,978.6,218.6,977.5,214.4z"
		/>
	<path class="st3" d="M755.4,830.2c-15.8,2.5-31.6,4.8-47.3,7.6c-3.9,0.7-4.1-0.4-3.7-3.6c2.3-18.7,2.7-37.5,2-56.3
		c-0.3-8.3-1.1-16.6-1.9-24.9c-0.3-3,0.3-4.2,3.7-4.7c41.5-6.1,82.9-12.3,124.3-18.6c3.4-0.5,4.7-0.2,5.1,3.9
		c2.5,28.2-2.3,55.3-10.2,82.2c-0.6,2.2-1.8,2.8-3.8,3.1c-9.4,1.4-18.7,2.9-28.1,4.4c-2.3-2.3-1.5-5.3-1.4-8
		c0.1-7.4-1.3-14.5-4.2-21.4c-2-4.6-4.9-8.5-10.4-8.8c-5.4-0.3-9.1,3-11.7,7.2c-5.9,9.7-8.3,20.6-9,31.8
		C758.6,826.6,759.1,829.6,755.4,830.2z"/>
	<path class="st3" d="M488.4,882.2c-15.9,2.5-31.9,4.9-47.8,7.6c-3.4,0.6-4.2,0.4-3.8-3.4c3-24.7,3.4-49.5,0.9-74.3
		c-0.3-2.7-0.1-4.1,3.1-4.9c25.7-5.9,51.1-13.3,77.1-18.2c16-3.1,32.2-4.9,48.3-7.6c4.1-0.7,3.9,1.7,4.1,4.3
		c1.4,19.7,0.1,39.3-4.3,58.5c-1.7,7.6-4,15.1-5.8,22.7c-0.6,2.7-2.1,3.7-4.7,4.1c-9,1.3-18.1,2.8-27.1,4.3
		c-1.9-1.9-1.3-4.3-1.4-6.6c-0.1-7-1.4-13.8-3.7-20.5c-1.1-3.2-2.7-6-5.1-8.4c-3.8-3.8-8.8-4.1-13-0.7c-3.5,2.9-6.2,6.4-8,10.6
		c-3.8,8.8-5.4,18.1-6.5,27.5C490.6,879.1,490.8,881.3,488.4,882.2z"/>
	<path class="st3" d="M634.6,1088.8c0-16.5,3.9-32,9.3-47.1c12-33.7,29.4-64.4,52.2-92c12.3-14.9,27.1-26.6,46.6-30.7
		c4.5-1,9.2-1.4,13.9-1.2c3.1,0.1,4.3,0.8,3.2,4.5c-3.5,11.7-8.9,22.6-14.7,33.2c-30.8,55.6-63.1,110.4-97.6,163.8
		c-3.3,5.1-3.5,5.2-6.4-0.4C636,1109.4,634.8,1099,634.6,1088.8z"/>
	<path class="st3" d="M367.2,1139.8c-0.2-16.1,3.9-31.3,9.2-46.2c11.6-32.9,28.8-62.8,50.6-90c10.5-13,22.9-23.7,38.7-29.8
		c7.4-2.8,15-4,22.9-4c3.7,0,4.9,1,3.5,5c-3.8,11.4-8.9,22.2-14.7,32.7c-30.8,55.6-63.1,110.3-97.5,163.7c-3.3,5.1-3.8,5.2-6.7-0.4
		C368.5,1161.1,367.1,1150.6,367.2,1139.8z"/>
	<path class="st3" d="M413.6,1171.9c6.8-11.1,12.9-21.3,19.3-31.5c33.6-53.8,65.4-108.6,97.5-163.3c5.2-8.9,11-17.5,17.6-25.5
		c3.8-4.6,5.2-4.9,9.7-0.9c6.5,5.9,6.1,13.6,5.2,21.3c-3.9,33.7-16.4,64.4-33,93.5c-20.7,36.3-47.8,67.2-80.9,92.8
		C439.1,1166,427.8,1171.2,413.6,1171.9z"/>
	<path class="st3" d="M681.4,1119.4c11-18,21.4-35.4,32.2-52.6c28.7-45.8,55.4-92.9,82.9-139.4c5.8-9.8,11.9-19.3,19.2-28
		c3.8-4.5,5.3-4.6,9.7-0.7c5,4.4,5.8,10.3,5.4,16.4c-1.2,19.8-6.6,38.6-13.6,57c-19.1,50.4-51,91.6-91,126.9
		c-9.9,8.8-21.2,15.5-34,19.3C688.8,1119.3,685.5,1119.7,681.4,1119.4z"/>
	<path class="st7" d="M628.6,1107.3c-2.8-1.4-3.9-3.3-5.3-4.9c-9.6-11.7-19.1-23.6-28.7-35.3c-1.6-1.9-2.2-3.6-1.6-6.3
		c11.4-48.8,31.6-93.4,63.9-132.2c2.5-3,4.4-3.5,7.9-2.2c9.8,3.7,19.7,7.1,29.6,10.6c0.5,0.2,0.9,0.4,1.5,0.8
		c-18,19.7-32.4,41.9-44.2,65.6c-12.2,24.3-22.5,49.3-24.7,76.9C626.4,1089.1,626.9,1097.9,628.6,1107.3z"/>
	<path class="st7" d="M360.1,1159.2c-2.3-2.6-3.9-4.4-5.4-6.2c-9.1-11.3-18.2-22.6-27.3-33.8c-1.6-2-2.2-3.8-1.6-6.3
		c11.5-48.6,31.4-93.1,63.6-131.8c2.7-3.2,4.8-3.9,8.7-2.4c10,3.9,20.2,7.3,30.7,11c-18.1,20.1-32.5,42.2-44.4,65.9
		s-21.8,48.2-24.5,74.9c-0.7,6.8-0.7,13.6,0.2,20.4C360.2,1153.3,360.6,1155.6,360.1,1159.2z"/>
	<path class="st9" d="M324.2,738.9c-19.8-10.3-41.6-11.6-62.9-14.4c-44.1-5.9-88.6-7.8-133-10.2c-3.8-0.2-7.6-1-11.3-2
		c-6.8-2-8.4-7.1-4.2-13c3.5-4.8,8.5-7.9,13.1-11.4c4.6-3.5,9.4-4.7,15.2-4.6c37,0.5,73.9,2.5,110.6,7.2
		c25.7,3.3,45.9,15.7,62.6,34.8C318.1,729.4,322.1,733.4,324.2,738.9z"/>
	<path class="st9" d="M940.9,169.7c9.7-14.4,4.3-27-2.4-39.2c-6.7-12.3-15.8-22.6-27-31c-2.9-2.2-5.9-4.4-8.4-7
		c-8-7.9-8.7-16.4-2.3-25.6c5.7-8.1,13.5-13.6,22.4-17.8c2.3-1.1,3.4-0.9,3.2,2c-0.7,6.9,2.9,11.6,8,15.7
		c8.5,6.7,16.8,13.7,25.2,20.5c18.2,14.7,22.5,46.2,13.9,65.7c-1.8,4.1-4.7,7.2-8.4,9.6C957.9,167,950,168.7,940.9,169.7z"/>
	<path class="st3" d="M527.4,885.4c9.2-1.5,18.4-2.8,27.6-4.5c2.5-0.5,3.2,0.2,3.3,2.6c0.5,11.6,1.1,23.3,1.8,34.9
		c0.2,2.5-0.6,3.5-3.1,3.9c-22.8,3.9-45.6,8-68.3,12c-14.4,2.5-28.8,5-43.2,7.6c-2.7,0.5-4.2,0.7-4.3-3c-0.4-11.8-1.1-23.6-1.8-35.4
		c-0.2-3,0.7-3.9,3.7-4.4c15.8-2.4,31.5-5,47.3-7.6c2,1.9,1.5,4.6,2.2,7c1.6,5.3,2.8,10.6,7.1,14.6c4.9,4.6,9.4,4.8,14.5,0.1
		c5.2-4.8,7.7-11.1,9.7-17.7C524.8,892.2,524.7,888.3,527.4,885.4z"/>
	<path class="st3" d="M794.5,833.6c9.3-1.5,18.7-3,28-4.7c2.2-0.4,2.9-0.1,3.1,2.2c0.5,11.8,1.2,23.6,1.9,35.4
		c0.2,2.6-0.8,3.4-3.2,3.9c-37.5,6.5-74.9,13.2-112.4,19.8c-2.3,0.4-3.3,0-3.4-2.6c-0.5-12.1-1.1-24.3-1.9-36.4
		c-0.2-2.9,1-3.5,3.6-3.9c15.8-2.5,31.5-5.1,47.2-7.7c1.9,1.5,2,3.7,2.4,5.8c1,4.9,2.3,9.7,5.4,13.8c5.2,7.2,12.8,7.2,18.3,0.2
		c4.8-6,7-13.1,9-20.4C792.9,837.1,792.8,835,794.5,833.6z"/>
	<path class="st8" d="M353.6,1327.3c1.2-5.2,2.2-9.8,1.1-14.7c-0.8-3.6,2.9-2.6,4.5-2.9c14.8-3.2,29.6-6,44.5-9
		c53-10.5,106-21,158.9-31.6c2.8-0.6,4.1-0.3,5.2,2.6c3.3,8.5,1.2,12.8-7.6,14.5C491.6,1299.9,423,1313.5,353.6,1327.3z"/>
	<path class="st8" d="M620.9,1275.2c1.7-4.4,2.3-8.6,1.4-12.6c-0.8-3.6,0.8-4.4,3.8-5c15.2-2.9,30.3-6,45.5-9
		c52.8-10.5,105.6-20.9,158.4-31.6c3.3-0.7,4.4,0.3,5.4,3c3.1,8.1,1.1,12.3-7.2,14c-64.4,12.8-128.7,25.6-193.1,38.4
		C630.5,1273.3,626,1274.2,620.9,1275.2z"/>
	<path class="st9" d="M229.1,859.6c-14.6-8-25.6-18.9-33.8-32.6c-5.2-8.7-5.9-18.4-4.7-28.1c1.8-15.2,7.6-28.9,17.8-40.5
		c3.3-3.8,7-5.9,12.6-5.3c10.2,1.2,20.5,1.5,31,2.2C232.8,787.7,219.4,820.8,229.1,859.6z"/>
	<path class="st3" d="M680.7,1105.3c-2.9,4.7-5.4,8.8-7.8,12.9c-3.1,5.3-2,8,4.1,9c7.9,1.2,15.5-0.3,22.9-3.2
		c5.8-2.3,11.5-5,16.1-7.8c0,11.3,0,22.5,0,33.8c0,3.1-2.5,2.8-4.2,3.1c-16.5,3.2-33,6.2-49.5,9.3c-10.1,1.9-20.2,3.8-30.2,5.7
		c0-15.4,0-30.6,0-45.8c3.7,2.9,5.8,6.7,9.4,9c3.7,2.4,6.3,2,8.7-1.8c3.5-5.7,7.4-11,10.8-16.8c2-3.4,4.5-5,8.2-5.4
		C672.9,1107,676.4,1106.1,680.7,1105.3z"/>
	<path class="st3" d="M413.2,1157.4c-3.1,5.1-5.9,9.5-8.5,13.9c-2.4,4.3-1.5,6.5,3.3,7.6c6.1,1.4,12.3,0.9,18.3-0.8
		c8.1-2.3,15.8-6,23.6-10.6c-0.5,12-1.1,23.2-1.5,34.5c-0.1,3.1-2.3,2.8-4.1,3.2c-23.5,4.5-47,8.9-70.6,13.3
		c-9.7,1.8-9.7,1.7-9.6-8.4c0.1-11.9,0-23.8,0.8-35.8c3.3,3.4,5.6,7,9.3,9.3c3.5,2.2,6.1,1.8,8.3-1.8c3.5-5.6,7.4-11,10.8-16.8
		c2-3.5,4.7-5.2,8.7-5.6C405.6,1159,408.9,1158.2,413.2,1157.4z"/>
	<path class="st3" d="M561.3,942.6c-0.6,0-0.9,0.1-1.2,0c-10.2-4.2-11.9-3.7-18.8,4.9c-5.4,6.8-10.3,13.9-14.9,21.2
		c-1.3,2.1-2.8,3.1-5.1,3.4c-6.1,0.9-12.2,1.9-18.2,3c-2.4,0.4-2.8-0.1-2.4-2.5c1.3-8.7,0.3-9.6-8.5-10.3
		c-15.3-1.2-29.3,2.7-42.2,10.6c-2,1.2-4,2.4-5.9,3.6c-1.6-1.2-1.2-2.8-1.3-4.2c-0.5-7.1-0.6-14.3-1.2-21.4c-0.2-3,0.8-4,3.7-4.5
		c37.2-6.5,74.3-13,111.4-19.6c2.7-0.5,3.9-0.3,3.9,2.9C560.6,933.9,561.1,938.3,561.3,942.6z"/>
	<path class="st3" d="M828.2,890.3c-11.8-3.8-12.7-3.5-20.7,6.7c-4.8,6.2-9.2,12.6-13.4,19.3c-1.3,2.1-2.8,3.4-5.4,3.8
		c-6.1,0.9-12.2,1.9-18.2,3c-2,0.4-2.8,0.2-2.2-2.1c0.4-1.6,0.3-3.3,0.3-5c0-3.4-1.7-5.1-5.1-5.5c-16.1-1.8-31.1,1.4-44.9,9.7
		c-2.4,1.4-4.8,2.9-8,4.8c-0.5-9.8-0.9-19-1.3-28.2c-0.1-2.1,1.7-2.1,3.2-2.3c24.7-4.3,49.5-8.7,74.2-13c12.3-2.2,24.6-4.2,36.8-6.6
		c3.6-0.7,4.9,0,4.8,3.7C828.1,882.3,828.2,886.1,828.2,890.3z"/>
	<path class="st7" d="M672.3,804.8c0-16.6,0.1-33.3-0.1-49.9c0-2.9,0.6-4.5,3.8-5.2c5.5-1.1,11-2.5,16.5-4c2.7-0.8,3.6,0.3,3.8,2.8
		c2.4,23.9,3.8,47.8,1,71.7c-1.4,11.7-5,23.1-12.5,32.7c-2.3,3-5.3,5-9,6c-3.5,0.9-5.6,0.3-5.5-4.2c0.2-16.6,0.1-33.3,0.1-49.9
		C671,804.8,671.7,804.8,672.3,804.8z"/>
	<path class="st7" d="M669.8,1099.3c6.7-11.1,12.9-21.3,19.1-31.6c20.6-34.6,41.5-69,60.8-104.4c4.8-8.8,9.5-17.6,13.1-26.9
		c1.3-3.2,2.8-5.1,6.7-5.4c5.4-0.5,10.8-1.7,17-2.8c-3.2,5.5-6,10.3-8.8,15.2c-28.6,50.4-58.9,99.8-89.1,149.1
		c-1.5,2.5-3.2,4-6.1,4.4C678.7,1097.5,674.8,1098.4,669.8,1099.3z"/>
	<path class="st7" d="M403.4,1151.1c0.2-3.1,2.1-4.9,3.4-7c25.9-42.7,51.8-85.4,75.8-129.2c4.8-8.8,9.5-17.6,13.1-26.9
		c1.1-2.9,2.6-4.5,6-4.8c5.6-0.5,11.1-1.8,17.5-2.8c-2.8,4.8-5.2,8.8-7.6,13c-28.9,51.2-59.7,101.2-90.3,151.3
		c-1.5,2.4-3.2,4-6.1,4.4C411.2,1149.6,407.4,1150.4,403.4,1151.1z"/>
	<path class="st10" d="M288.1,833.2c-12.2-9-18.8-20.9-21.4-35.1c-0.3-1.9,0.9-4.1,1.7-6.1c2.9-7.8,6.4-15.3,12-21.6
		c5.2-5.9,11.1-7.5,18.4-4.8c9.2,3.4,16.6,8.9,20.9,18.1c3.2,6.8,2.9,13.1-1.8,19.2c-6.1,8-13.6,14.6-22,20.1
		C292.1,825.3,289.1,828.1,288.1,833.2z"/>
	<path class="st7" d="M404.5,863.3c0-14.5,0.1-28.9,0-43.4c0-2.8,0.7-4.1,3.7-4.6c6.2-1.2,12.3-2.8,18.4-4.5c2.4-0.7,3.5,0,3.6,2.4
		c1.1,22.6,3.3,45.2-1.9,67.6c-1.8,7.6-4.4,15-8.8,21.6c-3,4.4-6.6,8-12.1,8.8c-2.5,0.4-4.5,0.3-4.5-3.4c0.2-14.8,0.1-29.6,0.1-44.4
		C403.4,863.3,403.9,863.3,404.5,863.3z"/>
	<path class="st7" d="M388.5,910.8c16.9,12.2,25.4,11.1,38.6-5.2c1.7,25.9,3.3,51,5,76.8c-10-3.5-19.5-6.8-29-10.1
		c-11.3-4-11.1-4.1-11.7-16.1C390.6,941.3,389.5,926.3,388.5,910.8z"/>
	<path class="st7" d="M656,859.3c18.4,11.1,26.1,10,38.5-5.8c1.7,26,3.4,51,5.1,76.8c-4.5-1.5-8.5-2.8-12.5-4.2
		c-8-2.8-16-5.6-24-8.5c-1.7-0.6-3.5-0.9-3.7-3.4C658.3,896.2,657.2,878.1,656,859.3z"/>
	<path class="st7" d="M578.8,1059.9c10,12.3,19.5,24.1,29,35.8c4.9,6.1,9.8,12.2,14.7,18.3c1.1,1.4,2.4,2.7,2.3,4.8
		c-0.5,13.3-0.8,26.6-1.2,39.9c0,0.6-0.2,1.2-0.5,2.6c-9.3-11-18.2-21.5-27.1-32c-6.2-7.4-12.4-14.8-18.7-22.2
		c-1.2-1.4-2.2-2.7-2.1-4.8c0.9-13.5,1.7-26.9,2.5-40.4C577.9,1061.5,578.2,1061.1,578.8,1059.9z"/>
	<path class="st7" d="M355.4,1213c-6.3-7.4-12.6-14.8-18.9-22.3c-8.7-10.3-17.3-20.6-26.1-30.9c-1.9-2.2-2.6-4.2-2.3-7.2
		c1-13.4,1.7-26.9,2.5-40.9c3.7,2.8,5.8,6.4,8.3,9.5c12,14.9,24,29.8,36.1,44.6c1.8,2.2,2.6,4.3,2.5,7.2
		c-0.1,13.1-0.1,26.3-0.1,39.4C356.6,1212.7,356.1,1212.9,355.4,1213z"/>
	<path class="st8" d="M348.1,1324.8c-10.1-11.3-19.5-21.8-28.9-32.4c-30.7-34.6-61.5-69.3-92.2-103.9
		c-15.3-17.2-30.6-34.3-45.8-51.6c-2.7-3.1-5.2-6.7-4.7-11.2c0.2-1.5,0.6-3.3,2-3.8c1.5-0.6,2.1,1.3,2.9,2.2
		c14.1,15.8,28.1,31.6,42.2,47.4c30.9,34.7,61.7,69.5,92.5,104.3c10.2,11.5,20.3,22.9,30.5,34.4
		C350.5,1314.3,349.6,1319,348.1,1324.8z"/>
	<path class="st7" d="M318.9,1107.1c-4.4-9.3-5.2-19-3.8-28.7c4.4-31.7,17.8-59.7,35.7-85.8c8.1-11.7,16.9-22.7,28.8-30.9
		c1.1-0.7,2.2-1.4,3.9-2.5c1,8.1,2.3,14.6-3.7,21.8c-27.6,33.3-45.6,71.7-57.3,113.2C321.1,1098.5,320,1102.8,318.9,1107.1z"/>
	<path class="st7" d="M585.9,1056.9c-3.2-7.8-3.6-14.6-3.8-21.4c-0.4-19.5,5.9-37.4,13.5-54.8c9.9-23,23-44.3,40.7-62.3
		c3.5-3.5,7.7-6.4,11.5-9.5c2.6-2.1,3.6-1.4,3.6,1.9c0,3,0.3,6,0.8,8.9c0.4,2.2-0.8,3.5-1.9,4.8c-21.5,25.6-37.7,54.3-49.8,85.4
		C594.8,1024.8,590.1,1040,585.9,1056.9z"/>
	<path class="st7" d="M661.4,852.1c-6.3-7.6-10.4-16.5-13.6-25.7c-7-20.4-9.2-41.5-9.5-62.9c0-3.1,0.6-4.8,4.1-5.4
		c6.4-1.2,12.6-3,18.9-4.6c2.3-0.6,3.2-0.2,3.1,2.5c-0.6,25.8-1,51.6-1.5,77.4c-0.1,6.1,0,12.3,0,18.4
		C662.4,851.9,661.9,852,661.4,852.1z"/>
	<path class="st7" d="M371,806.9c6.2,3.9,12.1,6,17.8,8.7c2.5,1.2,6.4-0.5,7.5,2.6c0.9,2.5,0.2,5.6,0.2,8.4c-0.4,25-0.8,50-1.2,75
		c0,0.9,0.4,2-1.1,3.4C373.6,875.4,371,842.1,371,806.9z"/>
	<path class="st8" d="M615.6,1272.8c-13.3-14.9-25.8-29-38.2-43c-28.1-31.6-56.2-63.3-84.2-94.9c-2.6-3-1.6-7.2,2.1-8.8
		c2.3-1,2.8,1.3,3.7,2.4c15,16.7,29.9,33.5,44.9,50.4c22.9,25.8,45.7,51.7,68.8,77.2C617.1,1261,617,1265.9,615.6,1272.8z"/>
	<path class="st11" d="M527.4,885.4c-1.7,8.5-3.7,16.9-8.5,24.3c-3.1,4.8-7.1,8.8-13.3,8.3c-6-0.5-9.1-5.1-11.4-10
		c-2.4-5.2-3.8-10.6-4.1-16.3c-1.2-3,0.1-6.6-1.9-9.4c2.4-3.5,1.4-7.7,1.9-11.5c1.3-9.1,3.4-17.9,8.1-26c0.8-1.4,1.8-2.8,2.9-4
		c7-7.9,15.4-7.2,20.9,1.8c4.3,7,5.5,14.9,6.1,22.9c0.2,3.3,0.1,6.6,0.2,10C528.1,878.7,527.8,882.1,527.4,885.4z"/>
	<path class="st11" d="M794.5,833.6c-1,8.7-3.6,16.8-8.2,24.3c-2.9,4.7-7,8.4-12.8,8.1c-6-0.2-9.2-4.8-11.6-9.7
		c-2.6-5.3-3.4-11-4.5-16.7c-0.8-3.1,1.9-6.9-2-9.3c2.6-1.2,1.8-3.6,2-5.6c0.7-11.4,2.9-22.4,8.8-32.3c1.1-1.8,2.5-3.6,4-5.1
		c6.1-6,13.9-5.2,18.7,1.9c6.2,9.3,6.9,19.9,7,30.6c0,1.2-0.2,2.3-0.2,3.5C795.2,826.6,795.9,830.2,794.5,833.6z"/>
	<path class="st12" d="M722.5,738.6c36.6-9,73.3-18,109.9-27.1c2.9-0.7,4.4-0.3,4.4,2.9c0,2,0.4,4,0.6,5.9c0.2,2.1-0.8,2.8-2.8,3.1
		c-26.7,3.9-53.3,8-79.9,11.9c-9.7,1.4-19.4,2.7-29.1,4.1C724.4,739.7,722.9,740.9,722.5,738.6z"/>
	<path class="st13" d="M559.5,416.9c11.5-2.9,21.9-5.6,33.1-8.4c-4.4,10.3-7.6,20.1-9.4,31.4C576,431.3,568.6,424,559.5,416.9z"/>
	<path class="st14" d="M977.5,214.4c1.8,4.2,0.7,8.5,0.7,12.7C977.1,222.9,977.4,218.7,977.5,214.4z"/>
	<path class="st15" d="M722.5,738.6c0.8,1,2,0.7,3.1,0.9c-2.2,1.3-4.7,0.9-7.1,1.1c-0.2-0.2-0.3-0.4-0.3-0.7
		c0.1-0.2,0.1-0.4,0.2-0.4C719.8,739.2,721.1,738.9,722.5,738.6z"/>
	<path class="st16" d="M713.4,741.4c-1.5,1.7-3.3,0.8-5.1,0.4c1.7-0.4,3.5-0.8,5.2-1.2c0.3,0.2,0.4,0.4,0.3,0.6
		C713.6,741.3,713.5,741.4,713.4,741.4z"/>
	<path class="st17" d="M163.4,639.4c-0.3,2.6-1.7,3.3-4,2.2C160.7,640.8,162.1,640.1,163.4,639.4z"/>
	<path class="st18" d="M713.4,741.4c0-0.3,0-0.6,0.1-0.9c1.6-0.3,3.3-0.7,4.9-1c0,0.3,0,0.7,0,1
		C716.9,741.7,715.1,741.3,713.4,741.4z"/>
	<path d="M680.5,636.2c-0.3,17.9-4.5,32.8-17.8,43.6c-24,19.5-74.4,22-93.8-17.2c-0.5-1-1-2.1-1.4-3.2c-2.2-6-0.8-8.2,5.7-9
		c14.9-1.8,29.4-5.5,43.1-11.7c17.7-8.1,33.6-18.8,46.9-33.2c6.2-6.7,8.6-6.3,12.1,2.3C679.2,617.4,680.4,627.4,680.5,636.2z"/>
	<path d="M454.2,541.3c-13.6-0.2-24.3-11-24-24.6c0.2-13.4,11-24.2,24.1-24.2c13.5,0,24.8,11.1,24.7,24.2
		C478.9,530.6,468,541.4,454.2,541.3z"/>
	<path d="M673.7,432c13.4,0,24.3,10.9,24.3,24.5c0.1,13.2-11.1,24.3-24.6,24.3c-13.4,0-24.3-11-24.2-24.5
		C649.3,442.6,660,432,673.7,432z"/>
	<path class="st19" d="M521.3,870.4c-0.6,11-1.7,21.4-6.2,31.1c-1.8,3.8-3.5,8.9-8.5,8.7c-5-0.1-6.1-5.4-7-9.2
		c-4.4-17.6-3.2-34.9,4.5-51.5c0.4-0.9,1-1.7,1.6-2.5c4.2-5.9,7.6-5.7,11,0.7C520.5,855,520.5,863,521.3,870.4z"/>
	<path class="st19" d="M788.5,815.8c-0.1,13.9-1.6,24.4-6.2,34.2c-1.7,3.7-3.5,8.5-8.3,8.2c-4.6-0.3-5.9-5.2-6.8-8.9
		c-4.8-17.8-3.4-35.2,4.5-51.9c1.5-3.1,3.4-6.8,7.4-6.6c3.8,0.2,4.9,4.2,6.1,7.2C787.9,804.7,788.5,811.8,788.5,815.8z"/>
	<path class="st4" d="M667.9,612.9c8.3,23.7,5.5,56.1-21.7,67.2c-28.1,11.4-59.7,2.1-69.6-21.4c17.2-2.9,34.1-7.2,49.6-15.3
		C641.6,635.4,655.8,625.7,667.9,612.9z"/>
</g>
</svg>
