<?xml version="1.0" encoding="UTF-8"?>
<svg id="Layer_2" data-name="Layer 2" xmlns="http://www.w3.org/2000/svg" viewBox="0 0 31.99 31.99">
  <defs>
    <style>
      .cls-1 {
        fill: #fff;
      }

      .cls-1, .cls-2 {
        stroke-width: 0px;
      }

      .cls-2 {
        fill: #35abc7;
      }
    </style>
  </defs>
  <g id="Layer_1-2" data-name="Layer 1">
    <g>
      <circle class="cls-2" cx="15.99" cy="15.99" r="14.65"/>
      <path class="cls-1" d="M31.93,14.6c-.11-1.22-.36-2.44-.75-3.59-.49-1.5-1.2-2.9-2.09-4.17h.01c-.09-.15-.19-.28-.28-.41-.12-.15-.23-.29-.35-.44-.39-.48-.77-.91-1.16-1.3-.55-.54-1.13-1.05-1.74-1.51l-.75-.52c-.39-.26-.79-.5-1.2-.73-.22-.12-.44-.23-.66-.34-1.08-.52-2.23-.93-3.43-1.2-.08,0-.15-.02-.21-.03-.09-.03-.19-.05-.29-.07-.38-.08-.77-.14-1.17-.18-.13-.01-.27-.03-.41-.04-.13-.02-.26-.03-.4-.03-.14-.01-.28-.02-.43-.02-.2-.02-.41-.02-.62-.02-.13,0-.27,0-.4,0-.18,0-.37.01-.55.02-.47.03-.94.07-1.4.14-.1.01-.19.03-.28.05-.22.03-.43.07-.63.12-.08.02-.17.03-.26.05-.18.04-.36.08-.54.13-.08.02-.15.04-.22.07-.16.04-.32.08-.48.13-.5.16-.99.34-1.47.54-.24.1-.47.21-.71.32-.79.38-1.54.82-2.25,1.32-.34.24-.67.49-.99.76-.59.49-1.15,1.02-1.66,1.58-.17.19-.33.37-.49.56-.2.24-.38.48-.56.73l-.41.58h.01c-.23.34-.44.68-.63,1.02l-.3.55c-.06.09-.1.18-.14.27-.04.1-.09.19-.14.3-.25.55-.48,1.13-.68,1.71-.19.58-.35,1.17-.47,1.76l-.03.12c-.07.31-.12.61-.16.91-.04.28-.07.55-.1.82-.04.47-.06.95-.06,1.43s.02.97.07,1.45l.05.46c.05.42.12.84.19,1.18-.01.02-.01.03,0,.04.01.05.02.1.03.15,0,.04.01.07.02.1.09.34.17.67.27,1.03.06.2.11.39.18.58.21.62.44,1.21.69,1.76.08.19.17.37.28.56l.06.11c.08.15.16.3.24.45.25.44.53.89.85,1.32h-.01s.19.27.19.27c.08.12.18.24.27.36.25.33.51.65.79.95.17.19.35.37.52.54.12.12.24.24.37.36.04.04.09.08.13.11.07.07.15.15.23.22.13.11.26.23.4.34.19.15.37.3.56.44.04.03.08.06.13.09.15.12.31.23.46.34.08.05.16.1.23.15.17.11.33.21.5.32.44.26.9.51,1.36.73.24.12.47.22.71.32.72.31,1.46.56,2.23.76.19.05.39.09.58.13.14.03.28.06.41.09.45.08.91.15,1.37.2.07,0,.13.01.2.02.2.01.41.03.62.04.27.01.54.02.82.02.17,0,.35,0,.52-.01l.5-.02c.21-.02.41-.03.61-.05.49-.05.98-.12,1.45-.22.04,0,.07-.01.1-.02h.04s.03-.01.04-.01c.08-.02.16-.04.23-.05.26-.06.51-.12.76-.19.17-.05.34-.1.5-.15.25-.08.5-.16.74-.25.25-.09.49-.19.73-.29.24-.1.48-.2.71-.32.23-.11.46-.23.69-.35,1.32-.72,2.53-1.62,3.6-2.67.15-.15.29-.29.43-.44.28-.29.54-.6.8-.91.24-.29.47-.6.69-.92h-.02c.88-1.29,1.58-2.66,2.06-4.1.07-.21.13-.42.19-.63.06-.21.12-.41.17-.62.15-.62.25-1.25.33-1.86l.05-.46c.05-.48.07-.96.07-1.45s-.02-.94-.06-1.4ZM5.89,6.29c.05-.06.11-.12.19-.2l.24-.24c.08-.08.17-.16.3-.28l.28-.23c.1-.1.2-.18.3-.26.09-.08.19-.15.3-.23l.28-.23c.12-.07.22-.14.31-.21l.1-.06c.08-.06.15-.1.28-.18.09-.06.18-.12.28-.18.11-.07.22-.14.32-.2l.3-.16c.07-.03.14-.07.2-.1.06-.03.12-.06.17-.09l.33-.15c.08-.04.16-.08.25-.12-.92,1.16-1.71,2.6-2.33,4.25-.81-.31-1.55-.65-2.2-1.03l.1-.1ZM4.55,7.93c.87.54,1.82,1,2.84,1.38-.5,1.8-.78,3.72-.85,5.7H2.03c.17-2.55,1.04-4.99,2.52-7.08ZM4.55,24.06c-1.49-2.09-2.35-4.52-2.53-7.07h4.52c.07,1.98.35,3.9.85,5.7-1.02.38-1.97.84-2.84,1.37ZM10.07,28.71l-.68-.34c-.1-.06-.2-.11-.31-.18-.11-.06-.22-.12-.34-.19l-.08-.05c-.07-.05-.14-.09-.23-.15-.11-.06-.21-.13-.35-.23-.09-.05-.17-.11-.28-.2-.11-.07-.21-.15-.33-.25-.1-.06-.18-.13-.27-.2l-.33-.28c-.09-.07-.17-.14-.25-.21l-.39-.38s-.1-.09-.19-.19c-.09-.08-.18-.17-.25-.26.66-.37,1.4-.71,2.21-1.02.61,1.65,1.41,3.09,2.33,4.25-.09-.04-.18-.08-.26-.12ZM15.01,29.89c-2.06-.52-3.95-2.68-5.16-5.9,1.64-.44,3.37-.7,5.16-.76v6.66ZM15.01,21.25c-2.01.07-3.95.35-5.76.84-.42-1.62-.67-3.34-.74-5.1h6.5v4.26ZM15.01,15.01h-6.5c.07-1.76.32-3.48.74-5.11,1.8.48,3.74.77,5.76.85v4.26ZM15.01,8.76c-1.81-.06-3.54-.32-5.16-.75,1.21-3.23,3.1-5.39,5.16-5.91v6.66ZM21.93,3.29c.1.04.2.09.32.15.08.04.16.09.24.13l.13.07c.07.03.14.07.21.11l.08.05c.08.04.15.08.21.12l.15.09c.06.03.12.07.17.1l.87.59c.06.05.13.1.2.15l.28.23c.1.08.2.16.32.27.1.08.18.15.31.27.09.08.17.15.25.23l.26.26s.09.09.14.14c.04.05.08.1.13.14-.65.38-1.39.72-2.2,1.03-.62-1.65-1.41-3.09-2.33-4.25l.26.12ZM16.98,2.1c2.06.52,3.95,2.68,5.17,5.91-1.63.43-3.36.69-5.17.75V2.1ZM16.98,10.75c2.03-.08,3.96-.37,5.76-.85.42,1.63.67,3.35.74,5.11h-6.5v-4.26ZM16.98,16.99h6.5c-.07,1.76-.32,3.48-.74,5.1-1.81-.49-3.74-.77-5.76-.84v-4.26ZM16.98,29.89v-6.66c1.79.06,3.53.32,5.17.76-1.22,3.22-3.11,5.38-5.17,5.9ZM25.9,25.91c-.06.07-.13.13-.22.22-.1.1-.21.2-.31.29l-.27.23c-.1.1-.21.19-.31.27-.09.07-.17.14-.29.22-.09.08-.2.16-.33.25-.06.04-.11.08-.17.12l-.22.15c-.08.05-.15.1-.24.15-.06.05-.13.09-.19.13l-.14.08c-.1.06-.19.12-.3.17l-.98.52c-.09.04-.18.08-.26.12.92-1.16,1.71-2.6,2.33-4.25.8.3,1.54.65,2.2,1.02-.09.1-.19.2-.3.31ZM27.45,24.07c-.88-.54-1.84-1-2.84-1.38.49-1.8.77-3.72.84-5.7h4.52c-.17,2.55-1.04,4.98-2.52,7.08ZM25.45,15.01c-.07-1.98-.35-3.9-.84-5.7,1.01-.38,1.96-.84,2.84-1.38,1.48,2.09,2.34,4.53,2.52,7.08h-4.52Z"/>
    </g>
  </g>
</svg>