<?xml version="1.0" encoding="UTF-8"?>
<svg id="Layer_2" data-name="Layer 2" xmlns="http://www.w3.org/2000/svg" viewBox="0 0 39.39 26.39">
  <defs>
    <style>
      .cls-1 {
        fill: #35abc7;
        stroke: #133c46;
        stroke-miterlimit: 10;
      }

      .cls-2 {
        fill: #fff;
        stroke-width: 0px;
      }
    </style>
  </defs>
  <g id="Layer_1-2" data-name="Layer 1">
    <g>
      <rect class="cls-1" x=".5" y=".5" width="38.39" height="25.39" rx="5.67" ry="5.67"/>
      <path class="cls-2" d="m24.22,13.2s0,0,0,0c0,0,0,0,0,0h0c0-1.92-.63-3.79-1.76-5.33h.01s-.24-.31-.24-.31c-1.71-2.13-4.26-3.36-6.99-3.37-.01,0-.02,0-.04,0-.01,0-.02,0-.03,0-.68,0-1.34.08-1.98.22-1.63.37-3.13,1.19-4.33,2.39-.24.24-.47.49-.68.76l-.24.3h.01c-1.13,1.55-1.76,3.42-1.76,5.34,0,0,0,0,0,0,0,0,0,0,0,0,0,1.92.63,3.79,1.76,5.33h-.01s.24.31.24.31c1.71,2.14,4.26,3.36,7,3.37.01,0,.02,0,.03,0,.01,0,.02,0,.04,0,.85,0,1.67-.12,2.46-.35.96-.28,1.87-.71,2.69-1.29.03-.02.05-.04.08-.06.28-.2.55-.42.81-.66.34-.31.66-.65.95-1.01l.24-.3h-.01c1.13-1.55,1.76-3.42,1.76-5.34Zm-2.83,5.52s-.08.09-.13.14c-.06.07-.12.13-.19.2-.05.05-.09.09-.14.13-.06.06-.13.12-.19.18-.05.04-.1.09-.15.13-.06.06-.13.11-.19.16-.05.04-.11.08-.16.12-.07.05-.13.1-.2.15-.06.04-.11.08-.17.12-.07.05-.14.09-.2.14-.06.04-.12.07-.17.11-.07.04-.14.08-.21.12-.06.03-.12.07-.18.1-.07.04-.14.07-.21.11-.06.03-.12.06-.19.09-.07.03-.15.07-.22.1-.06.03-.13.05-.19.08-.08.03-.15.06-.23.09-.06.02-.13.05-.19.07-.05.02-.1.03-.15.05.81-.76,1.49-1.88,1.96-3.22.63.23,1.22.49,1.73.81,0,.01-.02.02-.03.03Zm-9.05,2.26c-.08-.03-.15-.06-.23-.09-.06-.03-.13-.05-.19-.08-.07-.03-.15-.06-.22-.1-.06-.03-.12-.06-.19-.09-.07-.04-.14-.07-.21-.11-.06-.03-.12-.07-.18-.1-.07-.04-.14-.08-.21-.12-.06-.04-.12-.07-.18-.11-.07-.04-.14-.09-.2-.13-.06-.04-.11-.08-.17-.12-.07-.05-.13-.1-.2-.15-.05-.04-.11-.08-.16-.13-.06-.05-.13-.11-.19-.16-.05-.04-.1-.09-.15-.13-.06-.06-.12-.11-.18-.17-.05-.05-.1-.09-.15-.14-.06-.06-.12-.12-.18-.19-.05-.05-.09-.1-.14-.15,0,0-.02-.02-.03-.03.51-.32,1.09-.59,1.73-.81.48,1.35,1.16,2.46,1.96,3.23-.05-.02-.1-.03-.15-.05-.06-.02-.13-.05-.19-.07Zm-3.32-13.3c.04-.05.09-.1.14-.15.06-.06.12-.12.18-.19.05-.05.1-.1.15-.14.06-.06.12-.11.18-.17.05-.05.11-.09.16-.14.06-.05.12-.1.18-.16.06-.04.11-.09.17-.13.06-.05.13-.1.19-.14.06-.04.12-.08.17-.12.06-.04.13-.09.2-.13.06-.04.12-.08.18-.11.07-.04.13-.08.2-.12.06-.03.12-.07.19-.1.07-.04.14-.07.21-.11.06-.03.13-.06.19-.09.07-.03.14-.07.22-.1.06-.03.13-.06.19-.08.07-.03.15-.06.22-.09.07-.02.13-.05.2-.07.05-.02.1-.03.15-.05-.81.76-1.49,1.88-1.97,3.23-.63-.23-1.21-.49-1.73-.81,0,0,.02-.02.03-.03Zm9.05-2.26c.08.03.15.06.23.09.06.03.13.05.19.08.07.03.15.06.22.1.06.03.12.06.19.09.07.04.14.07.21.11.06.03.12.07.18.1.07.04.14.08.21.12.06.04.12.07.18.11.07.04.13.09.2.13.06.04.11.08.17.12.07.05.13.1.2.15.05.04.11.08.16.13.06.05.13.11.19.16.05.04.1.09.16.14.06.06.12.11.18.17.05.05.1.09.15.14.06.06.12.12.18.19.05.05.09.1.14.15,0,0,.02.02.03.03-.51.32-1.1.59-1.73.81-.48-1.35-1.16-2.46-1.96-3.22.05.02.1.03.15.05.06.02.13.05.19.07Zm-2.51,4.55c1.3-.03,2.55-.22,3.68-.54.29,1.03.47,2.19.49,3.42h-4.17v-2.87Zm0-.72v-4.32c1.45.21,2.71,1.68,3.46,3.81-1.06.31-2.23.48-3.46.51Zm-.72,0c-1.23-.03-2.4-.2-3.46-.51.75-2.13,2.01-3.6,3.46-3.81v4.32Zm0,.72v2.87h-4.17c.03-1.23.2-2.38.49-3.42,1.13.33,2.38.51,3.68.54Zm0,3.59v2.87c-1.3.03-2.55.21-3.68.54-.29-1.03-.47-2.19-.49-3.42h4.17Zm0,3.59v4.32c-1.45-.21-2.71-1.68-3.46-3.81,1.06-.31,2.23-.48,3.46-.51Zm.72,0c1.23.03,2.4.2,3.46.51-.75,2.13-2.01,3.6-3.46,3.8v-4.32Zm0-.72v-2.87h4.17c-.03,1.23-.2,2.38-.49,3.42-1.13-.33-2.38-.51-3.68-.54Zm4.89-2.87h3.03c-.07,1.67-.63,3.24-1.62,4.57-.58-.37-1.23-.69-1.95-.95.32-1.1.51-2.33.54-3.63Zm0-.72c-.03-1.3-.22-2.53-.54-3.63.72-.26,1.37-.58,1.95-.95.98,1.33,1.55,2.92,1.62,4.57h-3.03Zm-9.95-3.63c-.32,1.1-.51,2.33-.54,3.63h-3.03c.07-1.65.64-3.25,1.62-4.57.58.37,1.23.69,1.95.95Zm-.54,4.34c.03,1.3.22,2.53.54,3.63-.72.26-1.37.58-1.95.95-1-1.34-1.55-2.91-1.62-4.57h3.03Z"/>
      <path class="cls-2" d="m33.1,12.13l-2.4,2.4c-.11.11-.29.11-.4,0l-2.4-2.4c-.18-.18-.05-.48.2-.48h4.81c.25,0,.38.31.2.48Z"/>
    </g>
  </g>
</svg>