<?xml version="1.0" encoding="UTF-8"?><svg id="Layer_2" xmlns="http://www.w3.org/2000/svg" viewBox="0 0 97.63 139.7">
<g id="Layer_1-2">
<path d="M59.52.5h-21.4L.5,38.11v63.48l37.62,37.61h21.4l37.61-37.61v-63.48L59.52.5ZM85.57,98.78c0,6.6-5.4,12-12,12H24.06c-6.6,0-12-5.4-12-12v-21.48c0-6.6,5.4-12,12-12h49.51c6.6,0,12,5.4,12,12v21.48Z" style="fill:#fff; stroke:#231f20; stroke-miterlimit:10;"/>
<rect x="12.06" y="65.3" width="73.51" height="45.48" rx="12" ry="12" style="fill:#fff; stroke-width:0px;"/>
<rect x="12.06" y="65.3" width="73.51" height="45.48" rx="12" ry="12" style="fill:#fff; stroke:#231f20; stroke-miterlimit:10;"/>
<path d="M38.12.5L.5,38.11V12.5C.5,5.9,5.9.5,12.5.5h25.62Z" style="fill:#00aeef; stroke:#231f20; stroke-miterlimit:10;"/>
<path d="M97.13,12.5v25.61L59.52.5h25.61c6.6,0,12,5.4,12,12Z" style="fill:#ec008c; stroke:#231f20; stroke-miterlimit:10;"/>
<path d="M97.13,101.59v25.61c0,6.6-5.4,12-12,12h-25.61l37.61-37.61Z" style="fill:#00a651; stroke:#231f20; stroke-miterlimit:10;"/>
<path d="M38.12,139.2H12.5c-6.6,0-12-5.4-12-12v-25.61l37.62,37.61Z" style="fill:#ef4136; stroke:#231f20; stroke-miterlimit:10;"/>
</g></svg>