<?xml version="1.0" encoding="UTF-8"?><svg id="a" xmlns="http://www.w3.org/2000/svg" viewBox="0 0 447.03 114.218"><rect x="53.521" y="25.22" width="388.166" height="71.781" rx="32.211" ry="32.211" fill="#37abc8"/><path d="m411.033,102.011H84.174c-19.85,0-36-15.14-36-33.75v-14.304c0-18.61,16.15-33.75,36-33.75h326.859c19.848,0,35.997,15.14,35.997,33.75v14.304c0,18.61-16.15,33.75-35.997,33.75ZM84.174,30.229c-13.955,0-25.31,10.643-25.31,23.728v14.304c0,13.085,11.355,23.728,25.31,23.728h326.859c13.955,0,25.307-10.643,25.307-23.728v-14.304c0-13.085-11.353-23.728-25.307-23.728H84.174Z" fill="#ffda61"/><circle cx="57.109" cy="57.109" r="50.957" fill="#37abc8"/><path d="m57.109,0C25.571,0,0,25.58,0,57.109s25.571,57.109,57.109,57.109,57.109-25.562,57.109-57.109S88.647,0,57.109,0Zm0,103.165c-25.453,0-46.056-20.594-46.056-46.056S31.657,11.053,57.109,11.053s46.056,20.603,46.056,46.056-20.594,46.056-46.056,46.056Z" fill="#ffda61"/><path d="m138.11,52.73v-3.182c0-1.446-.707-2.169-2.12-2.169h-.756c-1.381,0-2.071.723-2.071,2.169v6.009c0,.674.136,1.128.403,1.362.271.236.707.54,1.315.91l4.594,2.473c1.011.573,1.726,1.019,2.145,1.337.423.32.748.707.986,1.163.234.454.353,1.321.353,2.599v7.724c0,4.074-1.952,6.11-5.859,6.11h-2.979c-3.87,0-5.806-2.221-5.806-6.664v-1.818h4.848v1.97c0,1.413.723,2.12,2.169,2.12h.859c1.278,0,1.919-.707,1.919-2.12v-6.161c0-.672-.136-1.126-.403-1.362-.271-.236-.707-.538-1.315-.908l-4.594-2.576c-1.011-.538-1.742-.992-2.194-1.362-.456-.372-.785-.851-.986-1.44-.201-.588-.304-1.354-.304-2.297v-7.422c0-4.14,1.935-6.21,5.806-6.21h3.032c3.87,0,5.806,2.071,5.806,6.21v3.536h-4.848Z" fill="#fff"/><path d="m146.997,79.235v-36.251h12.014v4.394h-7.17v11.005h6.364v4.392h-6.364v12.067h7.17v4.392h-12.014Z" fill="#fff"/><path d="m172.545,60.503v-17.52h4.844v36.251h-4.844v-7.219l-5.202-16.511v23.73h-4.848v-36.251h4.848l5.202,17.52Z" fill="#fff"/><path d="m191.223,52.73v-3.182c0-1.446-.707-2.169-2.12-2.169h-.756c-1.381,0-2.071.723-2.071,2.169v6.009c0,.674.136,1.128.403,1.362.271.236.707.54,1.315.91l4.594,2.473c1.011.573,1.726,1.019,2.145,1.337.423.32.748.707.986,1.163.234.454.353,1.321.353,2.599v7.724c0,4.074-1.952,6.11-5.859,6.11h-2.979c-3.87,0-5.806-2.221-5.806-6.664v-1.818h4.848v1.97c0,1.413.723,2.12,2.169,2.12h.859c1.278,0,1.919-.707,1.919-2.12v-6.161c0-.672-.136-1.126-.403-1.362-.271-.236-.707-.538-1.315-.908l-4.594-2.576c-1.011-.538-1.742-.992-2.194-1.362-.456-.372-.785-.851-.986-1.44-.201-.588-.304-1.354-.304-2.297v-7.422c0-4.14,1.935-6.21,5.806-6.21h3.032c3.87,0,5.806,2.071,5.806,6.21v3.536h-4.848Z" fill="#fff"/><path d="m205.715,79.235c-3.907,0-5.859-2.052-5.859-6.159v-23.882c0-4.14,1.935-6.21,5.806-6.21h4.647c3.87,0,5.806,2.071,5.806,6.21v23.882c0,4.107-1.952,6.159-5.855,6.159h-4.544Zm1.159-4.392h2.473c1.282,0,1.919-.707,1.919-2.12v-23.224c0-1.413-.723-2.12-2.169-2.12h-2.272c-1.413,0-2.12.707-2.12,2.12v23.224c0,1.413.723,2.12,2.169,2.12Z" fill="#fff"/><path d="m220.403,42.984h9.491c3.702,0,5.555,2.071,5.555,6.21v8.936c0,3.164-.957,5.167-2.876,6.009l3.381,15.095h-4.594l-3.18-14.641h-2.93v14.641h-4.848v-36.251Zm4.848,17.47h3.18c1.446,0,2.169-.875,2.169-2.625v-7.827c0-1.748-.723-2.623-2.169-2.623h-3.18v13.076Z" fill="#fff"/><path d="m247.566,79.235v-36.251h8.431c4.544,0,6.816,2.323,6.816,6.968v24.032c0,3.501-1.935,5.251-5.806,5.251h-9.442Zm4.844-4.392h3.636c1.278,0,1.919-.538,1.919-1.617v-23.224c0-1.748-.723-2.623-2.169-2.623h-3.386v27.465Z" fill="#fff"/><path d="m271.696,79.235h-4.844v-30.041c0-4.14,1.935-6.21,5.806-6.21h3.636c3.87,0,5.806,2.071,5.806,6.21v30.041h-4.848v-13.277h-5.555v13.277Zm5.555-17.672v-12.065c0-1.413-.707-2.12-2.12-2.12h-1.311c-1.418,0-2.124.707-2.124,2.12v12.065h5.555Z" fill="#fff"/><path d="m295.679,52.73v-3.182c0-1.446-.707-2.169-2.12-2.169h-.756c-1.381,0-2.071.723-2.071,2.169v6.009c0,.674.136,1.128.403,1.362.271.236.707.54,1.315.91l4.594,2.473c1.011.573,1.726,1.019,2.145,1.337.423.32.748.707.986,1.163.234.454.353,1.321.353,2.599v7.724c0,4.074-1.952,6.11-5.859,6.11h-2.979c-3.87,0-5.806-2.221-5.806-6.664v-1.818h4.848v1.97c0,1.413.723,2.12,2.169,2.12h.859c1.278,0,1.919-.707,1.919-2.12v-6.161c0-.672-.136-1.126-.403-1.362-.271-.236-.707-.538-1.315-.908l-4.594-2.576c-1.011-.538-1.742-.992-2.194-1.362-.456-.372-.785-.851-.986-1.44-.201-.588-.304-1.354-.304-2.297v-7.422c0-4.14,1.935-6.21,5.806-6.21h3.032c3.87,0,5.806,2.071,5.806,6.21v3.536h-4.848Z" fill="#fff"/><path d="m315.368,79.235v-16.459h-5.958v16.459h-4.844v-36.251h4.844v15.399h5.958v-15.399h4.848v36.251h-4.848Z" fill="#fff"/><path d="m336.018,60.604c2.658.742,3.99,2.122,3.99,4.142v9.086c0,3.603-1.837,5.403-5.506,5.403h-9.742v-36.251h8.279c4.306,0,6.463,2.19,6.463,6.564v6.968c0,2.087-1.163,3.365-3.484,3.838v.251Zm-6.414-2.321h2.272c1.853,0,2.777-.875,2.777-2.625v-5.656c0-1.748-.723-2.623-2.169-2.623h-2.88v10.905Zm0,16.56h3.636c1.278,0,1.919-.522,1.919-1.565v-8.028c0-1.715-.957-2.574-2.876-2.574h-2.679v12.168Z" fill="#fff"/><path d="m349.651,79.235c-3.907,0-5.859-2.052-5.859-6.159v-23.882c0-4.14,1.935-6.21,5.806-6.21h4.647c3.87,0,5.806,2.071,5.806,6.21v23.882c0,4.107-1.952,6.159-5.855,6.159h-4.544Zm1.159-4.392h2.473c1.282,0,1.919-.707,1.919-2.12v-23.224c0-1.413-.723-2.12-2.169-2.12h-2.272c-1.413,0-2.12.707-2.12,2.12v23.224c0,1.413.723,2.12,2.169,2.12Z" fill="#fff"/><path d="m368.933,79.235h-4.844v-30.041c0-4.14,1.935-6.21,5.806-6.21h3.636c3.87,0,5.806,2.071,5.806,6.21v30.041h-4.848v-13.277h-5.555v13.277Zm5.555-17.672v-12.065c0-1.413-.707-2.12-2.12-2.12h-1.311c-1.418,0-2.124.707-2.124,2.12v12.065h5.555Z" fill="#fff"/><path d="m383.626,42.984h9.491c3.702,0,5.555,2.071,5.555,6.21v8.936c0,3.164-.957,5.167-2.876,6.009l3.381,15.095h-4.594l-3.18-14.641h-2.93v14.641h-4.848v-36.251Zm4.848,17.47h3.18c1.446,0,2.169-.875,2.169-2.625v-7.827c0-1.748-.723-2.623-2.169-2.623h-3.18v13.076Z" fill="#fff"/><path d="m402.711,79.235v-36.251h8.431c4.544,0,6.816,2.323,6.816,6.968v24.032c0,3.501-1.935,5.251-5.806,5.251h-9.442Zm4.844-4.392h3.636c1.278,0,1.919-.538,1.919-1.617v-23.224c0-1.748-.723-2.623-2.169-2.623h-3.386v27.465Z" fill="#fff"/><path d="m88.587,73.875c.804,0,1.462.658,1.462,1.462v4.873c0,.804-.658,1.462-1.462,1.462H29.142c-.804,0-1.462-.658-1.462-1.462v-43.853c0-.804.658-1.462,1.462-1.462h4.873c.804,0,1.462.658,1.462,1.462v37.519h53.111Zm-15.507-27.347l-10.318,6.882-10.391-13.85c-.621-.828-1.888-.767-2.424.122l-10.573,17.626v12.669h46.776l-10.951-22.877c-.39-.792-1.389-1.06-2.12-.573Z" fill="#fff"/></svg>