<?xml version="1.0" encoding="UTF-8"?>
<svg id="Layer_2" data-name="Layer 2" xmlns="http://www.w3.org/2000/svg" viewBox="0 0 32 32">
  <defs>
    <style>
      .cls-1 {
        fill: #fff;
      }

      .cls-1, .cls-2 {
        stroke-width: 0px;
      }

      .cls-2 {
        fill: #35abc7;
      }
    </style>
  </defs>
  <g id="Layer_1-2" data-name="Layer 1">
    <g>
      <rect class="cls-1" width="32" height="32" rx="4.43" ry="4.43"/>
      <path class="cls-2" d="M26.59,6.97c-1.38,0-2.5,1.12-2.5,2.49,0,.52.15,1,.44,1.41l-3.51,5.19c-.61-.14-1.22-.05-1.77.25l-2.54-2.1c.09-.25.13-.52.13-.79,0-1.37-1.12-2.49-2.5-2.49s-2.49,1.12-2.49,2.49c0,.42.11.83.31,1.2l-3.12,3.7c-.26-.09-.54-.14-.81-.14-1.37,0-2.49,1.12-2.49,2.49s1.12,2.49,2.49,2.49,2.5-1.12,2.5-2.49c0-.42-.1-.82-.3-1.19l3.12-3.7c.63.23,1.38.16,2.01-.18l2.54,2.1c-.09.25-.13.52-.13.79,0,1.37,1.12,2.49,2.49,2.49s2.5-1.12,2.5-2.49c0-.52-.16-1.01-.45-1.41l3.52-5.19c.19.04.38.07.56.07,1.37,0,2.49-1.12,2.49-2.49s-1.12-2.49-2.49-2.49ZM20.61,19.15s-.06,0-.1.01h-.05c-.35,0-.65-.27-.68-.6v-.08c0-.38.31-.68.68-.68.33,0,.62.23.68.5,0,.03,0,.07,0,.11,0,.02,0,.05,0,.08,0,.31-.23.59-.54.67ZM27.27,9.46c0,.32-.24.61-.57.67h-.01s-.06,0-.1,0c-.33,0-.61-.22-.68-.5,0-.03,0-.07,0-.11,0-.02,0-.05,0-.08,0-.38.31-.68.69-.68s.68.31.68.68ZM8.91,20.66c0,.38-.31.68-.69.68s-.68-.3-.68-.68c0-.35.28-.65.62-.68h.07c.35,0,.66.27.69.59v.09ZM13.66,13.42c0-.38.3-.68.68-.68s.67.27.69.6v.08c0,.35-.27.64-.61.67h-.08c-.35.01-.65-.26-.68-.59v-.08Z"/>
      <path class="cls-2" d="M27.06,29.54H5.32c-1.58,0-2.86-1.28-2.86-2.86V4.94c0-.55.45-1,1-1s1,.45,1,1v21.75c0,.47.39.86.86.86h21.75c.55,0,1,.45,1,1s-.45,1-1,1Z"/>
    </g>
  </g>
</svg>