<?xml version="1.0" encoding="UTF-8"?>
<svg id="Layer_2" data-name="Layer 2" xmlns="http://www.w3.org/2000/svg" width="94" height="26" viewBox="0 0 122.01 26.39">
  <defs>
    <style>
      .cls-1 {
        fill: #35abc7;
        stroke: #133c46;
        stroke-miterlimit: 10;
      }

      .cls-2 {
        fill: #fff;
        stroke-width: 0px;
      }
    </style>
  </defs>
  <g id="Layer_1-2" data-name="Layer 1">
    <g>
      <rect class="cls-1" x=".5" y=".5" width="121.01" height="25.39" rx="5.67" ry="5.67"/>
      <g>
        <path class="cls-2" d="m38.21,10.58v-.88c0-.4-.2-.6-.59-.6h-.21c-.38,0-.57.2-.57.6v1.67c0,.19.04.31.11.38.08.07.2.15.36.25l1.27.69c.28.16.48.28.59.37.12.09.21.2.27.32.06.13.1.37.1.72v2.14c0,1.13-.54,1.69-1.62,1.69h-.83c-1.07,0-1.61-.62-1.61-1.85v-.5h1.34v.55c0,.39.2.59.6.59h.24c.35,0,.53-.2.53-.59v-1.71c0-.19-.04-.31-.11-.38-.08-.06-.2-.15-.36-.25l-1.27-.71c-.28-.15-.48-.28-.61-.38s-.22-.24-.27-.4c-.06-.16-.08-.38-.08-.64v-2.06c0-1.15.54-1.72,1.61-1.72h.84c1.07,0,1.61.57,1.61,1.72v.98h-1.34Z"/>
        <path class="cls-2" d="m40.67,17.93V7.87h3.33v1.22h-1.99v3.05h1.76v1.22h-1.76v3.35h1.99v1.22h-3.33Z"/>
        <path class="cls-2" d="m47.75,12.73v-4.86h1.34v10.05h-1.34v-2l-1.44-4.58v6.58h-1.34V7.87h1.34l1.44,4.86Z"/>
        <path class="cls-2" d="m52.93,10.58v-.88c0-.4-.2-.6-.59-.6h-.21c-.38,0-.57.2-.57.6v1.67c0,.19.04.31.11.38.08.07.2.15.36.25l1.27.69c.28.16.48.28.59.37.12.09.21.2.27.32.06.13.1.37.1.72v2.14c0,1.13-.54,1.69-1.62,1.69h-.83c-1.07,0-1.61-.62-1.61-1.85v-.5h1.34v.55c0,.39.2.59.6.59h.24c.35,0,.53-.2.53-.59v-1.71c0-.19-.04-.31-.11-.38-.08-.06-.2-.15-.36-.25l-1.27-.71c-.28-.15-.48-.28-.61-.38s-.22-.24-.27-.4c-.06-.16-.08-.38-.08-.64v-2.06c0-1.15.54-1.72,1.61-1.72h.84c1.07,0,1.61.57,1.61,1.72v.98h-1.34Z"/>
        <path class="cls-2" d="m56.95,17.93c-1.08,0-1.62-.57-1.62-1.71v-6.62c0-1.15.54-1.72,1.61-1.72h1.29c1.07,0,1.61.57,1.61,1.72v6.62c0,1.14-.54,1.71-1.62,1.71h-1.26Zm.32-1.22h.69c.35,0,.53-.2.53-.59v-6.44c0-.39-.2-.59-.6-.59h-.63c-.39,0-.59.2-.59.59v6.44c0,.39.2.59.6.59Z"/>
        <path class="cls-2" d="m61.02,7.87h2.63c1.03,0,1.54.57,1.54,1.72v2.48c0,.88-.27,1.43-.8,1.67l.94,4.19h-1.27l-.88-4.06h-.81v4.06h-1.34V7.87Zm1.34,4.84h.88c.4,0,.6-.24.6-.73v-2.17c0-.49-.2-.73-.6-.73h-.88v3.63Z"/>
        <path class="cls-2" d="m68.56,17.93V7.87h2.34c1.26,0,1.89.64,1.89,1.93v6.66c0,.97-.54,1.46-1.61,1.46h-2.62Zm1.34-1.22h1.01c.35,0,.53-.15.53-.45v-6.44c0-.49-.2-.73-.6-.73h-.94v7.62Z"/>
        <path class="cls-2" d="m75.25,17.93h-1.34v-8.33c0-1.15.54-1.72,1.61-1.72h1.01c1.07,0,1.61.57,1.61,1.72v8.33h-1.34v-3.68h-1.54v3.68Zm1.54-4.9v-3.35c0-.39-.2-.59-.59-.59h-.36c-.39,0-.59.2-.59.59v3.35h1.54Z"/>
        <path class="cls-2" d="m81.9,10.58v-.88c0-.4-.2-.6-.59-.6h-.21c-.38,0-.57.2-.57.6v1.67c0,.19.04.31.11.38.07.07.2.15.36.25l1.27.69c.28.16.48.28.6.37.12.09.21.2.27.32s.1.37.1.72v2.14c0,1.13-.54,1.69-1.62,1.69h-.83c-1.07,0-1.61-.62-1.61-1.85v-.5h1.34v.55c0,.39.2.59.6.59h.24c.36,0,.53-.2.53-.59v-1.71c0-.19-.04-.31-.11-.38-.08-.06-.2-.15-.36-.25l-1.27-.71c-.28-.15-.48-.28-.61-.38s-.22-.24-.27-.4c-.06-.16-.08-.38-.08-.64v-2.06c0-1.15.54-1.72,1.61-1.72h.84c1.07,0,1.61.57,1.61,1.72v.98h-1.34Z"/>
        <path class="cls-2" d="m87.36,17.93v-4.56h-1.65v4.56h-1.34V7.87h1.34v4.27h1.65v-4.27h1.34v10.05h-1.34Z"/>
        <path class="cls-2" d="m93.08,12.76c.74.21,1.11.59,1.11,1.15v2.52c0,1-.51,1.5-1.53,1.5h-2.7V7.87h2.3c1.2,0,1.79.61,1.79,1.82v1.93c0,.58-.32.93-.97,1.06v.07Zm-1.78-.64h.63c.51,0,.77-.24.77-.73v-1.57c0-.49-.2-.73-.6-.73h-.8v3.02Zm0,4.59h1.01c.35,0,.53-.15.53-.43v-2.23c0-.48-.27-.71-.8-.71h-.74v3.37Z"/>
        <path class="cls-2" d="m96.86,17.93c-1.08,0-1.62-.57-1.62-1.71v-6.62c0-1.15.54-1.72,1.61-1.72h1.29c1.07,0,1.61.57,1.61,1.72v6.62c0,1.14-.54,1.71-1.62,1.71h-1.26Zm.32-1.22h.69c.35,0,.53-.2.53-.59v-6.44c0-.39-.2-.59-.6-.59h-.63c-.39,0-.59.2-.59.59v6.44c0,.39.2.59.6.59Z"/>
        <path class="cls-2" d="m102.21,17.93h-1.34v-8.33c0-1.15.54-1.72,1.61-1.72h1.01c1.07,0,1.61.57,1.61,1.72v8.33h-1.34v-3.68h-1.54v3.68Zm1.54-4.9v-3.35c0-.39-.2-.59-.59-.59h-.36c-.39,0-.59.2-.59.59v3.35h1.54Z"/>
        <path class="cls-2" d="m106.29,7.87h2.63c1.03,0,1.54.57,1.54,1.72v2.48c0,.88-.27,1.43-.8,1.67l.94,4.19h-1.27l-.88-4.06h-.81v4.06h-1.34V7.87Zm1.34,4.84h.88c.4,0,.6-.24.6-.73v-2.17c0-.49-.2-.73-.6-.73h-.88v3.63Z"/>
        <path class="cls-2" d="m111.58,17.93V7.87h2.34c1.26,0,1.89.64,1.89,1.93v6.66c0,.97-.54,1.46-1.61,1.46h-2.62Zm1.34-1.22h1.01c.35,0,.53-.15.53-.45v-6.44c0-.49-.2-.73-.6-.73h-.94v7.62Z"/>
      </g>
      <path class="cls-2" d="m31.92,21.59H6.9v-3.86l4.78-6.85,4.24,7.11c.08.14.23.22.38.22,0,0,.01,0,.02,0,.17,0,.31-.11.38-.26l5.83-12.4,1.06,1.86c.07.12.19.2.32.22.14.02.27-.02.37-.12l1.29-1.22,6.04,11.5c.09.17.3.24.47.15.17-.09.24-.3.15-.47l-6.2-11.79c-.06-.12-.19-.21-.32-.23-.14-.02-.28.02-.38.12l-1.3,1.23-1.14-2c-.08-.15-.24-.23-.41-.23-.17,0-.32.1-.39.26l-5.83,12.41-4.2-7.04c-.08-.13-.22-.21-.37-.22-.16,0-.29.07-.38.19l-4.43,6.35V4.47c0-.19-.16-.35-.35-.35s-.35.16-.35.35v17.82h25.71c.19,0,.35-.16.35-.35s-.16-.35-.35-.35Z"/>
    </g>
  </g>
</svg>