<?xml version="1.0" encoding="UTF-8"?>
<svg id="Layer_2" data-name="Layer 2" xmlns="http://www.w3.org/2000/svg" viewBox="0 0 38.46 26.39">
  <defs>
    <style>
      .cls-1 {
        fill: #35abc7;
        stroke: #133c46;
        stroke-miterlimit: 10;
      }

      .cls-2 {
        fill: #fff;
        stroke-width: 0px;
      }
    </style>
  </defs>
  <g id="Layer_1-2" data-name="Layer 1">
    <g>
      <rect class="cls-1" x=".5" y=".5" width="37.46" height="25.39" rx="5.67" ry="5.67"/>
      <path class="cls-2" d="m31.92,21.59H6.9v-3.86l4.78-6.85,4.24,7.11c.08.14.23.22.38.22,0,0,.01,0,.02,0,.17,0,.31-.11.38-.26l5.83-12.4,1.06,1.86c.07.12.19.2.32.22.14.02.27-.02.37-.12l1.29-1.22,6.04,11.5c.09.17.3.24.47.15.17-.09.24-.3.15-.47l-6.2-11.79c-.06-.12-.19-.21-.32-.23-.14-.02-.28.02-.38.12l-1.3,1.23-1.14-2c-.08-.15-.24-.23-.41-.23-.17,0-.32.1-.39.26l-5.83,12.41-4.2-7.04c-.08-.13-.22-.21-.37-.22-.16,0-.29.07-.38.19l-4.43,6.35V4.47c0-.19-.16-.35-.35-.35s-.35.16-.35.35v17.82h25.71c.19,0,.35-.16.35-.35s-.16-.35-.35-.35Z"/>
    </g>
  </g>
</svg>