<?xml version="1.0" encoding="UTF-8"?>
<svg id="Layer_2" data-name="Layer 2" xmlns="http://www.w3.org/2000/svg" viewBox="0 0 26.22 18.16">
  <defs>
    <style>
      .cls-1 {
        fill: #fff;
        stroke-width: 0px;
      }
    </style>
  </defs>
  <g id="Layer_1-2" data-name="Layer 1">
    <path class="cls-1" d="M26.22,18.28c0,.28-.23.5-.5.5H0V.5C0,.23.23,0,.5,0s.5.23.5.5v17.28h2.72v-4.64c0-.16.13-.28.28-.28h2.76c.15,0,.28.12.28.28v4.64h1.87V1.39c0-.15.12-.28.28-.28h2.75c.16,0,.28.13.28.28v16.39h1.87V4.46c0-.16.13-.28.29-.28h2.75c.15,0,.28.12.28.28v13.32h1.87v-6.62c0-.16.12-.28.28-.28h2.75c.16,0,.29.12.29.28v6.62h3.12c.27,0,.5.22.5.5Z"/>
  </g>
</svg>